G04*
G04 #@! TF.GenerationSoftware,Altium Limited,Altium Designer,25.6.2 (33)*
G04*
G04 Layer_Color=8388736*
%FSLAX44Y44*%
%MOMM*%
G71*
G04*
G04 #@! TF.SameCoordinates,67F29E5E-D6A8-495D-80EC-A85DB6184C2A*
G04*
G04*
G04 #@! TF.FilePolarity,Negative*
G04*
G01*
G75*
%ADD26R,3.1000X5.1600*%
%ADD90R,1.0200X0.6900*%
%ADD101R,1.3000X1.6500*%
%ADD102O,0.8636X3.0226*%
G04:AMPARAMS|DCode=103|XSize=0.6096mm|YSize=0.6096mm|CornerRadius=0.2032mm|HoleSize=0mm|Usage=FLASHONLY|Rotation=90.000|XOffset=0mm|YOffset=0mm|HoleType=Round|Shape=RoundedRectangle|*
%AMROUNDEDRECTD103*
21,1,0.6096,0.2032,0,0,90.0*
21,1,0.2032,0.6096,0,0,90.0*
1,1,0.4064,0.1016,0.1016*
1,1,0.4064,0.1016,-0.1016*
1,1,0.4064,-0.1016,-0.1016*
1,1,0.4064,-0.1016,0.1016*
%
%ADD103ROUNDEDRECTD103*%
G04:AMPARAMS|DCode=104|XSize=1.4986mm|YSize=1.1938mm|CornerRadius=0.2529mm|HoleSize=0mm|Usage=FLASHONLY|Rotation=270.000|XOffset=0mm|YOffset=0mm|HoleType=Round|Shape=RoundedRectangle|*
%AMROUNDEDRECTD104*
21,1,1.4986,0.6881,0,0,270.0*
21,1,0.9929,1.1938,0,0,270.0*
1,1,0.5057,-0.3440,-0.4964*
1,1,0.5057,-0.3440,0.4964*
1,1,0.5057,0.3440,0.4964*
1,1,0.5057,0.3440,-0.4964*
%
%ADD104ROUNDEDRECTD104*%
G04:AMPARAMS|DCode=105|XSize=0.9906mm|YSize=0.9652mm|CornerRadius=0.2019mm|HoleSize=0mm|Usage=FLASHONLY|Rotation=90.000|XOffset=0mm|YOffset=0mm|HoleType=Round|Shape=RoundedRectangle|*
%AMROUNDEDRECTD105*
21,1,0.9906,0.5613,0,0,90.0*
21,1,0.5867,0.9652,0,0,90.0*
1,1,0.4039,0.2807,0.2934*
1,1,0.4039,0.2807,-0.2934*
1,1,0.4039,-0.2807,-0.2934*
1,1,0.4039,-0.2807,0.2934*
%
%ADD105ROUNDEDRECTD105*%
G04:AMPARAMS|DCode=106|XSize=0.38mm|YSize=0.74mm|CornerRadius=0.1192mm|HoleSize=0mm|Usage=FLASHONLY|Rotation=180.000|XOffset=0mm|YOffset=0mm|HoleType=Round|Shape=RoundedRectangle|*
%AMROUNDEDRECTD106*
21,1,0.3800,0.5016,0,0,180.0*
21,1,0.1416,0.7400,0,0,180.0*
1,1,0.2384,-0.0708,0.2508*
1,1,0.2384,0.0708,0.2508*
1,1,0.2384,0.0708,-0.2508*
1,1,0.2384,-0.0708,-0.2508*
%
%ADD106ROUNDEDRECTD106*%
G04:AMPARAMS|DCode=107|XSize=0.6096mm|YSize=0.6096mm|CornerRadius=0.2032mm|HoleSize=0mm|Usage=FLASHONLY|Rotation=0.000|XOffset=0mm|YOffset=0mm|HoleType=Round|Shape=RoundedRectangle|*
%AMROUNDEDRECTD107*
21,1,0.6096,0.2032,0,0,0.0*
21,1,0.2032,0.6096,0,0,0.0*
1,1,0.4064,0.1016,-0.1016*
1,1,0.4064,-0.1016,-0.1016*
1,1,0.4064,-0.1016,0.1016*
1,1,0.4064,0.1016,0.1016*
%
%ADD107ROUNDEDRECTD107*%
G04:AMPARAMS|DCode=108|XSize=1.1016mm|YSize=0.9016mm|CornerRadius=0.2508mm|HoleSize=0mm|Usage=FLASHONLY|Rotation=90.000|XOffset=0mm|YOffset=0mm|HoleType=Round|Shape=RoundedRectangle|*
%AMROUNDEDRECTD108*
21,1,1.1016,0.4000,0,0,90.0*
21,1,0.6000,0.9016,0,0,90.0*
1,1,0.5016,0.2000,0.3000*
1,1,0.5016,0.2000,-0.3000*
1,1,0.5016,-0.2000,-0.3000*
1,1,0.5016,-0.2000,0.3000*
%
%ADD108ROUNDEDRECTD108*%
G04:AMPARAMS|DCode=109|XSize=1.1016mm|YSize=0.9016mm|CornerRadius=0.2508mm|HoleSize=0mm|Usage=FLASHONLY|Rotation=180.000|XOffset=0mm|YOffset=0mm|HoleType=Round|Shape=RoundedRectangle|*
%AMROUNDEDRECTD109*
21,1,1.1016,0.4000,0,0,180.0*
21,1,0.6000,0.9016,0,0,180.0*
1,1,0.5016,-0.3000,0.2000*
1,1,0.5016,0.3000,0.2000*
1,1,0.5016,0.3000,-0.2000*
1,1,0.5016,-0.3000,-0.2000*
%
%ADD109ROUNDEDRECTD109*%
%ADD110R,1.1900X0.7400*%
%ADD111R,1.5400X2.8900*%
%ADD112R,2.8900X1.5400*%
G04:AMPARAMS|DCode=113|XSize=2.32mm|YSize=1.76mm|CornerRadius=0.475mm|HoleSize=0mm|Usage=FLASHONLY|Rotation=90.000|XOffset=0mm|YOffset=0mm|HoleType=Round|Shape=RoundedRectangle|*
%AMROUNDEDRECTD113*
21,1,2.3200,0.8100,0,0,90.0*
21,1,1.3700,1.7600,0,0,90.0*
1,1,0.9500,0.4050,0.6850*
1,1,0.9500,0.4050,-0.6850*
1,1,0.9500,-0.4050,-0.6850*
1,1,0.9500,-0.4050,0.6850*
%
%ADD113ROUNDEDRECTD113*%
G04:AMPARAMS|DCode=114|XSize=2.54mm|YSize=1.79mm|CornerRadius=0.1113mm|HoleSize=0mm|Usage=FLASHONLY|Rotation=180.000|XOffset=0mm|YOffset=0mm|HoleType=Round|Shape=RoundedRectangle|*
%AMROUNDEDRECTD114*
21,1,2.5400,1.5675,0,0,180.0*
21,1,2.3175,1.7900,0,0,180.0*
1,1,0.2225,-1.1588,0.7838*
1,1,0.2225,1.1588,0.7838*
1,1,0.2225,1.1588,-0.7838*
1,1,0.2225,-1.1588,-0.7838*
%
%ADD114ROUNDEDRECTD114*%
%ADD115C,0.5516*%
G04:AMPARAMS|DCode=116|XSize=1.905mm|YSize=1.2954mm|CornerRadius=0.2537mm|HoleSize=0mm|Usage=FLASHONLY|Rotation=0.000|XOffset=0mm|YOffset=0mm|HoleType=Round|Shape=RoundedRectangle|*
%AMROUNDEDRECTD116*
21,1,1.9050,0.7879,0,0,0.0*
21,1,1.3975,1.2954,0,0,0.0*
1,1,0.5075,0.6988,-0.3940*
1,1,0.5075,-0.6988,-0.3940*
1,1,0.5075,-0.6988,0.3940*
1,1,0.5075,0.6988,0.3940*
%
%ADD116ROUNDEDRECTD116*%
%ADD117R,2.4400X2.9400*%
%ADD118R,2.7000X1.9600*%
%ADD119C,2.2990*%
%ADD120R,0.3800X0.6300*%
G04:AMPARAMS|DCode=121|XSize=1.905mm|YSize=1.2954mm|CornerRadius=0.2537mm|HoleSize=0mm|Usage=FLASHONLY|Rotation=90.000|XOffset=0mm|YOffset=0mm|HoleType=Round|Shape=RoundedRectangle|*
%AMROUNDEDRECTD121*
21,1,1.9050,0.7879,0,0,90.0*
21,1,1.3975,1.2954,0,0,90.0*
1,1,0.5075,0.3940,0.6988*
1,1,0.5075,0.3940,-0.6988*
1,1,0.5075,-0.3940,-0.6988*
1,1,0.5075,-0.3940,0.6988*
%
%ADD121ROUNDEDRECTD121*%
%ADD122C,0.5500*%
%ADD123O,0.3700X0.9400*%
%ADD124R,2.9400X2.4400*%
%ADD125O,0.9400X0.3700*%
%ADD126R,1.0016X0.5516*%
%ADD127R,1.7400X1.8400*%
%ADD128R,1.0900X0.7400*%
%ADD129R,0.7400X1.0900*%
%ADD130R,3.2000X2.3000*%
%ADD131R,7.5400X7.5400*%
%ADD132R,0.6990X2.4390*%
%ADD133O,0.7400X1.6900*%
G04:AMPARAMS|DCode=134|XSize=2.4mm|YSize=2.3mm|CornerRadius=0.61mm|HoleSize=0mm|Usage=FLASHONLY|Rotation=0.000|XOffset=0mm|YOffset=0mm|HoleType=Round|Shape=RoundedRectangle|*
%AMROUNDEDRECTD134*
21,1,2.4000,1.0800,0,0,0.0*
21,1,1.1800,2.3000,0,0,0.0*
1,1,1.2200,0.5900,-0.5400*
1,1,1.2200,-0.5900,-0.5400*
1,1,1.2200,-0.5900,0.5400*
1,1,1.2200,0.5900,0.5400*
%
%ADD134ROUNDEDRECTD134*%
G04:AMPARAMS|DCode=135|XSize=1.4986mm|YSize=1.1938mm|CornerRadius=0.2529mm|HoleSize=0mm|Usage=FLASHONLY|Rotation=180.000|XOffset=0mm|YOffset=0mm|HoleType=Round|Shape=RoundedRectangle|*
%AMROUNDEDRECTD135*
21,1,1.4986,0.6881,0,0,180.0*
21,1,0.9929,1.1938,0,0,180.0*
1,1,0.5057,-0.4964,0.3440*
1,1,0.5057,0.4964,0.3440*
1,1,0.5057,0.4964,-0.3440*
1,1,0.5057,-0.4964,-0.3440*
%
%ADD135ROUNDEDRECTD135*%
G04:AMPARAMS|DCode=136|XSize=1.09mm|YSize=0.44mm|CornerRadius=0.145mm|HoleSize=0mm|Usage=FLASHONLY|Rotation=0.000|XOffset=0mm|YOffset=0mm|HoleType=Round|Shape=RoundedRectangle|*
%AMROUNDEDRECTD136*
21,1,1.0900,0.1500,0,0,0.0*
21,1,0.8000,0.4400,0,0,0.0*
1,1,0.2900,0.4000,-0.0750*
1,1,0.2900,-0.4000,-0.0750*
1,1,0.2900,-0.4000,0.0750*
1,1,0.2900,0.4000,0.0750*
%
%ADD136ROUNDEDRECTD136*%
%ADD137R,0.6300X0.3800*%
%ADD138R,1.9600X2.7000*%
%ADD139O,0.9900X0.4200*%
%ADD140R,5.7400X5.7400*%
%ADD141R,3.1500X3.1500*%
%ADD142O,0.4200X0.9900*%
%ADD143R,7.5400X7.5400*%
G04:AMPARAMS|DCode=144|XSize=1.0016mm|YSize=4.0016mm|CornerRadius=0.1003mm|HoleSize=0mm|Usage=FLASHONLY|Rotation=270.000|XOffset=0mm|YOffset=0mm|HoleType=Round|Shape=RoundedRectangle|*
%AMROUNDEDRECTD144*
21,1,1.0016,3.8010,0,0,270.0*
21,1,0.8010,4.0016,0,0,270.0*
1,1,0.2006,-1.9005,-0.4005*
1,1,0.2006,-1.9005,0.4005*
1,1,0.2006,1.9005,0.4005*
1,1,0.2006,1.9005,-0.4005*
%
%ADD144ROUNDEDRECTD144*%
G04:AMPARAMS|DCode=145|XSize=9.2276mm|YSize=13.4716mm|CornerRadius=0.0964mm|HoleSize=0mm|Usage=FLASHONLY|Rotation=270.000|XOffset=0mm|YOffset=0mm|HoleType=Round|Shape=RoundedRectangle|*
%AMROUNDEDRECTD145*
21,1,9.2276,13.2787,0,0,270.0*
21,1,9.0347,13.4716,0,0,270.0*
1,1,0.1929,-6.6394,-4.5174*
1,1,0.1929,-6.6394,4.5174*
1,1,0.1929,6.6394,4.5174*
1,1,0.1929,6.6394,-4.5174*
%
%ADD145ROUNDEDRECTD145*%
G04:AMPARAMS|DCode=146|XSize=3.7072mm|YSize=1.2192mm|CornerRadius=0.3556mm|HoleSize=0mm|Usage=FLASHONLY|Rotation=180.000|XOffset=0mm|YOffset=0mm|HoleType=Round|Shape=RoundedRectangle|*
%AMROUNDEDRECTD146*
21,1,3.7072,0.5080,0,0,180.0*
21,1,2.9960,1.2192,0,0,180.0*
1,1,0.7112,-1.4980,0.2540*
1,1,0.7112,1.4980,0.2540*
1,1,0.7112,1.4980,-0.2540*
1,1,0.7112,-1.4980,-0.2540*
%
%ADD146ROUNDEDRECTD146*%
G04:AMPARAMS|DCode=147|XSize=0.9906mm|YSize=0.9652mm|CornerRadius=0.2019mm|HoleSize=0mm|Usage=FLASHONLY|Rotation=0.000|XOffset=0mm|YOffset=0mm|HoleType=Round|Shape=RoundedRectangle|*
%AMROUNDEDRECTD147*
21,1,0.9906,0.5613,0,0,0.0*
21,1,0.5867,0.9652,0,0,0.0*
1,1,0.4039,0.2934,-0.2807*
1,1,0.4039,-0.2934,-0.2807*
1,1,0.4039,-0.2934,0.2807*
1,1,0.4039,0.2934,0.2807*
%
%ADD147ROUNDEDRECTD147*%
G04:AMPARAMS|DCode=148|XSize=0.9906mm|YSize=0.889mm|CornerRadius=0.2043mm|HoleSize=0mm|Usage=FLASHONLY|Rotation=270.000|XOffset=0mm|YOffset=0mm|HoleType=Round|Shape=RoundedRectangle|*
%AMROUNDEDRECTD148*
21,1,0.9906,0.4803,0,0,270.0*
21,1,0.5819,0.8890,0,0,270.0*
1,1,0.4087,-0.2402,-0.2910*
1,1,0.4087,-0.2402,0.2910*
1,1,0.4087,0.2402,0.2910*
1,1,0.4087,0.2402,-0.2910*
%
%ADD148ROUNDEDRECTD148*%
G04:AMPARAMS|DCode=149|XSize=0.49mm|YSize=1.14mm|CornerRadius=0.1575mm|HoleSize=0mm|Usage=FLASHONLY|Rotation=180.000|XOffset=0mm|YOffset=0mm|HoleType=Round|Shape=RoundedRectangle|*
%AMROUNDEDRECTD149*
21,1,0.4900,0.8250,0,0,180.0*
21,1,0.1750,1.1400,0,0,180.0*
1,1,0.3150,-0.0875,0.4125*
1,1,0.3150,0.0875,0.4125*
1,1,0.3150,0.0875,-0.4125*
1,1,0.3150,-0.0875,-0.4125*
%
%ADD149ROUNDEDRECTD149*%
G04:AMPARAMS|DCode=150|XSize=5.4516mm|YSize=8.6416mm|CornerRadius=0.1043mm|HoleSize=0mm|Usage=FLASHONLY|Rotation=90.000|XOffset=0mm|YOffset=0mm|HoleType=Round|Shape=RoundedRectangle|*
%AMROUNDEDRECTD150*
21,1,5.4516,8.4330,0,0,90.0*
21,1,5.2430,8.6416,0,0,90.0*
1,1,0.2086,4.2165,2.6215*
1,1,0.2086,4.2165,-2.6215*
1,1,0.2086,-4.2165,-2.6215*
1,1,0.2086,-4.2165,2.6215*
%
%ADD150ROUNDEDRECTD150*%
G04:AMPARAMS|DCode=151|XSize=3.15mm|YSize=3.15mm|CornerRadius=0.1575mm|HoleSize=0mm|Usage=FLASHONLY|Rotation=180.000|XOffset=0mm|YOffset=0mm|HoleType=Round|Shape=RoundedRectangle|*
%AMROUNDEDRECTD151*
21,1,3.1500,2.8350,0,0,180.0*
21,1,2.8350,3.1500,0,0,180.0*
1,1,0.3150,-1.4175,1.4175*
1,1,0.3150,1.4175,1.4175*
1,1,0.3150,1.4175,-1.4175*
1,1,0.3150,-1.4175,-1.4175*
%
%ADD151ROUNDEDRECTD151*%
G04:AMPARAMS|DCode=152|XSize=0.49mm|YSize=1.14mm|CornerRadius=0.1575mm|HoleSize=0mm|Usage=FLASHONLY|Rotation=270.000|XOffset=0mm|YOffset=0mm|HoleType=Round|Shape=RoundedRectangle|*
%AMROUNDEDRECTD152*
21,1,0.4900,0.8250,0,0,270.0*
21,1,0.1750,1.1400,0,0,270.0*
1,1,0.3150,-0.4125,-0.0875*
1,1,0.3150,-0.4125,0.0875*
1,1,0.3150,0.4125,0.0875*
1,1,0.3150,0.4125,-0.0875*
%
%ADD152ROUNDEDRECTD152*%
G04:AMPARAMS|DCode=153|XSize=0.9916mm|YSize=2.5116mm|CornerRadius=0.0998mm|HoleSize=0mm|Usage=FLASHONLY|Rotation=90.000|XOffset=0mm|YOffset=0mm|HoleType=Round|Shape=RoundedRectangle|*
%AMROUNDEDRECTD153*
21,1,0.9916,2.3121,0,0,90.0*
21,1,0.7921,2.5116,0,0,90.0*
1,1,0.1995,1.1561,0.3961*
1,1,0.1995,1.1561,-0.3961*
1,1,0.1995,-1.1561,-0.3961*
1,1,0.1995,-1.1561,0.3961*
%
%ADD153ROUNDEDRECTD153*%
G04:AMPARAMS|DCode=154|XSize=3.5016mm|YSize=3.5016mm|CornerRadius=0mm|HoleSize=0mm|Usage=FLASHONLY|Rotation=90.000|XOffset=0mm|YOffset=0mm|HoleType=Round|Shape=RoundedRectangle|*
%AMROUNDEDRECTD154*
21,1,3.5016,3.5016,0,0,90.0*
21,1,3.5016,3.5016,0,0,90.0*
1,1,0.0000,1.7508,1.7508*
1,1,0.0000,1.7508,-1.7508*
1,1,0.0000,-1.7508,-1.7508*
1,1,0.0000,-1.7508,1.7508*
%
%ADD154ROUNDEDRECTD154*%
%ADD155O,1.7016X0.4016*%
G04:AMPARAMS|DCode=156|XSize=0.79mm|YSize=0.99mm|CornerRadius=0.2325mm|HoleSize=0mm|Usage=FLASHONLY|Rotation=90.000|XOffset=0mm|YOffset=0mm|HoleType=Round|Shape=RoundedRectangle|*
%AMROUNDEDRECTD156*
21,1,0.7900,0.5250,0,0,90.0*
21,1,0.3250,0.9900,0,0,90.0*
1,1,0.4650,0.2625,0.1625*
1,1,0.4650,0.2625,-0.1625*
1,1,0.4650,-0.2625,-0.1625*
1,1,0.4650,-0.2625,0.1625*
%
%ADD156ROUNDEDRECTD156*%
%ADD157R,0.3516X0.9016*%
%ADD158R,4.0132X4.4450*%
G04:AMPARAMS|DCode=159|XSize=10.6932mm|YSize=8.5832mm|CornerRadius=0.3111mm|HoleSize=0mm|Usage=FLASHONLY|Rotation=90.000|XOffset=0mm|YOffset=0mm|HoleType=Round|Shape=RoundedRectangle|*
%AMROUNDEDRECTD159*
21,1,10.6932,7.9610,0,0,90.0*
21,1,10.0710,8.5832,0,0,90.0*
1,1,0.6222,3.9805,5.0355*
1,1,0.6222,3.9805,-5.0355*
1,1,0.6222,-3.9805,-5.0355*
1,1,0.6222,-3.9805,5.0355*
%
%ADD159ROUNDEDRECTD159*%
G04:AMPARAMS|DCode=160|XSize=0.9906mm|YSize=0.889mm|CornerRadius=0.2043mm|HoleSize=0mm|Usage=FLASHONLY|Rotation=180.000|XOffset=0mm|YOffset=0mm|HoleType=Round|Shape=RoundedRectangle|*
%AMROUNDEDRECTD160*
21,1,0.9906,0.4803,0,0,180.0*
21,1,0.5819,0.8890,0,0,180.0*
1,1,0.4087,-0.2910,0.2402*
1,1,0.4087,0.2910,0.2402*
1,1,0.4087,0.2910,-0.2402*
1,1,0.4087,-0.2910,-0.2402*
%
%ADD160ROUNDEDRECTD160*%
%ADD161R,1.6000X1.6500*%
G04:AMPARAMS|DCode=162|XSize=0.5mm|YSize=1.45mm|CornerRadius=0.15mm|HoleSize=0mm|Usage=FLASHONLY|Rotation=0.000|XOffset=0mm|YOffset=0mm|HoleType=Round|Shape=RoundedRectangle|*
%AMROUNDEDRECTD162*
21,1,0.5000,1.1500,0,0,0.0*
21,1,0.2000,1.4500,0,0,0.0*
1,1,0.3000,0.1000,-0.5750*
1,1,0.3000,-0.1000,-0.5750*
1,1,0.3000,-0.1000,0.5750*
1,1,0.3000,0.1000,0.5750*
%
%ADD162ROUNDEDRECTD162*%
%ADD163R,0.5000X0.6500*%
%ADD164R,0.4000X0.6500*%
G04:AMPARAMS|DCode=165|XSize=0.4mm|YSize=0.55mm|CornerRadius=0.125mm|HoleSize=0mm|Usage=FLASHONLY|Rotation=90.000|XOffset=0mm|YOffset=0mm|HoleType=Round|Shape=RoundedRectangle|*
%AMROUNDEDRECTD165*
21,1,0.4000,0.3000,0,0,90.0*
21,1,0.1500,0.5500,0,0,90.0*
1,1,0.2500,0.1500,0.0750*
1,1,0.2500,0.1500,-0.0750*
1,1,0.2500,-0.1500,-0.0750*
1,1,0.2500,-0.1500,0.0750*
%
%ADD165ROUNDEDRECTD165*%
%ADD166R,2.2500X2.2500*%
%ADD167O,0.9500X0.3500*%
%ADD168O,0.3500X0.9500*%
%ADD169R,1.2400X2.3900*%
%ADD170R,1.5000X1.3400*%
%ADD171R,2.1400X3.1500*%
%ADD172R,3.2400X2.3400*%
%ADD173R,0.9016X0.3516*%
%ADD174O,1.9400X0.5400*%
%ADD175C,3.0000*%
%ADD176R,5.2616X4.9016*%
%ADD177C,4.6016*%
%ADD178R,3.1400X3.1400*%
%ADD179C,3.1400*%
%ADD180C,3.1372*%
%ADD181C,2.3016*%
%ADD182C,0.7016*%
%ADD183C,2.1450*%
%ADD184R,2.1450X2.1450*%
%ADD185C,3.9116*%
%ADD186C,1.6256*%
G04:AMPARAMS|DCode=187|XSize=1.6256mm|YSize=1.6256mm|CornerRadius=0mm|HoleSize=0mm|Usage=FLASHONLY|Rotation=0.000|XOffset=0mm|YOffset=0mm|HoleType=Round|Shape=Octagon|*
%AMOCTAGOND187*
4,1,8,0.8128,-0.4064,0.8128,0.4064,0.4064,0.8128,-0.4064,0.8128,-0.8128,0.4064,-0.8128,-0.4064,-0.4064,-0.8128,0.4064,-0.8128,0.8128,-0.4064,0.0*
%
%ADD187OCTAGOND187*%

G04:AMPARAMS|DCode=188|XSize=1.05mm|YSize=1.65mm|CornerRadius=0.525mm|HoleSize=0mm|Usage=FLASHONLY|Rotation=180.000|XOffset=0mm|YOffset=0mm|HoleType=Round|Shape=RoundedRectangle|*
%AMROUNDEDRECTD188*
21,1,1.0500,0.6000,0,0,180.0*
21,1,0.0000,1.6500,0,0,180.0*
1,1,1.0500,0.0000,0.3000*
1,1,1.0500,0.0000,0.3000*
1,1,1.0500,0.0000,-0.3000*
1,1,1.0500,0.0000,-0.3000*
%
%ADD188ROUNDEDRECTD188*%
G04:AMPARAMS|DCode=189|XSize=1.35mm|YSize=1.05mm|CornerRadius=0.525mm|HoleSize=0mm|Usage=FLASHONLY|Rotation=180.000|XOffset=0mm|YOffset=0mm|HoleType=Round|Shape=RoundedRectangle|*
%AMROUNDEDRECTD189*
21,1,1.3500,0.0000,0,0,180.0*
21,1,0.3000,1.0500,0,0,180.0*
1,1,1.0500,-0.1500,0.0000*
1,1,1.0500,0.1500,0.0000*
1,1,1.0500,0.1500,0.0000*
1,1,1.0500,-0.1500,0.0000*
%
%ADD189ROUNDEDRECTD189*%
%ADD190C,0.4572*%
%ADD191C,0.4318*%
%ADD192C,0.6096*%
%ADD193C,0.5000*%
%ADD194C,0.6016*%
%ADD195C,0.3000*%
%ADD196C,0.6604*%
G36*
X1131182Y554013D02*
X1131289Y553988D01*
X1131331Y553970D01*
X1131391Y553946D01*
X1131485Y553888D01*
X1131569Y553816D01*
Y553816D01*
X1131569D01*
X1131640Y553733D01*
X1131698Y553639D01*
X1131722Y553579D01*
X1131740Y553537D01*
X1131766Y553430D01*
X1131774Y553320D01*
D01*
Y553320D01*
Y536320D01*
X1131766Y536210D01*
X1131740Y536103D01*
X1131698Y536001D01*
X1131640Y535907D01*
X1131569Y535824D01*
X1131485Y535752D01*
X1131391Y535694D01*
X1131289Y535652D01*
X1131182Y535626D01*
X1131072Y535618D01*
X1115072D01*
X1115072D01*
D01*
X1114962Y535626D01*
X1114855Y535652D01*
X1114753Y535694D01*
X1114659Y535752D01*
X1114576Y535824D01*
X1114504Y535907D01*
X1114446Y536001D01*
X1114404Y536103D01*
X1114379Y536210D01*
X1114370Y536320D01*
Y536320D01*
D01*
X1114370Y545820D01*
X1114372Y545850D01*
X1114373Y545880D01*
X1114377Y545905D01*
X1114379Y545930D01*
X1114386Y545959D01*
X1114391Y545989D01*
X1114399Y546013D01*
X1114404Y546037D01*
X1114416Y546065D01*
X1114426Y546093D01*
X1114437Y546116D01*
X1114447Y546139D01*
X1114462Y546164D01*
X1114476Y546191D01*
X1114491Y546212D01*
X1114504Y546233D01*
X1114524Y546256D01*
X1114542Y546280D01*
X1121041Y553779D01*
X1121059Y553797D01*
X1121076Y553816D01*
X1121098Y553836D01*
X1121120Y553857D01*
X1121140Y553871D01*
X1121159Y553888D01*
X1121185Y553903D01*
X1121209Y553921D01*
X1121232Y553932D01*
X1121253Y553945D01*
X1121281Y553957D01*
X1121308Y553970D01*
X1121332Y553978D01*
X1121355Y553987D01*
X1121385Y553994D01*
X1121413Y554003D01*
X1121438Y554007D01*
X1121462Y554013D01*
X1121492Y554016D01*
X1121522Y554020D01*
X1121547Y554020D01*
X1121572Y554022D01*
X1131072Y554022D01*
X1131072D01*
D01*
X1131182Y554013D01*
D02*
G37*
G36*
X1146159Y1000266D02*
X1146187D01*
X1146214Y1000262D01*
X1146241Y1000259D01*
X1146268Y1000253D01*
X1146295Y1000249D01*
X1146322Y1000240D01*
X1146348Y1000234D01*
X1146374Y1000223D01*
X1146400Y1000215D01*
X1146584Y1000139D01*
X1146609Y1000126D01*
X1146634Y1000116D01*
X1146657Y1000101D01*
X1146682Y1000089D01*
X1146705Y1000072D01*
X1146728Y1000058D01*
X1146749Y1000040D01*
X1146771Y1000024D01*
X1146791Y1000004D01*
X1146812Y999986D01*
X1146952Y999846D01*
X1146970Y999825D01*
X1146990Y999805D01*
X1147006Y999783D01*
X1147024Y999762D01*
X1147038Y999738D01*
X1147055Y999716D01*
X1147067Y999691D01*
X1147082Y999668D01*
X1147092Y999642D01*
X1147105Y999618D01*
X1147181Y999434D01*
X1147189Y999408D01*
X1147200Y999382D01*
X1147206Y999356D01*
X1147215Y999329D01*
X1147219Y999302D01*
X1147225Y999275D01*
X1147228Y999248D01*
X1147232Y999221D01*
Y999193D01*
X1147234Y999165D01*
Y999066D01*
Y997566D01*
Y997467D01*
X1147232Y997439D01*
Y997411D01*
X1147228Y997384D01*
X1147225Y997357D01*
X1147219Y997330D01*
X1147215Y997303D01*
X1147206Y997276D01*
X1147200Y997250D01*
X1147189Y997224D01*
X1147181Y997198D01*
X1147105Y997014D01*
X1147092Y996989D01*
X1147082Y996964D01*
X1147067Y996941D01*
X1147055Y996916D01*
X1147038Y996893D01*
X1147024Y996870D01*
X1147006Y996849D01*
X1146990Y996827D01*
X1146970Y996807D01*
X1146952Y996786D01*
X1146812Y996646D01*
X1146791Y996628D01*
X1146771Y996608D01*
X1146749Y996592D01*
X1146728Y996574D01*
X1146704Y996560D01*
X1146682Y996543D01*
X1146657Y996531D01*
X1146634Y996516D01*
X1146609Y996506D01*
X1146584Y996493D01*
X1146400Y996417D01*
X1146374Y996409D01*
X1146348Y996398D01*
X1146322Y996392D01*
X1146295Y996383D01*
X1146268Y996379D01*
X1146241Y996373D01*
X1146214Y996370D01*
X1146187Y996366D01*
X1146159D01*
X1146132Y996364D01*
X1112933D01*
X1112905Y996366D01*
X1112878D01*
X1112850Y996370D01*
X1112823Y996373D01*
X1112796Y996379D01*
X1112769Y996383D01*
X1112742Y996392D01*
X1112716Y996398D01*
X1112690Y996409D01*
X1112664Y996417D01*
X1112480Y996493D01*
X1112455Y996506D01*
X1112430Y996516D01*
X1112407Y996531D01*
X1112382Y996543D01*
X1112359Y996560D01*
X1112336Y996574D01*
X1112315Y996592D01*
X1112293Y996608D01*
X1112273Y996628D01*
X1112252Y996646D01*
X1112112Y996786D01*
X1112094Y996807D01*
X1112074Y996827D01*
X1112058Y996849D01*
X1112040Y996870D01*
X1112026Y996893D01*
X1112009Y996916D01*
X1111997Y996941D01*
X1111982Y996964D01*
X1111972Y996989D01*
X1111959Y997014D01*
X1111883Y997198D01*
X1111875Y997224D01*
X1111864Y997250D01*
X1111858Y997276D01*
X1111849Y997303D01*
X1111845Y997330D01*
X1111839Y997357D01*
X1111836Y997384D01*
X1111832Y997411D01*
Y997439D01*
X1111830Y997467D01*
Y997566D01*
Y999066D01*
Y999165D01*
X1111832Y999193D01*
Y999221D01*
X1111836Y999248D01*
X1111839Y999275D01*
X1111845Y999302D01*
X1111849Y999329D01*
X1111858Y999356D01*
X1111864Y999382D01*
X1111875Y999408D01*
X1111883Y999434D01*
X1111959Y999618D01*
X1111972Y999643D01*
X1111982Y999668D01*
X1111997Y999691D01*
X1112009Y999716D01*
X1112026Y999739D01*
X1112040Y999762D01*
X1112058Y999783D01*
X1112074Y999805D01*
X1112094Y999825D01*
X1112112Y999846D01*
X1112252Y999986D01*
X1112273Y1000004D01*
X1112293Y1000024D01*
X1112315Y1000040D01*
X1112336Y1000058D01*
X1112359Y1000072D01*
X1112382Y1000089D01*
X1112407Y1000101D01*
X1112430Y1000116D01*
X1112455Y1000126D01*
X1112480Y1000139D01*
X1112664Y1000215D01*
X1112690Y1000223D01*
X1112716Y1000234D01*
X1112742Y1000240D01*
X1112769Y1000249D01*
X1112796Y1000253D01*
X1112823Y1000259D01*
X1112850Y1000262D01*
X1112878Y1000266D01*
X1112905D01*
X1112933Y1000268D01*
X1146132D01*
X1146159Y1000266D01*
D02*
G37*
G36*
Y1005266D02*
X1146187D01*
X1146214Y1005262D01*
X1146241Y1005260D01*
X1146268Y1005253D01*
X1146295Y1005249D01*
X1146322Y1005240D01*
X1146348Y1005234D01*
X1146374Y1005223D01*
X1146400Y1005215D01*
X1146584Y1005139D01*
X1146609Y1005126D01*
X1146634Y1005116D01*
X1146657Y1005101D01*
X1146682Y1005089D01*
X1146705Y1005072D01*
X1146728Y1005058D01*
X1146749Y1005040D01*
X1146771Y1005024D01*
X1146791Y1005004D01*
X1146812Y1004986D01*
X1146952Y1004846D01*
X1146970Y1004825D01*
X1146990Y1004805D01*
X1147006Y1004783D01*
X1147024Y1004762D01*
X1147038Y1004738D01*
X1147055Y1004716D01*
X1147067Y1004691D01*
X1147082Y1004668D01*
X1147092Y1004642D01*
X1147105Y1004618D01*
X1147181Y1004434D01*
X1147189Y1004408D01*
X1147200Y1004382D01*
X1147206Y1004356D01*
X1147215Y1004329D01*
X1147219Y1004302D01*
X1147225Y1004275D01*
X1147228Y1004248D01*
X1147232Y1004221D01*
Y1004193D01*
X1147234Y1004165D01*
Y1004066D01*
Y1002566D01*
Y1002467D01*
X1147232Y1002439D01*
Y1002411D01*
X1147228Y1002384D01*
X1147225Y1002357D01*
X1147219Y1002330D01*
X1147215Y1002303D01*
X1147206Y1002276D01*
X1147200Y1002250D01*
X1147189Y1002224D01*
X1147181Y1002198D01*
X1147105Y1002014D01*
X1147092Y1001989D01*
X1147082Y1001964D01*
X1147067Y1001941D01*
X1147055Y1001916D01*
X1147038Y1001893D01*
X1147024Y1001870D01*
X1147006Y1001849D01*
X1146990Y1001827D01*
X1146970Y1001807D01*
X1146952Y1001786D01*
X1146812Y1001646D01*
X1146791Y1001628D01*
X1146771Y1001608D01*
X1146749Y1001592D01*
X1146728Y1001574D01*
X1146704Y1001560D01*
X1146682Y1001543D01*
X1146657Y1001531D01*
X1146634Y1001516D01*
X1146609Y1001506D01*
X1146584Y1001493D01*
X1146400Y1001417D01*
X1146374Y1001409D01*
X1146348Y1001398D01*
X1146322Y1001392D01*
X1146295Y1001383D01*
X1146268Y1001379D01*
X1146241Y1001373D01*
X1146214Y1001370D01*
X1146187Y1001366D01*
X1146159D01*
X1146132Y1001364D01*
X1112933D01*
X1112905Y1001366D01*
X1112878D01*
X1112850Y1001370D01*
X1112823Y1001373D01*
X1112796Y1001379D01*
X1112769Y1001383D01*
X1112742Y1001392D01*
X1112716Y1001398D01*
X1112690Y1001409D01*
X1112664Y1001417D01*
X1112480Y1001493D01*
X1112455Y1001506D01*
X1112430Y1001516D01*
X1112407Y1001531D01*
X1112382Y1001543D01*
X1112359Y1001560D01*
X1112336Y1001574D01*
X1112315Y1001592D01*
X1112293Y1001608D01*
X1112273Y1001628D01*
X1112252Y1001646D01*
X1112112Y1001786D01*
X1112094Y1001807D01*
X1112074Y1001827D01*
X1112058Y1001849D01*
X1112040Y1001870D01*
X1112026Y1001893D01*
X1112009Y1001916D01*
X1111997Y1001941D01*
X1111982Y1001964D01*
X1111972Y1001989D01*
X1111959Y1002014D01*
X1111883Y1002198D01*
X1111875Y1002224D01*
X1111864Y1002250D01*
X1111858Y1002276D01*
X1111849Y1002303D01*
X1111845Y1002330D01*
X1111839Y1002357D01*
X1111836Y1002384D01*
X1111832Y1002411D01*
Y1002439D01*
X1111830Y1002467D01*
Y1002566D01*
Y1004066D01*
Y1004165D01*
X1111832Y1004193D01*
Y1004221D01*
X1111836Y1004248D01*
X1111839Y1004275D01*
X1111845Y1004302D01*
X1111849Y1004329D01*
X1111858Y1004356D01*
X1111864Y1004382D01*
X1111875Y1004408D01*
X1111883Y1004434D01*
X1111959Y1004618D01*
X1111972Y1004643D01*
X1111982Y1004668D01*
X1111997Y1004691D01*
X1112009Y1004716D01*
X1112026Y1004739D01*
X1112040Y1004762D01*
X1112058Y1004783D01*
X1112074Y1004805D01*
X1112094Y1004825D01*
X1112112Y1004846D01*
X1112252Y1004986D01*
X1112273Y1005004D01*
X1112293Y1005024D01*
X1112315Y1005040D01*
X1112336Y1005058D01*
X1112359Y1005072D01*
X1112382Y1005089D01*
X1112407Y1005101D01*
X1112430Y1005116D01*
X1112455Y1005126D01*
X1112480Y1005139D01*
X1112664Y1005215D01*
X1112690Y1005223D01*
X1112716Y1005234D01*
X1112742Y1005240D01*
X1112769Y1005249D01*
X1112796Y1005253D01*
X1112823Y1005260D01*
X1112850Y1005262D01*
X1112878Y1005266D01*
X1112905D01*
X1112933Y1005268D01*
X1146132D01*
X1146159Y1005266D01*
D02*
G37*
D26*
X167640Y858774D02*
D03*
D90*
X1160812Y483306D02*
D03*
Y469306D02*
D03*
X1181386Y483448D02*
D03*
Y469448D02*
D03*
X1231678Y483448D02*
D03*
Y469448D02*
D03*
X1210850Y483448D02*
D03*
Y469448D02*
D03*
X900814Y518366D02*
D03*
Y504366D02*
D03*
X944990Y518874D02*
D03*
Y504874D02*
D03*
X965534Y518874D02*
D03*
Y504874D02*
D03*
X880240Y518366D02*
D03*
Y504366D02*
D03*
D101*
X1399081Y329560D02*
D03*
X1457081Y329560D02*
D03*
D102*
X487317Y748837D02*
D03*
X576217D02*
D03*
X550817D02*
D03*
X512717D02*
D03*
X487317Y657397D02*
D03*
X500017D02*
D03*
X512717D02*
D03*
X525417D02*
D03*
X538117D02*
D03*
X550817D02*
D03*
X563517D02*
D03*
X576217D02*
D03*
X500017Y748837D02*
D03*
X525417D02*
D03*
X538117D02*
D03*
X563517D02*
D03*
D103*
X1199509Y915472D02*
D03*
X1190619D02*
D03*
X1252849Y877202D02*
D03*
Y856882D02*
D03*
Y867042D02*
D03*
Y897522D02*
D03*
Y907682D02*
D03*
Y887362D02*
D03*
X1252976Y765442D02*
D03*
Y775602D02*
D03*
Y785762D02*
D03*
X1199509Y902199D02*
D03*
Y889385D02*
D03*
X1217289Y857831D02*
D03*
Y819731D02*
D03*
Y870531D02*
D03*
X1199509Y851481D02*
D03*
Y838781D02*
D03*
X1217289Y832431D02*
D03*
X1199509Y826081D02*
D03*
X1217289Y845131D02*
D03*
X1199509Y864181D02*
D03*
Y876881D02*
D03*
X1217289Y908631D02*
D03*
Y895931D02*
D03*
Y883231D02*
D03*
Y794331D02*
D03*
X1199509Y788050D02*
D03*
X1217289Y781229D02*
D03*
X1199509Y775281D02*
D03*
X1252849Y826402D02*
D03*
Y846722D02*
D03*
Y836562D02*
D03*
Y816242D02*
D03*
X1252976Y806082D02*
D03*
Y795922D02*
D03*
X1217416Y807031D02*
D03*
X1199509Y800672D02*
D03*
Y813485D02*
D03*
X1261739Y897522D02*
D03*
Y907682D02*
D03*
Y887362D02*
D03*
X1199509Y926394D02*
D03*
X1150995Y1026724D02*
D03*
X1261739Y877202D02*
D03*
Y867042D02*
D03*
Y836562D02*
D03*
Y846722D02*
D03*
Y816242D02*
D03*
Y826402D02*
D03*
Y856882D02*
D03*
X1261866Y765442D02*
D03*
Y795922D02*
D03*
Y806082D02*
D03*
Y775602D02*
D03*
Y785762D02*
D03*
X1096512Y973130D02*
D03*
X1080383Y1103178D02*
D03*
X1022217Y930712D02*
D03*
X1076954Y783808D02*
D03*
X1265587Y546044D02*
D03*
X1336529Y537408D02*
D03*
X1317911Y531058D02*
D03*
X1248315Y403296D02*
D03*
X1242727Y388691D02*
D03*
X1098709Y528137D02*
D03*
X1044575Y718312D02*
D03*
X975059Y608140D02*
D03*
X976329Y576136D02*
D03*
X980139Y566992D02*
D03*
X969979Y530035D02*
D03*
X940545D02*
D03*
X905259Y529527D02*
D03*
X875795D02*
D03*
X934419Y465900D02*
D03*
X910670Y465900D02*
D03*
X564553Y966773D02*
D03*
X444659Y956747D02*
D03*
X477558Y872285D02*
D03*
X450219Y826709D02*
D03*
X644924Y586785D02*
D03*
X445607Y815631D02*
D03*
X1071493Y1103178D02*
D03*
X1373505Y943864D02*
D03*
X1115689Y1027994D02*
D03*
X1473073Y841502D02*
D03*
X1373759Y842669D02*
D03*
X1345419Y537408D02*
D03*
X673095Y936940D02*
D03*
X178943Y958088D02*
D03*
X462318Y884731D02*
D03*
X582743Y819576D02*
D03*
X585488Y607613D02*
D03*
X446296Y788229D02*
D03*
X1256697Y546044D02*
D03*
X1464183Y841502D02*
D03*
X170053Y958088D02*
D03*
X1284351Y1053084D02*
D03*
X1275461D02*
D03*
X1239773Y1080016D02*
D03*
X1230883D02*
D03*
X417086Y956747D02*
D03*
X1124579Y1027994D02*
D03*
X1382649Y842669D02*
D03*
X1382395Y943864D02*
D03*
X1053465Y718312D02*
D03*
X664205Y936940D02*
D03*
X1190619Y813485D02*
D03*
Y800672D02*
D03*
X1208526Y807031D02*
D03*
X950294Y494602D02*
D03*
X959184D02*
D03*
X1176941Y505404D02*
D03*
X1168051D02*
D03*
X1225963Y505912D02*
D03*
X1217073D02*
D03*
X966169Y608140D02*
D03*
X1142105Y1026724D02*
D03*
X895049Y494348D02*
D03*
X886159D02*
D03*
X454497Y815631D02*
D03*
X1190619Y775281D02*
D03*
X1208399Y781229D02*
D03*
X1190619Y788050D02*
D03*
X1208399Y794331D02*
D03*
X1299369Y521406D02*
D03*
X1308259D02*
D03*
X1309021Y531058D02*
D03*
X1209333Y378643D02*
D03*
X1200443D02*
D03*
X1224333Y388691D02*
D03*
X1215443D02*
D03*
X967439Y576136D02*
D03*
X971249Y566992D02*
D03*
X435769Y956747D02*
D03*
X425976D02*
D03*
X1208399Y883231D02*
D03*
Y895931D02*
D03*
Y908631D02*
D03*
X1190619Y926394D02*
D03*
Y876881D02*
D03*
Y864181D02*
D03*
X1208399Y845131D02*
D03*
X1190619Y826081D02*
D03*
X1208399Y832431D02*
D03*
X1190619Y838781D02*
D03*
Y851481D02*
D03*
X1208399Y870531D02*
D03*
Y819731D02*
D03*
Y857831D02*
D03*
X1085844Y783808D02*
D03*
X1105402Y973130D02*
D03*
X1190619Y889385D02*
D03*
Y902199D02*
D03*
X484647Y612206D02*
D03*
X493537D02*
D03*
X484647Y625668D02*
D03*
X493537D02*
D03*
X453789Y637585D02*
D03*
X462679D02*
D03*
X453789Y651555D02*
D03*
X462679D02*
D03*
X1443895Y537408D02*
D03*
X1435005D02*
D03*
X1405287D02*
D03*
X1414177D02*
D03*
X636034Y586785D02*
D03*
X576598Y607613D02*
D03*
X459109Y826709D02*
D03*
X884685Y529527D02*
D03*
X1239425Y403296D02*
D03*
X1233837Y388691D02*
D03*
X896369Y529527D02*
D03*
X949435Y530035D02*
D03*
X901780Y465900D02*
D03*
X943309Y465900D02*
D03*
X961089Y530035D02*
D03*
X1230443Y412814D02*
D03*
X1239333D02*
D03*
X471208Y884731D02*
D03*
X967439Y585788D02*
D03*
X976329D02*
D03*
X967381Y595123D02*
D03*
X976271D02*
D03*
X455186Y788229D02*
D03*
X573853Y819576D02*
D03*
X1107599Y528137D02*
D03*
X1031107Y930712D02*
D03*
X1040251Y930966D02*
D03*
X1049141D02*
D03*
X555663Y966773D02*
D03*
X468668Y872285D02*
D03*
D104*
X1140073Y970082D02*
D03*
Y946968D02*
D03*
X1157091Y970082D02*
D03*
Y946968D02*
D03*
X1084955Y1024184D02*
D03*
X1084320Y989894D02*
D03*
X1063365Y990402D02*
D03*
X1118089Y423690D02*
D03*
X548424Y876349D02*
D03*
X1101973Y1024184D02*
D03*
X1046347Y990402D02*
D03*
X531406Y876349D02*
D03*
X1100055Y423690D02*
D03*
X1101338Y989894D02*
D03*
D105*
X1253484Y752277D02*
D03*
Y737291D02*
D03*
X1295432Y567507D02*
D03*
X1254538Y518231D02*
D03*
X1272318Y517977D02*
D03*
X111204Y828531D02*
D03*
X491759Y807791D02*
D03*
X1295432Y552521D02*
D03*
X111204Y843517D02*
D03*
X1254538Y533217D02*
D03*
X1272318Y532963D02*
D03*
X491759Y792805D02*
D03*
D106*
X1129532Y986816D02*
D03*
X1139532D02*
D03*
X1129532Y1014816D02*
D03*
X1134532Y986816D02*
D03*
X1119532Y1014816D02*
D03*
X1139532D02*
D03*
X1134532D02*
D03*
X1124532D02*
D03*
X1119532Y986816D02*
D03*
X1124532D02*
D03*
D107*
X1230286Y918901D02*
D03*
X1220126D02*
D03*
X1250606D02*
D03*
X1240446D02*
D03*
X1238582Y761294D02*
D03*
X1218262D02*
D03*
X1228422D02*
D03*
X1197942D02*
D03*
X1208102D02*
D03*
X1240446Y927791D02*
D03*
X1250606D02*
D03*
X1230286D02*
D03*
X1220126D02*
D03*
X1228422Y752404D02*
D03*
X1218262D02*
D03*
X1238582D02*
D03*
X1197942D02*
D03*
X1208102D02*
D03*
X1066312Y948620D02*
D03*
X846462Y1045745D02*
D03*
X1252760Y627959D02*
D03*
X1167988Y384754D02*
D03*
X1180624Y369895D02*
D03*
X1019228Y695325D02*
D03*
X1023329Y645518D02*
D03*
X917274Y530289D02*
D03*
X927942D02*
D03*
X856654Y481003D02*
D03*
X455623Y1073333D02*
D03*
X438589Y1086541D02*
D03*
X490131Y1005000D02*
D03*
X477558Y1007794D02*
D03*
X462629Y1003349D02*
D03*
X723902Y588629D02*
D03*
X109982Y877951D02*
D03*
X120904Y869569D02*
D03*
X846462Y1054635D02*
D03*
X455623Y1103178D02*
D03*
X1186872Y1088771D02*
D03*
X1177284Y1088700D02*
D03*
X1477264Y863219D02*
D03*
X1063149Y709363D02*
D03*
X1174004Y686818D02*
D03*
X538899Y1013890D02*
D03*
X502577Y1011985D02*
D03*
X477558Y998904D02*
D03*
X183134Y978789D02*
D03*
X100330Y897763D02*
D03*
X110998Y855091D02*
D03*
X1023329Y654408D02*
D03*
X1027363Y665457D02*
D03*
Y674347D02*
D03*
X1019228Y686435D02*
D03*
X183134Y987679D02*
D03*
X1477264Y872109D02*
D03*
X1427988Y973455D02*
D03*
Y964565D02*
D03*
X1402024Y973201D02*
D03*
Y964311D02*
D03*
X723902Y597519D02*
D03*
X724156Y607425D02*
D03*
Y616315D02*
D03*
X1186872Y1079881D02*
D03*
X1177284Y1079810D02*
D03*
X1063149Y718253D02*
D03*
X1174004Y695708D02*
D03*
X109982Y886841D02*
D03*
X100330Y888873D02*
D03*
X120904Y860679D02*
D03*
X110998Y863981D02*
D03*
X538899Y1005000D02*
D03*
X1252760Y619069D02*
D03*
X1066312Y939730D02*
D03*
X462629Y994459D02*
D03*
X1114546Y973003D02*
D03*
Y964113D02*
D03*
X1416590Y397962D02*
D03*
Y406852D02*
D03*
X1429798Y398089D02*
D03*
Y406979D02*
D03*
X564553Y902038D02*
D03*
Y893148D02*
D03*
X880444Y434785D02*
D03*
Y425895D02*
D03*
Y415735D02*
D03*
Y406845D02*
D03*
X1226344Y515183D02*
D03*
Y524073D02*
D03*
X1216692Y515183D02*
D03*
Y524073D02*
D03*
X1177322Y514929D02*
D03*
Y523819D02*
D03*
X1180624Y378785D02*
D03*
X965534Y484569D02*
D03*
Y475679D02*
D03*
X943690Y485331D02*
D03*
Y476441D02*
D03*
X957564Y425924D02*
D03*
Y417034D02*
D03*
Y406972D02*
D03*
Y398082D02*
D03*
X927942Y539179D02*
D03*
X1167924Y514802D02*
D03*
Y523692D02*
D03*
X1167988Y393644D02*
D03*
X1157764Y394279D02*
D03*
Y403169D02*
D03*
X1167924Y403369D02*
D03*
Y412259D02*
D03*
X1191412Y380309D02*
D03*
Y389199D02*
D03*
X1010492Y573469D02*
D03*
Y582359D02*
D03*
Y591630D02*
D03*
Y600520D02*
D03*
X901780Y484823D02*
D03*
Y475933D02*
D03*
X880240Y485331D02*
D03*
Y476441D02*
D03*
X917274Y539179D02*
D03*
X438589Y1095431D02*
D03*
X502577Y1003095D02*
D03*
X856654Y472113D02*
D03*
X490131Y996110D02*
D03*
X455623Y1094288D02*
D03*
Y1082223D02*
D03*
X856654Y461478D02*
D03*
Y452588D02*
D03*
D108*
X1328796Y1052830D02*
D03*
X1283837Y1079762D02*
D03*
X1312296Y1052830D02*
D03*
X1267337Y1079762D02*
D03*
D109*
X1429258Y1018408D02*
D03*
X1402024D02*
D03*
X395074Y723608D02*
D03*
X1429258Y1001908D02*
D03*
X1402024D02*
D03*
X395074Y740108D02*
D03*
D110*
X1208316Y1059180D02*
D03*
X1438610Y862838D02*
D03*
X144226Y979170D02*
D03*
X1181316Y1049680D02*
D03*
X1438610Y853338D02*
D03*
X144226Y969670D02*
D03*
X1438610Y872338D02*
D03*
X1464610D02*
D03*
Y853338D02*
D03*
X1208316Y1068680D02*
D03*
X1181316D02*
D03*
Y1059180D02*
D03*
X1208316Y1049680D02*
D03*
X170226Y988670D02*
D03*
Y969670D02*
D03*
X144226Y988670D02*
D03*
D111*
X1315278Y1000220D02*
D03*
Y932720D02*
D03*
X1315437Y885630D02*
D03*
Y818130D02*
D03*
X1355437D02*
D03*
Y885630D02*
D03*
X1355278Y932720D02*
D03*
Y1000220D02*
D03*
D112*
X1274196Y986566D02*
D03*
X1206696D02*
D03*
X1274196Y1026566D02*
D03*
X1206696D02*
D03*
D113*
X1425564Y914210D02*
D03*
X1423434Y814070D02*
D03*
X1381234D02*
D03*
X1383364Y914210D02*
D03*
D114*
X1129532Y1000816D02*
D03*
D115*
X1144060Y919628D02*
D03*
Y911628D02*
D03*
X1136060Y895628D02*
D03*
Y887628D02*
D03*
X1144060Y879628D02*
D03*
Y871628D02*
D03*
X1136060D02*
D03*
X1144060Y831628D02*
D03*
Y799628D02*
D03*
Y815628D02*
D03*
X1136060Y855628D02*
D03*
X1096060Y911628D02*
D03*
X1080060D02*
D03*
Y895628D02*
D03*
Y887628D02*
D03*
X1088060D02*
D03*
X1080060Y871628D02*
D03*
X1088060Y855628D02*
D03*
X1080060Y831628D02*
D03*
Y799628D02*
D03*
Y815628D02*
D03*
X1088060Y919628D02*
D03*
X1096060D02*
D03*
X1128060D02*
D03*
Y911628D02*
D03*
X1136060D02*
D03*
X1088060Y903628D02*
D03*
X1096060D02*
D03*
X1128060D02*
D03*
X1136060D02*
D03*
X1096060Y895628D02*
D03*
X1128060D02*
D03*
X1096060Y887628D02*
D03*
X1128060D02*
D03*
X1088060Y879628D02*
D03*
X1096060D02*
D03*
X1128060D02*
D03*
X1136060D02*
D03*
X1088060Y871628D02*
D03*
X1096060D02*
D03*
X1080060Y863628D02*
D03*
X1096060D02*
D03*
X1128060D02*
D03*
X1136060D02*
D03*
X1080060Y855628D02*
D03*
X1096060D02*
D03*
X1128060D02*
D03*
X1144060D02*
D03*
X1080060Y847628D02*
D03*
X1096060D02*
D03*
X1128060D02*
D03*
X1144060D02*
D03*
X1080060Y839628D02*
D03*
X1088060D02*
D03*
X1096060D02*
D03*
X1128060D02*
D03*
X1136060D02*
D03*
X1144060D02*
D03*
X1088060Y831628D02*
D03*
X1096060D02*
D03*
X1128060D02*
D03*
X1136060D02*
D03*
X1088060Y823628D02*
D03*
X1096060D02*
D03*
X1128060D02*
D03*
X1136060D02*
D03*
X1088060Y815628D02*
D03*
X1096060D02*
D03*
X1128060D02*
D03*
X1136060D02*
D03*
X1088060Y807628D02*
D03*
X1096060D02*
D03*
X1128060D02*
D03*
X1136060D02*
D03*
X1088060Y799628D02*
D03*
X1096060D02*
D03*
X1128060D02*
D03*
X1136060D02*
D03*
X1080060Y807628D02*
D03*
Y823628D02*
D03*
Y879628D02*
D03*
Y903628D02*
D03*
Y919628D02*
D03*
X1088060Y847628D02*
D03*
X1136060D02*
D03*
X1088060Y863628D02*
D03*
X1144060Y807628D02*
D03*
Y823628D02*
D03*
Y863628D02*
D03*
X1088060Y895628D02*
D03*
X1128060Y871628D02*
D03*
X1088060Y911628D02*
D03*
X1144060Y887628D02*
D03*
X1136060Y919628D02*
D03*
X1144060Y895628D02*
D03*
Y903628D02*
D03*
D116*
X1103497Y1074476D02*
D03*
X1077970D02*
D03*
X1466628Y487116D02*
D03*
X1002252Y482333D02*
D03*
X579120Y1118962D02*
D03*
X438716Y1159200D02*
D03*
X466656D02*
D03*
Y1130244D02*
D03*
X438716D02*
D03*
X579120Y1090006D02*
D03*
X1077970Y1045520D02*
D03*
X1103497D02*
D03*
X1466628Y458160D02*
D03*
X1002252Y453377D02*
D03*
D117*
X1444464Y772928D02*
D03*
X1404464D02*
D03*
X1364464Y558428D02*
D03*
Y772928D02*
D03*
X1484464D02*
D03*
X1404464Y558428D02*
D03*
X1444464D02*
D03*
X1484464D02*
D03*
D118*
X1043078Y953620D02*
D03*
D119*
X1038214Y1078540D02*
D03*
X879464Y1053140D02*
D03*
Y1180140D02*
D03*
X814070Y1024128D02*
D03*
X655320Y992378D02*
D03*
X623570Y1119378D02*
D03*
Y992378D02*
D03*
X1038214Y1053140D02*
D03*
X1006464D02*
D03*
X1038214Y1103940D02*
D03*
Y1154740D02*
D03*
Y1129340D02*
D03*
Y1180140D02*
D03*
X879464Y1129340D02*
D03*
X623570Y1087628D02*
D03*
X814070Y1119378D02*
D03*
Y1055878D02*
D03*
Y992378D02*
D03*
X750570D02*
D03*
X655320Y1119378D02*
D03*
X814070Y1087628D02*
D03*
D120*
X1033078Y939870D02*
D03*
X1038078Y967370D02*
D03*
X1033078D02*
D03*
X1053078D02*
D03*
X1048078D02*
D03*
X1043078Y939870D02*
D03*
X1038078D02*
D03*
X1043078Y967370D02*
D03*
X1053078Y939870D02*
D03*
X1048078D02*
D03*
D121*
X1006088Y1019104D02*
D03*
X878053Y955096D02*
D03*
Y982909D02*
D03*
X785668Y1158550D02*
D03*
X359442Y961578D02*
D03*
X646575Y618281D02*
D03*
X814624Y1158550D02*
D03*
X1035044Y1019104D02*
D03*
X849097Y955096D02*
D03*
Y982909D02*
D03*
X388398Y961578D02*
D03*
X617619Y618281D02*
D03*
X1079786Y423108D02*
D03*
X1050830D02*
D03*
D122*
X883500Y919028D02*
D03*
X873500Y879028D02*
D03*
Y839028D02*
D03*
X853500Y859028D02*
D03*
X873500Y799028D02*
D03*
Y759028D02*
D03*
X843500Y819028D02*
D03*
Y779028D02*
D03*
X873500Y719028D02*
D03*
X883500Y669028D02*
D03*
X853500Y739028D02*
D03*
Y699028D02*
D03*
X843500Y679028D02*
D03*
X753500Y909028D02*
D03*
X713500D02*
D03*
X673500D02*
D03*
X833500D02*
D03*
X793500D02*
D03*
X813500Y889028D02*
D03*
X773500Y879028D02*
D03*
X733500Y899028D02*
D03*
X663500D02*
D03*
X703500Y879028D02*
D03*
X633500Y919028D02*
D03*
X643500Y879028D02*
D03*
X823500Y859028D02*
D03*
X783500D02*
D03*
Y829028D02*
D03*
X773500Y819028D02*
D03*
X813500Y809028D02*
D03*
X783500D02*
D03*
Y789028D02*
D03*
X773500Y799028D02*
D03*
Y779028D02*
D03*
X763500Y789028D02*
D03*
X743500Y849028D02*
D03*
X753500Y819028D02*
D03*
X733500Y879028D02*
D03*
X693500Y869028D02*
D03*
X733500Y819028D02*
D03*
X693500Y849028D02*
D03*
X763500Y809028D02*
D03*
X753500Y799028D02*
D03*
X743500Y809028D02*
D03*
X753500Y779028D02*
D03*
X743500Y789028D02*
D03*
X733500Y799028D02*
D03*
X703500D02*
D03*
X733500Y779028D02*
D03*
X813500Y749028D02*
D03*
X823500Y709028D02*
D03*
X783500Y769028D02*
D03*
Y739028D02*
D03*
Y709028D02*
D03*
X803500Y679028D02*
D03*
X763500Y769028D02*
D03*
X743500D02*
D03*
X733500Y759028D02*
D03*
X743500Y709028D02*
D03*
X703500Y749028D02*
D03*
Y719028D02*
D03*
X763500Y679028D02*
D03*
X723500D02*
D03*
X693500Y879028D02*
D03*
X663500Y859028D02*
D03*
X683500Y849028D02*
D03*
X643500Y839028D02*
D03*
X683500Y819028D02*
D03*
X673500Y779028D02*
D03*
X643500Y759028D02*
D03*
Y799028D02*
D03*
X663500Y739028D02*
D03*
X673500Y709028D02*
D03*
X683500Y679028D02*
D03*
X643500Y719028D02*
D03*
X633500Y669028D02*
D03*
X813500Y909028D02*
D03*
X843500Y769028D02*
D03*
X833500Y869028D02*
D03*
Y829028D02*
D03*
X793500Y889028D02*
D03*
X773500Y909028D02*
D03*
X793500Y869028D02*
D03*
X753500Y879028D02*
D03*
X733500Y909028D02*
D03*
Y869028D02*
D03*
X803500Y839028D02*
D03*
X793500Y789028D02*
D03*
X773500Y859028D02*
D03*
X723500D02*
D03*
X753500Y829028D02*
D03*
X723500Y779028D02*
D03*
X833500Y719028D02*
D03*
X863500Y679028D02*
D03*
X803500Y749028D02*
D03*
X773500Y729028D02*
D03*
X763500Y759028D02*
D03*
X753500Y739028D02*
D03*
X713500Y749028D02*
D03*
Y729028D02*
D03*
X823500Y679028D02*
D03*
X793500Y729028D02*
D03*
X803500Y699028D02*
D03*
X763500Y709028D02*
D03*
X743500Y729028D02*
D03*
X783500Y679028D02*
D03*
X723500Y699028D02*
D03*
X743500Y679028D02*
D03*
X673500Y919028D02*
D03*
X693500Y909028D02*
D03*
X713500Y889028D02*
D03*
X683500D02*
D03*
X703500Y859028D02*
D03*
X683500Y869028D02*
D03*
X643500Y899028D02*
D03*
X663500Y879028D02*
D03*
X643500Y859028D02*
D03*
X713500Y829028D02*
D03*
X683500Y839028D02*
D03*
X693500Y779028D02*
D03*
X663500Y849028D02*
D03*
Y799028D02*
D03*
X683500Y749028D02*
D03*
X703500Y679028D02*
D03*
X683500Y719028D02*
D03*
X673500Y769028D02*
D03*
X663500Y759028D02*
D03*
X673500Y689028D02*
D03*
X663500Y719028D02*
D03*
X643500Y819028D02*
D03*
Y779028D02*
D03*
Y699028D02*
D03*
Y739028D02*
D03*
X793500Y829028D02*
D03*
X783500Y819028D02*
D03*
X793500Y769028D02*
D03*
X783500Y799028D02*
D03*
X773500Y809028D02*
D03*
X783500Y779028D02*
D03*
Y759028D02*
D03*
X773500Y789028D02*
D03*
Y769028D02*
D03*
X763500Y819028D02*
D03*
X753500Y809028D02*
D03*
X733500Y829028D02*
D03*
X723500Y819028D02*
D03*
X743500D02*
D03*
Y799028D02*
D03*
X733500Y809028D02*
D03*
X763500Y799028D02*
D03*
X753500Y789028D02*
D03*
X763500Y779028D02*
D03*
X753500Y769028D02*
D03*
X743500Y779028D02*
D03*
X733500Y789028D02*
D03*
Y769028D02*
D03*
X723500Y759028D02*
D03*
X633500Y909028D02*
D03*
Y899028D02*
D03*
Y889028D02*
D03*
Y879028D02*
D03*
Y869028D02*
D03*
Y859028D02*
D03*
Y849028D02*
D03*
Y839028D02*
D03*
Y829028D02*
D03*
Y819028D02*
D03*
Y809028D02*
D03*
Y799028D02*
D03*
Y789028D02*
D03*
Y779028D02*
D03*
Y769028D02*
D03*
Y759028D02*
D03*
Y749028D02*
D03*
Y739028D02*
D03*
Y729028D02*
D03*
Y719028D02*
D03*
Y709028D02*
D03*
Y699028D02*
D03*
Y689028D02*
D03*
Y679028D02*
D03*
X643500Y919028D02*
D03*
Y909028D02*
D03*
Y889028D02*
D03*
Y869028D02*
D03*
Y849028D02*
D03*
Y829028D02*
D03*
Y809028D02*
D03*
Y789028D02*
D03*
Y769028D02*
D03*
Y749028D02*
D03*
Y729028D02*
D03*
Y709028D02*
D03*
Y689028D02*
D03*
Y679028D02*
D03*
Y669028D02*
D03*
X653500Y919028D02*
D03*
Y909028D02*
D03*
Y899028D02*
D03*
Y889028D02*
D03*
Y879028D02*
D03*
Y869028D02*
D03*
Y859028D02*
D03*
Y849028D02*
D03*
Y839028D02*
D03*
Y829028D02*
D03*
Y819028D02*
D03*
Y809028D02*
D03*
Y799028D02*
D03*
Y789028D02*
D03*
Y779028D02*
D03*
Y769028D02*
D03*
Y759028D02*
D03*
Y749028D02*
D03*
Y739028D02*
D03*
Y729028D02*
D03*
Y719028D02*
D03*
Y709028D02*
D03*
Y699028D02*
D03*
Y689028D02*
D03*
Y679028D02*
D03*
X663500Y919028D02*
D03*
Y909028D02*
D03*
Y889028D02*
D03*
Y869028D02*
D03*
Y839028D02*
D03*
Y829028D02*
D03*
Y819028D02*
D03*
Y809028D02*
D03*
Y789028D02*
D03*
Y779028D02*
D03*
Y769028D02*
D03*
Y749028D02*
D03*
Y729028D02*
D03*
Y709028D02*
D03*
Y699028D02*
D03*
Y679028D02*
D03*
Y669028D02*
D03*
X673500Y899028D02*
D03*
Y889028D02*
D03*
Y879028D02*
D03*
Y869028D02*
D03*
Y859028D02*
D03*
Y849028D02*
D03*
Y839028D02*
D03*
Y829028D02*
D03*
Y819028D02*
D03*
Y809028D02*
D03*
Y799028D02*
D03*
Y789028D02*
D03*
Y759028D02*
D03*
Y749028D02*
D03*
Y739028D02*
D03*
Y729028D02*
D03*
Y719028D02*
D03*
Y699028D02*
D03*
Y679028D02*
D03*
Y669028D02*
D03*
X683500Y919028D02*
D03*
Y909028D02*
D03*
Y879028D02*
D03*
Y859028D02*
D03*
Y829028D02*
D03*
Y809028D02*
D03*
Y799028D02*
D03*
Y789028D02*
D03*
Y779028D02*
D03*
Y769028D02*
D03*
Y759028D02*
D03*
Y739028D02*
D03*
Y729028D02*
D03*
Y699028D02*
D03*
Y689028D02*
D03*
Y669028D02*
D03*
X693500Y919028D02*
D03*
Y899028D02*
D03*
Y859028D02*
D03*
Y839028D02*
D03*
Y829028D02*
D03*
Y819028D02*
D03*
Y809028D02*
D03*
Y799028D02*
D03*
Y789028D02*
D03*
Y769028D02*
D03*
Y759028D02*
D03*
Y749028D02*
D03*
Y739028D02*
D03*
Y729028D02*
D03*
Y709028D02*
D03*
Y699028D02*
D03*
Y689028D02*
D03*
Y679028D02*
D03*
Y669028D02*
D03*
X703500Y849028D02*
D03*
Y839028D02*
D03*
Y829028D02*
D03*
Y819028D02*
D03*
Y809028D02*
D03*
Y789028D02*
D03*
Y779028D02*
D03*
Y769028D02*
D03*
Y759028D02*
D03*
Y739028D02*
D03*
Y729028D02*
D03*
Y709028D02*
D03*
Y699028D02*
D03*
Y689028D02*
D03*
Y669028D02*
D03*
X713500Y849028D02*
D03*
Y839028D02*
D03*
Y819028D02*
D03*
Y809028D02*
D03*
Y799028D02*
D03*
Y789028D02*
D03*
Y779028D02*
D03*
Y769028D02*
D03*
Y759028D02*
D03*
Y739028D02*
D03*
Y719028D02*
D03*
Y709028D02*
D03*
Y699028D02*
D03*
Y689028D02*
D03*
Y679028D02*
D03*
Y669028D02*
D03*
X723500Y899028D02*
D03*
Y889028D02*
D03*
Y879028D02*
D03*
Y839028D02*
D03*
Y829028D02*
D03*
Y809028D02*
D03*
Y799028D02*
D03*
Y789028D02*
D03*
Y769028D02*
D03*
Y749028D02*
D03*
Y739028D02*
D03*
Y729028D02*
D03*
Y719028D02*
D03*
Y709028D02*
D03*
Y689028D02*
D03*
Y669028D02*
D03*
X733500Y919028D02*
D03*
Y889028D02*
D03*
Y849028D02*
D03*
Y749028D02*
D03*
Y739028D02*
D03*
Y729028D02*
D03*
Y719028D02*
D03*
Y709028D02*
D03*
Y699028D02*
D03*
Y689028D02*
D03*
Y679028D02*
D03*
Y669028D02*
D03*
X743500Y919028D02*
D03*
Y909028D02*
D03*
Y899028D02*
D03*
Y889028D02*
D03*
Y879028D02*
D03*
Y869028D02*
D03*
Y859028D02*
D03*
Y839028D02*
D03*
Y829028D02*
D03*
Y759028D02*
D03*
Y749028D02*
D03*
Y739028D02*
D03*
Y719028D02*
D03*
Y699028D02*
D03*
Y689028D02*
D03*
Y669028D02*
D03*
X753500Y919028D02*
D03*
Y899028D02*
D03*
Y889028D02*
D03*
Y869028D02*
D03*
Y859028D02*
D03*
Y849028D02*
D03*
Y839028D02*
D03*
Y759028D02*
D03*
Y749028D02*
D03*
Y729028D02*
D03*
Y719028D02*
D03*
Y709028D02*
D03*
Y699028D02*
D03*
Y689028D02*
D03*
Y679028D02*
D03*
Y669028D02*
D03*
X763500Y899028D02*
D03*
Y889028D02*
D03*
Y879028D02*
D03*
Y869028D02*
D03*
Y839028D02*
D03*
Y829028D02*
D03*
Y749028D02*
D03*
Y739028D02*
D03*
Y729028D02*
D03*
Y719028D02*
D03*
Y699028D02*
D03*
Y689028D02*
D03*
Y669028D02*
D03*
X773500Y919028D02*
D03*
Y899028D02*
D03*
Y889028D02*
D03*
Y869028D02*
D03*
Y849028D02*
D03*
Y839028D02*
D03*
Y829028D02*
D03*
Y759028D02*
D03*
Y749028D02*
D03*
Y739028D02*
D03*
Y719028D02*
D03*
Y709028D02*
D03*
Y699028D02*
D03*
Y689028D02*
D03*
Y679028D02*
D03*
Y669028D02*
D03*
X783500Y919028D02*
D03*
Y909028D02*
D03*
Y899028D02*
D03*
Y889028D02*
D03*
Y879028D02*
D03*
Y869028D02*
D03*
Y849028D02*
D03*
Y839028D02*
D03*
Y749028D02*
D03*
Y729028D02*
D03*
X793500Y919028D02*
D03*
Y899028D02*
D03*
Y879028D02*
D03*
Y859028D02*
D03*
Y849028D02*
D03*
Y839028D02*
D03*
Y819028D02*
D03*
Y809028D02*
D03*
Y799028D02*
D03*
Y779028D02*
D03*
Y759028D02*
D03*
Y749028D02*
D03*
Y739028D02*
D03*
X803500Y919028D02*
D03*
Y909028D02*
D03*
Y899028D02*
D03*
Y889028D02*
D03*
Y879028D02*
D03*
Y869028D02*
D03*
Y859028D02*
D03*
Y849028D02*
D03*
Y829028D02*
D03*
Y819028D02*
D03*
Y809028D02*
D03*
Y789028D02*
D03*
Y779028D02*
D03*
Y769028D02*
D03*
Y759028D02*
D03*
Y739028D02*
D03*
Y729028D02*
D03*
X813500Y919028D02*
D03*
Y899028D02*
D03*
Y879028D02*
D03*
Y869028D02*
D03*
Y859028D02*
D03*
Y849028D02*
D03*
Y839028D02*
D03*
Y829028D02*
D03*
Y819028D02*
D03*
Y799028D02*
D03*
Y789028D02*
D03*
Y779028D02*
D03*
Y769028D02*
D03*
Y759028D02*
D03*
Y739028D02*
D03*
Y729028D02*
D03*
Y719028D02*
D03*
X823500Y919028D02*
D03*
Y909028D02*
D03*
Y899028D02*
D03*
Y889028D02*
D03*
Y879028D02*
D03*
Y869028D02*
D03*
Y849028D02*
D03*
Y839028D02*
D03*
Y829028D02*
D03*
Y809028D02*
D03*
Y799028D02*
D03*
Y789028D02*
D03*
Y769028D02*
D03*
Y759028D02*
D03*
Y749028D02*
D03*
Y739028D02*
D03*
Y729028D02*
D03*
Y719028D02*
D03*
Y689028D02*
D03*
Y669028D02*
D03*
X833500Y919028D02*
D03*
Y899028D02*
D03*
Y879028D02*
D03*
Y859028D02*
D03*
Y839028D02*
D03*
Y819028D02*
D03*
Y809028D02*
D03*
Y799028D02*
D03*
Y789028D02*
D03*
Y779028D02*
D03*
Y769028D02*
D03*
Y759028D02*
D03*
Y739028D02*
D03*
Y729028D02*
D03*
Y709028D02*
D03*
Y699028D02*
D03*
Y689028D02*
D03*
Y679028D02*
D03*
Y669028D02*
D03*
X843500Y919028D02*
D03*
Y909028D02*
D03*
Y899028D02*
D03*
Y889028D02*
D03*
Y879028D02*
D03*
Y869028D02*
D03*
Y859028D02*
D03*
Y849028D02*
D03*
Y839028D02*
D03*
Y829028D02*
D03*
Y809028D02*
D03*
Y799028D02*
D03*
Y789028D02*
D03*
Y759028D02*
D03*
Y749028D02*
D03*
Y739028D02*
D03*
Y729028D02*
D03*
Y719028D02*
D03*
Y709028D02*
D03*
Y699028D02*
D03*
Y689028D02*
D03*
Y669028D02*
D03*
X853500Y919028D02*
D03*
Y909028D02*
D03*
Y899028D02*
D03*
Y889028D02*
D03*
Y879028D02*
D03*
Y869028D02*
D03*
Y839028D02*
D03*
Y829028D02*
D03*
Y819028D02*
D03*
Y809028D02*
D03*
Y789028D02*
D03*
Y779028D02*
D03*
Y769028D02*
D03*
Y749028D02*
D03*
Y729028D02*
D03*
Y709028D02*
D03*
Y689028D02*
D03*
Y679028D02*
D03*
Y669028D02*
D03*
X863500Y909028D02*
D03*
Y899028D02*
D03*
Y889028D02*
D03*
Y879028D02*
D03*
Y869028D02*
D03*
Y859028D02*
D03*
Y849028D02*
D03*
Y839028D02*
D03*
Y829028D02*
D03*
Y819028D02*
D03*
Y809028D02*
D03*
Y799028D02*
D03*
Y789028D02*
D03*
Y779028D02*
D03*
Y769028D02*
D03*
Y759028D02*
D03*
Y749028D02*
D03*
Y729028D02*
D03*
Y719028D02*
D03*
Y709028D02*
D03*
Y699028D02*
D03*
Y689028D02*
D03*
Y669028D02*
D03*
X873500Y919028D02*
D03*
Y909028D02*
D03*
Y889028D02*
D03*
Y869028D02*
D03*
Y849028D02*
D03*
Y829028D02*
D03*
Y809028D02*
D03*
Y789028D02*
D03*
Y769028D02*
D03*
Y709028D02*
D03*
Y689028D02*
D03*
Y679028D02*
D03*
Y669028D02*
D03*
X883500Y909028D02*
D03*
Y859028D02*
D03*
Y869028D02*
D03*
Y879028D02*
D03*
Y899028D02*
D03*
Y889028D02*
D03*
Y849028D02*
D03*
Y829028D02*
D03*
Y839028D02*
D03*
Y819028D02*
D03*
Y809028D02*
D03*
Y799028D02*
D03*
Y789028D02*
D03*
Y769028D02*
D03*
Y779028D02*
D03*
Y759028D02*
D03*
Y719028D02*
D03*
Y709028D02*
D03*
Y689028D02*
D03*
Y699028D02*
D03*
Y679028D02*
D03*
X713500Y879028D02*
D03*
Y859028D02*
D03*
X733500D02*
D03*
X723500Y849028D02*
D03*
X703500Y889028D02*
D03*
X733500Y839028D02*
D03*
X703500Y919028D02*
D03*
X683500Y899028D02*
D03*
X713500Y869028D02*
D03*
X723500Y919028D02*
D03*
X713500D02*
D03*
X693500Y889028D02*
D03*
X763500Y919028D02*
D03*
Y909028D02*
D03*
X723500D02*
D03*
X703500Y869028D02*
D03*
Y909028D02*
D03*
X723500Y869028D02*
D03*
X703500Y899028D02*
D03*
X713500D02*
D03*
X823500Y779028D02*
D03*
X803500Y799028D02*
D03*
X853500D02*
D03*
X873500Y819028D02*
D03*
X823500D02*
D03*
X833500Y849028D02*
D03*
X853500D02*
D03*
X873500Y859028D02*
D03*
X833500Y889028D02*
D03*
X873500Y899028D02*
D03*
X683500Y709028D02*
D03*
X663500Y689028D02*
D03*
X763500Y859028D02*
D03*
X863500Y919028D02*
D03*
X693500Y719028D02*
D03*
X763500Y849028D02*
D03*
X653500Y669028D02*
D03*
X803500Y719028D02*
D03*
X883500Y749028D02*
D03*
X823500Y699028D02*
D03*
X793500Y689028D02*
D03*
X813500Y699028D02*
D03*
X793500Y679028D02*
D03*
X803500Y669028D02*
D03*
X783500D02*
D03*
X793500Y709028D02*
D03*
X873500Y749028D02*
D03*
X883500Y739028D02*
D03*
X813500Y689028D02*
D03*
X793500Y669028D02*
D03*
X803500Y709028D02*
D03*
X883500Y729028D02*
D03*
X783500Y699028D02*
D03*
X793500Y719028D02*
D03*
X813500Y679028D02*
D03*
X873500Y699028D02*
D03*
X853500Y719028D02*
D03*
X833500Y749028D02*
D03*
X853500Y759028D02*
D03*
X873500Y779028D02*
D03*
Y739028D02*
D03*
X813500Y709028D02*
D03*
X873500Y729028D02*
D03*
X793500Y699028D02*
D03*
X863500Y739028D02*
D03*
X783500Y719028D02*
D03*
X813500Y669028D02*
D03*
X783500Y689028D02*
D03*
X803500D02*
D03*
D123*
X1234888Y625846D02*
D03*
Y536346D02*
D03*
X1229888D02*
D03*
X1209888D02*
D03*
X1184888Y625846D02*
D03*
X1194888Y536346D02*
D03*
X1179888D02*
D03*
X1159888D02*
D03*
X1164888D02*
D03*
X1214888D02*
D03*
X522629Y984553D02*
D03*
X482629D02*
D03*
X467629D02*
D03*
X532629Y895053D02*
D03*
X512629D02*
D03*
X462629D02*
D03*
X497629D02*
D03*
X532629Y984553D02*
D03*
X527629D02*
D03*
X1224888Y536346D02*
D03*
X1219888D02*
D03*
X1204888D02*
D03*
X1199888D02*
D03*
X1184888D02*
D03*
X1174888D02*
D03*
X1169888D02*
D03*
X1159888Y625846D02*
D03*
X1224888D02*
D03*
X1174888D02*
D03*
X1194888D02*
D03*
X1179888D02*
D03*
X1214888D02*
D03*
X1219888D02*
D03*
X1199888D02*
D03*
X1229888D02*
D03*
X1169888D02*
D03*
X1164888D02*
D03*
X1204888D02*
D03*
X1209888D02*
D03*
X1189888Y536346D02*
D03*
Y625846D02*
D03*
X467629Y895053D02*
D03*
X472629D02*
D03*
X477629D02*
D03*
X482629D02*
D03*
X487629D02*
D03*
X492629D02*
D03*
X502629D02*
D03*
X507629D02*
D03*
X522629D02*
D03*
X537629D02*
D03*
Y984553D02*
D03*
X512629D02*
D03*
X507629D02*
D03*
X502629D02*
D03*
X497629D02*
D03*
X492629D02*
D03*
X487629D02*
D03*
X477629D02*
D03*
X472629D02*
D03*
X462629D02*
D03*
X517629Y895053D02*
D03*
Y984553D02*
D03*
X527629Y895053D02*
D03*
D124*
X1525464Y585678D02*
D03*
X1323464D02*
D03*
Y625678D02*
D03*
Y705678D02*
D03*
Y665678D02*
D03*
Y745678D02*
D03*
X1525464D02*
D03*
Y625678D02*
D03*
Y665678D02*
D03*
Y705678D02*
D03*
D125*
X1242138Y573596D02*
D03*
X544879Y962303D02*
D03*
Y977303D02*
D03*
Y947303D02*
D03*
Y922303D02*
D03*
Y907303D02*
D03*
X1242138Y548596D02*
D03*
Y543596D02*
D03*
X1152638D02*
D03*
X1242138Y598596D02*
D03*
Y593596D02*
D03*
X1152638D02*
D03*
X1242138Y553596D02*
D03*
Y563596D02*
D03*
X1152638Y588596D02*
D03*
Y583596D02*
D03*
Y553596D02*
D03*
Y613596D02*
D03*
X1242138Y583596D02*
D03*
Y578596D02*
D03*
X1152638Y563596D02*
D03*
Y548596D02*
D03*
Y568596D02*
D03*
Y608596D02*
D03*
X1242138Y603596D02*
D03*
X1152638Y573596D02*
D03*
X1242138Y608596D02*
D03*
X1152638Y578596D02*
D03*
Y603596D02*
D03*
Y598596D02*
D03*
X1242138Y613596D02*
D03*
Y558596D02*
D03*
X1152638D02*
D03*
X1242138Y588596D02*
D03*
X1152638Y618596D02*
D03*
X1242138Y568596D02*
D03*
Y618596D02*
D03*
X544879Y902303D02*
D03*
Y927303D02*
D03*
Y967303D02*
D03*
Y972303D02*
D03*
X455379Y977303D02*
D03*
Y972303D02*
D03*
Y967303D02*
D03*
Y962303D02*
D03*
Y957303D02*
D03*
Y952303D02*
D03*
Y947303D02*
D03*
Y942303D02*
D03*
Y937303D02*
D03*
Y932303D02*
D03*
Y927303D02*
D03*
Y922303D02*
D03*
Y917303D02*
D03*
Y912303D02*
D03*
Y907303D02*
D03*
Y902303D02*
D03*
X544879Y942303D02*
D03*
Y957303D02*
D03*
Y932303D02*
D03*
Y952303D02*
D03*
Y937303D02*
D03*
Y917303D02*
D03*
Y912303D02*
D03*
D126*
X1159693Y733808D02*
D03*
Y721108D02*
D03*
X1079893Y695708D02*
D03*
Y708408D02*
D03*
Y721108D02*
D03*
X1159693Y695708D02*
D03*
X1079893Y733808D02*
D03*
X1159693Y708408D02*
D03*
D127*
X1123072Y645820D02*
D03*
X1041072D02*
D03*
Y544820D02*
D03*
D128*
X1126322Y631320D02*
D03*
X1037822Y577320D02*
D03*
X1126322Y595320D02*
D03*
Y586320D02*
D03*
Y577320D02*
D03*
Y568320D02*
D03*
Y559320D02*
D03*
Y604320D02*
D03*
Y613320D02*
D03*
Y622320D02*
D03*
X1037822Y631320D02*
D03*
Y622320D02*
D03*
Y613320D02*
D03*
Y604320D02*
D03*
Y559320D02*
D03*
Y568320D02*
D03*
Y586320D02*
D03*
Y595320D02*
D03*
D129*
X1109072Y649570D02*
D03*
X1100072D02*
D03*
X1082072D02*
D03*
X1091072D02*
D03*
X1073072D02*
D03*
X1064072D02*
D03*
X1055072D02*
D03*
Y541070D02*
D03*
X1064072D02*
D03*
X1073072D02*
D03*
X1109072D02*
D03*
X1100072D02*
D03*
X1091072D02*
D03*
X1082072D02*
D03*
D130*
X1095272Y631220D02*
D03*
D131*
X1197388Y581096D02*
D03*
D132*
X1442498Y518421D02*
D03*
X1366298D02*
D03*
X1404398D02*
D03*
X1391698D02*
D03*
X1378998D02*
D03*
X1353598D02*
D03*
X1417098D02*
D03*
X1429798D02*
D03*
X1442498Y427871D02*
D03*
X1429798D02*
D03*
X1417098D02*
D03*
X1404398D02*
D03*
X1353598D02*
D03*
X1366298D02*
D03*
X1378998D02*
D03*
X1391698D02*
D03*
D133*
X1329722Y499892D02*
D03*
X1291622D02*
D03*
Y445892D02*
D03*
X1304322D02*
D03*
X1317022D02*
D03*
X1329722D02*
D03*
X1304322Y499892D02*
D03*
X1317022D02*
D03*
D134*
X1257078Y322662D02*
D03*
X1152430Y316820D02*
D03*
X1019382Y347928D02*
D03*
X820246Y357580D02*
D03*
Y406580D02*
D03*
X1019382Y396928D02*
D03*
X1257078Y371662D02*
D03*
X1152430Y365820D02*
D03*
D135*
X1141127Y503301D02*
D03*
X1018259Y533411D02*
D03*
X1031272Y470987D02*
D03*
X520611Y1025320D02*
D03*
X759492Y417647D02*
D03*
X471315Y811448D02*
D03*
X599694Y758317D02*
D03*
Y775335D02*
D03*
X1141127Y520319D02*
D03*
X1018259Y550429D02*
D03*
X225044Y880999D02*
D03*
Y863981D02*
D03*
X759492Y434665D02*
D03*
X1031272Y488005D02*
D03*
X520611Y1008302D02*
D03*
X471315Y794430D02*
D03*
D136*
X1099634Y462387D02*
D03*
Y468887D02*
D03*
X1051634D02*
D03*
Y475387D02*
D03*
X1099634D02*
D03*
X1051634Y481887D02*
D03*
X1099634D02*
D03*
X1051634Y462387D02*
D03*
X1099634Y455887D02*
D03*
X1051634D02*
D03*
D137*
X1009430Y656659D02*
D03*
X981930Y676659D02*
D03*
Y671659D02*
D03*
Y661659D02*
D03*
Y656659D02*
D03*
X1009430Y676659D02*
D03*
Y671659D02*
D03*
X981930Y666659D02*
D03*
X1009430Y661659D02*
D03*
Y666659D02*
D03*
D138*
X995680D02*
D03*
D139*
X955024Y593408D02*
D03*
Y573408D02*
D03*
Y578408D02*
D03*
Y608408D02*
D03*
X885524D02*
D03*
Y578408D02*
D03*
X955024Y628408D02*
D03*
X885524Y588408D02*
D03*
Y573408D02*
D03*
X955024Y613408D02*
D03*
X885524D02*
D03*
X955024Y623408D02*
D03*
X885524Y603408D02*
D03*
Y583408D02*
D03*
Y628408D02*
D03*
Y593408D02*
D03*
Y618408D02*
D03*
X955024D02*
D03*
X885524Y598408D02*
D03*
Y623408D02*
D03*
X955024Y603408D02*
D03*
Y598408D02*
D03*
Y588408D02*
D03*
Y583408D02*
D03*
D140*
X920274Y600908D02*
D03*
D141*
X1075635Y468887D02*
D03*
D142*
X927774Y566158D02*
D03*
X912774D02*
D03*
X892774D02*
D03*
X907774D02*
D03*
X932774D02*
D03*
X947774D02*
D03*
X902774Y635658D02*
D03*
X937774D02*
D03*
X912774D02*
D03*
X932774D02*
D03*
X907774D02*
D03*
X942774D02*
D03*
X927774D02*
D03*
X947774D02*
D03*
X922774D02*
D03*
X892774D02*
D03*
X897774D02*
D03*
X917774D02*
D03*
X942774Y566158D02*
D03*
X937774D02*
D03*
X922774D02*
D03*
X917774D02*
D03*
X902774D02*
D03*
X897774D02*
D03*
D143*
X500129Y939803D02*
D03*
D144*
X400120Y1058098D02*
D03*
Y1070798D02*
D03*
Y1032698D02*
D03*
Y1134298D02*
D03*
Y1121598D02*
D03*
Y1019998D02*
D03*
Y1007298D02*
D03*
Y1045398D02*
D03*
Y1083498D02*
D03*
Y1096198D02*
D03*
Y1108898D02*
D03*
D145*
X300620Y1070798D02*
D03*
D146*
X402001Y896620D02*
D03*
Y845820D02*
D03*
D147*
X180721Y918972D02*
D03*
X703685Y563102D02*
D03*
X82169Y875284D02*
D03*
X579268Y775507D02*
D03*
X483888D02*
D03*
X436644Y801669D02*
D03*
X180213Y800100D02*
D03*
X195199D02*
D03*
X195707Y918972D02*
D03*
X97155Y875284D02*
D03*
X564282Y775507D02*
D03*
X498874D02*
D03*
X451630Y801669D02*
D03*
X1295305Y426410D02*
D03*
X1280319D02*
D03*
X1379125Y404058D02*
D03*
X1364139D02*
D03*
X718671Y563102D02*
D03*
D148*
X164641Y918972D02*
D03*
X156640Y800100D02*
D03*
X140638D02*
D03*
X148639Y918972D02*
D03*
X1459643Y375610D02*
D03*
X1443641D02*
D03*
D149*
X810252Y489701D02*
D03*
Y441702D02*
D03*
X803752D02*
D03*
X797252D02*
D03*
X1069135Y444886D02*
D03*
X1075635D02*
D03*
X1082135D02*
D03*
X1088635D02*
D03*
Y492886D02*
D03*
X1082135D02*
D03*
X1075635D02*
D03*
X1069135D02*
D03*
X1062635D02*
D03*
Y444886D02*
D03*
X816752Y489701D02*
D03*
X803752D02*
D03*
X797252D02*
D03*
X790752D02*
D03*
Y441702D02*
D03*
X816752D02*
D03*
D150*
X819914Y588502D02*
D03*
D151*
X803752Y465701D02*
D03*
D152*
X827752Y459202D02*
D03*
Y465701D02*
D03*
Y472201D02*
D03*
Y478702D02*
D03*
X779752Y459202D02*
D03*
Y452701D02*
D03*
Y478702D02*
D03*
Y472201D02*
D03*
Y465701D02*
D03*
X827752Y452701D02*
D03*
D153*
X743614Y588502D02*
D03*
Y613902D02*
D03*
Y626602D02*
D03*
Y601202D02*
D03*
Y575802D02*
D03*
Y563102D02*
D03*
Y550402D02*
D03*
D154*
X533848Y825291D02*
D03*
D155*
X139640Y862024D02*
D03*
X195640Y855524D02*
D03*
X139640Y842524D02*
D03*
X195640Y901024D02*
D03*
Y816524D02*
D03*
Y836024D02*
D03*
Y849024D02*
D03*
Y862024D02*
D03*
Y868524D02*
D03*
Y875024D02*
D03*
Y881524D02*
D03*
X139640Y816524D02*
D03*
Y836024D02*
D03*
Y849024D02*
D03*
Y855524D02*
D03*
Y868524D02*
D03*
Y875024D02*
D03*
Y881524D02*
D03*
Y901024D02*
D03*
Y894524D02*
D03*
X195640Y829524D02*
D03*
Y823024D02*
D03*
X139640D02*
D03*
Y829524D02*
D03*
X195640Y888024D02*
D03*
X139640D02*
D03*
X195640Y894524D02*
D03*
Y842524D02*
D03*
D156*
X589406Y809041D02*
D03*
Y792541D02*
D03*
X573906D02*
D03*
Y809041D02*
D03*
D157*
X516348Y800791D02*
D03*
X551348Y849791D02*
D03*
X521348Y800791D02*
D03*
X526348D02*
D03*
X531348D02*
D03*
X536348D02*
D03*
X541348D02*
D03*
X546348D02*
D03*
X551348D02*
D03*
X546348Y849791D02*
D03*
X541348D02*
D03*
X536348D02*
D03*
X531348D02*
D03*
X526348D02*
D03*
X521348D02*
D03*
X516348D02*
D03*
D158*
X342424Y702346D02*
D03*
Y766046D02*
D03*
D159*
X299871Y871220D02*
D03*
D160*
X395074Y772866D02*
D03*
Y756864D02*
D03*
D161*
X1418066Y329560D02*
D03*
X1438066D02*
D03*
D162*
X1441066Y356560D02*
D03*
X1434566D02*
D03*
X1428066D02*
D03*
X1421566D02*
D03*
X1415066D02*
D03*
D163*
X531767Y621623D02*
D03*
Y613923D02*
D03*
D164*
X541767Y621623D02*
D03*
Y613923D02*
D03*
X526767Y621623D02*
D03*
Y613923D02*
D03*
X521767D02*
D03*
Y621623D02*
D03*
X536767D02*
D03*
Y613923D02*
D03*
D165*
X1416698Y384928D02*
D03*
Y379928D02*
D03*
Y374928D02*
D03*
X1430198D02*
D03*
Y384928D02*
D03*
D166*
X1198912Y420314D02*
D03*
D167*
X1178412Y407814D02*
D03*
Y412814D02*
D03*
Y417814D02*
D03*
Y422814D02*
D03*
Y427814D02*
D03*
Y432814D02*
D03*
X1219412D02*
D03*
Y427814D02*
D03*
Y422814D02*
D03*
Y417814D02*
D03*
Y412814D02*
D03*
Y407814D02*
D03*
D168*
X1186412Y440814D02*
D03*
X1191412D02*
D03*
X1196412D02*
D03*
X1201412D02*
D03*
X1206412D02*
D03*
X1211412D02*
D03*
Y399814D02*
D03*
X1206412D02*
D03*
X1201412D02*
D03*
X1196412D02*
D03*
X1191412D02*
D03*
X1186412D02*
D03*
D169*
X1084272Y562320D02*
D03*
D170*
X1058772Y635920D02*
D03*
D171*
X1055572Y608520D02*
D03*
D172*
X1095072Y596420D02*
D03*
D173*
X509348Y807791D02*
D03*
X558348Y817791D02*
D03*
Y807791D02*
D03*
Y812791D02*
D03*
Y822791D02*
D03*
Y827791D02*
D03*
Y832791D02*
D03*
Y837791D02*
D03*
Y842791D02*
D03*
X509348D02*
D03*
Y837791D02*
D03*
Y832791D02*
D03*
Y827791D02*
D03*
Y822791D02*
D03*
Y817791D02*
D03*
Y812791D02*
D03*
D174*
X941064Y421479D02*
D03*
Y427979D02*
D03*
Y434479D02*
D03*
Y440979D02*
D03*
X899564Y421479D02*
D03*
Y427979D02*
D03*
Y434479D02*
D03*
Y440979D02*
D03*
D175*
X225935Y741680D02*
D03*
X1530604Y434594D02*
D03*
X163576Y1035050D02*
D03*
D176*
X1119793Y714758D02*
D03*
D177*
X586845Y928803D02*
D03*
X945345Y697403D02*
D03*
D178*
X384424Y586789D02*
D03*
D179*
X342424D02*
D03*
X300424D02*
D03*
Y641789D02*
D03*
X384424D02*
D03*
X342424D02*
D03*
D180*
X300424Y513789D02*
D03*
X384424D02*
D03*
D181*
X1293145Y371801D02*
D03*
X1343945D02*
D03*
X1293145Y321001D02*
D03*
X1343945D02*
D03*
X1115599Y371801D02*
D03*
Y321001D02*
D03*
X1064799Y371801D02*
D03*
Y321001D02*
D03*
X983821Y367603D02*
D03*
Y316803D02*
D03*
X933021D02*
D03*
Y367603D02*
D03*
X905640Y367602D02*
D03*
Y316802D02*
D03*
X854840Y367602D02*
D03*
Y316802D02*
D03*
X1090200Y346400D02*
D03*
X880241Y342201D02*
D03*
X958422Y342202D02*
D03*
X1318546Y346400D02*
D03*
D182*
X544548Y835991D02*
D03*
Y825291D02*
D03*
X533848D02*
D03*
Y835991D02*
D03*
Y814591D02*
D03*
X544548D02*
D03*
X523148Y835991D02*
D03*
Y825291D02*
D03*
Y814591D02*
D03*
D183*
X200984Y494284D02*
D03*
X150984D02*
D03*
X100984D02*
D03*
D184*
X50984D02*
D03*
D185*
X594251Y497123D02*
D03*
X467251D02*
D03*
D186*
X485031Y588563D02*
D03*
X462171D02*
D03*
X576471D02*
D03*
X525671Y522523D02*
D03*
X535831Y540303D02*
D03*
X505351Y522523D02*
D03*
X495191Y540303D02*
D03*
X545991Y522523D02*
D03*
X515511Y540303D02*
D03*
X556151D02*
D03*
X599331Y588563D02*
D03*
D187*
X566311Y522523D02*
D03*
D188*
X1393066Y329560D02*
D03*
X1463066D02*
D03*
D189*
X1403066Y356560D02*
D03*
X1453066D02*
D03*
D190*
X1177284Y916080D02*
D03*
X1212844Y826147D02*
D03*
Y876947D02*
D03*
Y864247D02*
D03*
Y851547D02*
D03*
Y838847D02*
D03*
X1230751Y807097D02*
D03*
X1230576Y794349D02*
D03*
X1230624Y781294D02*
D03*
X1230528Y819700D02*
D03*
Y870500D02*
D03*
X1230624Y857897D02*
D03*
X1230528Y845100D02*
D03*
Y832400D02*
D03*
X1230624Y883297D02*
D03*
X1212844Y800738D02*
D03*
Y788115D02*
D03*
Y775347D02*
D03*
Y813550D02*
D03*
Y915537D02*
D03*
X1230528Y908600D02*
D03*
X1212844Y889451D02*
D03*
X1230576Y895948D02*
D03*
X1212844Y902264D02*
D03*
X1000760Y1198880D02*
D03*
X985520D02*
D03*
X993140Y1183640D02*
D03*
X970280Y1198880D02*
D03*
X977900Y1183640D02*
D03*
X955040Y1198880D02*
D03*
X962660Y1183640D02*
D03*
X939800Y1198880D02*
D03*
X947420Y1183640D02*
D03*
X924560Y1198880D02*
D03*
X932180Y1183640D02*
D03*
X909320Y1198880D02*
D03*
X916940Y1183640D02*
D03*
X894080Y1198880D02*
D03*
X878840D02*
D03*
X863600D02*
D03*
X848360D02*
D03*
X855980Y1183640D02*
D03*
X833120Y1198880D02*
D03*
X840740Y1183640D02*
D03*
X817880Y1198880D02*
D03*
X825500Y1183640D02*
D03*
X802640Y1198880D02*
D03*
X810260Y1183640D02*
D03*
X787400Y1198880D02*
D03*
X795020Y1183640D02*
D03*
X787400Y1168400D02*
D03*
X772160Y1198880D02*
D03*
X779780Y1183640D02*
D03*
X772160Y1168400D02*
D03*
X779780Y1153160D02*
D03*
X772160Y1137920D02*
D03*
X756920Y1198880D02*
D03*
X764540Y1183640D02*
D03*
X756920Y1168400D02*
D03*
X764540Y1153160D02*
D03*
X756920Y1137920D02*
D03*
X764540Y1122680D02*
D03*
X741680Y1198880D02*
D03*
X749300Y1183640D02*
D03*
X741680Y1168400D02*
D03*
X749300Y1153160D02*
D03*
X741680Y1137920D02*
D03*
X749300Y1122680D02*
D03*
X726440Y1198880D02*
D03*
X734060Y1183640D02*
D03*
X726440Y1168400D02*
D03*
X734060Y1153160D02*
D03*
X726440Y1137920D02*
D03*
X734060Y1122680D02*
D03*
X711200Y1198880D02*
D03*
X718820Y1183640D02*
D03*
X711200Y1168400D02*
D03*
X718820Y1153160D02*
D03*
X711200Y1137920D02*
D03*
X718820Y1122680D02*
D03*
X695960Y1198880D02*
D03*
X703580Y1183640D02*
D03*
X695960Y1168400D02*
D03*
X703580Y1153160D02*
D03*
X695960Y1137920D02*
D03*
X703580Y1122680D02*
D03*
X680720Y1198880D02*
D03*
X688340Y1183640D02*
D03*
X680720Y1168400D02*
D03*
X688340Y1153160D02*
D03*
X680720Y1137920D02*
D03*
X688340Y1122680D02*
D03*
X665480Y1198880D02*
D03*
X673100Y1183640D02*
D03*
X665480Y1168400D02*
D03*
X673100Y1153160D02*
D03*
X665480Y1137920D02*
D03*
X673100Y1122680D02*
D03*
X650240Y1198880D02*
D03*
X657860Y1183640D02*
D03*
X650240Y1168400D02*
D03*
X657860Y1153160D02*
D03*
X650240Y1137920D02*
D03*
X635000Y1198880D02*
D03*
X642620Y1183640D02*
D03*
X635000Y1168400D02*
D03*
X642620Y1153160D02*
D03*
X635000Y1137920D02*
D03*
X619760Y1198880D02*
D03*
X627380Y1183640D02*
D03*
X619760Y1168400D02*
D03*
X627380Y1153160D02*
D03*
X619760Y1137920D02*
D03*
X604520Y1198880D02*
D03*
X612140Y1183640D02*
D03*
X604520Y1168400D02*
D03*
X612140Y1153160D02*
D03*
X604520Y1137920D02*
D03*
X589280Y1198880D02*
D03*
X596900Y1183640D02*
D03*
X589280Y1168400D02*
D03*
X596900Y1153160D02*
D03*
X589280Y1137920D02*
D03*
X596900Y1122680D02*
D03*
X574040Y1198880D02*
D03*
X581660Y1183640D02*
D03*
X574040Y1168400D02*
D03*
X581660Y1153160D02*
D03*
X574040Y1137920D02*
D03*
X581660Y1122680D02*
D03*
X558800Y1198880D02*
D03*
X566420Y1183640D02*
D03*
X558800Y1168400D02*
D03*
X566420Y1153160D02*
D03*
X558800Y1137920D02*
D03*
X566420Y1122680D02*
D03*
X543560Y1198880D02*
D03*
X551180Y1183640D02*
D03*
X543560Y1168400D02*
D03*
X551180Y1153160D02*
D03*
X543560Y1137920D02*
D03*
X551180Y1122680D02*
D03*
X528320Y1198880D02*
D03*
X535940Y1183640D02*
D03*
X528320Y1168400D02*
D03*
X535940Y1153160D02*
D03*
X528320Y1137920D02*
D03*
X535940Y1122680D02*
D03*
X513080Y1198880D02*
D03*
X520700Y1183640D02*
D03*
X513080Y1168400D02*
D03*
X520700Y1153160D02*
D03*
X497840Y1198880D02*
D03*
X505460Y1183640D02*
D03*
X497840Y1168400D02*
D03*
X505460Y1153160D02*
D03*
X482600Y1198880D02*
D03*
X490220Y1183640D02*
D03*
X482600Y1168400D02*
D03*
X467360Y1198880D02*
D03*
X474980Y1183640D02*
D03*
X467360Y1168400D02*
D03*
X452120Y1198880D02*
D03*
X459740Y1183640D02*
D03*
X452120Y1168400D02*
D03*
X436880Y1198880D02*
D03*
X444500Y1183640D02*
D03*
X436880Y1168400D02*
D03*
X421640Y1198880D02*
D03*
X429260Y1183640D02*
D03*
X421640Y1168400D02*
D03*
X406400Y1198880D02*
D03*
X414020Y1183640D02*
D03*
X406400Y1168400D02*
D03*
X391160Y1198880D02*
D03*
X398780Y1183640D02*
D03*
X391160Y1168400D02*
D03*
X375920Y1198880D02*
D03*
X383540Y1183640D02*
D03*
X375920Y1168400D02*
D03*
X360680Y1198880D02*
D03*
X368300Y1183640D02*
D03*
X360680Y1168400D02*
D03*
Y1137920D02*
D03*
Y1016000D02*
D03*
Y985520D02*
D03*
X345440Y1198880D02*
D03*
X353060Y1183640D02*
D03*
X345440Y1168400D02*
D03*
X353060Y1153160D02*
D03*
X345440Y1137920D02*
D03*
X353060Y1122680D02*
D03*
X345440Y1016000D02*
D03*
X353060Y1000760D02*
D03*
X345440Y985520D02*
D03*
Y955040D02*
D03*
X330200Y1198880D02*
D03*
X337820Y1183640D02*
D03*
X330200Y1168400D02*
D03*
X337820Y1153160D02*
D03*
X330200Y1137920D02*
D03*
X337820Y1122680D02*
D03*
X330200Y1016000D02*
D03*
X337820Y1000760D02*
D03*
X330200Y985520D02*
D03*
X337820Y970280D02*
D03*
X330200Y955040D02*
D03*
X314960Y1198880D02*
D03*
X322580Y1183640D02*
D03*
X314960Y1168400D02*
D03*
X322580Y1153160D02*
D03*
X314960Y1137920D02*
D03*
X322580Y1122680D02*
D03*
X314960Y1016000D02*
D03*
X322580Y1000760D02*
D03*
X314960Y985520D02*
D03*
X322580Y970280D02*
D03*
X314960Y955040D02*
D03*
X299720Y1198880D02*
D03*
X307340Y1183640D02*
D03*
X299720Y1168400D02*
D03*
X307340Y1153160D02*
D03*
X299720Y1137920D02*
D03*
X307340Y1122680D02*
D03*
X299720Y1016000D02*
D03*
X307340Y1000760D02*
D03*
X299720Y985520D02*
D03*
X307340Y970280D02*
D03*
X299720Y955040D02*
D03*
X284480Y1198880D02*
D03*
X292100Y1183640D02*
D03*
X284480Y1168400D02*
D03*
X292100Y1153160D02*
D03*
X284480Y1137920D02*
D03*
X292100Y1122680D02*
D03*
X284480Y1016000D02*
D03*
X292100Y1000760D02*
D03*
X284480Y985520D02*
D03*
X292100Y970280D02*
D03*
X284480Y955040D02*
D03*
X276860Y1183640D02*
D03*
X269240Y1168400D02*
D03*
X276860Y1153160D02*
D03*
X269240Y1137920D02*
D03*
X276860Y1122680D02*
D03*
X269240Y1016000D02*
D03*
X276860Y1000760D02*
D03*
X269240Y985520D02*
D03*
X276860Y970280D02*
D03*
X269240Y955040D02*
D03*
X261620Y1183640D02*
D03*
X254000Y1168400D02*
D03*
X261620Y1153160D02*
D03*
X254000Y1137920D02*
D03*
X261620Y1122680D02*
D03*
X254000Y1016000D02*
D03*
X261620Y1000760D02*
D03*
X254000Y985520D02*
D03*
X261620Y970280D02*
D03*
X254000Y955040D02*
D03*
X246380Y1153160D02*
D03*
X238760Y1137920D02*
D03*
X246380Y1122680D02*
D03*
X238760Y1016000D02*
D03*
X246380Y1000760D02*
D03*
X238760Y985520D02*
D03*
X246380Y970280D02*
D03*
X238760Y955040D02*
D03*
X231140Y1153160D02*
D03*
X223520Y1137920D02*
D03*
X231140Y1122680D02*
D03*
X223520Y1107440D02*
D03*
Y1076960D02*
D03*
Y1046480D02*
D03*
Y1016000D02*
D03*
X231140Y1000760D02*
D03*
X223520Y985520D02*
D03*
X231140Y970280D02*
D03*
X223520Y955040D02*
D03*
X1212286Y926394D02*
D03*
X1186872Y907529D02*
D03*
Y920803D02*
D03*
X1132462Y891011D02*
D03*
X1186872Y869512D02*
D03*
X1163728Y875434D02*
D03*
X1186872Y856812D02*
D03*
Y831412D02*
D03*
Y793381D02*
D03*
Y806003D02*
D03*
Y780612D02*
D03*
Y767843D02*
D03*
X900678Y1179886D02*
D03*
X1017010Y1079810D02*
D03*
X900678Y1052886D02*
D03*
X573333Y880810D02*
D03*
X759238Y600478D02*
D03*
X589820Y863036D02*
D03*
X605352Y823605D02*
D03*
X602266Y739028D02*
D03*
X284480Y574040D02*
D03*
X288290Y612140D02*
D03*
X284480Y619760D02*
D03*
X295910Y612140D02*
D03*
X292100Y619760D02*
D03*
X303530Y612140D02*
D03*
X299720Y619760D02*
D03*
X303530Y688340D02*
D03*
X311150Y612140D02*
D03*
X307340Y619760D02*
D03*
X311150Y673100D02*
D03*
X307340Y680720D02*
D03*
X311150Y688340D02*
D03*
X314960Y574040D02*
D03*
X318770Y581660D02*
D03*
Y596900D02*
D03*
Y612140D02*
D03*
X314960Y619760D02*
D03*
X318770Y673100D02*
D03*
X314960Y680720D02*
D03*
X318770Y688340D02*
D03*
X314960Y695960D02*
D03*
X318770Y703580D02*
D03*
X322580Y574040D02*
D03*
Y589280D02*
D03*
X326390Y596900D02*
D03*
Y612140D02*
D03*
X322580Y619760D02*
D03*
Y665480D02*
D03*
X326390Y673100D02*
D03*
X334010Y612140D02*
D03*
X330200Y619760D02*
D03*
Y665480D02*
D03*
X334010Y673100D02*
D03*
X341630Y612140D02*
D03*
X337820Y619760D02*
D03*
Y665480D02*
D03*
X341630Y673100D02*
D03*
X349250Y612140D02*
D03*
X345440Y619760D02*
D03*
Y665480D02*
D03*
X349250Y673100D02*
D03*
X356870Y612140D02*
D03*
X353060Y619760D02*
D03*
Y665480D02*
D03*
X356870Y673100D02*
D03*
X360680Y574040D02*
D03*
X364490Y581660D02*
D03*
X360680Y589280D02*
D03*
X364490Y596900D02*
D03*
Y612140D02*
D03*
X360680Y619760D02*
D03*
Y665480D02*
D03*
X364490Y673100D02*
D03*
X372110Y612140D02*
D03*
X368300Y619760D02*
D03*
Y665480D02*
D03*
X372110Y673100D02*
D03*
X368300Y680720D02*
D03*
X372110Y688340D02*
D03*
X368300Y695960D02*
D03*
X379730Y612140D02*
D03*
X375920Y619760D02*
D03*
Y665480D02*
D03*
X379730Y673100D02*
D03*
X375920Y680720D02*
D03*
X379730Y688340D02*
D03*
X375920Y695960D02*
D03*
X387350Y612140D02*
D03*
X383540Y619760D02*
D03*
Y665480D02*
D03*
X387350Y673100D02*
D03*
X383540Y680720D02*
D03*
X394970Y612140D02*
D03*
X391160Y619760D02*
D03*
Y665480D02*
D03*
X394970Y673100D02*
D03*
X391160Y680720D02*
D03*
X402590Y581660D02*
D03*
Y596900D02*
D03*
Y612140D02*
D03*
X398780Y619760D02*
D03*
Y665480D02*
D03*
X284480Y574040D02*
D03*
X288290Y612140D02*
D03*
X284480Y619760D02*
D03*
X295910Y612140D02*
D03*
X292100Y619760D02*
D03*
X303530Y612140D02*
D03*
X299720Y619760D02*
D03*
X303530Y688340D02*
D03*
X311150Y612140D02*
D03*
X307340Y619760D02*
D03*
X311150Y673100D02*
D03*
X307340Y680720D02*
D03*
X311150Y688340D02*
D03*
X314960Y574040D02*
D03*
X318770Y581660D02*
D03*
Y596900D02*
D03*
Y612140D02*
D03*
X314960Y619760D02*
D03*
X318770Y673100D02*
D03*
X314960Y680720D02*
D03*
X318770Y688340D02*
D03*
X314960Y695960D02*
D03*
X318770Y703580D02*
D03*
X322580Y574040D02*
D03*
Y589280D02*
D03*
X326390Y596900D02*
D03*
Y612140D02*
D03*
X322580Y619760D02*
D03*
Y665480D02*
D03*
X326390Y673100D02*
D03*
X334010Y612140D02*
D03*
X330200Y619760D02*
D03*
Y665480D02*
D03*
X334010Y673100D02*
D03*
X341630Y612140D02*
D03*
X337820Y619760D02*
D03*
Y665480D02*
D03*
X341630Y673100D02*
D03*
X349250Y612140D02*
D03*
X345440Y619760D02*
D03*
Y665480D02*
D03*
X349250Y673100D02*
D03*
X356870Y612140D02*
D03*
X353060Y619760D02*
D03*
Y665480D02*
D03*
X356870Y673100D02*
D03*
X360680Y574040D02*
D03*
X364490Y581660D02*
D03*
X360680Y589280D02*
D03*
X364490Y596900D02*
D03*
Y612140D02*
D03*
X360680Y619760D02*
D03*
Y665480D02*
D03*
X364490Y673100D02*
D03*
X372110Y612140D02*
D03*
X368300Y619760D02*
D03*
Y665480D02*
D03*
X372110Y673100D02*
D03*
X368300Y680720D02*
D03*
X372110Y688340D02*
D03*
X368300Y695960D02*
D03*
X379730Y612140D02*
D03*
X375920Y619760D02*
D03*
Y665480D02*
D03*
X379730Y673100D02*
D03*
X375920Y680720D02*
D03*
X379730Y688340D02*
D03*
X375920Y695960D02*
D03*
X387350Y612140D02*
D03*
X383540Y619760D02*
D03*
Y665480D02*
D03*
X387350Y673100D02*
D03*
X383540Y680720D02*
D03*
X394970Y612140D02*
D03*
X391160Y619760D02*
D03*
Y665480D02*
D03*
X394970Y673100D02*
D03*
X391160Y680720D02*
D03*
X402590Y581660D02*
D03*
Y596900D02*
D03*
Y612140D02*
D03*
X398780Y619760D02*
D03*
Y665480D02*
D03*
X995680Y1148080D02*
D03*
X985520D02*
D03*
X990600Y1137920D02*
D03*
X975360Y1148080D02*
D03*
X980440Y1137920D02*
D03*
X975360Y1127760D02*
D03*
X970280Y1137920D02*
D03*
X965200Y1127760D02*
D03*
X960120Y1137920D02*
D03*
X955040Y1127760D02*
D03*
X949960Y1137920D02*
D03*
X944880Y1127760D02*
D03*
X939800Y1137920D02*
D03*
X934720Y1127760D02*
D03*
X929640Y1137920D02*
D03*
X924560Y1127760D02*
D03*
X919480Y1137920D02*
D03*
X863600Y1127760D02*
D03*
X868680Y1117600D02*
D03*
X853440Y1148080D02*
D03*
X858520Y1137920D02*
D03*
X853440Y1127760D02*
D03*
X858520Y1117600D02*
D03*
X853440Y1107440D02*
D03*
X843280Y1148080D02*
D03*
X848360Y1137920D02*
D03*
X843280Y1127760D02*
D03*
X848360Y1117600D02*
D03*
X843280Y1107440D02*
D03*
X848360Y1097280D02*
D03*
X833120Y1148080D02*
D03*
X838200Y1137920D02*
D03*
X833120Y1127760D02*
D03*
X838200Y1117600D02*
D03*
X833120Y1107440D02*
D03*
X838200Y1097280D02*
D03*
X833120Y1087120D02*
D03*
X822960Y1148080D02*
D03*
X828040Y1137920D02*
D03*
Y1117600D02*
D03*
X822960Y1107440D02*
D03*
X828040Y1097280D02*
D03*
Y1076960D02*
D03*
X802640Y1107440D02*
D03*
Y1066800D02*
D03*
X797560Y1097280D02*
D03*
X792480Y1087120D02*
D03*
X797560Y1076960D02*
D03*
X792480Y1066800D02*
D03*
X787400Y1097280D02*
D03*
X782320Y1087120D02*
D03*
X787400Y1076960D02*
D03*
X782320Y1066800D02*
D03*
X777240Y1076960D02*
D03*
X772160Y1066800D02*
D03*
X762000Y1087120D02*
D03*
X767080Y1076960D02*
D03*
X762000Y1066800D02*
D03*
X751840Y1087120D02*
D03*
X756920Y1076960D02*
D03*
X751840Y1066800D02*
D03*
X741680Y1087120D02*
D03*
X746760Y1076960D02*
D03*
X741680Y1066800D02*
D03*
X731520Y1087120D02*
D03*
X736600Y1076960D02*
D03*
X731520Y1066800D02*
D03*
X721360Y1087120D02*
D03*
X726440Y1076960D02*
D03*
X721360Y1066800D02*
D03*
X711200Y1087120D02*
D03*
X716280Y1076960D02*
D03*
X711200Y1066800D02*
D03*
X701040Y1087120D02*
D03*
X706120Y1076960D02*
D03*
X701040Y1066800D02*
D03*
X690880Y1087120D02*
D03*
X695960Y1076960D02*
D03*
X690880Y1066800D02*
D03*
X680720Y1087120D02*
D03*
X685800Y1076960D02*
D03*
X680720Y1066800D02*
D03*
X670560Y1087120D02*
D03*
X675640Y1076960D02*
D03*
X670560Y1066800D02*
D03*
X660400Y1087120D02*
D03*
X665480Y1076960D02*
D03*
X660400Y1066800D02*
D03*
X650240Y1087120D02*
D03*
X655320Y1076960D02*
D03*
X650240Y1066800D02*
D03*
X640080Y1087120D02*
D03*
X645160Y1076960D02*
D03*
X640080Y1066800D02*
D03*
X645160Y1056640D02*
D03*
X640080Y1046480D02*
D03*
X635000Y1076960D02*
D03*
X629920Y1066800D02*
D03*
X635000Y1056640D02*
D03*
X629920Y1046480D02*
D03*
X619760Y1066800D02*
D03*
X624840Y1056640D02*
D03*
X619760Y1046480D02*
D03*
X624840Y1036320D02*
D03*
X619760Y1026160D02*
D03*
X609600Y1087120D02*
D03*
X614680Y1076960D02*
D03*
X609600Y1066800D02*
D03*
X614680Y1056640D02*
D03*
X609600Y1046480D02*
D03*
X614680Y1036320D02*
D03*
X609600Y1026160D02*
D03*
X599440Y1087120D02*
D03*
X604520Y1076960D02*
D03*
X599440Y1066800D02*
D03*
X604520Y1056640D02*
D03*
X599440Y1046480D02*
D03*
X604520Y1036320D02*
D03*
X599440Y1026160D02*
D03*
X594360Y1076960D02*
D03*
X589280Y1066800D02*
D03*
X594360Y1056640D02*
D03*
X589280Y1046480D02*
D03*
X594360Y1036320D02*
D03*
X589280Y1026160D02*
D03*
X584200Y1076960D02*
D03*
X579120Y1066800D02*
D03*
X584200Y1056640D02*
D03*
X579120Y1046480D02*
D03*
X584200Y1036320D02*
D03*
X579120Y1026160D02*
D03*
X574040Y1076960D02*
D03*
X568960Y1066800D02*
D03*
X574040Y1056640D02*
D03*
X568960Y1046480D02*
D03*
X574040Y1036320D02*
D03*
X568960Y1026160D02*
D03*
X558800Y1087120D02*
D03*
X563880Y1076960D02*
D03*
X558800Y1066800D02*
D03*
X563880Y1056640D02*
D03*
X558800Y1046480D02*
D03*
X563880Y1036320D02*
D03*
X548640Y1087120D02*
D03*
X553720Y1076960D02*
D03*
X548640Y1066800D02*
D03*
X553720Y1056640D02*
D03*
X548640Y1046480D02*
D03*
X538480Y1087120D02*
D03*
X543560Y1076960D02*
D03*
X538480Y1066800D02*
D03*
X543560Y1056640D02*
D03*
X528320Y1107440D02*
D03*
X533400Y1097280D02*
D03*
X528320Y1087120D02*
D03*
X533400Y1076960D02*
D03*
X528320Y1066800D02*
D03*
X518160Y1107440D02*
D03*
X523240Y1097280D02*
D03*
X518160Y1087120D02*
D03*
X523240Y1076960D02*
D03*
X508000Y1127760D02*
D03*
X513080Y1117600D02*
D03*
X508000Y1107440D02*
D03*
X513080Y1097280D02*
D03*
X508000Y1087120D02*
D03*
X497840Y1127760D02*
D03*
X502920Y1117600D02*
D03*
X497840Y1107440D02*
D03*
X502920Y1097280D02*
D03*
X487680Y1127760D02*
D03*
X492760Y1117600D02*
D03*
X487680Y1107440D02*
D03*
X482600Y1117600D02*
D03*
X477520Y1107440D02*
D03*
X472440Y1117600D02*
D03*
X467360Y1107440D02*
D03*
X462280Y1117600D02*
D03*
X452120D02*
D03*
X447040Y1107440D02*
D03*
X441960Y1117600D02*
D03*
X436880Y1107440D02*
D03*
X431800Y1117600D02*
D03*
X426720Y1107440D02*
D03*
X965200Y660400D02*
D03*
X960120Y670560D02*
D03*
X949960D02*
D03*
X939800D02*
D03*
X934720Y660400D02*
D03*
X929640Y670560D02*
D03*
X924560Y660400D02*
D03*
X919480Y670560D02*
D03*
X914400Y660400D02*
D03*
X904996Y1141278D02*
D03*
X992118Y1158550D02*
D03*
X992372Y1154232D02*
D03*
X559981Y853283D02*
D03*
X838200Y975360D02*
D03*
X833120Y965200D02*
D03*
X838200Y955040D02*
D03*
X833120Y944880D02*
D03*
X828040Y975360D02*
D03*
Y955040D02*
D03*
X822960Y944880D02*
D03*
X817880Y955040D02*
D03*
X812800Y944880D02*
D03*
X807720Y955040D02*
D03*
X802640Y944880D02*
D03*
X797560Y975360D02*
D03*
Y955040D02*
D03*
X792480Y944880D02*
D03*
X787400Y955040D02*
D03*
X782320Y944880D02*
D03*
X777240Y975360D02*
D03*
Y955040D02*
D03*
X772160Y944880D02*
D03*
X767080Y975360D02*
D03*
X762000Y965200D02*
D03*
X767080Y955040D02*
D03*
X762000Y944880D02*
D03*
X756920Y955040D02*
D03*
X751840Y944880D02*
D03*
X746760Y955040D02*
D03*
X741680Y944880D02*
D03*
X783500Y977702D02*
D03*
X1056640Y680720D02*
D03*
X1051560Y690880D02*
D03*
X1046480Y680720D02*
D03*
X1041400Y690880D02*
D03*
X1036320Y680720D02*
D03*
X536348Y860750D02*
D03*
X541348Y857100D02*
D03*
X531348D02*
D03*
X546348Y860750D02*
D03*
X782320Y436880D02*
D03*
X756920Y447040D02*
D03*
X741680Y538480D02*
D03*
X731520D02*
D03*
Y457200D02*
D03*
Y436880D02*
D03*
X721360Y538480D02*
D03*
X726440Y528320D02*
D03*
X721360Y518160D02*
D03*
X726440Y508000D02*
D03*
X721360Y497840D02*
D03*
X726440Y487680D02*
D03*
X721360Y477520D02*
D03*
X726440Y467360D02*
D03*
X721360Y457200D02*
D03*
X726440Y447040D02*
D03*
X873760Y436880D02*
D03*
Y416560D02*
D03*
X863600Y436880D02*
D03*
X868680Y426720D02*
D03*
X858520Y447040D02*
D03*
X853440Y436880D02*
D03*
X858520Y426720D02*
D03*
X848360Y447040D02*
D03*
Y426720D02*
D03*
X1056640Y436880D02*
D03*
X1051560Y447040D02*
D03*
X1046480Y436880D02*
D03*
X1041400Y447040D02*
D03*
X1036320Y436880D02*
D03*
X1041400Y426720D02*
D03*
X1036320Y416560D02*
D03*
X1031240Y447040D02*
D03*
X1026160Y436880D02*
D03*
X1031240Y426720D02*
D03*
X1026160Y416560D02*
D03*
X1021080Y447040D02*
D03*
X1016000Y436880D02*
D03*
X1021080Y426720D02*
D03*
X1016000Y416560D02*
D03*
X1005840Y436880D02*
D03*
X1010920Y426720D02*
D03*
X1005840Y416560D02*
D03*
X995680Y436880D02*
D03*
X1000760Y426720D02*
D03*
X995680Y416560D02*
D03*
X990600Y447040D02*
D03*
X985520Y436880D02*
D03*
X990600Y426720D02*
D03*
X985520Y416560D02*
D03*
X980440Y447040D02*
D03*
X975360Y436880D02*
D03*
X980440Y426720D02*
D03*
X975360Y416560D02*
D03*
X1021080Y568960D02*
D03*
X1005840Y558800D02*
D03*
X1000760Y548640D02*
D03*
X995680Y538480D02*
D03*
X990600Y548640D02*
D03*
X985520Y538480D02*
D03*
X741680Y640080D02*
D03*
X736600Y650240D02*
D03*
X731520Y640080D02*
D03*
X726440Y650240D02*
D03*
X721360Y640080D02*
D03*
X726440Y629920D02*
D03*
X716280Y650240D02*
D03*
X711200Y640080D02*
D03*
X716280Y629920D02*
D03*
X711200Y619760D02*
D03*
X706120Y650240D02*
D03*
X701040Y640080D02*
D03*
X706120Y629920D02*
D03*
X701040Y619760D02*
D03*
X396240Y782320D02*
D03*
X381000Y772160D02*
D03*
X375920Y762000D02*
D03*
X365760Y924560D02*
D03*
Y904240D02*
D03*
Y883920D02*
D03*
Y863600D02*
D03*
X355600Y924560D02*
D03*
X360680Y914400D02*
D03*
X355600Y904240D02*
D03*
X360680Y894080D02*
D03*
X355600Y883920D02*
D03*
X360680Y873760D02*
D03*
X355600Y863600D02*
D03*
X360680Y853440D02*
D03*
X355600Y843280D02*
D03*
X345440Y924560D02*
D03*
X350520Y914400D02*
D03*
X345440Y904240D02*
D03*
X350520Y894080D02*
D03*
X345440Y883920D02*
D03*
Y863600D02*
D03*
X350520Y853440D02*
D03*
X345440Y843280D02*
D03*
X350520Y833120D02*
D03*
X330200Y812800D02*
D03*
X320040D02*
D03*
X314960Y802640D02*
D03*
X309880Y812800D02*
D03*
X304800Y802640D02*
D03*
X309880Y792480D02*
D03*
X299720Y812800D02*
D03*
X294640Y802640D02*
D03*
X299720Y792480D02*
D03*
X294640Y782320D02*
D03*
X289560Y812800D02*
D03*
X284480Y802640D02*
D03*
X289560Y792480D02*
D03*
X284480Y782320D02*
D03*
X289560Y772160D02*
D03*
X279400Y812800D02*
D03*
X274320Y802640D02*
D03*
X279400Y792480D02*
D03*
X274320Y782320D02*
D03*
X279400Y772160D02*
D03*
X269240Y812800D02*
D03*
X264160Y802640D02*
D03*
X269240Y792480D02*
D03*
X264160Y782320D02*
D03*
X254000Y924560D02*
D03*
Y904240D02*
D03*
Y883920D02*
D03*
Y863600D02*
D03*
Y843280D02*
D03*
Y822960D02*
D03*
X259080Y812800D02*
D03*
X254000Y802640D02*
D03*
X259080Y792480D02*
D03*
X243840Y924560D02*
D03*
X248920Y914400D02*
D03*
X243840Y904240D02*
D03*
X248920Y894080D02*
D03*
X243840Y883920D02*
D03*
X248920Y873760D02*
D03*
Y853440D02*
D03*
X243840Y843280D02*
D03*
X248920Y833120D02*
D03*
X243840Y822960D02*
D03*
X248920Y812800D02*
D03*
X243840Y802640D02*
D03*
X248920Y792480D02*
D03*
X233680Y924560D02*
D03*
X238760Y914400D02*
D03*
X233680Y904240D02*
D03*
X238760Y894080D02*
D03*
Y833120D02*
D03*
X233680Y822960D02*
D03*
X238760Y812800D02*
D03*
X233680Y802640D02*
D03*
X238760Y792480D02*
D03*
X223520Y924560D02*
D03*
X228600Y914400D02*
D03*
X223520Y904240D02*
D03*
X228600Y894080D02*
D03*
Y833120D02*
D03*
X223520Y822960D02*
D03*
X228600Y812800D02*
D03*
X223520Y802640D02*
D03*
X213360Y924560D02*
D03*
X218440Y914400D02*
D03*
X213360Y904240D02*
D03*
X218440Y894080D02*
D03*
Y812800D02*
D03*
X213360Y802640D02*
D03*
X203200Y924560D02*
D03*
X208280Y914400D02*
D03*
Y812800D02*
D03*
X203200Y802640D02*
D03*
X1021080Y568960D02*
D03*
X1005840Y558800D02*
D03*
X1000760Y548640D02*
D03*
X995680Y538480D02*
D03*
X990600Y548640D02*
D03*
X985520Y538480D02*
D03*
X741680Y640080D02*
D03*
X736600Y650240D02*
D03*
X731520Y640080D02*
D03*
X726440Y650240D02*
D03*
X721360Y640080D02*
D03*
X726440Y629920D02*
D03*
X716280Y650240D02*
D03*
X711200Y640080D02*
D03*
X716280Y629920D02*
D03*
X711200Y619760D02*
D03*
X706120Y650240D02*
D03*
X701040Y640080D02*
D03*
X706120Y629920D02*
D03*
X701040Y619760D02*
D03*
X396240Y782320D02*
D03*
X381000Y772160D02*
D03*
X375920Y762000D02*
D03*
X365760Y924560D02*
D03*
Y904240D02*
D03*
Y883920D02*
D03*
Y863600D02*
D03*
X355600Y924560D02*
D03*
X360680Y914400D02*
D03*
X355600Y904240D02*
D03*
X360680Y894080D02*
D03*
X355600Y883920D02*
D03*
X360680Y873760D02*
D03*
X355600Y863600D02*
D03*
X360680Y853440D02*
D03*
X355600Y843280D02*
D03*
X345440Y924560D02*
D03*
X350520Y914400D02*
D03*
X345440Y904240D02*
D03*
X350520Y894080D02*
D03*
X345440Y883920D02*
D03*
Y863600D02*
D03*
X350520Y853440D02*
D03*
X345440Y843280D02*
D03*
X350520Y833120D02*
D03*
X330200Y812800D02*
D03*
X320040D02*
D03*
X314960Y802640D02*
D03*
X309880Y812800D02*
D03*
X304800Y802640D02*
D03*
X309880Y792480D02*
D03*
X299720Y812800D02*
D03*
X294640Y802640D02*
D03*
X299720Y792480D02*
D03*
X294640Y782320D02*
D03*
X289560Y812800D02*
D03*
X284480Y802640D02*
D03*
X289560Y792480D02*
D03*
X284480Y782320D02*
D03*
X289560Y772160D02*
D03*
X279400Y812800D02*
D03*
X274320Y802640D02*
D03*
X279400Y792480D02*
D03*
X274320Y782320D02*
D03*
X279400Y772160D02*
D03*
X269240Y812800D02*
D03*
X264160Y802640D02*
D03*
X269240Y792480D02*
D03*
X264160Y782320D02*
D03*
X254000Y924560D02*
D03*
Y904240D02*
D03*
Y883920D02*
D03*
Y863600D02*
D03*
Y843280D02*
D03*
Y822960D02*
D03*
X259080Y812800D02*
D03*
X254000Y802640D02*
D03*
X259080Y792480D02*
D03*
X243840Y924560D02*
D03*
X248920Y914400D02*
D03*
X243840Y904240D02*
D03*
X248920Y894080D02*
D03*
X243840Y883920D02*
D03*
X248920Y873760D02*
D03*
Y853440D02*
D03*
X243840Y843280D02*
D03*
X248920Y833120D02*
D03*
X243840Y822960D02*
D03*
X248920Y812800D02*
D03*
X243840Y802640D02*
D03*
X248920Y792480D02*
D03*
X233680Y924560D02*
D03*
X238760Y914400D02*
D03*
X233680Y904240D02*
D03*
X238760Y894080D02*
D03*
Y833120D02*
D03*
X233680Y822960D02*
D03*
X238760Y812800D02*
D03*
X233680Y802640D02*
D03*
X238760Y792480D02*
D03*
X223520Y924560D02*
D03*
X228600Y914400D02*
D03*
X223520Y904240D02*
D03*
X228600Y894080D02*
D03*
Y833120D02*
D03*
X223520Y822960D02*
D03*
X228600Y812800D02*
D03*
X223520Y802640D02*
D03*
X213360Y924560D02*
D03*
X218440Y914400D02*
D03*
X213360Y904240D02*
D03*
X218440Y894080D02*
D03*
Y812800D02*
D03*
X213360Y802640D02*
D03*
X203200Y924560D02*
D03*
X208280Y914400D02*
D03*
Y812800D02*
D03*
X203200Y802640D02*
D03*
X212090Y833120D02*
D03*
Y558800D02*
D03*
X208280Y551180D02*
D03*
X212090Y543560D02*
D03*
Y513080D02*
D03*
X208280Y505460D02*
D03*
X204470Y558800D02*
D03*
X200660Y551180D02*
D03*
X204470Y543560D02*
D03*
Y513080D02*
D03*
X196850Y558800D02*
D03*
X193040Y551180D02*
D03*
X196850Y543560D02*
D03*
Y513080D02*
D03*
X193040Y505460D02*
D03*
X185420Y779780D02*
D03*
Y764540D02*
D03*
Y749300D02*
D03*
Y734060D02*
D03*
Y718820D02*
D03*
Y703580D02*
D03*
Y688340D02*
D03*
Y673100D02*
D03*
X181610Y787400D02*
D03*
X177800Y779780D02*
D03*
X181610Y772160D02*
D03*
X177800Y764540D02*
D03*
X181610Y756920D02*
D03*
X177800Y749300D02*
D03*
X181610Y741680D02*
D03*
X177800Y734060D02*
D03*
X181610Y726440D02*
D03*
X177800Y718820D02*
D03*
X181610Y711200D02*
D03*
X177800Y703580D02*
D03*
X181610Y695960D02*
D03*
X177800Y688340D02*
D03*
X181610Y680720D02*
D03*
X177800Y673100D02*
D03*
X181610Y665480D02*
D03*
X158750Y558800D02*
D03*
X154940Y551180D02*
D03*
X158750Y543560D02*
D03*
Y513080D02*
D03*
X151130Y558800D02*
D03*
X147320Y551180D02*
D03*
X151130Y543560D02*
D03*
Y513080D02*
D03*
X143510Y558800D02*
D03*
X139700Y551180D02*
D03*
X143510Y543560D02*
D03*
Y513080D02*
D03*
X139700Y505460D02*
D03*
X132080Y810260D02*
D03*
Y795020D02*
D03*
X135890Y787400D02*
D03*
X132080Y779780D02*
D03*
X135890Y772160D02*
D03*
X132080Y764540D02*
D03*
X135890Y756920D02*
D03*
X132080Y749300D02*
D03*
X135890Y741680D02*
D03*
X132080Y734060D02*
D03*
X135890Y726440D02*
D03*
X132080Y718820D02*
D03*
X135890Y711200D02*
D03*
X132080Y703580D02*
D03*
X135890Y695960D02*
D03*
X132080Y688340D02*
D03*
X135890Y680720D02*
D03*
X132080Y673100D02*
D03*
X135890Y665480D02*
D03*
X132080Y657860D02*
D03*
X135890Y650240D02*
D03*
X132080Y642620D02*
D03*
X124460Y825500D02*
D03*
X128270Y817880D02*
D03*
X124460Y810260D02*
D03*
X128270Y802640D02*
D03*
X124460Y795020D02*
D03*
X128270Y787400D02*
D03*
X124460Y779780D02*
D03*
X128270Y772160D02*
D03*
X124460Y764540D02*
D03*
X128270Y756920D02*
D03*
X124460Y749300D02*
D03*
X128270Y741680D02*
D03*
X124460Y734060D02*
D03*
X128270Y726440D02*
D03*
X124460Y718820D02*
D03*
X128270Y711200D02*
D03*
X124460Y703580D02*
D03*
X128270Y695960D02*
D03*
X124460Y688340D02*
D03*
X128270Y680720D02*
D03*
X124460Y673100D02*
D03*
X128270Y665480D02*
D03*
X124460Y657860D02*
D03*
X128270Y650240D02*
D03*
X124460Y642620D02*
D03*
X113030Y543560D02*
D03*
Y513080D02*
D03*
X109220Y505460D02*
D03*
X101600Y855980D02*
D03*
Y551180D02*
D03*
X105410Y543560D02*
D03*
Y513080D02*
D03*
X97790Y863600D02*
D03*
X93980Y855980D02*
D03*
X97790Y848360D02*
D03*
Y558800D02*
D03*
X93980Y551180D02*
D03*
X97790Y543560D02*
D03*
Y513080D02*
D03*
X93980Y505460D02*
D03*
X90170Y848360D02*
D03*
X86360Y840740D02*
D03*
X90170Y833120D02*
D03*
X86360Y825500D02*
D03*
X90170Y817880D02*
D03*
X86360Y810260D02*
D03*
X90170Y802640D02*
D03*
X86360Y795020D02*
D03*
X90170Y787400D02*
D03*
X86360Y779780D02*
D03*
X90170Y772160D02*
D03*
X86360Y764540D02*
D03*
X90170Y756920D02*
D03*
X86360Y749300D02*
D03*
X90170Y741680D02*
D03*
X86360Y734060D02*
D03*
X90170Y726440D02*
D03*
X86360Y718820D02*
D03*
X90170Y711200D02*
D03*
X86360Y703580D02*
D03*
X90170Y695960D02*
D03*
X86360Y688340D02*
D03*
X90170Y680720D02*
D03*
X86360Y673100D02*
D03*
X90170Y665480D02*
D03*
X86360Y657860D02*
D03*
X90170Y650240D02*
D03*
X86360Y642620D02*
D03*
X90170Y558800D02*
D03*
X86360Y551180D02*
D03*
X90170Y543560D02*
D03*
X82550Y848360D02*
D03*
X78740Y840740D02*
D03*
X82550Y833120D02*
D03*
X78740Y825500D02*
D03*
X82550Y817880D02*
D03*
X78740Y810260D02*
D03*
X82550Y802640D02*
D03*
X78740Y795020D02*
D03*
X82550Y787400D02*
D03*
X78740Y779780D02*
D03*
X82550Y772160D02*
D03*
X78740Y764540D02*
D03*
X82550Y756920D02*
D03*
X78740Y749300D02*
D03*
X82550Y741680D02*
D03*
X78740Y734060D02*
D03*
X82550Y726440D02*
D03*
X78740Y718820D02*
D03*
X82550Y711200D02*
D03*
X78740Y703580D02*
D03*
X82550Y695960D02*
D03*
X78740Y688340D02*
D03*
X82550Y680720D02*
D03*
X78740Y673100D02*
D03*
X82550Y665480D02*
D03*
X78740Y657860D02*
D03*
X82550Y650240D02*
D03*
X78740Y642620D02*
D03*
X82550Y558800D02*
D03*
X78740Y551180D02*
D03*
X116840Y886460D02*
D03*
X93980D02*
D03*
X86360D02*
D03*
X78740D02*
D03*
X71120Y871220D02*
D03*
X74930Y863600D02*
D03*
X71120Y855980D02*
D03*
X67310Y878840D02*
D03*
X63500Y871220D02*
D03*
X67310Y863600D02*
D03*
X63500Y855980D02*
D03*
X59690Y863600D02*
D03*
X55880Y855980D02*
D03*
X59690Y848360D02*
D03*
X55880Y840740D02*
D03*
X59690Y833120D02*
D03*
X55880Y825500D02*
D03*
X59690Y817880D02*
D03*
X55880Y810260D02*
D03*
X59690Y802640D02*
D03*
X55880Y795020D02*
D03*
X59690Y787400D02*
D03*
X55880Y779780D02*
D03*
X59690Y772160D02*
D03*
X55880Y764540D02*
D03*
X59690Y756920D02*
D03*
X55880Y749300D02*
D03*
X59690Y741680D02*
D03*
X55880Y734060D02*
D03*
X59690Y726440D02*
D03*
X55880Y718820D02*
D03*
X59690Y711200D02*
D03*
X55880Y703580D02*
D03*
X59690Y695960D02*
D03*
X55880Y688340D02*
D03*
X59690Y680720D02*
D03*
X55880Y673100D02*
D03*
X59690Y665480D02*
D03*
X55880Y657860D02*
D03*
X59690Y650240D02*
D03*
X55880Y642620D02*
D03*
X59690Y558800D02*
D03*
X55880Y551180D02*
D03*
X59690Y543560D02*
D03*
Y513080D02*
D03*
X52070Y863600D02*
D03*
X48260Y855980D02*
D03*
X52070Y848360D02*
D03*
X48260Y840740D02*
D03*
X52070Y833120D02*
D03*
X48260Y825500D02*
D03*
X52070Y817880D02*
D03*
X48260Y810260D02*
D03*
X52070Y802640D02*
D03*
X48260Y795020D02*
D03*
X52070Y787400D02*
D03*
X48260Y779780D02*
D03*
X52070Y772160D02*
D03*
X48260Y764540D02*
D03*
X52070Y756920D02*
D03*
X48260Y749300D02*
D03*
X52070Y741680D02*
D03*
X48260Y734060D02*
D03*
X52070Y726440D02*
D03*
X48260Y718820D02*
D03*
X52070Y711200D02*
D03*
X48260Y703580D02*
D03*
X52070Y695960D02*
D03*
X48260Y688340D02*
D03*
X52070Y680720D02*
D03*
X48260Y673100D02*
D03*
X52070Y665480D02*
D03*
X48260Y657860D02*
D03*
X52070Y650240D02*
D03*
X48260Y642620D02*
D03*
X52070Y558800D02*
D03*
X48260Y551180D02*
D03*
X52070Y543560D02*
D03*
Y513080D02*
D03*
X44450Y848360D02*
D03*
X40640Y840740D02*
D03*
X44450Y833120D02*
D03*
X40640Y825500D02*
D03*
X44450Y817880D02*
D03*
X40640Y810260D02*
D03*
X44450Y802640D02*
D03*
X40640Y795020D02*
D03*
X44450Y787400D02*
D03*
X40640Y779780D02*
D03*
X44450Y772160D02*
D03*
X40640Y764540D02*
D03*
X44450Y756920D02*
D03*
X40640Y749300D02*
D03*
X44450Y741680D02*
D03*
X40640Y734060D02*
D03*
X44450Y726440D02*
D03*
X40640Y718820D02*
D03*
X44450Y711200D02*
D03*
X40640Y703580D02*
D03*
X44450Y695960D02*
D03*
X40640Y688340D02*
D03*
X44450Y680720D02*
D03*
X40640Y673100D02*
D03*
X44450Y665480D02*
D03*
X40640Y657860D02*
D03*
X44450Y650240D02*
D03*
X40640Y642620D02*
D03*
X44450Y558800D02*
D03*
X40640Y551180D02*
D03*
X44450Y543560D02*
D03*
Y513080D02*
D03*
X1177284Y826081D02*
D03*
X1103624Y821210D02*
D03*
X1200525Y895628D02*
D03*
X1177284Y902199D02*
D03*
Y889385D02*
D03*
X1042728Y979607D02*
D03*
X1200525Y908631D02*
D03*
X1122420Y912341D02*
D03*
X1179824Y923981D02*
D03*
X1083834D02*
D03*
X1134532Y1024057D02*
D03*
X1141216Y1032312D02*
D03*
X500933Y808936D02*
D03*
X1177284Y775281D02*
D03*
X1199382Y781229D02*
D03*
X1177284Y788050D02*
D03*
X1199382Y794235D02*
D03*
Y806935D02*
D03*
X1177284Y811053D02*
D03*
X1199382Y819553D02*
D03*
X1199868Y883224D02*
D03*
X1199382Y832431D02*
D03*
X1198946Y845035D02*
D03*
Y857735D02*
D03*
X1199509Y870435D02*
D03*
X1177284Y838781D02*
D03*
Y851481D02*
D03*
Y864181D02*
D03*
Y876881D02*
D03*
Y800672D02*
D03*
X502039Y827791D02*
D03*
X501655Y819576D02*
D03*
X501087Y814170D02*
D03*
X498035Y823139D02*
D03*
X498389Y832791D02*
D03*
X566180D02*
D03*
Y822791D02*
D03*
X577675Y823397D02*
D03*
X568702Y827791D02*
D03*
Y837791D02*
D03*
X566180Y842791D02*
D03*
X502039Y837791D02*
D03*
X498389Y842791D02*
D03*
X526348Y860750D02*
D03*
X517305Y859793D02*
D03*
X521508Y856940D02*
D03*
D191*
X1246484Y806290D02*
D03*
Y796130D02*
D03*
Y785970D02*
D03*
Y775810D02*
D03*
X1238790Y767786D02*
D03*
X1246357Y816450D02*
D03*
Y867250D02*
D03*
Y857090D02*
D03*
Y877410D02*
D03*
X1198150Y767786D02*
D03*
X1208310D02*
D03*
X1240238Y912409D02*
D03*
X1246357Y907890D02*
D03*
Y887570D02*
D03*
X1218470Y767786D02*
D03*
X1246357Y897730D02*
D03*
X1246484Y765650D02*
D03*
X1228630Y767786D02*
D03*
X1246357Y826610D02*
D03*
Y836770D02*
D03*
Y846930D02*
D03*
X552367Y922627D02*
D03*
X1429512Y1045718D02*
D03*
X1402278D02*
D03*
X1356106Y1052576D02*
D03*
X1311147Y1079508D02*
D03*
X1220126Y1059180D02*
D03*
X1442056Y913690D02*
D03*
X1250606Y939475D02*
D03*
X1273423Y897522D02*
D03*
Y907682D02*
D03*
Y887362D02*
D03*
X1240446Y939475D02*
D03*
X1230286D02*
D03*
X1220126D02*
D03*
X1139930Y915528D02*
D03*
Y907528D02*
D03*
X1131975Y899383D02*
D03*
X1426718Y862076D02*
D03*
X1273423Y846722D02*
D03*
Y867042D02*
D03*
Y877202D02*
D03*
Y856882D02*
D03*
X1439926Y813550D02*
D03*
X1273423Y826402D02*
D03*
Y836562D02*
D03*
Y816242D02*
D03*
X1273550Y775602D02*
D03*
Y795922D02*
D03*
Y806082D02*
D03*
Y785762D02*
D03*
X1444276Y752800D02*
D03*
X1273550Y765442D02*
D03*
X1228422Y740720D02*
D03*
X1139845Y875420D02*
D03*
X1132099Y875730D02*
D03*
X1140010Y867485D02*
D03*
X1131834Y859549D02*
D03*
X1140500Y828510D02*
D03*
X1140111Y811723D02*
D03*
X1139930Y795379D02*
D03*
X1092060Y907528D02*
D03*
X1083834Y891883D02*
D03*
X1071198Y913195D02*
D03*
X1071900Y895695D02*
D03*
X1011968Y1179886D02*
D03*
X890650Y919028D02*
D03*
X838650Y913808D02*
D03*
X1083997Y859774D02*
D03*
X1073012Y887759D02*
D03*
X1072762Y870626D02*
D03*
X1071900Y831628D02*
D03*
Y814960D02*
D03*
X1072025Y798193D02*
D03*
X878650Y844634D02*
D03*
Y883808D02*
D03*
X858650Y863808D02*
D03*
X848650Y823998D02*
D03*
X878650Y803808D02*
D03*
X868650Y754451D02*
D03*
X848650Y783808D02*
D03*
X858650Y743808D02*
D03*
X1420146Y652470D02*
D03*
X1253484Y725607D02*
D03*
X1342314Y585678D02*
D03*
X1238582Y740720D02*
D03*
X1218262D02*
D03*
X1208102D02*
D03*
X1505370Y585678D02*
D03*
X1272445Y546044D02*
D03*
X1197942Y740720D02*
D03*
X1168908Y733298D02*
D03*
X1138366Y631320D02*
D03*
X1123072Y661614D02*
D03*
X1109072D02*
D03*
X1100072D02*
D03*
X1451066Y518421D02*
D03*
X1366298Y537271D02*
D03*
X1466628Y505966D02*
D03*
X1237273Y455366D02*
D03*
X1261270Y422854D02*
D03*
X1254919Y402979D02*
D03*
X1227367Y439364D02*
D03*
X1249331Y388373D02*
D03*
X1211739Y353893D02*
D03*
X1191837Y459049D02*
D03*
X1188625Y433989D02*
D03*
X1203085D02*
D03*
X1141127Y493235D02*
D03*
X1110774Y461970D02*
D03*
X1186720Y407106D02*
D03*
X1193412Y346400D02*
D03*
X1167670Y378150D02*
D03*
X1180306Y363291D02*
D03*
X1148249Y403342D02*
D03*
X1132992Y422854D02*
D03*
X1082072Y661614D02*
D03*
X1091072D02*
D03*
X1036501Y718312D02*
D03*
X1023329Y638787D02*
D03*
X1001670Y649963D02*
D03*
X972987Y640080D02*
D03*
X982298Y608154D02*
D03*
X983568Y576150D02*
D03*
X878650Y723808D02*
D03*
X858650Y703808D02*
D03*
X890650Y669028D02*
D03*
X848650Y683808D02*
D03*
X865070Y585520D02*
D03*
X863154Y571350D02*
D03*
X1092740Y528010D02*
D03*
X1005364Y533090D02*
D03*
X987378Y567006D02*
D03*
X970097Y537698D02*
D03*
X1002252Y494348D02*
D03*
X1019228Y470987D02*
D03*
X972987Y459550D02*
D03*
X934872Y522744D02*
D03*
X934537Y473563D02*
D03*
X927824Y522626D02*
D03*
X917038Y522508D02*
D03*
X875913Y537190D02*
D03*
X905377D02*
D03*
X910788Y473564D02*
D03*
X885476Y441396D02*
D03*
X758650Y913808D02*
D03*
X788650D02*
D03*
X718650D02*
D03*
X678650Y913461D02*
D03*
X738650Y903808D02*
D03*
X818650Y893808D02*
D03*
X778650Y883808D02*
D03*
X738650D02*
D03*
X668650Y903808D02*
D03*
X648650Y883808D02*
D03*
X708650D02*
D03*
X698650D02*
D03*
X574967Y966265D02*
D03*
X532803Y1033829D02*
D03*
X522129Y992935D02*
D03*
X633650Y926808D02*
D03*
X548297Y887525D02*
D03*
X507629Y1032813D02*
D03*
X483273Y1003857D02*
D03*
X414185Y996745D02*
D03*
X441490Y950644D02*
D03*
X132334Y978916D02*
D03*
X828650Y863808D02*
D03*
X788650D02*
D03*
Y833808D02*
D03*
X778650Y823808D02*
D03*
X818650Y813808D02*
D03*
X788650D02*
D03*
Y793808D02*
D03*
X778650Y783808D02*
D03*
Y803808D02*
D03*
X768650Y813808D02*
D03*
Y773808D02*
D03*
Y793808D02*
D03*
X748650Y853808D02*
D03*
X758650Y823808D02*
D03*
X748650Y813808D02*
D03*
X738650Y823808D02*
D03*
X698650Y853808D02*
D03*
Y873808D02*
D03*
X748650Y793808D02*
D03*
X758650Y783808D02*
D03*
X748650Y773808D02*
D03*
X738650Y803808D02*
D03*
X698650Y804241D02*
D03*
X738650Y783808D02*
D03*
X818650Y753808D02*
D03*
X788650Y743808D02*
D03*
X828650Y713808D02*
D03*
X788650D02*
D03*
X778460Y763803D02*
D03*
X808650Y683808D02*
D03*
X768650D02*
D03*
X748650Y713808D02*
D03*
X738650Y753808D02*
D03*
X708650D02*
D03*
Y723808D02*
D03*
X759238Y404312D02*
D03*
X728650Y683808D02*
D03*
X694946Y555482D02*
D03*
X668650Y863808D02*
D03*
X688650Y853808D02*
D03*
X648650Y843808D02*
D03*
X688650Y823808D02*
D03*
X439438Y827791D02*
D03*
X484523Y818179D02*
D03*
X479697Y822751D02*
D03*
X434231Y817925D02*
D03*
X110998Y871220D02*
D03*
X82042Y865124D02*
D03*
X109855Y817650D02*
D03*
X678650Y783808D02*
D03*
X668650Y743808D02*
D03*
X648650Y763808D02*
D03*
X638434Y723808D02*
D03*
X678650Y714118D02*
D03*
X688650Y683808D02*
D03*
X653500Y586785D02*
D03*
X633575Y661883D02*
D03*
X599331Y814591D02*
D03*
X503573Y803193D02*
D03*
X421531Y801669D02*
D03*
X583329Y766109D02*
D03*
X473093Y770173D02*
D03*
X1186872Y1096843D02*
D03*
X1177284Y1096772D02*
D03*
X1364488Y949198D02*
D03*
X1171702Y1049679D02*
D03*
X1426972Y852830D02*
D03*
X1363660Y843212D02*
D03*
X848650Y773808D02*
D03*
X818650Y913808D02*
D03*
X838650Y833808D02*
D03*
Y873808D02*
D03*
X808650Y843808D02*
D03*
X798650Y893808D02*
D03*
X778650Y913808D02*
D03*
X798650Y873808D02*
D03*
X758650Y883808D02*
D03*
X738650Y913808D02*
D03*
Y873808D02*
D03*
X718650Y893808D02*
D03*
X728650Y863808D02*
D03*
X778465Y853808D02*
D03*
X798650Y793808D02*
D03*
X758650Y833808D02*
D03*
X768650Y763808D02*
D03*
X728650Y783808D02*
D03*
X1404464Y754079D02*
D03*
X1168908Y720598D02*
D03*
X838650Y723808D02*
D03*
X1070678Y708918D02*
D03*
Y696218D02*
D03*
X1173734Y678942D02*
D03*
X868650Y683808D02*
D03*
X1284388Y551974D02*
D03*
X1283686Y497011D02*
D03*
X808650Y753808D02*
D03*
X798650Y733808D02*
D03*
X778650D02*
D03*
X758650Y743808D02*
D03*
X718650Y753808D02*
D03*
X748650Y733808D02*
D03*
X718650D02*
D03*
X828650Y683808D02*
D03*
X808650Y703808D02*
D03*
X788650Y683808D02*
D03*
X768650Y713808D02*
D03*
X728650Y703808D02*
D03*
X748650Y683808D02*
D03*
X553261Y977803D02*
D03*
X698650Y913808D02*
D03*
X673650Y927028D02*
D03*
X553261Y947803D02*
D03*
Y907803D02*
D03*
X688650Y893808D02*
D03*
X668650Y883808D02*
D03*
X708650Y863808D02*
D03*
X688650Y873808D02*
D03*
X648650Y903808D02*
D03*
Y863808D02*
D03*
X483273Y992731D02*
D03*
X432721Y990141D02*
D03*
X182880Y971042D02*
D03*
X132588Y969670D02*
D03*
X533129Y886671D02*
D03*
X513129D02*
D03*
X100330Y905256D02*
D03*
X498129Y886671D02*
D03*
X462191Y878381D02*
D03*
X708650Y834796D02*
D03*
X688650Y843808D02*
D03*
X698650Y783808D02*
D03*
X668650Y853808D02*
D03*
X648650Y823808D02*
D03*
X668650Y803808D02*
D03*
Y773808D02*
D03*
X648650Y783808D02*
D03*
X688650Y753808D02*
D03*
Y723808D02*
D03*
X708650Y683808D02*
D03*
X678650Y693808D02*
D03*
X668650Y763808D02*
D03*
Y713808D02*
D03*
X648650Y743808D02*
D03*
Y703808D02*
D03*
X591972Y819576D02*
D03*
X581551Y800907D02*
D03*
X118176Y852678D02*
D03*
X585756Y619196D02*
D03*
X431183Y788229D02*
D03*
X778650Y773808D02*
D03*
X798650Y772740D02*
D03*
X788650Y753808D02*
D03*
X738650Y833808D02*
D03*
X768650Y823808D02*
D03*
X748650D02*
D03*
X788650D02*
D03*
X798650Y833808D02*
D03*
X788650Y803808D02*
D03*
X778650Y813808D02*
D03*
Y793808D02*
D03*
X748650Y803808D02*
D03*
X758650Y793808D02*
D03*
X738650D02*
D03*
X768650Y783808D02*
D03*
X758650Y773808D02*
D03*
X738650D02*
D03*
X748650Y783808D02*
D03*
X738650Y813808D02*
D03*
X758551Y813401D02*
D03*
X728858Y753808D02*
D03*
X657892Y713176D02*
D03*
X1281716Y532836D02*
D03*
X907774Y553596D02*
D03*
X948400Y555166D02*
D03*
X892765Y554418D02*
D03*
X933021Y554520D02*
D03*
X1250098Y548596D02*
D03*
X1242092Y538170D02*
D03*
X1466628Y442666D02*
D03*
X709140Y571350D02*
D03*
X1047406Y577184D02*
D03*
X1137412Y1046226D02*
D03*
X1171702Y1059490D02*
D03*
X1169888Y708408D02*
D03*
X213360Y876750D02*
D03*
X208234Y882162D02*
D03*
Y836774D02*
D03*
X121158Y834644D02*
D03*
X122682Y885444D02*
D03*
X127304Y865124D02*
D03*
X125730Y850392D02*
D03*
X213360Y867612D02*
D03*
X217932Y849122D02*
D03*
X532803Y993951D02*
D03*
X1200937Y450286D02*
D03*
X1206412Y448357D02*
D03*
X1198658Y456382D02*
D03*
X1198912Y517342D02*
D03*
X1195102Y450286D02*
D03*
X1188879Y517342D02*
D03*
X1212587Y411141D02*
D03*
X1198785Y391104D02*
D03*
X1169448Y430728D02*
D03*
X1169888Y420314D02*
D03*
Y425814D02*
D03*
X1212587Y422854D02*
D03*
X931654Y446596D02*
D03*
X890096Y414592D02*
D03*
X899748D02*
D03*
X940946Y446596D02*
D03*
X909274Y414592D02*
D03*
X840010Y447746D02*
D03*
X950294Y446596D02*
D03*
X816896Y429712D02*
D03*
X840010D02*
D03*
X828834Y423108D02*
D03*
X840010Y438348D02*
D03*
X1201412Y385668D02*
D03*
X1069135Y504366D02*
D03*
X878650Y743808D02*
D03*
X878461Y752927D02*
D03*
X890623Y749028D02*
D03*
X878650Y793808D02*
D03*
X890623Y768572D02*
D03*
X890650Y779028D02*
D03*
Y799695D02*
D03*
Y788361D02*
D03*
X878650Y783808D02*
D03*
X868620Y813838D02*
D03*
X868650Y783808D02*
D03*
Y793808D02*
D03*
Y803808D02*
D03*
Y743808D02*
D03*
X858806Y754070D02*
D03*
X868620Y763808D02*
D03*
X858650Y773808D02*
D03*
X868650D02*
D03*
X838650Y793808D02*
D03*
X848650D02*
D03*
X858650D02*
D03*
X838650Y803808D02*
D03*
X848650D02*
D03*
X858650D02*
D03*
X838650Y813808D02*
D03*
X858650D02*
D03*
X838650Y773808D02*
D03*
X1140317Y820265D02*
D03*
X1132123Y811223D02*
D03*
X1100136Y813147D02*
D03*
X1122420Y814861D02*
D03*
X1085143Y818750D02*
D03*
X1132251Y819765D02*
D03*
X1083813Y843711D02*
D03*
X1083805Y851703D02*
D03*
X1071890Y825460D02*
D03*
X1071900Y847695D02*
D03*
X890598Y817377D02*
D03*
X1091965Y803862D02*
D03*
X1071900Y806527D02*
D03*
X1122420D02*
D03*
X890650Y809028D02*
D03*
X1084450Y810815D02*
D03*
X878973Y813485D02*
D03*
X838715Y823998D02*
D03*
X868650D02*
D03*
X878650Y824379D02*
D03*
X890650Y828202D02*
D03*
X878650Y833808D02*
D03*
X890170Y839508D02*
D03*
X868650Y843808D02*
D03*
X858650D02*
D03*
X889483Y849028D02*
D03*
Y859028D02*
D03*
X878650Y853808D02*
D03*
X858650D02*
D03*
X868650D02*
D03*
X878650Y863808D02*
D03*
X868650D02*
D03*
X889483Y869028D02*
D03*
X838650Y893808D02*
D03*
X858650Y903371D02*
D03*
X868650Y903808D02*
D03*
X1092262Y900196D02*
D03*
X878650Y893808D02*
D03*
Y903808D02*
D03*
X886676Y891834D02*
D03*
X889501Y899050D02*
D03*
X1071013Y904515D02*
D03*
X1084107Y907241D02*
D03*
X1092168Y891862D02*
D03*
X1083128Y900232D02*
D03*
X1122420Y887695D02*
D03*
Y896006D02*
D03*
Y903808D02*
D03*
X1139930Y891528D02*
D03*
Y899774D02*
D03*
X878650Y913808D02*
D03*
X863650Y927028D02*
D03*
X853650D02*
D03*
X890650Y909028D02*
D03*
X1131834Y907528D02*
D03*
X1071900Y919628D02*
D03*
X1122420Y920803D02*
D03*
X1131975Y915528D02*
D03*
X1083839Y915575D02*
D03*
X1091900Y915528D02*
D03*
X1131834Y923854D02*
D03*
X828650Y703808D02*
D03*
X818650Y693808D02*
D03*
X808650D02*
D03*
X818650Y703808D02*
D03*
Y713808D02*
D03*
X808650D02*
D03*
X653575Y661883D02*
D03*
X688650Y713808D02*
D03*
X698650Y693808D02*
D03*
X668650D02*
D03*
X688650Y703808D02*
D03*
X698650D02*
D03*
Y713808D02*
D03*
X748650Y753808D02*
D03*
X758650D02*
D03*
X728650Y733808D02*
D03*
X738650D02*
D03*
X758650D02*
D03*
X738650Y743808D02*
D03*
X748650D02*
D03*
X728650Y813808D02*
D03*
X708650D02*
D03*
X793575Y661883D02*
D03*
X798650Y683808D02*
D03*
X818650D02*
D03*
X783575Y661883D02*
D03*
X803575D02*
D03*
X758650Y683808D02*
D03*
X723575Y661883D02*
D03*
X708650Y713808D02*
D03*
X718650Y693808D02*
D03*
X728650D02*
D03*
X738650D02*
D03*
X718650Y703808D02*
D03*
X708650D02*
D03*
X738650D02*
D03*
X718650Y713808D02*
D03*
X748650Y703808D02*
D03*
X753575Y661883D02*
D03*
X708650Y804241D02*
D03*
X728650Y803808D02*
D03*
X718650Y804241D02*
D03*
X698650Y723808D02*
D03*
X728650Y713808D02*
D03*
X738650D02*
D03*
X758650D02*
D03*
X718650Y723808D02*
D03*
X728650D02*
D03*
X738650D02*
D03*
X748650D02*
D03*
X788650Y703808D02*
D03*
Y693808D02*
D03*
Y723808D02*
D03*
X798650Y703808D02*
D03*
Y723808D02*
D03*
Y693808D02*
D03*
X808650Y723808D02*
D03*
X798650Y713808D02*
D03*
X878650Y733808D02*
D03*
Y703808D02*
D03*
X858650Y723808D02*
D03*
X808650Y813808D02*
D03*
Y793808D02*
D03*
X818650D02*
D03*
X828650D02*
D03*
X798650Y803808D02*
D03*
X828650D02*
D03*
X808650D02*
D03*
X818650D02*
D03*
X688650Y803193D02*
D03*
X678650Y813808D02*
D03*
X688650D02*
D03*
X628174Y586938D02*
D03*
X778650Y833808D02*
D03*
X818650Y903808D02*
D03*
X828650D02*
D03*
X808650D02*
D03*
X753650Y927028D02*
D03*
X813650Y926808D02*
D03*
X763650Y927028D02*
D03*
X838650Y843808D02*
D03*
X768650D02*
D03*
X728650Y853808D02*
D03*
X798650Y863808D02*
D03*
X758650Y853808D02*
D03*
X838650D02*
D03*
X788650D02*
D03*
X768650D02*
D03*
X738650Y863808D02*
D03*
X768650D02*
D03*
X808650Y873808D02*
D03*
X728858Y914016D02*
D03*
X758650Y903808D02*
D03*
X768650Y913808D02*
D03*
X758650Y843808D02*
D03*
X768650Y833808D02*
D03*
X728213D02*
D03*
X748650D02*
D03*
X728650Y873808D02*
D03*
X788650D02*
D03*
Y893808D02*
D03*
Y883808D02*
D03*
X798650D02*
D03*
X778465Y893371D02*
D03*
X808650Y893808D02*
D03*
X1122420Y879361D02*
D03*
Y863808D02*
D03*
X1131898Y867503D02*
D03*
X1122420Y868634D02*
D03*
X1131834Y883528D02*
D03*
X1139930D02*
D03*
X1139909Y859549D02*
D03*
X1122420Y855872D02*
D03*
Y823808D02*
D03*
X1132507Y826736D02*
D03*
X1132075Y835277D02*
D03*
X1122420Y839028D02*
D03*
X1132574Y843212D02*
D03*
X1122021Y847913D02*
D03*
X1132051Y851303D02*
D03*
X1131834Y794331D02*
D03*
X1139930Y803624D02*
D03*
X1083997Y883528D02*
D03*
X1091930Y859774D02*
D03*
X1084071Y867952D02*
D03*
X1092262Y868019D02*
D03*
X1084148Y875194D02*
D03*
X1092262Y875528D02*
D03*
X1091930Y883528D02*
D03*
X1071900Y878960D02*
D03*
Y863195D02*
D03*
X1084148Y827483D02*
D03*
X1091965Y827862D02*
D03*
X1084209Y835419D02*
D03*
X1092283Y835798D02*
D03*
X1092716Y843945D02*
D03*
X1092088Y851880D02*
D03*
X1094240Y789251D02*
D03*
X1140509Y843733D02*
D03*
X1189768Y636722D02*
D03*
X1143540Y616402D02*
D03*
X1138366Y622320D02*
D03*
X1073072Y661614D02*
D03*
X1242346Y623768D02*
D03*
X1261463Y568596D02*
D03*
X678650Y823808D02*
D03*
X718650Y863808D02*
D03*
Y873808D02*
D03*
X708650D02*
D03*
X718650Y883808D02*
D03*
X708650Y893148D02*
D03*
X713650Y927028D02*
D03*
X678650Y903808D02*
D03*
X708650D02*
D03*
X718650D02*
D03*
X708650Y913808D02*
D03*
X722040Y925418D02*
D03*
X703650Y927028D02*
D03*
X683650D02*
D03*
X698650Y893808D02*
D03*
X688650Y903808D02*
D03*
X698650D02*
D03*
X478013Y887030D02*
D03*
X813650Y661808D02*
D03*
X873967Y585520D02*
D03*
Y608140D02*
D03*
X962250Y598408D02*
D03*
X963502Y567246D02*
D03*
X966042Y615252D02*
D03*
X962250Y583408D02*
D03*
X828650Y783808D02*
D03*
X838213Y743808D02*
D03*
X808650Y783808D02*
D03*
X818650D02*
D03*
Y763808D02*
D03*
Y773808D02*
D03*
X798650Y783808D02*
D03*
X838650D02*
D03*
X890650Y739028D02*
D03*
X878650Y873808D02*
D03*
X868650Y883808D02*
D03*
X472605Y992935D02*
D03*
X507629D02*
D03*
X478129Y992923D02*
D03*
X1329468Y543504D02*
D03*
X1465358Y544520D02*
D03*
X888620Y879891D02*
D03*
X890650Y729028D02*
D03*
D192*
X1148074Y933506D02*
D03*
D193*
X1053078Y948620D02*
D03*
Y958620D02*
D03*
X1033078D02*
D03*
X1043078D02*
D03*
X1033078Y948620D02*
D03*
X1043078D02*
D03*
X1000680Y666659D02*
D03*
Y676659D02*
D03*
Y656659D02*
D03*
X990680D02*
D03*
Y666659D02*
D03*
Y676659D02*
D03*
D194*
X1219388Y592096D02*
D03*
Y603096D02*
D03*
X1208388D02*
D03*
Y592096D02*
D03*
X1219388Y570096D02*
D03*
Y581096D02*
D03*
X1208388D02*
D03*
Y570096D02*
D03*
X1219388Y559096D02*
D03*
X1208388D02*
D03*
X1197388Y592096D02*
D03*
Y603096D02*
D03*
Y570096D02*
D03*
Y581096D02*
D03*
Y559096D02*
D03*
X1186388Y570096D02*
D03*
Y581096D02*
D03*
Y559096D02*
D03*
X1175388Y603096D02*
D03*
X1186388D02*
D03*
X1175388Y592096D02*
D03*
X1186388D02*
D03*
X1175388Y570096D02*
D03*
Y559096D02*
D03*
Y581096D02*
D03*
X942274Y611908D02*
D03*
Y622908D02*
D03*
Y600908D02*
D03*
Y589908D02*
D03*
Y578908D02*
D03*
X931274Y611908D02*
D03*
Y622908D02*
D03*
Y600908D02*
D03*
X920274Y611908D02*
D03*
Y622908D02*
D03*
Y600908D02*
D03*
X931274Y578908D02*
D03*
Y589908D02*
D03*
X909274Y622908D02*
D03*
X898274D02*
D03*
X909274Y611908D02*
D03*
X898274D02*
D03*
X909274Y600908D02*
D03*
Y589908D02*
D03*
X898274D02*
D03*
Y600908D02*
D03*
X920274Y578908D02*
D03*
Y589908D02*
D03*
X909274Y578908D02*
D03*
X898274D02*
D03*
X522129Y961803D02*
D03*
Y950803D02*
D03*
Y928803D02*
D03*
Y939803D02*
D03*
Y917803D02*
D03*
X511129Y961803D02*
D03*
X500129D02*
D03*
X489129D02*
D03*
X478129D02*
D03*
X511129Y939803D02*
D03*
Y950803D02*
D03*
Y928803D02*
D03*
X500129D02*
D03*
Y939803D02*
D03*
Y950803D02*
D03*
X489129Y928803D02*
D03*
X500129Y917803D02*
D03*
X489129D02*
D03*
X511129D02*
D03*
X478129Y950803D02*
D03*
X489129D02*
D03*
X478129Y939803D02*
D03*
X489129D02*
D03*
X478129Y917803D02*
D03*
Y928803D02*
D03*
X178640Y891774D02*
D03*
Y880774D02*
D03*
Y902774D02*
D03*
X167640D02*
D03*
X156640D02*
D03*
X167640Y891774D02*
D03*
Y880774D02*
D03*
X156640Y891774D02*
D03*
Y880774D02*
D03*
X178640Y869774D02*
D03*
X167640D02*
D03*
X156640D02*
D03*
X178640Y858774D02*
D03*
X156640D02*
D03*
X167640Y847774D02*
D03*
Y858774D02*
D03*
X178640Y847774D02*
D03*
Y825774D02*
D03*
Y836774D02*
D03*
X167640D02*
D03*
X156640Y825774D02*
D03*
X167640D02*
D03*
X156640Y847774D02*
D03*
Y836774D02*
D03*
X167640Y814774D02*
D03*
X156640D02*
D03*
X178640D02*
D03*
X1204412Y425814D02*
D03*
Y414814D02*
D03*
X1193412Y425814D02*
D03*
Y414814D02*
D03*
X594251Y621176D02*
D03*
X531767Y633065D02*
D03*
X1139793Y694758D02*
D03*
X1129793D02*
D03*
X1119793D02*
D03*
X1109793D02*
D03*
X1099793D02*
D03*
X1139793Y704758D02*
D03*
X1129793D02*
D03*
X1119793D02*
D03*
X1109793D02*
D03*
X1099793D02*
D03*
X1139793Y714758D02*
D03*
X1129793D02*
D03*
X1119793D02*
D03*
X1109793D02*
D03*
X1099793D02*
D03*
X1139793Y724758D02*
D03*
X1129793D02*
D03*
X1119793D02*
D03*
X1109793D02*
D03*
X1099793D02*
D03*
X1139793Y734758D02*
D03*
X1129793D02*
D03*
X1119793D02*
D03*
X1109793D02*
D03*
X1099793D02*
D03*
D195*
X1065635Y478887D02*
D03*
X1085635D02*
D03*
X1075635D02*
D03*
X1085635Y468887D02*
D03*
X1075635D02*
D03*
X1065635D02*
D03*
X1085635Y458887D02*
D03*
X1075635D02*
D03*
X1065635D02*
D03*
X1092872Y554520D02*
D03*
Y562320D02*
D03*
Y570120D02*
D03*
X1075672D02*
D03*
Y562320D02*
D03*
Y554520D02*
D03*
D196*
X813752Y465701D02*
D03*
Y455701D02*
D03*
Y475701D02*
D03*
X803752D02*
D03*
X793752D02*
D03*
X803752Y455701D02*
D03*
Y465701D02*
D03*
X793752Y455701D02*
D03*
Y465701D02*
D03*
M02*
