G04*
G04 #@! TF.GenerationSoftware,Altium Limited,Altium Designer,25.6.2 (33)*
G04*
G04 Layer_Color=8421504*
%FSLAX44Y44*%
%MOMM*%
G71*
G04*
G04 #@! TF.SameCoordinates,67F29E5E-D6A8-495D-80EC-A85DB6184C2A*
G04*
G04*
G04 #@! TF.FilePolarity,Positive*
G04*
G01*
G75*
%ADD25R,1.8000X1.1500*%
%ADD26R,3.1000X5.1600*%
%ADD27R,0.8750X1.5500*%
%ADD28R,2.6000X2.0000*%
%ADD29R,2.6000X1.8000*%
%ADD30R,2.6000X1.8000*%
%ADD31R,1.3000X1.3000*%
%ADD32R,1.1500X1.8000*%
%ADD33R,0.5000X1.0400*%
%ADD34R,0.8500X0.8500*%
%ADD35R,0.7300X1.2800*%
%ADD36R,1.2800X0.8000*%
%ADD37R,1.2400X1.4700*%
%ADD38R,1.0900X1.0000*%
%ADD39O,0.7620X2.9210*%
G04:AMPARAMS|DCode=40|XSize=0.508mm|YSize=0.508mm|CornerRadius=0.1524mm|HoleSize=0mm|Usage=FLASHONLY|Rotation=90.000|XOffset=0mm|YOffset=0mm|HoleType=Round|Shape=RoundedRectangle|*
%AMROUNDEDRECTD40*
21,1,0.5080,0.2032,0,0,90.0*
21,1,0.2032,0.5080,0,0,90.0*
1,1,0.3048,0.1016,0.1016*
1,1,0.3048,0.1016,-0.1016*
1,1,0.3048,-0.1016,-0.1016*
1,1,0.3048,-0.1016,0.1016*
%
%ADD40ROUNDEDRECTD40*%
G04:AMPARAMS|DCode=41|XSize=1.397mm|YSize=1.0922mm|CornerRadius=0.2021mm|HoleSize=0mm|Usage=FLASHONLY|Rotation=270.000|XOffset=0mm|YOffset=0mm|HoleType=Round|Shape=RoundedRectangle|*
%AMROUNDEDRECTD41*
21,1,1.3970,0.6881,0,0,270.0*
21,1,0.9929,1.0922,0,0,270.0*
1,1,0.4041,-0.3440,-0.4964*
1,1,0.4041,-0.3440,0.4964*
1,1,0.4041,0.3440,0.4964*
1,1,0.4041,0.3440,-0.4964*
%
%ADD41ROUNDEDRECTD41*%
G04:AMPARAMS|DCode=42|XSize=0.889mm|YSize=0.8636mm|CornerRadius=0.1511mm|HoleSize=0mm|Usage=FLASHONLY|Rotation=90.000|XOffset=0mm|YOffset=0mm|HoleType=Round|Shape=RoundedRectangle|*
%AMROUNDEDRECTD42*
21,1,0.8890,0.5613,0,0,90.0*
21,1,0.5867,0.8636,0,0,90.0*
1,1,0.3023,0.2807,0.2934*
1,1,0.3023,0.2807,-0.2934*
1,1,0.3023,-0.2807,-0.2934*
1,1,0.3023,-0.2807,0.2934*
%
%ADD42ROUNDEDRECTD42*%
G04:AMPARAMS|DCode=43|XSize=0.24mm|YSize=0.6mm|CornerRadius=0.0492mm|HoleSize=0mm|Usage=FLASHONLY|Rotation=180.000|XOffset=0mm|YOffset=0mm|HoleType=Round|Shape=RoundedRectangle|*
%AMROUNDEDRECTD43*
21,1,0.2400,0.5016,0,0,180.0*
21,1,0.1416,0.6000,0,0,180.0*
1,1,0.0984,-0.0708,0.2508*
1,1,0.0984,0.0708,0.2508*
1,1,0.0984,0.0708,-0.2508*
1,1,0.0984,-0.0708,-0.2508*
%
%ADD43ROUNDEDRECTD43*%
G04:AMPARAMS|DCode=44|XSize=0.508mm|YSize=0.508mm|CornerRadius=0.1524mm|HoleSize=0mm|Usage=FLASHONLY|Rotation=0.000|XOffset=0mm|YOffset=0mm|HoleType=Round|Shape=RoundedRectangle|*
%AMROUNDEDRECTD44*
21,1,0.5080,0.2032,0,0,0.0*
21,1,0.2032,0.5080,0,0,0.0*
1,1,0.3048,0.1016,-0.1016*
1,1,0.3048,-0.1016,-0.1016*
1,1,0.3048,-0.1016,0.1016*
1,1,0.3048,0.1016,0.1016*
%
%ADD44ROUNDEDRECTD44*%
G04:AMPARAMS|DCode=45|XSize=1mm|YSize=0.8mm|CornerRadius=0.2mm|HoleSize=0mm|Usage=FLASHONLY|Rotation=90.000|XOffset=0mm|YOffset=0mm|HoleType=Round|Shape=RoundedRectangle|*
%AMROUNDEDRECTD45*
21,1,1.0000,0.4000,0,0,90.0*
21,1,0.6000,0.8000,0,0,90.0*
1,1,0.4000,0.2000,0.3000*
1,1,0.4000,0.2000,-0.3000*
1,1,0.4000,-0.2000,-0.3000*
1,1,0.4000,-0.2000,0.3000*
%
%ADD45ROUNDEDRECTD45*%
G04:AMPARAMS|DCode=46|XSize=1mm|YSize=0.8mm|CornerRadius=0.2mm|HoleSize=0mm|Usage=FLASHONLY|Rotation=180.000|XOffset=0mm|YOffset=0mm|HoleType=Round|Shape=RoundedRectangle|*
%AMROUNDEDRECTD46*
21,1,1.0000,0.4000,0,0,180.0*
21,1,0.6000,0.8000,0,0,180.0*
1,1,0.4000,-0.3000,0.2000*
1,1,0.4000,0.3000,0.2000*
1,1,0.4000,0.3000,-0.2000*
1,1,0.4000,-0.3000,-0.2000*
%
%ADD46ROUNDEDRECTD46*%
%ADD47R,1.0000X0.5500*%
%ADD48R,1.3500X2.7000*%
%ADD49R,2.7000X1.3500*%
G04:AMPARAMS|DCode=50|XSize=2.13mm|YSize=1.57mm|CornerRadius=0.38mm|HoleSize=0mm|Usage=FLASHONLY|Rotation=90.000|XOffset=0mm|YOffset=0mm|HoleType=Round|Shape=RoundedRectangle|*
%AMROUNDEDRECTD50*
21,1,2.1300,0.8100,0,0,90.0*
21,1,1.3700,1.5700,0,0,90.0*
1,1,0.7600,0.4050,0.6850*
1,1,0.7600,0.4050,-0.6850*
1,1,0.7600,-0.4050,-0.6850*
1,1,0.7600,-0.4050,0.6850*
%
%ADD50ROUNDEDRECTD50*%
%ADD51C,0.4500*%
G04:AMPARAMS|DCode=52|XSize=1.8034mm|YSize=1.1938mm|CornerRadius=0.203mm|HoleSize=0mm|Usage=FLASHONLY|Rotation=0.000|XOffset=0mm|YOffset=0mm|HoleType=Round|Shape=RoundedRectangle|*
%AMROUNDEDRECTD52*
21,1,1.8034,0.7879,0,0,0.0*
21,1,1.3975,1.1938,0,0,0.0*
1,1,0.4059,0.6988,-0.3940*
1,1,0.4059,-0.6988,-0.3940*
1,1,0.4059,-0.6988,0.3940*
1,1,0.4059,0.6988,0.3940*
%
%ADD52ROUNDEDRECTD52*%
%ADD53R,0.9500X0.5000*%
%ADD54R,2.2500X2.7500*%
%ADD55C,2.1590*%
%ADD56R,0.2500X0.5000*%
G04:AMPARAMS|DCode=57|XSize=1.8034mm|YSize=1.1938mm|CornerRadius=0.203mm|HoleSize=0mm|Usage=FLASHONLY|Rotation=90.000|XOffset=0mm|YOffset=0mm|HoleType=Round|Shape=RoundedRectangle|*
%AMROUNDEDRECTD57*
21,1,1.8034,0.7879,0,0,90.0*
21,1,1.3975,1.1938,0,0,90.0*
1,1,0.4059,0.3940,0.6988*
1,1,0.4059,0.3940,-0.6988*
1,1,0.4059,-0.3940,-0.6988*
1,1,0.4059,-0.3940,0.6988*
%
%ADD57ROUNDEDRECTD57*%
%ADD58O,0.2300X0.8000*%
%ADD59R,2.7500X2.2500*%
%ADD60O,0.8000X0.2300*%
%ADD61R,0.9000X0.4500*%
%ADD62R,0.9000X0.5500*%
%ADD63R,0.5500X0.9000*%
%ADD64R,7.4000X7.4000*%
%ADD65R,0.4590X2.1990*%
%ADD66O,0.5500X1.5000*%
G04:AMPARAMS|DCode=67|XSize=2.21mm|YSize=2.11mm|CornerRadius=0.515mm|HoleSize=0mm|Usage=FLASHONLY|Rotation=0.000|XOffset=0mm|YOffset=0mm|HoleType=Round|Shape=RoundedRectangle|*
%AMROUNDEDRECTD67*
21,1,2.2100,1.0800,0,0,0.0*
21,1,1.1800,2.1100,0,0,0.0*
1,1,1.0300,0.5900,-0.5400*
1,1,1.0300,-0.5900,-0.5400*
1,1,1.0300,-0.5900,0.5400*
1,1,1.0300,0.5900,0.5400*
%
%ADD67ROUNDEDRECTD67*%
G04:AMPARAMS|DCode=68|XSize=1.397mm|YSize=1.0922mm|CornerRadius=0.2021mm|HoleSize=0mm|Usage=FLASHONLY|Rotation=180.000|XOffset=0mm|YOffset=0mm|HoleType=Round|Shape=RoundedRectangle|*
%AMROUNDEDRECTD68*
21,1,1.3970,0.6881,0,0,180.0*
21,1,0.9929,1.0922,0,0,180.0*
1,1,0.4041,-0.4964,0.3440*
1,1,0.4041,0.4964,0.3440*
1,1,0.4041,0.4964,-0.3440*
1,1,0.4041,-0.4964,-0.3440*
%
%ADD68ROUNDEDRECTD68*%
G04:AMPARAMS|DCode=69|XSize=0.9mm|YSize=0.25mm|CornerRadius=0.05mm|HoleSize=0mm|Usage=FLASHONLY|Rotation=0.000|XOffset=0mm|YOffset=0mm|HoleType=Round|Shape=RoundedRectangle|*
%AMROUNDEDRECTD69*
21,1,0.9000,0.1500,0,0,0.0*
21,1,0.8000,0.2500,0,0,0.0*
1,1,0.1000,0.4000,-0.0750*
1,1,0.1000,-0.4000,-0.0750*
1,1,0.1000,-0.4000,0.0750*
1,1,0.1000,0.4000,0.0750*
%
%ADD69ROUNDEDRECTD69*%
%ADD70R,0.5000X0.2500*%
%ADD71O,0.8500X0.2800*%
%ADD72R,5.6000X5.6000*%
%ADD73O,0.2800X0.8500*%
%ADD74R,7.4000X7.4000*%
G04:AMPARAMS|DCode=75|XSize=0.9mm|YSize=3.9mm|CornerRadius=0.0495mm|HoleSize=0mm|Usage=FLASHONLY|Rotation=270.000|XOffset=0mm|YOffset=0mm|HoleType=Round|Shape=RoundedRectangle|*
%AMROUNDEDRECTD75*
21,1,0.9000,3.8010,0,0,270.0*
21,1,0.8010,3.9000,0,0,270.0*
1,1,0.0990,-1.9005,-0.4005*
1,1,0.0990,-1.9005,0.4005*
1,1,0.0990,1.9005,0.4005*
1,1,0.0990,1.9005,-0.4005*
%
%ADD75ROUNDEDRECTD75*%
G04:AMPARAMS|DCode=76|XSize=9.126mm|YSize=13.37mm|CornerRadius=0.0456mm|HoleSize=0mm|Usage=FLASHONLY|Rotation=270.000|XOffset=0mm|YOffset=0mm|HoleType=Round|Shape=RoundedRectangle|*
%AMROUNDEDRECTD76*
21,1,9.1260,13.2787,0,0,270.0*
21,1,9.0347,13.3700,0,0,270.0*
1,1,0.0913,-6.6394,-4.5174*
1,1,0.0913,-6.6394,4.5174*
1,1,0.0913,6.6394,4.5174*
1,1,0.0913,6.6394,-4.5174*
%
%ADD76ROUNDEDRECTD76*%
G04:AMPARAMS|DCode=77|XSize=3.504mm|YSize=1.016mm|CornerRadius=0.254mm|HoleSize=0mm|Usage=FLASHONLY|Rotation=180.000|XOffset=0mm|YOffset=0mm|HoleType=Round|Shape=RoundedRectangle|*
%AMROUNDEDRECTD77*
21,1,3.5040,0.5080,0,0,180.0*
21,1,2.9960,1.0160,0,0,180.0*
1,1,0.5080,-1.4980,0.2540*
1,1,0.5080,1.4980,0.2540*
1,1,0.5080,1.4980,-0.2540*
1,1,0.5080,-1.4980,-0.2540*
%
%ADD77ROUNDEDRECTD77*%
G04:AMPARAMS|DCode=78|XSize=0.889mm|YSize=0.8636mm|CornerRadius=0.1511mm|HoleSize=0mm|Usage=FLASHONLY|Rotation=0.000|XOffset=0mm|YOffset=0mm|HoleType=Round|Shape=RoundedRectangle|*
%AMROUNDEDRECTD78*
21,1,0.8890,0.5613,0,0,0.0*
21,1,0.5867,0.8636,0,0,0.0*
1,1,0.3023,0.2934,-0.2807*
1,1,0.3023,-0.2934,-0.2807*
1,1,0.3023,-0.2934,0.2807*
1,1,0.3023,0.2934,0.2807*
%
%ADD78ROUNDEDRECTD78*%
G04:AMPARAMS|DCode=79|XSize=0.889mm|YSize=0.7874mm|CornerRadius=0.1535mm|HoleSize=0mm|Usage=FLASHONLY|Rotation=270.000|XOffset=0mm|YOffset=0mm|HoleType=Round|Shape=RoundedRectangle|*
%AMROUNDEDRECTD79*
21,1,0.8890,0.4803,0,0,270.0*
21,1,0.5819,0.7874,0,0,270.0*
1,1,0.3071,-0.2402,-0.2910*
1,1,0.3071,-0.2402,0.2910*
1,1,0.3071,0.2402,0.2910*
1,1,0.3071,0.2402,-0.2910*
%
%ADD79ROUNDEDRECTD79*%
G04:AMPARAMS|DCode=80|XSize=0.3mm|YSize=0.95mm|CornerRadius=0.0625mm|HoleSize=0mm|Usage=FLASHONLY|Rotation=180.000|XOffset=0mm|YOffset=0mm|HoleType=Round|Shape=RoundedRectangle|*
%AMROUNDEDRECTD80*
21,1,0.3000,0.8250,0,0,180.0*
21,1,0.1750,0.9500,0,0,180.0*
1,1,0.1250,-0.0875,0.4125*
1,1,0.1250,0.0875,0.4125*
1,1,0.1250,0.0875,-0.4125*
1,1,0.1250,-0.0875,-0.4125*
%
%ADD80ROUNDEDRECTD80*%
G04:AMPARAMS|DCode=81|XSize=5.35mm|YSize=8.54mm|CornerRadius=0.0535mm|HoleSize=0mm|Usage=FLASHONLY|Rotation=90.000|XOffset=0mm|YOffset=0mm|HoleType=Round|Shape=RoundedRectangle|*
%AMROUNDEDRECTD81*
21,1,5.3500,8.4330,0,0,90.0*
21,1,5.2430,8.5400,0,0,90.0*
1,1,0.1070,4.2165,2.6215*
1,1,0.1070,4.2165,-2.6215*
1,1,0.1070,-4.2165,-2.6215*
1,1,0.1070,-4.2165,2.6215*
%
%ADD81ROUNDEDRECTD81*%
G04:AMPARAMS|DCode=82|XSize=0.3mm|YSize=0.95mm|CornerRadius=0.0625mm|HoleSize=0mm|Usage=FLASHONLY|Rotation=270.000|XOffset=0mm|YOffset=0mm|HoleType=Round|Shape=RoundedRectangle|*
%AMROUNDEDRECTD82*
21,1,0.3000,0.8250,0,0,270.0*
21,1,0.1750,0.9500,0,0,270.0*
1,1,0.1250,-0.4125,-0.0875*
1,1,0.1250,-0.4125,0.0875*
1,1,0.1250,0.4125,0.0875*
1,1,0.1250,0.4125,-0.0875*
%
%ADD82ROUNDEDRECTD82*%
G04:AMPARAMS|DCode=83|XSize=0.89mm|YSize=2.41mm|CornerRadius=0.049mm|HoleSize=0mm|Usage=FLASHONLY|Rotation=90.000|XOffset=0mm|YOffset=0mm|HoleType=Round|Shape=RoundedRectangle|*
%AMROUNDEDRECTD83*
21,1,0.8900,2.3121,0,0,90.0*
21,1,0.7921,2.4100,0,0,90.0*
1,1,0.0979,1.1561,0.3961*
1,1,0.0979,1.1561,-0.3961*
1,1,0.0979,-1.1561,-0.3961*
1,1,0.0979,-1.1561,0.3961*
%
%ADD83ROUNDEDRECTD83*%
G04:AMPARAMS|DCode=84|XSize=3.4mm|YSize=3.4mm|CornerRadius=0mm|HoleSize=0mm|Usage=FLASHONLY|Rotation=90.000|XOffset=0mm|YOffset=0mm|HoleType=Round|Shape=RoundedRectangle|*
%AMROUNDEDRECTD84*
21,1,3.4000,3.4000,0,0,90.0*
21,1,3.4000,3.4000,0,0,90.0*
1,1,0.0000,1.7000,1.7000*
1,1,0.0000,1.7000,-1.7000*
1,1,0.0000,-1.7000,-1.7000*
1,1,0.0000,-1.7000,1.7000*
%
%ADD84ROUNDEDRECTD84*%
%ADD85O,1.6000X0.3000*%
G04:AMPARAMS|DCode=86|XSize=0.6mm|YSize=0.8mm|CornerRadius=0.1375mm|HoleSize=0mm|Usage=FLASHONLY|Rotation=90.000|XOffset=0mm|YOffset=0mm|HoleType=Round|Shape=RoundedRectangle|*
%AMROUNDEDRECTD86*
21,1,0.6000,0.5250,0,0,90.0*
21,1,0.3250,0.8000,0,0,90.0*
1,1,0.2750,0.2625,0.1625*
1,1,0.2750,0.2625,-0.1625*
1,1,0.2750,-0.2625,-0.1625*
1,1,0.2750,-0.2625,0.1625*
%
%ADD86ROUNDEDRECTD86*%
%ADD87R,0.2500X0.8000*%
%ADD88R,3.8100X4.2418*%
G04:AMPARAMS|DCode=89|XSize=0.889mm|YSize=0.7874mm|CornerRadius=0.1535mm|HoleSize=0mm|Usage=FLASHONLY|Rotation=180.000|XOffset=0mm|YOffset=0mm|HoleType=Round|Shape=RoundedRectangle|*
%AMROUNDEDRECTD89*
21,1,0.8890,0.4803,0,0,180.0*
21,1,0.5819,0.7874,0,0,180.0*
1,1,0.3071,-0.2910,0.2402*
1,1,0.3071,0.2910,0.2402*
1,1,0.3071,0.2910,-0.2402*
1,1,0.3071,-0.2910,-0.2402*
%
%ADD89ROUNDEDRECTD89*%
%ADD90R,1.0200X0.6900*%
%ADD91R,1.5000X1.5500*%
G04:AMPARAMS|DCode=92|XSize=0.4mm|YSize=1.35mm|CornerRadius=0.1mm|HoleSize=0mm|Usage=FLASHONLY|Rotation=0.000|XOffset=0mm|YOffset=0mm|HoleType=Round|Shape=RoundedRectangle|*
%AMROUNDEDRECTD92*
21,1,0.4000,1.1500,0,0,0.0*
21,1,0.2000,1.3500,0,0,0.0*
1,1,0.2000,0.1000,-0.5750*
1,1,0.2000,-0.1000,-0.5750*
1,1,0.2000,-0.1000,0.5750*
1,1,0.2000,0.1000,0.5750*
%
%ADD92ROUNDEDRECTD92*%
%ADD93R,0.4000X0.5500*%
%ADD94R,0.3000X0.5500*%
G04:AMPARAMS|DCode=95|XSize=0.25mm|YSize=0.4mm|CornerRadius=0.05mm|HoleSize=0mm|Usage=FLASHONLY|Rotation=90.000|XOffset=0mm|YOffset=0mm|HoleType=Round|Shape=RoundedRectangle|*
%AMROUNDEDRECTD95*
21,1,0.2500,0.3000,0,0,90.0*
21,1,0.1500,0.4000,0,0,90.0*
1,1,0.1000,0.1500,0.0750*
1,1,0.1000,0.1500,-0.0750*
1,1,0.1000,-0.1500,-0.0750*
1,1,0.1000,-0.1500,0.0750*
%
%ADD95ROUNDEDRECTD95*%
%ADD96R,2.1000X2.1000*%
%ADD97O,0.8000X0.2000*%
%ADD98O,0.2000X0.8000*%
%ADD99R,0.8000X0.2500*%
%ADD100O,1.8000X0.4000*%
G36*
X1140698Y1008165D02*
X1140980Y1007883D01*
X1141132Y1007515D01*
X1141132Y1007316D01*
X1141133Y994317D01*
X1141133Y994317D01*
X1141133Y994118D01*
X1140981Y993751D01*
X1140700Y993469D01*
X1140332Y993317D01*
X1140134Y993317D01*
X1131531Y993317D01*
Y993317D01*
X1131333Y993317D01*
X1130966Y993469D01*
X1130685Y993750D01*
X1130532Y994117D01*
X1130532Y994316D01*
X1130532Y1007316D01*
X1130532Y1007316D01*
X1130532Y1007515D01*
X1130684Y1007883D01*
X1130965Y1008164D01*
X1131333Y1008316D01*
X1131532Y1008316D01*
X1140131Y1008317D01*
X1140131Y1008317D01*
X1140330Y1008317D01*
X1140698Y1008165D01*
D02*
G37*
G36*
X1127533Y1008315D02*
X1127731Y1008315D01*
X1128099Y1008163D01*
X1128380Y1007882D01*
X1128532Y1007515D01*
X1128532Y1007316D01*
X1128532Y994316D01*
X1128532Y994316D01*
X1128532Y994117D01*
X1128380Y993749D01*
X1128099Y993468D01*
X1127731Y993316D01*
X1127532Y993316D01*
X1118933Y993315D01*
X1118933D01*
X1118734Y993315D01*
X1118366Y993467D01*
X1118084Y993749D01*
X1117932Y994117D01*
X1117932Y994316D01*
X1117931Y1007315D01*
X1117932Y1007315D01*
X1117931Y1007514D01*
X1118083Y1007881D01*
X1118364Y1008163D01*
X1118732Y1008315D01*
X1118931Y1008315D01*
X1127533Y1008315D01*
X1127533Y1008315D01*
D02*
G37*
G36*
X1115715Y1004491D02*
X1115856Y1004350D01*
X1115932Y1004165D01*
X1115932Y1004066D01*
X1115932Y1002566D01*
X1115932Y1002566D01*
X1115932Y1002466D01*
X1115855Y1002282D01*
X1115714Y1002142D01*
X1115531Y1002066D01*
X1115431Y1002066D01*
X1113032Y1002066D01*
Y1002066D01*
X1112932Y1002066D01*
X1112749Y1002142D01*
X1112608Y1002283D01*
X1112532Y1002467D01*
X1112532Y1002566D01*
X1112532Y1004066D01*
X1112532Y1004066D01*
X1112532Y1004165D01*
X1112608Y1004349D01*
X1112748Y1004490D01*
X1112932Y1004566D01*
X1113031D01*
X1115431Y1004567D01*
X1115431Y1004567D01*
X1115531Y1004567D01*
X1115715Y1004491D01*
D02*
G37*
G36*
X1146032Y1004566D02*
X1146032Y1004566D01*
X1146132Y1004566D01*
X1146316Y1004490D01*
X1146456Y1004349D01*
X1146532Y1004165D01*
X1146532Y1004066D01*
X1146532Y1002566D01*
X1146532Y1002566D01*
X1146532Y1002467D01*
X1146456Y1002283D01*
X1146316Y1002142D01*
X1146132Y1002066D01*
X1146032D01*
X1143633Y1002065D01*
X1143633D01*
X1143533Y1002065D01*
X1143349Y1002141D01*
X1143208Y1002282D01*
X1143132Y1002467D01*
X1143132Y1002566D01*
X1143132Y1004066D01*
X1143132Y1004066D01*
X1143132Y1004166D01*
X1143209Y1004350D01*
X1143350Y1004490D01*
X1143533Y1004566D01*
X1143633Y1004566D01*
X1146032Y1004566D01*
D02*
G37*
G36*
X1115715Y999491D02*
X1115856Y999350D01*
X1115932Y999165D01*
X1115932Y999066D01*
X1115932Y997566D01*
X1115932Y997566D01*
X1115932Y997466D01*
X1115855Y997282D01*
X1115714Y997142D01*
X1115531Y997066D01*
X1115431Y997066D01*
X1113032Y997066D01*
Y997066D01*
X1112932Y997066D01*
X1112749Y997142D01*
X1112608Y997283D01*
X1112532Y997467D01*
X1112532Y997566D01*
X1112532Y999066D01*
X1112532Y999066D01*
X1112532Y999165D01*
X1112608Y999349D01*
X1112748Y999490D01*
X1112932Y999566D01*
X1113031D01*
X1115431Y999567D01*
X1115431Y999567D01*
X1115531Y999567D01*
X1115715Y999491D01*
D02*
G37*
G36*
X1146032Y999566D02*
X1146032Y999566D01*
X1146132Y999566D01*
X1146316Y999490D01*
X1146456Y999349D01*
X1146532Y999165D01*
X1146532Y999066D01*
X1146532Y997566D01*
X1146532Y997566D01*
X1146532Y997467D01*
X1146456Y997283D01*
X1146316Y997142D01*
X1146132Y997066D01*
X1146032D01*
X1143633Y997065D01*
X1143633D01*
X1143533Y997065D01*
X1143349Y997141D01*
X1143208Y997282D01*
X1143132Y997467D01*
X1143132Y997566D01*
X1143132Y999066D01*
X1143132Y999066D01*
X1143132Y999166D01*
X1143209Y999350D01*
X1143350Y999490D01*
X1143533Y999566D01*
X1143633Y999566D01*
X1146032Y999566D01*
D02*
G37*
G36*
X548898Y831641D02*
X540198D01*
Y840341D01*
X548898D01*
Y831641D01*
D02*
G37*
G36*
X538198D02*
X529498D01*
Y840341D01*
X538198D01*
Y831641D01*
D02*
G37*
G36*
X527498D02*
X518798D01*
Y840341D01*
X527498D01*
Y831641D01*
D02*
G37*
G36*
X548898Y820941D02*
X540198D01*
Y829641D01*
X548898D01*
Y820941D01*
D02*
G37*
G36*
X538198D02*
X529498D01*
Y829641D01*
X538198D01*
Y820941D01*
D02*
G37*
G36*
X527498D02*
X518798D01*
Y829641D01*
X527498D01*
Y820941D01*
D02*
G37*
G36*
X548898Y810241D02*
X540198D01*
Y818941D01*
X548898D01*
Y810241D01*
D02*
G37*
G36*
X538198D02*
X529498D01*
Y818941D01*
X538198D01*
Y810241D01*
D02*
G37*
G36*
X527498D02*
X518798D01*
Y818941D01*
X527498D01*
Y810241D01*
D02*
G37*
G36*
X1129272Y537520D02*
X1116872D01*
Y545320D01*
Y546320D01*
X1122072Y552220D01*
X1129272D01*
Y537520D01*
D02*
G37*
D25*
X995680Y659909D02*
D03*
Y673409D02*
D03*
D26*
X167640Y858774D02*
D03*
D27*
X1400676Y329560D02*
D03*
X1455426D02*
D03*
D28*
X299376Y871220D02*
D03*
X271246D02*
D03*
X328376D02*
D03*
D29*
X299364Y849234D02*
D03*
X299362Y828209D02*
D03*
X271258Y828206D02*
D03*
X271260Y849232D02*
D03*
X328362Y828209D02*
D03*
X328364Y849234D02*
D03*
Y893234D02*
D03*
X271260Y893232D02*
D03*
X299364Y893234D02*
D03*
D30*
X328376Y914220D02*
D03*
X271246D02*
D03*
X299376D02*
D03*
D31*
X1084135Y477387D02*
D03*
Y460387D02*
D03*
X1067135D02*
D03*
Y477387D02*
D03*
X795752Y457702D02*
D03*
Y473701D02*
D03*
X811752D02*
D03*
Y457702D02*
D03*
D32*
X1049821Y953620D02*
D03*
X1036321D02*
D03*
D33*
X1054772Y635928D02*
D03*
X1062772D02*
D03*
D34*
X1084267Y556570D02*
D03*
Y568070D02*
D03*
D35*
X1050422Y616428D02*
D03*
X1060722D02*
D03*
X1050422Y600628D02*
D03*
X1060722D02*
D03*
D36*
X1087167Y625720D02*
D03*
X1087172Y636714D02*
D03*
X1102966Y625720D02*
D03*
X1102972Y636714D02*
D03*
Y601914D02*
D03*
X1102966Y590920D02*
D03*
X1087172Y601914D02*
D03*
X1087167Y590920D02*
D03*
D37*
X1041072Y544815D02*
D03*
Y645814D02*
D03*
X1123072D02*
D03*
D38*
X1139142Y696758D02*
D03*
X1139144Y708759D02*
D03*
X1139142Y720758D02*
D03*
X1139144Y732759D02*
D03*
X1126242Y696758D02*
D03*
X1126244Y708759D02*
D03*
X1126242Y720758D02*
D03*
X1126244Y732759D02*
D03*
X1113342Y696758D02*
D03*
X1113344Y708759D02*
D03*
X1113342Y720758D02*
D03*
X1113344Y732759D02*
D03*
X1100442Y696758D02*
D03*
X1100443Y708759D02*
D03*
X1100442Y720758D02*
D03*
X1100443Y732759D02*
D03*
D39*
X487317Y748837D02*
D03*
X576217D02*
D03*
X550817D02*
D03*
X512717D02*
D03*
X487317Y657397D02*
D03*
X500017D02*
D03*
X512717D02*
D03*
X525417D02*
D03*
X538117D02*
D03*
X550817D02*
D03*
X563517D02*
D03*
X576217D02*
D03*
X500017Y748837D02*
D03*
X525417D02*
D03*
X538117D02*
D03*
X563517D02*
D03*
D40*
X1199509Y915472D02*
D03*
X1190619D02*
D03*
X1252849Y877202D02*
D03*
Y856882D02*
D03*
Y867042D02*
D03*
Y897522D02*
D03*
Y907682D02*
D03*
Y887362D02*
D03*
X1252976Y765442D02*
D03*
Y775602D02*
D03*
Y785762D02*
D03*
X1199509Y902199D02*
D03*
Y889385D02*
D03*
X1217289Y857831D02*
D03*
Y819731D02*
D03*
Y870531D02*
D03*
X1199509Y851481D02*
D03*
Y838781D02*
D03*
X1217289Y832431D02*
D03*
X1199509Y826081D02*
D03*
X1217289Y845131D02*
D03*
X1199509Y864181D02*
D03*
Y876881D02*
D03*
X1217289Y908631D02*
D03*
Y895931D02*
D03*
Y883231D02*
D03*
Y794331D02*
D03*
X1199509Y788050D02*
D03*
X1217289Y781229D02*
D03*
X1199509Y775281D02*
D03*
X1252849Y826402D02*
D03*
Y846722D02*
D03*
Y836562D02*
D03*
Y816242D02*
D03*
X1252976Y806082D02*
D03*
Y795922D02*
D03*
X1217416Y807031D02*
D03*
X1199509Y800672D02*
D03*
Y813485D02*
D03*
X1261739Y897522D02*
D03*
Y907682D02*
D03*
Y887362D02*
D03*
X1199509Y926394D02*
D03*
X1150995Y1026724D02*
D03*
X1261739Y877202D02*
D03*
Y867042D02*
D03*
Y836562D02*
D03*
Y846722D02*
D03*
Y816242D02*
D03*
Y826402D02*
D03*
Y856882D02*
D03*
X1261866Y765442D02*
D03*
Y795922D02*
D03*
Y806082D02*
D03*
Y775602D02*
D03*
Y785762D02*
D03*
X1096512Y973130D02*
D03*
X1080383Y1103178D02*
D03*
X1022217Y930712D02*
D03*
X1076954Y783808D02*
D03*
X1265587Y546044D02*
D03*
X1336529Y537408D02*
D03*
X1317911Y531058D02*
D03*
X1248315Y403296D02*
D03*
X1242727Y388691D02*
D03*
X1098709Y528137D02*
D03*
X1044575Y718312D02*
D03*
X975059Y608140D02*
D03*
X976329Y576136D02*
D03*
X980139Y566992D02*
D03*
X969979Y530035D02*
D03*
X940545D02*
D03*
X905259Y529527D02*
D03*
X875795D02*
D03*
X934419Y465900D02*
D03*
X910670Y465900D02*
D03*
X564553Y966773D02*
D03*
X444659Y956747D02*
D03*
X477558Y872285D02*
D03*
X450219Y826709D02*
D03*
X644924Y586785D02*
D03*
X445607Y815631D02*
D03*
X1071493Y1103178D02*
D03*
X1373505Y943864D02*
D03*
X1115689Y1027994D02*
D03*
X1473073Y841502D02*
D03*
X1373759Y842669D02*
D03*
X1345419Y537408D02*
D03*
X673095Y936940D02*
D03*
X178943Y958088D02*
D03*
X462318Y884731D02*
D03*
X582743Y819576D02*
D03*
X585488Y607613D02*
D03*
X446296Y788229D02*
D03*
X1256697Y546044D02*
D03*
X1464183Y841502D02*
D03*
X170053Y958088D02*
D03*
X1284351Y1053084D02*
D03*
X1275461D02*
D03*
X1239773Y1080016D02*
D03*
X1230883D02*
D03*
X417086Y956747D02*
D03*
X1124579Y1027994D02*
D03*
X1382649Y842669D02*
D03*
X1382395Y943864D02*
D03*
X1053465Y718312D02*
D03*
X664205Y936940D02*
D03*
X1190619Y813485D02*
D03*
Y800672D02*
D03*
X1208526Y807031D02*
D03*
X950294Y494602D02*
D03*
X959184D02*
D03*
X1176941Y505404D02*
D03*
X1168051D02*
D03*
X1225963Y505912D02*
D03*
X1217073D02*
D03*
X966169Y608140D02*
D03*
X1142105Y1026724D02*
D03*
X895049Y494348D02*
D03*
X886159D02*
D03*
X454497Y815631D02*
D03*
X1190619Y775281D02*
D03*
X1208399Y781229D02*
D03*
X1190619Y788050D02*
D03*
X1208399Y794331D02*
D03*
X1299369Y521406D02*
D03*
X1308259D02*
D03*
X1309021Y531058D02*
D03*
X1209333Y378643D02*
D03*
X1200443D02*
D03*
X1224333Y388691D02*
D03*
X1215443D02*
D03*
X967439Y576136D02*
D03*
X971249Y566992D02*
D03*
X435769Y956747D02*
D03*
X425976D02*
D03*
X1208399Y883231D02*
D03*
Y895931D02*
D03*
Y908631D02*
D03*
X1190619Y926394D02*
D03*
Y876881D02*
D03*
Y864181D02*
D03*
X1208399Y845131D02*
D03*
X1190619Y826081D02*
D03*
X1208399Y832431D02*
D03*
X1190619Y838781D02*
D03*
Y851481D02*
D03*
X1208399Y870531D02*
D03*
Y819731D02*
D03*
Y857831D02*
D03*
X1085844Y783808D02*
D03*
X1105402Y973130D02*
D03*
X1190619Y889385D02*
D03*
Y902199D02*
D03*
X484647Y612206D02*
D03*
X493537D02*
D03*
X484647Y625668D02*
D03*
X493537D02*
D03*
X453789Y637585D02*
D03*
X462679D02*
D03*
X453789Y651555D02*
D03*
X462679D02*
D03*
X1443895Y537408D02*
D03*
X1435005D02*
D03*
X1405287D02*
D03*
X1414177D02*
D03*
X636034Y586785D02*
D03*
X576598Y607613D02*
D03*
X459109Y826709D02*
D03*
X884685Y529527D02*
D03*
X1239425Y403296D02*
D03*
X1233837Y388691D02*
D03*
X896369Y529527D02*
D03*
X949435Y530035D02*
D03*
X901780Y465900D02*
D03*
X943309Y465900D02*
D03*
X961089Y530035D02*
D03*
X1230443Y412814D02*
D03*
X1239333D02*
D03*
X471208Y884731D02*
D03*
X967439Y585788D02*
D03*
X976329D02*
D03*
X967381Y595123D02*
D03*
X976271D02*
D03*
X455186Y788229D02*
D03*
X573853Y819576D02*
D03*
X1107599Y528137D02*
D03*
X1031107Y930712D02*
D03*
X1040251Y930966D02*
D03*
X1049141D02*
D03*
X555663Y966773D02*
D03*
X468668Y872285D02*
D03*
D41*
X1140073Y970082D02*
D03*
Y946968D02*
D03*
X1157091Y970082D02*
D03*
Y946968D02*
D03*
X1084955Y1024184D02*
D03*
X1084320Y989894D02*
D03*
X1063365Y990402D02*
D03*
X1118089Y423690D02*
D03*
X548424Y876349D02*
D03*
X1101973Y1024184D02*
D03*
X1046347Y990402D02*
D03*
X531406Y876349D02*
D03*
X1100055Y423690D02*
D03*
X1101338Y989894D02*
D03*
D42*
X1253484Y752277D02*
D03*
Y737291D02*
D03*
X1295432Y567507D02*
D03*
X1254538Y518231D02*
D03*
X1272318Y517977D02*
D03*
X111204Y828531D02*
D03*
X491759Y807791D02*
D03*
X1295432Y552521D02*
D03*
X111204Y843517D02*
D03*
X1254538Y533217D02*
D03*
X1272318Y532963D02*
D03*
X491759Y792805D02*
D03*
D43*
X1129532Y986816D02*
D03*
X1139532D02*
D03*
X1129532Y1014816D02*
D03*
X1134532Y986816D02*
D03*
X1119532Y1014816D02*
D03*
X1139532D02*
D03*
X1134532D02*
D03*
X1124532D02*
D03*
X1119532Y986816D02*
D03*
X1124532D02*
D03*
D44*
X1230286Y918901D02*
D03*
X1220126D02*
D03*
X1250606D02*
D03*
X1240446D02*
D03*
X1238582Y761294D02*
D03*
X1218262D02*
D03*
X1228422D02*
D03*
X1197942D02*
D03*
X1208102D02*
D03*
X1240446Y927791D02*
D03*
X1250606D02*
D03*
X1230286D02*
D03*
X1220126D02*
D03*
X1228422Y752404D02*
D03*
X1218262D02*
D03*
X1238582D02*
D03*
X1197942D02*
D03*
X1208102D02*
D03*
X1066312Y948620D02*
D03*
X846462Y1045745D02*
D03*
X1252760Y627959D02*
D03*
X1167988Y384754D02*
D03*
X1180624Y369895D02*
D03*
X1019228Y695325D02*
D03*
X1023329Y645518D02*
D03*
X917274Y530289D02*
D03*
X927942D02*
D03*
X856654Y481003D02*
D03*
X455623Y1073333D02*
D03*
X438589Y1086541D02*
D03*
X490131Y1005000D02*
D03*
X477558Y1007794D02*
D03*
X462629Y1003349D02*
D03*
X723902Y588629D02*
D03*
X109982Y877951D02*
D03*
X120904Y869569D02*
D03*
X846462Y1054635D02*
D03*
X455623Y1103178D02*
D03*
X1186872Y1088771D02*
D03*
X1177284Y1088700D02*
D03*
X1477264Y863219D02*
D03*
X1063149Y709363D02*
D03*
X1174004Y686818D02*
D03*
X538899Y1013890D02*
D03*
X502577Y1011985D02*
D03*
X477558Y998904D02*
D03*
X183134Y978789D02*
D03*
X100330Y897763D02*
D03*
X110998Y855091D02*
D03*
X1023329Y654408D02*
D03*
X1027363Y665457D02*
D03*
Y674347D02*
D03*
X1019228Y686435D02*
D03*
X183134Y987679D02*
D03*
X1477264Y872109D02*
D03*
X1427988Y973455D02*
D03*
Y964565D02*
D03*
X1402024Y973201D02*
D03*
Y964311D02*
D03*
X723902Y597519D02*
D03*
X724156Y607425D02*
D03*
Y616315D02*
D03*
X1186872Y1079881D02*
D03*
X1177284Y1079810D02*
D03*
X1063149Y718253D02*
D03*
X1174004Y695708D02*
D03*
X109982Y886841D02*
D03*
X100330Y888873D02*
D03*
X120904Y860679D02*
D03*
X110998Y863981D02*
D03*
X538899Y1005000D02*
D03*
X1252760Y619069D02*
D03*
X1066312Y939730D02*
D03*
X462629Y994459D02*
D03*
X1114546Y973003D02*
D03*
Y964113D02*
D03*
X1416590Y397962D02*
D03*
Y406852D02*
D03*
X1429798Y398089D02*
D03*
Y406979D02*
D03*
X564553Y902038D02*
D03*
Y893148D02*
D03*
X880444Y434785D02*
D03*
Y425895D02*
D03*
Y415735D02*
D03*
Y406845D02*
D03*
X1226344Y515183D02*
D03*
Y524073D02*
D03*
X1216692Y515183D02*
D03*
Y524073D02*
D03*
X1177322Y514929D02*
D03*
Y523819D02*
D03*
X1180624Y378785D02*
D03*
X965534Y484569D02*
D03*
Y475679D02*
D03*
X943690Y485331D02*
D03*
Y476441D02*
D03*
X957564Y425924D02*
D03*
Y417034D02*
D03*
Y406972D02*
D03*
Y398082D02*
D03*
X927942Y539179D02*
D03*
X1167924Y514802D02*
D03*
Y523692D02*
D03*
X1167988Y393644D02*
D03*
X1157764Y394279D02*
D03*
Y403169D02*
D03*
X1167924Y403369D02*
D03*
Y412259D02*
D03*
X1191412Y380309D02*
D03*
Y389199D02*
D03*
X1010492Y573469D02*
D03*
Y582359D02*
D03*
Y591630D02*
D03*
Y600520D02*
D03*
X901780Y484823D02*
D03*
Y475933D02*
D03*
X880240Y485331D02*
D03*
Y476441D02*
D03*
X917274Y539179D02*
D03*
X438589Y1095431D02*
D03*
X502577Y1003095D02*
D03*
X856654Y472113D02*
D03*
X490131Y996110D02*
D03*
X455623Y1094288D02*
D03*
Y1082223D02*
D03*
X856654Y461478D02*
D03*
Y452588D02*
D03*
D45*
X1328796Y1052830D02*
D03*
X1283837Y1079762D02*
D03*
X1312296Y1052830D02*
D03*
X1267337Y1079762D02*
D03*
D46*
X1429258Y1018408D02*
D03*
X1402024D02*
D03*
X395074Y723608D02*
D03*
X1429258Y1001908D02*
D03*
X1402024D02*
D03*
X395074Y740108D02*
D03*
D47*
X1208316Y1059180D02*
D03*
X1181316Y1049680D02*
D03*
X1208316Y1068680D02*
D03*
X1181316D02*
D03*
Y1059180D02*
D03*
X1208316Y1049680D02*
D03*
D48*
X1315278Y1000220D02*
D03*
Y932720D02*
D03*
X1315437Y885630D02*
D03*
Y818130D02*
D03*
X1355437D02*
D03*
Y885630D02*
D03*
X1355278Y932720D02*
D03*
Y1000220D02*
D03*
D49*
X1274196Y986566D02*
D03*
X1206696D02*
D03*
X1274196Y1026566D02*
D03*
X1206696D02*
D03*
D50*
X1425564Y914210D02*
D03*
X1423434Y814070D02*
D03*
X1381234D02*
D03*
X1383364Y914210D02*
D03*
D51*
X1144060Y919628D02*
D03*
Y911628D02*
D03*
X1136060Y895628D02*
D03*
Y887628D02*
D03*
X1144060Y879628D02*
D03*
Y871628D02*
D03*
X1136060D02*
D03*
X1144060Y831628D02*
D03*
Y799628D02*
D03*
Y815628D02*
D03*
X1136060Y855628D02*
D03*
X1096060Y911628D02*
D03*
X1080060D02*
D03*
Y895628D02*
D03*
Y887628D02*
D03*
X883500Y919028D02*
D03*
X1088060Y887628D02*
D03*
X1080060Y871628D02*
D03*
X1088060Y855628D02*
D03*
X1080060Y831628D02*
D03*
Y799628D02*
D03*
Y815628D02*
D03*
X873500Y879028D02*
D03*
Y839028D02*
D03*
X853500Y859028D02*
D03*
X873500Y799028D02*
D03*
Y759028D02*
D03*
X843500Y819028D02*
D03*
Y779028D02*
D03*
X873500Y719028D02*
D03*
X883500Y669028D02*
D03*
X853500Y739028D02*
D03*
Y699028D02*
D03*
X843500Y679028D02*
D03*
X753500Y909028D02*
D03*
X713500D02*
D03*
X673500D02*
D03*
X833500D02*
D03*
X793500D02*
D03*
X813500Y889028D02*
D03*
X773500Y879028D02*
D03*
X733500Y899028D02*
D03*
X663500D02*
D03*
X703500Y879028D02*
D03*
X633500Y919028D02*
D03*
X643500Y879028D02*
D03*
X823500Y859028D02*
D03*
X783500D02*
D03*
Y829028D02*
D03*
X773500Y819028D02*
D03*
X813500Y809028D02*
D03*
X783500D02*
D03*
Y789028D02*
D03*
X773500Y799028D02*
D03*
Y779028D02*
D03*
X763500Y789028D02*
D03*
X743500Y849028D02*
D03*
X753500Y819028D02*
D03*
X733500Y879028D02*
D03*
X693500Y869028D02*
D03*
X733500Y819028D02*
D03*
X693500Y849028D02*
D03*
X763500Y809028D02*
D03*
X753500Y799028D02*
D03*
X743500Y809028D02*
D03*
X753500Y779028D02*
D03*
X743500Y789028D02*
D03*
X733500Y799028D02*
D03*
X703500D02*
D03*
X733500Y779028D02*
D03*
X813500Y749028D02*
D03*
X823500Y709028D02*
D03*
X783500Y769028D02*
D03*
Y739028D02*
D03*
Y709028D02*
D03*
X803500Y679028D02*
D03*
X763500Y769028D02*
D03*
X743500D02*
D03*
X733500Y759028D02*
D03*
X743500Y709028D02*
D03*
X703500Y749028D02*
D03*
Y719028D02*
D03*
X763500Y679028D02*
D03*
X723500D02*
D03*
X693500Y879028D02*
D03*
X663500Y859028D02*
D03*
X683500Y849028D02*
D03*
X643500Y839028D02*
D03*
X683500Y819028D02*
D03*
X673500Y779028D02*
D03*
X643500Y759028D02*
D03*
Y799028D02*
D03*
X663500Y739028D02*
D03*
X673500Y709028D02*
D03*
X683500Y679028D02*
D03*
X643500Y719028D02*
D03*
X633500Y669028D02*
D03*
X813500Y909028D02*
D03*
X843500Y769028D02*
D03*
X833500Y869028D02*
D03*
Y829028D02*
D03*
X793500Y889028D02*
D03*
X773500Y909028D02*
D03*
X793500Y869028D02*
D03*
X753500Y879028D02*
D03*
X733500Y909028D02*
D03*
Y869028D02*
D03*
X803500Y839028D02*
D03*
X793500Y789028D02*
D03*
X773500Y859028D02*
D03*
X723500D02*
D03*
X753500Y829028D02*
D03*
X723500Y779028D02*
D03*
X833500Y719028D02*
D03*
X863500Y679028D02*
D03*
X803500Y749028D02*
D03*
X773500Y729028D02*
D03*
X763500Y759028D02*
D03*
X753500Y739028D02*
D03*
X713500Y749028D02*
D03*
Y729028D02*
D03*
X823500Y679028D02*
D03*
X793500Y729028D02*
D03*
X803500Y699028D02*
D03*
X763500Y709028D02*
D03*
X743500Y729028D02*
D03*
X783500Y679028D02*
D03*
X723500Y699028D02*
D03*
X743500Y679028D02*
D03*
X673500Y919028D02*
D03*
X693500Y909028D02*
D03*
X713500Y889028D02*
D03*
X683500D02*
D03*
X703500Y859028D02*
D03*
X683500Y869028D02*
D03*
X643500Y899028D02*
D03*
X663500Y879028D02*
D03*
X643500Y859028D02*
D03*
X713500Y829028D02*
D03*
X683500Y839028D02*
D03*
X693500Y779028D02*
D03*
X663500Y849028D02*
D03*
Y799028D02*
D03*
X683500Y749028D02*
D03*
X703500Y679028D02*
D03*
X683500Y719028D02*
D03*
X673500Y769028D02*
D03*
X663500Y759028D02*
D03*
X673500Y689028D02*
D03*
X663500Y719028D02*
D03*
X643500Y819028D02*
D03*
Y779028D02*
D03*
Y699028D02*
D03*
Y739028D02*
D03*
X793500Y829028D02*
D03*
X783500Y819028D02*
D03*
X793500Y769028D02*
D03*
X783500Y799028D02*
D03*
X773500Y809028D02*
D03*
X783500Y779028D02*
D03*
Y759028D02*
D03*
X773500Y789028D02*
D03*
Y769028D02*
D03*
X763500Y819028D02*
D03*
X753500Y809028D02*
D03*
X733500Y829028D02*
D03*
X723500Y819028D02*
D03*
X743500D02*
D03*
Y799028D02*
D03*
X733500Y809028D02*
D03*
X763500Y799028D02*
D03*
X753500Y789028D02*
D03*
X763500Y779028D02*
D03*
X753500Y769028D02*
D03*
X743500Y779028D02*
D03*
X733500Y789028D02*
D03*
Y769028D02*
D03*
X723500Y759028D02*
D03*
X633500Y909028D02*
D03*
Y899028D02*
D03*
Y889028D02*
D03*
Y879028D02*
D03*
Y869028D02*
D03*
Y859028D02*
D03*
Y849028D02*
D03*
Y839028D02*
D03*
Y829028D02*
D03*
Y819028D02*
D03*
Y809028D02*
D03*
Y799028D02*
D03*
Y789028D02*
D03*
Y779028D02*
D03*
Y769028D02*
D03*
Y759028D02*
D03*
Y749028D02*
D03*
Y739028D02*
D03*
Y729028D02*
D03*
Y719028D02*
D03*
Y709028D02*
D03*
Y699028D02*
D03*
Y689028D02*
D03*
Y679028D02*
D03*
X643500Y919028D02*
D03*
Y909028D02*
D03*
Y889028D02*
D03*
Y869028D02*
D03*
Y849028D02*
D03*
Y829028D02*
D03*
Y809028D02*
D03*
Y789028D02*
D03*
Y769028D02*
D03*
Y749028D02*
D03*
Y729028D02*
D03*
Y709028D02*
D03*
Y689028D02*
D03*
Y679028D02*
D03*
Y669028D02*
D03*
X653500Y919028D02*
D03*
Y909028D02*
D03*
Y899028D02*
D03*
Y889028D02*
D03*
Y879028D02*
D03*
Y869028D02*
D03*
Y859028D02*
D03*
Y849028D02*
D03*
Y839028D02*
D03*
Y829028D02*
D03*
Y819028D02*
D03*
Y809028D02*
D03*
Y799028D02*
D03*
Y789028D02*
D03*
Y779028D02*
D03*
Y769028D02*
D03*
Y759028D02*
D03*
Y749028D02*
D03*
Y739028D02*
D03*
Y729028D02*
D03*
Y719028D02*
D03*
Y709028D02*
D03*
Y699028D02*
D03*
Y689028D02*
D03*
Y679028D02*
D03*
X663500Y919028D02*
D03*
Y909028D02*
D03*
Y889028D02*
D03*
Y869028D02*
D03*
Y839028D02*
D03*
Y829028D02*
D03*
Y819028D02*
D03*
Y809028D02*
D03*
Y789028D02*
D03*
Y779028D02*
D03*
Y769028D02*
D03*
Y749028D02*
D03*
Y729028D02*
D03*
Y709028D02*
D03*
Y699028D02*
D03*
Y679028D02*
D03*
Y669028D02*
D03*
X673500Y899028D02*
D03*
Y889028D02*
D03*
Y879028D02*
D03*
Y869028D02*
D03*
Y859028D02*
D03*
Y849028D02*
D03*
Y839028D02*
D03*
Y829028D02*
D03*
Y819028D02*
D03*
Y809028D02*
D03*
Y799028D02*
D03*
Y789028D02*
D03*
Y759028D02*
D03*
Y749028D02*
D03*
Y739028D02*
D03*
Y729028D02*
D03*
Y719028D02*
D03*
Y699028D02*
D03*
Y679028D02*
D03*
Y669028D02*
D03*
X683500Y919028D02*
D03*
Y909028D02*
D03*
Y879028D02*
D03*
Y859028D02*
D03*
Y829028D02*
D03*
Y809028D02*
D03*
Y799028D02*
D03*
Y789028D02*
D03*
Y779028D02*
D03*
Y769028D02*
D03*
Y759028D02*
D03*
Y739028D02*
D03*
Y729028D02*
D03*
Y699028D02*
D03*
Y689028D02*
D03*
Y669028D02*
D03*
X693500Y919028D02*
D03*
Y899028D02*
D03*
Y859028D02*
D03*
Y839028D02*
D03*
Y829028D02*
D03*
Y819028D02*
D03*
Y809028D02*
D03*
Y799028D02*
D03*
Y789028D02*
D03*
Y769028D02*
D03*
Y759028D02*
D03*
Y749028D02*
D03*
Y739028D02*
D03*
Y729028D02*
D03*
Y709028D02*
D03*
Y699028D02*
D03*
Y689028D02*
D03*
Y679028D02*
D03*
Y669028D02*
D03*
X703500Y849028D02*
D03*
Y839028D02*
D03*
Y829028D02*
D03*
Y819028D02*
D03*
Y809028D02*
D03*
Y789028D02*
D03*
Y779028D02*
D03*
Y769028D02*
D03*
Y759028D02*
D03*
Y739028D02*
D03*
Y729028D02*
D03*
Y709028D02*
D03*
Y699028D02*
D03*
Y689028D02*
D03*
Y669028D02*
D03*
X713500Y849028D02*
D03*
Y839028D02*
D03*
Y819028D02*
D03*
Y809028D02*
D03*
Y799028D02*
D03*
Y789028D02*
D03*
Y779028D02*
D03*
Y769028D02*
D03*
Y759028D02*
D03*
Y739028D02*
D03*
Y719028D02*
D03*
Y709028D02*
D03*
Y699028D02*
D03*
Y689028D02*
D03*
Y679028D02*
D03*
Y669028D02*
D03*
X723500Y899028D02*
D03*
Y889028D02*
D03*
Y879028D02*
D03*
Y839028D02*
D03*
Y829028D02*
D03*
Y809028D02*
D03*
Y799028D02*
D03*
Y789028D02*
D03*
Y769028D02*
D03*
Y749028D02*
D03*
Y739028D02*
D03*
Y729028D02*
D03*
Y719028D02*
D03*
Y709028D02*
D03*
Y689028D02*
D03*
Y669028D02*
D03*
X733500Y919028D02*
D03*
Y889028D02*
D03*
Y849028D02*
D03*
Y749028D02*
D03*
Y739028D02*
D03*
Y729028D02*
D03*
Y719028D02*
D03*
Y709028D02*
D03*
Y699028D02*
D03*
Y689028D02*
D03*
Y679028D02*
D03*
Y669028D02*
D03*
X743500Y919028D02*
D03*
Y909028D02*
D03*
Y899028D02*
D03*
Y889028D02*
D03*
Y879028D02*
D03*
Y869028D02*
D03*
Y859028D02*
D03*
Y839028D02*
D03*
Y829028D02*
D03*
Y759028D02*
D03*
Y749028D02*
D03*
Y739028D02*
D03*
Y719028D02*
D03*
Y699028D02*
D03*
Y689028D02*
D03*
Y669028D02*
D03*
X753500Y919028D02*
D03*
Y899028D02*
D03*
Y889028D02*
D03*
Y869028D02*
D03*
Y859028D02*
D03*
Y849028D02*
D03*
Y839028D02*
D03*
Y759028D02*
D03*
Y749028D02*
D03*
Y729028D02*
D03*
Y719028D02*
D03*
Y709028D02*
D03*
Y699028D02*
D03*
Y689028D02*
D03*
Y679028D02*
D03*
Y669028D02*
D03*
X763500Y899028D02*
D03*
Y889028D02*
D03*
Y879028D02*
D03*
Y869028D02*
D03*
Y839028D02*
D03*
Y829028D02*
D03*
Y749028D02*
D03*
Y739028D02*
D03*
Y729028D02*
D03*
Y719028D02*
D03*
Y699028D02*
D03*
Y689028D02*
D03*
Y669028D02*
D03*
X773500Y919028D02*
D03*
Y899028D02*
D03*
Y889028D02*
D03*
Y869028D02*
D03*
Y849028D02*
D03*
Y839028D02*
D03*
Y829028D02*
D03*
Y759028D02*
D03*
Y749028D02*
D03*
Y739028D02*
D03*
Y719028D02*
D03*
Y709028D02*
D03*
Y699028D02*
D03*
Y689028D02*
D03*
Y679028D02*
D03*
Y669028D02*
D03*
X783500Y919028D02*
D03*
Y909028D02*
D03*
Y899028D02*
D03*
Y889028D02*
D03*
Y879028D02*
D03*
Y869028D02*
D03*
Y849028D02*
D03*
Y839028D02*
D03*
Y749028D02*
D03*
Y729028D02*
D03*
X793500Y919028D02*
D03*
Y899028D02*
D03*
Y879028D02*
D03*
Y859028D02*
D03*
Y849028D02*
D03*
Y839028D02*
D03*
Y819028D02*
D03*
Y809028D02*
D03*
Y799028D02*
D03*
Y779028D02*
D03*
Y759028D02*
D03*
Y749028D02*
D03*
Y739028D02*
D03*
X803500Y919028D02*
D03*
Y909028D02*
D03*
Y899028D02*
D03*
Y889028D02*
D03*
Y879028D02*
D03*
Y869028D02*
D03*
Y859028D02*
D03*
Y849028D02*
D03*
Y829028D02*
D03*
Y819028D02*
D03*
Y809028D02*
D03*
Y789028D02*
D03*
Y779028D02*
D03*
Y769028D02*
D03*
Y759028D02*
D03*
Y739028D02*
D03*
Y729028D02*
D03*
X813500Y919028D02*
D03*
Y899028D02*
D03*
Y879028D02*
D03*
Y869028D02*
D03*
Y859028D02*
D03*
Y849028D02*
D03*
Y839028D02*
D03*
Y829028D02*
D03*
Y819028D02*
D03*
Y799028D02*
D03*
Y789028D02*
D03*
Y779028D02*
D03*
Y769028D02*
D03*
Y759028D02*
D03*
Y739028D02*
D03*
Y729028D02*
D03*
Y719028D02*
D03*
X823500Y919028D02*
D03*
Y909028D02*
D03*
Y899028D02*
D03*
Y889028D02*
D03*
Y879028D02*
D03*
Y869028D02*
D03*
Y849028D02*
D03*
Y839028D02*
D03*
Y829028D02*
D03*
Y809028D02*
D03*
Y799028D02*
D03*
Y789028D02*
D03*
Y769028D02*
D03*
Y759028D02*
D03*
Y749028D02*
D03*
Y739028D02*
D03*
Y729028D02*
D03*
Y719028D02*
D03*
Y689028D02*
D03*
Y669028D02*
D03*
X833500Y919028D02*
D03*
Y899028D02*
D03*
Y879028D02*
D03*
Y859028D02*
D03*
Y839028D02*
D03*
Y819028D02*
D03*
Y809028D02*
D03*
Y799028D02*
D03*
Y789028D02*
D03*
Y779028D02*
D03*
Y769028D02*
D03*
Y759028D02*
D03*
Y739028D02*
D03*
Y729028D02*
D03*
Y709028D02*
D03*
Y699028D02*
D03*
Y689028D02*
D03*
Y679028D02*
D03*
Y669028D02*
D03*
X843500Y919028D02*
D03*
Y909028D02*
D03*
Y899028D02*
D03*
Y889028D02*
D03*
Y879028D02*
D03*
Y869028D02*
D03*
Y859028D02*
D03*
Y849028D02*
D03*
Y839028D02*
D03*
Y829028D02*
D03*
Y809028D02*
D03*
Y799028D02*
D03*
Y789028D02*
D03*
Y759028D02*
D03*
Y749028D02*
D03*
Y739028D02*
D03*
Y729028D02*
D03*
Y719028D02*
D03*
Y709028D02*
D03*
Y699028D02*
D03*
Y689028D02*
D03*
Y669028D02*
D03*
X853500Y919028D02*
D03*
Y909028D02*
D03*
Y899028D02*
D03*
Y889028D02*
D03*
Y879028D02*
D03*
Y869028D02*
D03*
Y839028D02*
D03*
Y829028D02*
D03*
Y819028D02*
D03*
Y809028D02*
D03*
Y789028D02*
D03*
Y779028D02*
D03*
Y769028D02*
D03*
Y749028D02*
D03*
Y729028D02*
D03*
Y709028D02*
D03*
Y689028D02*
D03*
Y679028D02*
D03*
Y669028D02*
D03*
X863500Y909028D02*
D03*
Y899028D02*
D03*
Y889028D02*
D03*
Y879028D02*
D03*
Y869028D02*
D03*
Y859028D02*
D03*
Y849028D02*
D03*
Y839028D02*
D03*
Y829028D02*
D03*
Y819028D02*
D03*
Y809028D02*
D03*
Y799028D02*
D03*
Y789028D02*
D03*
Y779028D02*
D03*
Y769028D02*
D03*
Y759028D02*
D03*
Y749028D02*
D03*
Y729028D02*
D03*
Y719028D02*
D03*
Y709028D02*
D03*
Y699028D02*
D03*
Y689028D02*
D03*
Y669028D02*
D03*
X873500Y919028D02*
D03*
Y909028D02*
D03*
Y889028D02*
D03*
Y869028D02*
D03*
Y849028D02*
D03*
Y829028D02*
D03*
Y809028D02*
D03*
Y789028D02*
D03*
Y769028D02*
D03*
Y709028D02*
D03*
Y689028D02*
D03*
Y679028D02*
D03*
Y669028D02*
D03*
X883500Y909028D02*
D03*
Y859028D02*
D03*
Y869028D02*
D03*
Y879028D02*
D03*
Y899028D02*
D03*
Y889028D02*
D03*
Y849028D02*
D03*
Y829028D02*
D03*
Y839028D02*
D03*
Y819028D02*
D03*
Y809028D02*
D03*
Y799028D02*
D03*
Y789028D02*
D03*
Y769028D02*
D03*
Y779028D02*
D03*
Y759028D02*
D03*
Y719028D02*
D03*
Y709028D02*
D03*
Y689028D02*
D03*
Y699028D02*
D03*
Y679028D02*
D03*
X713500Y879028D02*
D03*
Y859028D02*
D03*
X733500D02*
D03*
X723500Y849028D02*
D03*
X703500Y889028D02*
D03*
X733500Y839028D02*
D03*
X703500Y919028D02*
D03*
X683500Y899028D02*
D03*
X713500Y869028D02*
D03*
X723500Y919028D02*
D03*
X713500D02*
D03*
X693500Y889028D02*
D03*
X763500Y919028D02*
D03*
Y909028D02*
D03*
X723500D02*
D03*
X703500Y869028D02*
D03*
Y909028D02*
D03*
X723500Y869028D02*
D03*
X703500Y899028D02*
D03*
X713500D02*
D03*
X823500Y779028D02*
D03*
X803500Y799028D02*
D03*
X853500D02*
D03*
X873500Y819028D02*
D03*
X823500D02*
D03*
X833500Y849028D02*
D03*
X853500D02*
D03*
X873500Y859028D02*
D03*
X833500Y889028D02*
D03*
X873500Y899028D02*
D03*
X683500Y709028D02*
D03*
X663500Y689028D02*
D03*
X763500Y859028D02*
D03*
X863500Y919028D02*
D03*
X693500Y719028D02*
D03*
X763500Y849028D02*
D03*
X653500Y669028D02*
D03*
X803500Y719028D02*
D03*
X883500Y749028D02*
D03*
X823500Y699028D02*
D03*
X793500Y689028D02*
D03*
X813500Y699028D02*
D03*
X793500Y679028D02*
D03*
X803500Y669028D02*
D03*
X783500D02*
D03*
X793500Y709028D02*
D03*
X873500Y749028D02*
D03*
X883500Y739028D02*
D03*
X813500Y689028D02*
D03*
X793500Y669028D02*
D03*
X803500Y709028D02*
D03*
X883500Y729028D02*
D03*
X783500Y699028D02*
D03*
X793500Y719028D02*
D03*
X813500Y679028D02*
D03*
X873500Y699028D02*
D03*
X853500Y719028D02*
D03*
X833500Y749028D02*
D03*
X853500Y759028D02*
D03*
X873500Y779028D02*
D03*
Y739028D02*
D03*
X813500Y709028D02*
D03*
X873500Y729028D02*
D03*
X793500Y699028D02*
D03*
X863500Y739028D02*
D03*
X783500Y719028D02*
D03*
X813500Y669028D02*
D03*
X783500Y689028D02*
D03*
X803500D02*
D03*
X1088060Y919628D02*
D03*
X1096060D02*
D03*
X1128060D02*
D03*
Y911628D02*
D03*
X1136060D02*
D03*
X1088060Y903628D02*
D03*
X1096060D02*
D03*
X1128060D02*
D03*
X1136060D02*
D03*
X1096060Y895628D02*
D03*
X1128060D02*
D03*
X1096060Y887628D02*
D03*
X1128060D02*
D03*
X1088060Y879628D02*
D03*
X1096060D02*
D03*
X1128060D02*
D03*
X1136060D02*
D03*
X1088060Y871628D02*
D03*
X1096060D02*
D03*
X1080060Y863628D02*
D03*
X1096060D02*
D03*
X1128060D02*
D03*
X1136060D02*
D03*
X1080060Y855628D02*
D03*
X1096060D02*
D03*
X1128060D02*
D03*
X1144060D02*
D03*
X1080060Y847628D02*
D03*
X1096060D02*
D03*
X1128060D02*
D03*
X1144060D02*
D03*
X1080060Y839628D02*
D03*
X1088060D02*
D03*
X1096060D02*
D03*
X1128060D02*
D03*
X1136060D02*
D03*
X1144060D02*
D03*
X1088060Y831628D02*
D03*
X1096060D02*
D03*
X1128060D02*
D03*
X1136060D02*
D03*
X1088060Y823628D02*
D03*
X1096060D02*
D03*
X1128060D02*
D03*
X1136060D02*
D03*
X1088060Y815628D02*
D03*
X1096060D02*
D03*
X1128060D02*
D03*
X1136060D02*
D03*
X1088060Y807628D02*
D03*
X1096060D02*
D03*
X1128060D02*
D03*
X1136060D02*
D03*
X1088060Y799628D02*
D03*
X1096060D02*
D03*
X1128060D02*
D03*
X1136060D02*
D03*
X1080060Y807628D02*
D03*
Y823628D02*
D03*
Y879628D02*
D03*
Y903628D02*
D03*
Y919628D02*
D03*
X1088060Y847628D02*
D03*
X1136060D02*
D03*
X1088060Y863628D02*
D03*
X1144060Y807628D02*
D03*
Y823628D02*
D03*
Y863628D02*
D03*
X1088060Y895628D02*
D03*
X1128060Y871628D02*
D03*
X1088060Y911628D02*
D03*
X1144060Y887628D02*
D03*
X1136060Y919628D02*
D03*
X1144060Y895628D02*
D03*
Y903628D02*
D03*
D52*
X1103497Y1074476D02*
D03*
X1077970D02*
D03*
X1466628Y487116D02*
D03*
X1002252Y482333D02*
D03*
X579120Y1118962D02*
D03*
X438716Y1159200D02*
D03*
X466656D02*
D03*
Y1130244D02*
D03*
X438716D02*
D03*
X579120Y1090006D02*
D03*
X1077970Y1045520D02*
D03*
X1103497D02*
D03*
X1466628Y458160D02*
D03*
X1002252Y453377D02*
D03*
D53*
X1438610Y862838D02*
D03*
X144226Y979170D02*
D03*
X1438610Y853338D02*
D03*
X144226Y969670D02*
D03*
X1438610Y872338D02*
D03*
X1464610D02*
D03*
Y853338D02*
D03*
X170226Y988670D02*
D03*
Y969670D02*
D03*
X144226Y988670D02*
D03*
D54*
X1444464Y772928D02*
D03*
X1404464D02*
D03*
X1364464Y558428D02*
D03*
Y772928D02*
D03*
X1484464D02*
D03*
X1404464Y558428D02*
D03*
X1444464D02*
D03*
X1484464D02*
D03*
D55*
X1038214Y1078540D02*
D03*
X879464Y1053140D02*
D03*
Y1180140D02*
D03*
X814070Y1024128D02*
D03*
X655320Y992378D02*
D03*
X623570Y1119378D02*
D03*
Y992378D02*
D03*
X1038214Y1053140D02*
D03*
X1006464D02*
D03*
X1038214Y1103940D02*
D03*
Y1154740D02*
D03*
Y1129340D02*
D03*
Y1180140D02*
D03*
X879464Y1129340D02*
D03*
X623570Y1087628D02*
D03*
X814070Y1119378D02*
D03*
Y1055878D02*
D03*
Y992378D02*
D03*
X750570D02*
D03*
X655320Y1119378D02*
D03*
X814070Y1087628D02*
D03*
D56*
X1033078Y939870D02*
D03*
X1038078Y967370D02*
D03*
X1033078D02*
D03*
X1053078D02*
D03*
X1048078D02*
D03*
X1043078Y939870D02*
D03*
X1038078D02*
D03*
X1043078Y967370D02*
D03*
X1053078Y939870D02*
D03*
X1048078D02*
D03*
D57*
X1006088Y1019104D02*
D03*
X878053Y955096D02*
D03*
Y982909D02*
D03*
X785668Y1158550D02*
D03*
X359442Y961578D02*
D03*
X646575Y618281D02*
D03*
X814624Y1158550D02*
D03*
X1035044Y1019104D02*
D03*
X849097Y955096D02*
D03*
Y982909D02*
D03*
X388398Y961578D02*
D03*
X617619Y618281D02*
D03*
X1079786Y423108D02*
D03*
X1050830D02*
D03*
D58*
X1234888Y625846D02*
D03*
Y536346D02*
D03*
X1229888D02*
D03*
X1209888D02*
D03*
X1184888Y625846D02*
D03*
X1194888Y536346D02*
D03*
X1179888D02*
D03*
X1159888D02*
D03*
X1164888D02*
D03*
X1214888D02*
D03*
X522629Y984553D02*
D03*
X482629D02*
D03*
X467629D02*
D03*
X532629Y895053D02*
D03*
X512629D02*
D03*
X462629D02*
D03*
X497629D02*
D03*
X532629Y984553D02*
D03*
X527629D02*
D03*
X1224888Y536346D02*
D03*
X1219888D02*
D03*
X1204888D02*
D03*
X1199888D02*
D03*
X1184888D02*
D03*
X1174888D02*
D03*
X1169888D02*
D03*
X1159888Y625846D02*
D03*
X1224888D02*
D03*
X1174888D02*
D03*
X1194888D02*
D03*
X1179888D02*
D03*
X1214888D02*
D03*
X1219888D02*
D03*
X1199888D02*
D03*
X1229888D02*
D03*
X1169888D02*
D03*
X1164888D02*
D03*
X1204888D02*
D03*
X1209888D02*
D03*
X1189888Y536346D02*
D03*
Y625846D02*
D03*
X467629Y895053D02*
D03*
X472629D02*
D03*
X477629D02*
D03*
X482629D02*
D03*
X487629D02*
D03*
X492629D02*
D03*
X502629D02*
D03*
X507629D02*
D03*
X522629D02*
D03*
X537629D02*
D03*
Y984553D02*
D03*
X512629D02*
D03*
X507629D02*
D03*
X502629D02*
D03*
X497629D02*
D03*
X492629D02*
D03*
X487629D02*
D03*
X477629D02*
D03*
X472629D02*
D03*
X462629D02*
D03*
X517629Y895053D02*
D03*
Y984553D02*
D03*
X527629Y895053D02*
D03*
D59*
X1525464Y585678D02*
D03*
X1323464D02*
D03*
Y625678D02*
D03*
Y705678D02*
D03*
Y665678D02*
D03*
Y745678D02*
D03*
X1525464D02*
D03*
Y625678D02*
D03*
Y665678D02*
D03*
Y705678D02*
D03*
D60*
X1242138Y573596D02*
D03*
X544879Y962303D02*
D03*
Y977303D02*
D03*
Y947303D02*
D03*
Y922303D02*
D03*
Y907303D02*
D03*
X1242138Y548596D02*
D03*
Y543596D02*
D03*
X1152638D02*
D03*
X1242138Y598596D02*
D03*
Y593596D02*
D03*
X1152638D02*
D03*
X1242138Y553596D02*
D03*
Y563596D02*
D03*
X1152638Y588596D02*
D03*
Y583596D02*
D03*
Y553596D02*
D03*
Y613596D02*
D03*
X1242138Y583596D02*
D03*
Y578596D02*
D03*
X1152638Y563596D02*
D03*
Y548596D02*
D03*
Y568596D02*
D03*
Y608596D02*
D03*
X1242138Y603596D02*
D03*
X1152638Y573596D02*
D03*
X1242138Y608596D02*
D03*
X1152638Y578596D02*
D03*
Y603596D02*
D03*
Y598596D02*
D03*
X1242138Y613596D02*
D03*
Y558596D02*
D03*
X1152638D02*
D03*
X1242138Y588596D02*
D03*
X1152638Y618596D02*
D03*
X1242138Y568596D02*
D03*
Y618596D02*
D03*
X544879Y902303D02*
D03*
Y927303D02*
D03*
Y967303D02*
D03*
Y972303D02*
D03*
X455379Y977303D02*
D03*
Y972303D02*
D03*
Y967303D02*
D03*
Y962303D02*
D03*
Y957303D02*
D03*
Y952303D02*
D03*
Y947303D02*
D03*
Y942303D02*
D03*
Y937303D02*
D03*
Y932303D02*
D03*
Y927303D02*
D03*
Y922303D02*
D03*
Y917303D02*
D03*
Y912303D02*
D03*
Y907303D02*
D03*
Y902303D02*
D03*
X544879Y942303D02*
D03*
Y957303D02*
D03*
Y932303D02*
D03*
Y952303D02*
D03*
Y937303D02*
D03*
Y917303D02*
D03*
Y912303D02*
D03*
D61*
X1159693Y733808D02*
D03*
Y721108D02*
D03*
X1079893Y695708D02*
D03*
Y708408D02*
D03*
Y721108D02*
D03*
X1159693Y695708D02*
D03*
X1079893Y733808D02*
D03*
X1159693Y708408D02*
D03*
D62*
X1126322Y631320D02*
D03*
X1037822Y577320D02*
D03*
X1126322Y595320D02*
D03*
Y586320D02*
D03*
Y577320D02*
D03*
Y568320D02*
D03*
Y559320D02*
D03*
Y604320D02*
D03*
Y613320D02*
D03*
Y622320D02*
D03*
X1037822Y631320D02*
D03*
Y622320D02*
D03*
Y613320D02*
D03*
Y604320D02*
D03*
Y559320D02*
D03*
Y568320D02*
D03*
Y586320D02*
D03*
Y595320D02*
D03*
D63*
X1109072Y649570D02*
D03*
X1100072D02*
D03*
X1082072D02*
D03*
X1091072D02*
D03*
X1073072D02*
D03*
X1064072D02*
D03*
X1055072D02*
D03*
Y541070D02*
D03*
X1064072D02*
D03*
X1073072D02*
D03*
X1109072D02*
D03*
X1100072D02*
D03*
X1091072D02*
D03*
X1082072D02*
D03*
D64*
X1197388Y581096D02*
D03*
D65*
X1442498Y518421D02*
D03*
X1366298D02*
D03*
X1404398D02*
D03*
X1391698D02*
D03*
X1378998D02*
D03*
X1353598D02*
D03*
X1417098D02*
D03*
X1429798D02*
D03*
X1442498Y427871D02*
D03*
X1429798D02*
D03*
X1417098D02*
D03*
X1404398D02*
D03*
X1353598D02*
D03*
X1366298D02*
D03*
X1378998D02*
D03*
X1391698D02*
D03*
D66*
X1329722Y499892D02*
D03*
X1291622D02*
D03*
Y445892D02*
D03*
X1304322D02*
D03*
X1317022D02*
D03*
X1329722D02*
D03*
X1304322Y499892D02*
D03*
X1317022D02*
D03*
D67*
X1257078Y322662D02*
D03*
X1152430Y316820D02*
D03*
X1019382Y347928D02*
D03*
X820246Y357580D02*
D03*
Y406580D02*
D03*
X1019382Y396928D02*
D03*
X1257078Y371662D02*
D03*
X1152430Y365820D02*
D03*
D68*
X1141127Y503301D02*
D03*
X1018259Y533411D02*
D03*
X1031272Y470987D02*
D03*
X520611Y1025320D02*
D03*
X759492Y417647D02*
D03*
X471315Y811448D02*
D03*
X599694Y758317D02*
D03*
Y775335D02*
D03*
X1141127Y520319D02*
D03*
X1018259Y550429D02*
D03*
X225044Y880999D02*
D03*
Y863981D02*
D03*
X759492Y434665D02*
D03*
X1031272Y488005D02*
D03*
X520611Y1008302D02*
D03*
X471315Y794430D02*
D03*
D69*
X1099634Y462387D02*
D03*
Y468887D02*
D03*
X1051634D02*
D03*
Y475387D02*
D03*
X1099634D02*
D03*
X1051634Y481887D02*
D03*
X1099634D02*
D03*
X1051634Y462387D02*
D03*
X1099634Y455887D02*
D03*
X1051634D02*
D03*
D70*
X1009430Y656659D02*
D03*
X981930Y676659D02*
D03*
Y671659D02*
D03*
Y661659D02*
D03*
Y656659D02*
D03*
X1009430Y676659D02*
D03*
Y671659D02*
D03*
X981930Y666659D02*
D03*
X1009430Y661659D02*
D03*
Y666659D02*
D03*
D71*
X955024Y593408D02*
D03*
Y573408D02*
D03*
Y578408D02*
D03*
Y608408D02*
D03*
X885524D02*
D03*
Y578408D02*
D03*
X955024Y628408D02*
D03*
X885524Y588408D02*
D03*
Y573408D02*
D03*
X955024Y613408D02*
D03*
X885524D02*
D03*
X955024Y623408D02*
D03*
X885524Y603408D02*
D03*
Y583408D02*
D03*
Y628408D02*
D03*
Y593408D02*
D03*
Y618408D02*
D03*
X955024D02*
D03*
X885524Y598408D02*
D03*
Y623408D02*
D03*
X955024Y603408D02*
D03*
Y598408D02*
D03*
Y588408D02*
D03*
Y583408D02*
D03*
D72*
X920274Y600908D02*
D03*
D73*
X927774Y566158D02*
D03*
X912774D02*
D03*
X892774D02*
D03*
X907774D02*
D03*
X932774D02*
D03*
X947774D02*
D03*
X902774Y635658D02*
D03*
X937774D02*
D03*
X912774D02*
D03*
X932774D02*
D03*
X907774D02*
D03*
X942774D02*
D03*
X927774D02*
D03*
X947774D02*
D03*
X922774D02*
D03*
X892774D02*
D03*
X897774D02*
D03*
X917774D02*
D03*
X942774Y566158D02*
D03*
X937774D02*
D03*
X922774D02*
D03*
X917774D02*
D03*
X902774D02*
D03*
X897774D02*
D03*
D74*
X500129Y939803D02*
D03*
D75*
X400120Y1058098D02*
D03*
Y1070798D02*
D03*
Y1032698D02*
D03*
Y1134298D02*
D03*
Y1121598D02*
D03*
Y1019998D02*
D03*
Y1007298D02*
D03*
Y1045398D02*
D03*
Y1083498D02*
D03*
Y1096198D02*
D03*
Y1108898D02*
D03*
D76*
X300620Y1070798D02*
D03*
D77*
X402001Y896620D02*
D03*
Y845820D02*
D03*
D78*
X180721Y918972D02*
D03*
X703685Y563102D02*
D03*
X82169Y875284D02*
D03*
X579268Y775507D02*
D03*
X483888D02*
D03*
X436644Y801669D02*
D03*
X180213Y800100D02*
D03*
X195199D02*
D03*
X195707Y918972D02*
D03*
X97155Y875284D02*
D03*
X564282Y775507D02*
D03*
X498874D02*
D03*
X451630Y801669D02*
D03*
X1295305Y426410D02*
D03*
X1280319D02*
D03*
X1379125Y404058D02*
D03*
X1364139D02*
D03*
X718671Y563102D02*
D03*
D79*
X164641Y918972D02*
D03*
X156640Y800100D02*
D03*
X140638D02*
D03*
X148639Y918972D02*
D03*
X1459643Y375610D02*
D03*
X1443641D02*
D03*
D80*
X810252Y489701D02*
D03*
Y441702D02*
D03*
X803752D02*
D03*
X797252D02*
D03*
X1069135Y444886D02*
D03*
X1075635D02*
D03*
X1082135D02*
D03*
X1088635D02*
D03*
Y492886D02*
D03*
X1082135D02*
D03*
X1075635D02*
D03*
X1069135D02*
D03*
X1062635D02*
D03*
Y444886D02*
D03*
X816752Y489701D02*
D03*
X803752D02*
D03*
X797252D02*
D03*
X790752D02*
D03*
Y441702D02*
D03*
X816752D02*
D03*
D81*
X819914Y588502D02*
D03*
D82*
X827752Y459202D02*
D03*
Y465701D02*
D03*
Y472201D02*
D03*
Y478702D02*
D03*
X779752Y459202D02*
D03*
Y452701D02*
D03*
Y478702D02*
D03*
Y472201D02*
D03*
Y465701D02*
D03*
X827752Y452701D02*
D03*
D83*
X743614Y588502D02*
D03*
Y613902D02*
D03*
Y626602D02*
D03*
Y601202D02*
D03*
Y575802D02*
D03*
Y563102D02*
D03*
Y550402D02*
D03*
D84*
X533848Y825291D02*
D03*
D85*
X139640Y862024D02*
D03*
X195640Y855524D02*
D03*
X139640Y842524D02*
D03*
X195640Y901024D02*
D03*
Y816524D02*
D03*
Y836024D02*
D03*
Y849024D02*
D03*
Y862024D02*
D03*
Y868524D02*
D03*
Y875024D02*
D03*
Y881524D02*
D03*
X139640Y816524D02*
D03*
Y836024D02*
D03*
Y849024D02*
D03*
Y855524D02*
D03*
Y868524D02*
D03*
Y875024D02*
D03*
Y881524D02*
D03*
Y901024D02*
D03*
Y894524D02*
D03*
X195640Y829524D02*
D03*
Y823024D02*
D03*
X139640D02*
D03*
Y829524D02*
D03*
X195640Y888024D02*
D03*
X139640D02*
D03*
X195640Y894524D02*
D03*
Y842524D02*
D03*
D86*
X589406Y809041D02*
D03*
Y792541D02*
D03*
X573906D02*
D03*
Y809041D02*
D03*
D87*
X516348Y800791D02*
D03*
X551348Y849791D02*
D03*
X521348Y800791D02*
D03*
X526348D02*
D03*
X531348D02*
D03*
X536348D02*
D03*
X541348D02*
D03*
X546348D02*
D03*
X551348D02*
D03*
X546348Y849791D02*
D03*
X541348D02*
D03*
X536348D02*
D03*
X531348D02*
D03*
X526348D02*
D03*
X521348D02*
D03*
X516348D02*
D03*
D88*
X342424Y702346D02*
D03*
Y766046D02*
D03*
D89*
X395074Y772866D02*
D03*
Y756864D02*
D03*
D90*
X1160812Y483306D02*
D03*
Y469306D02*
D03*
X1181386Y483448D02*
D03*
Y469448D02*
D03*
X1231678Y483448D02*
D03*
Y469448D02*
D03*
X1210850Y483448D02*
D03*
Y469448D02*
D03*
X900814Y518366D02*
D03*
Y504366D02*
D03*
X944990Y518874D02*
D03*
Y504874D02*
D03*
X965534Y518874D02*
D03*
Y504874D02*
D03*
X880240Y518366D02*
D03*
Y504366D02*
D03*
D91*
X1418066Y329560D02*
D03*
X1438066D02*
D03*
D92*
X1441066Y356560D02*
D03*
X1434566D02*
D03*
X1428066D02*
D03*
X1421566D02*
D03*
X1415066D02*
D03*
D93*
X531767Y621623D02*
D03*
Y613923D02*
D03*
D94*
X541767Y621623D02*
D03*
Y613923D02*
D03*
X526767Y621623D02*
D03*
Y613923D02*
D03*
X521767D02*
D03*
Y621623D02*
D03*
X536767D02*
D03*
Y613923D02*
D03*
D95*
X1416698Y384928D02*
D03*
Y379928D02*
D03*
Y374928D02*
D03*
X1430198D02*
D03*
Y384928D02*
D03*
D96*
X1198912Y420314D02*
D03*
D97*
X1178412Y407814D02*
D03*
Y412814D02*
D03*
Y417814D02*
D03*
Y422814D02*
D03*
Y427814D02*
D03*
Y432814D02*
D03*
X1219412D02*
D03*
Y427814D02*
D03*
Y422814D02*
D03*
Y417814D02*
D03*
Y412814D02*
D03*
Y407814D02*
D03*
D98*
X1186412Y440814D02*
D03*
X1191412D02*
D03*
X1196412D02*
D03*
X1201412D02*
D03*
X1206412D02*
D03*
X1211412D02*
D03*
Y399814D02*
D03*
X1206412D02*
D03*
X1201412D02*
D03*
X1196412D02*
D03*
X1191412D02*
D03*
X1186412D02*
D03*
D99*
X509348Y807791D02*
D03*
X558348Y817791D02*
D03*
Y807791D02*
D03*
Y812791D02*
D03*
Y822791D02*
D03*
Y827791D02*
D03*
Y832791D02*
D03*
Y837791D02*
D03*
Y842791D02*
D03*
X509348D02*
D03*
Y837791D02*
D03*
Y832791D02*
D03*
Y827791D02*
D03*
Y822791D02*
D03*
Y817791D02*
D03*
Y812791D02*
D03*
D100*
X941064Y421479D02*
D03*
Y427979D02*
D03*
Y434479D02*
D03*
Y440979D02*
D03*
X899564Y421479D02*
D03*
Y427979D02*
D03*
Y434479D02*
D03*
Y440979D02*
D03*
M02*
