G04*
G04 #@! TF.GenerationSoftware,Altium Limited,Altium Designer,25.6.2 (33)*
G04*
G04 Layer_Color=32896*
%FSLAX44Y44*%
%MOMM*%
G71*
G04*
G04 #@! TF.SameCoordinates,BA84551B-2C6B-4C85-AED2-EA6E41719757*
G04*
G04*
G04 #@! TF.FilePolarity,Positive*
G04*
G01*
G75*
%ADD10C,0.4000*%
%ADD11C,0.2500*%
%ADD12C,0.5080*%
%ADD13C,0.2000*%
%ADD14C,0.1270*%
%ADD15C,0.2540*%
%ADD18C,0.1524*%
%ADD19C,0.1999*%
%ADD230C,0.2032*%
%ADD278C,0.2286*%
%ADD283C,0.1800*%
%ADD284R,12.9182X7.7030*%
G36*
X1448199Y558721D02*
X1437165D01*
Y618471D01*
X1448199D01*
Y558721D01*
D02*
G37*
%LPC*%
G36*
X1446541Y616947D02*
Y615983D01*
X1442383Y616665D01*
X1442123Y614843D01*
X1442221Y614745D01*
X1442306Y614660D01*
X1442376Y614583D01*
X1442432Y614512D01*
X1442475Y614449D01*
X1442503Y614407D01*
X1442517Y614379D01*
X1442524Y614372D01*
X1442573Y614266D01*
X1442615Y614154D01*
X1442643Y614055D01*
X1442657Y613964D01*
X1442672Y613886D01*
X1442679Y613823D01*
Y613682D01*
X1442664Y613598D01*
X1442629Y613443D01*
X1442573Y613309D01*
X1442517Y613197D01*
X1442460Y613105D01*
X1442404Y613042D01*
X1442369Y613000D01*
X1442362Y612986D01*
X1442355D01*
X1442292Y612936D01*
X1442221Y612887D01*
X1442059Y612817D01*
X1441898Y612761D01*
X1441729Y612725D01*
X1441581Y612704D01*
X1441518Y612697D01*
X1441461D01*
X1441412Y612690D01*
X1441377D01*
X1441356D01*
X1441349D01*
X1441229D01*
X1441110Y612704D01*
X1441004Y612718D01*
X1440905Y612739D01*
X1440814Y612761D01*
X1440730Y612782D01*
X1440659Y612810D01*
X1440589Y612838D01*
X1440533Y612866D01*
X1440476Y612894D01*
X1440434Y612915D01*
X1440399Y612936D01*
X1440371Y612957D01*
X1440350Y612971D01*
X1440343Y612979D01*
X1440336Y612986D01*
X1440279Y613042D01*
X1440223Y613105D01*
X1440139Y613225D01*
X1440082Y613352D01*
X1440040Y613464D01*
X1440019Y613570D01*
X1440005Y613647D01*
X1439998Y613682D01*
Y613724D01*
X1440012Y613872D01*
X1440040Y613999D01*
X1440082Y614118D01*
X1440132Y614217D01*
X1440181Y614301D01*
X1440223Y614365D01*
X1440251Y614400D01*
X1440265Y614414D01*
X1440378Y614512D01*
X1440504Y614590D01*
X1440638Y614653D01*
X1440765Y614702D01*
X1440884Y614738D01*
X1440934Y614752D01*
X1440976Y614766D01*
X1441011Y614773D01*
X1441039D01*
X1441053Y614780D01*
X1441060D01*
X1440821Y616947D01*
D01*
X1440624Y616883D01*
X1440448Y616820D01*
X1440293Y616757D01*
X1440167Y616693D01*
X1440061Y616644D01*
X1440012Y616616D01*
X1439977Y616595D01*
X1439949Y616581D01*
X1439928Y616567D01*
X1439921Y616560D01*
X1439913D01*
X1439780Y616461D01*
X1439660Y616363D01*
X1439548Y616257D01*
X1439449Y616159D01*
X1439372Y616074D01*
X1439308Y616004D01*
X1439287Y615976D01*
X1439273Y615955D01*
X1439266Y615948D01*
X1439259Y615941D01*
X1439161Y615793D01*
X1439076Y615631D01*
X1438999Y615476D01*
X1438943Y615328D01*
X1438893Y615202D01*
X1438872Y615153D01*
X1438858Y615103D01*
X1438844Y615061D01*
X1438837Y615033D01*
X1438830Y615019D01*
Y615012D01*
X1438781Y614801D01*
X1438746Y614576D01*
X1438724Y614358D01*
X1438710Y614154D01*
X1438703Y614055D01*
X1438696Y613971D01*
Y613893D01*
X1438689Y613830D01*
Y613703D01*
X1438696Y613506D01*
X1438703Y613323D01*
X1438724Y613147D01*
X1438746Y612986D01*
X1438774Y612831D01*
X1438802Y612683D01*
X1438837Y612549D01*
X1438872Y612430D01*
X1438900Y612324D01*
X1438936Y612233D01*
X1438964Y612148D01*
X1438992Y612078D01*
X1439013Y612029D01*
X1439034Y611987D01*
X1439041Y611965D01*
X1439048Y611958D01*
X1439118Y611832D01*
X1439196Y611719D01*
X1439280Y611607D01*
X1439365Y611508D01*
X1439456Y611410D01*
X1439541Y611325D01*
X1439632Y611248D01*
X1439716Y611177D01*
X1439794Y611114D01*
X1439864Y611058D01*
X1439935Y611009D01*
X1439991Y610973D01*
X1440040Y610938D01*
X1440075Y610917D01*
X1440096Y610910D01*
X1440103Y610903D01*
X1440230Y610840D01*
X1440364Y610776D01*
X1440490Y610727D01*
X1440617Y610685D01*
X1440863Y610622D01*
X1440976Y610593D01*
X1441081Y610579D01*
X1441180Y610558D01*
X1441264Y610551D01*
X1441342Y610544D01*
X1441412Y610537D01*
X1441468Y610530D01*
X1438689D01*
X1446541D01*
Y616947D01*
D02*
G37*
G36*
Y610080D02*
X1438823Y607167D01*
Y610080D01*
Y601714D01*
Y604585D01*
X1446541Y601714D01*
Y604135D01*
X1440983Y605851D01*
X1446541Y607589D01*
Y610080D01*
D02*
G37*
G36*
Y597837D02*
X1442840D01*
Y597049D01*
X1440870D01*
X1440701D01*
X1440547Y597043D01*
X1440399Y597035D01*
X1440265Y597021D01*
X1440146Y597007D01*
X1440033Y596993D01*
X1439935Y596979D01*
X1439843Y596958D01*
X1439766Y596944D01*
X1439702Y596930D01*
X1439646Y596916D01*
X1439597Y596902D01*
X1439562Y596888D01*
X1439541Y596881D01*
X1439527Y596874D01*
X1439520D01*
X1439372Y596796D01*
X1439245Y596705D01*
X1439140Y596613D01*
X1439055Y596522D01*
X1438985Y596437D01*
X1438936Y596374D01*
X1438921Y596346D01*
X1438907Y596325D01*
X1438900Y596318D01*
Y596311D01*
X1438865Y596233D01*
X1438830Y596149D01*
X1438781Y595966D01*
X1438746Y595769D01*
X1438724Y595579D01*
X1438710Y595488D01*
Y595403D01*
X1438703Y595326D01*
X1438696Y595262D01*
Y593644D01*
D01*
Y595129D01*
X1438703Y594868D01*
X1438724Y594608D01*
X1438753Y594355D01*
X1438767Y594235D01*
X1438781Y594130D01*
X1438795Y594024D01*
X1438809Y593933D01*
X1438823Y593848D01*
X1438837Y593778D01*
X1438851Y593722D01*
X1438858Y593679D01*
X1438865Y593651D01*
Y593644D01*
D01*
X1440343Y593806D01*
X1440300Y593961D01*
X1440265Y594087D01*
X1440244Y594207D01*
X1440223Y594299D01*
X1440216Y594369D01*
X1440209Y594425D01*
Y594467D01*
X1440216Y594559D01*
X1440237Y594636D01*
X1440265Y594700D01*
X1440300Y594756D01*
X1440329Y594791D01*
X1440357Y594819D01*
X1440378Y594833D01*
X1440385Y594840D01*
X1440441Y594861D01*
X1440504Y594875D01*
X1440582Y594889D01*
X1440666Y594897D01*
X1440737D01*
X1440800Y594904D01*
X1440842D01*
X1440849D01*
X1440856D01*
X1442840D01*
Y593722D01*
X1444409D01*
Y594904D01*
X1446541D01*
D01*
X1445437Y597049D01*
X1444409D01*
Y597837D01*
X1446541D01*
D02*
G37*
G36*
X1444536Y592962D02*
X1441651D01*
D01*
X1441595D01*
X1441342Y592948D01*
X1441110Y592920D01*
X1440884Y592870D01*
X1440673Y592800D01*
X1440476Y592723D01*
X1440293Y592638D01*
X1440125Y592547D01*
X1439970Y592448D01*
X1439836Y592357D01*
X1439716Y592265D01*
X1439618Y592181D01*
X1439534Y592103D01*
X1439463Y592033D01*
X1439421Y591984D01*
X1439386Y591956D01*
X1439379Y591941D01*
X1439259Y591780D01*
X1439154Y591611D01*
X1439062Y591435D01*
X1438985Y591252D01*
X1438921Y591069D01*
X1438865Y590886D01*
X1438816Y590710D01*
X1438781Y590541D01*
X1438753Y590387D01*
X1438732Y590239D01*
X1438717Y590105D01*
X1438710Y589993D01*
X1438703Y589894D01*
X1438696Y589824D01*
Y592962D01*
D01*
Y586545D01*
Y589767D01*
X1438703Y589493D01*
X1438732Y589233D01*
X1438774Y588987D01*
X1438823Y588761D01*
X1438886Y588550D01*
X1438957Y588353D01*
X1439034Y588177D01*
X1439111Y588016D01*
X1439182Y587875D01*
X1439259Y587755D01*
X1439330Y587650D01*
X1439393Y587558D01*
X1439442Y587495D01*
X1439484Y587446D01*
X1439512Y587411D01*
X1439520Y587403D01*
X1439681Y587249D01*
X1439850Y587122D01*
X1440019Y587002D01*
X1440195Y586904D01*
X1440371Y586827D01*
X1440547Y586756D01*
X1440723Y586700D01*
X1440884Y586651D01*
X1441039Y586615D01*
X1441180Y586587D01*
X1441307Y586573D01*
X1441419Y586559D01*
X1441504Y586552D01*
X1441574Y586545D01*
X1438696D01*
X1444536D01*
X1441630D01*
X1441841Y586552D01*
X1442045Y586573D01*
X1442235Y586608D01*
X1442418Y586651D01*
X1442587Y586707D01*
X1442742Y586763D01*
X1442890Y586827D01*
X1443023Y586890D01*
X1443143Y586953D01*
X1443248Y587016D01*
X1443340Y587073D01*
X1443417Y587129D01*
X1443481Y587171D01*
X1443523Y587206D01*
X1443551Y587228D01*
X1443558Y587235D01*
X1443727Y587403D01*
X1443882Y587593D01*
X1444008Y587790D01*
X1444121Y587994D01*
X1444219Y588205D01*
X1444297Y588417D01*
X1444360Y588621D01*
X1444416Y588825D01*
X1444452Y589022D01*
X1444487Y589198D01*
X1444508Y589359D01*
X1444522Y589500D01*
X1444529Y589556D01*
Y589613D01*
X1444536Y589662D01*
Y589775D01*
X1444529Y590042D01*
X1444501Y590295D01*
X1444459Y590534D01*
X1444409Y590752D01*
X1444346Y590964D01*
X1444276Y591153D01*
X1444198Y591329D01*
X1444121Y591484D01*
X1444043Y591632D01*
X1443966Y591752D01*
X1443896Y591857D01*
X1443832Y591941D01*
X1443783Y592012D01*
X1443741Y592061D01*
X1443713Y592096D01*
X1443706Y592103D01*
X1443544Y592251D01*
X1443375Y592385D01*
X1443206Y592504D01*
X1443023Y592596D01*
X1442847Y592680D01*
X1442672Y592751D01*
X1442503Y592807D01*
X1442341Y592856D01*
X1442186Y592891D01*
X1442045Y592920D01*
X1441919Y592934D01*
X1441806Y592948D01*
X1441722Y592955D01*
X1441651Y592962D01*
X1444536D01*
D02*
G37*
G36*
X1444606Y581683D02*
X1442847D01*
X1442932Y581416D01*
X1442974Y581296D01*
X1443016Y581177D01*
X1443058Y581071D01*
X1443094Y580966D01*
X1443136Y580874D01*
X1443171Y580790D01*
X1443199Y580712D01*
X1443227Y580649D01*
X1443255Y580586D01*
X1443277Y580544D01*
X1443298Y580501D01*
X1443305Y580473D01*
X1443319Y580459D01*
Y580452D01*
X1443417Y580269D01*
X1443523Y580086D01*
X1443635Y579910D01*
X1443734Y579756D01*
X1443783Y579685D01*
X1443825Y579622D01*
X1443868Y579566D01*
X1443903Y579523D01*
X1443931Y579481D01*
X1443952Y579453D01*
X1443959Y579439D01*
X1443966Y579432D01*
X1438823D01*
Y577265D01*
X1446675D01*
Y579038D01*
X1446415Y579179D01*
X1446288Y579256D01*
X1446175Y579333D01*
X1446070Y579411D01*
X1445964Y579488D01*
X1445873Y579566D01*
X1445788Y579643D01*
X1445711Y579713D01*
X1445648Y579777D01*
X1445584Y579840D01*
X1445542Y579889D01*
X1445500Y579931D01*
X1445472Y579960D01*
X1445458Y579981D01*
X1445451Y579988D01*
X1445359Y580107D01*
X1445275Y580234D01*
X1445113Y580508D01*
X1444965Y580790D01*
X1444902Y580930D01*
X1444846Y581064D01*
X1444789Y581191D01*
X1444747Y581303D01*
X1444705Y581409D01*
X1444670Y581500D01*
X1444642Y581578D01*
X1444620Y581634D01*
X1444613Y581669D01*
X1444606Y581683D01*
D02*
G37*
G36*
X1446541Y575344D02*
D01*
X1438823Y572431D01*
Y566978D01*
Y569849D01*
X1446541Y566978D01*
Y569399D01*
X1440983Y571116D01*
X1446541Y572853D01*
Y575344D01*
D02*
G37*
G36*
X1441152Y566549D02*
X1438689D01*
Y560245D01*
Y563362D01*
X1438696Y563123D01*
X1438710Y562891D01*
X1438732Y562687D01*
X1438739Y562588D01*
X1438753Y562504D01*
X1438767Y562419D01*
X1438774Y562349D01*
X1438788Y562286D01*
X1438795Y562229D01*
X1438802Y562187D01*
X1438809Y562159D01*
X1438816Y562138D01*
Y562131D01*
X1438872Y561927D01*
X1438936Y561737D01*
X1438999Y561575D01*
X1439062Y561434D01*
X1439097Y561371D01*
X1439126Y561322D01*
X1439147Y561273D01*
X1439175Y561237D01*
X1439189Y561209D01*
X1439203Y561181D01*
X1439217Y561174D01*
Y561167D01*
X1439330Y561026D01*
X1439456Y560900D01*
X1439583Y560787D01*
X1439709Y560696D01*
X1439822Y560618D01*
X1439864Y560583D01*
X1439906Y560562D01*
X1439942Y560541D01*
X1439970Y560527D01*
X1439984Y560513D01*
X1439991D01*
X1440181Y560421D01*
X1440371Y560358D01*
X1440554Y560309D01*
X1440723Y560280D01*
X1440800Y560266D01*
X1440863Y560259D01*
X1440927Y560252D01*
X1440976D01*
X1441018Y560245D01*
X1441187D01*
X1441293Y560259D01*
X1441504Y560294D01*
X1441687Y560344D01*
X1441771Y560372D01*
X1441848Y560400D01*
X1441919Y560428D01*
X1441982Y560456D01*
X1442038Y560485D01*
X1442088Y560506D01*
X1442123Y560527D01*
X1442151Y560541D01*
X1442165Y560548D01*
X1442172Y560555D01*
X1442263Y560618D01*
X1442348Y560681D01*
X1442510Y560829D01*
X1442643Y560984D01*
X1442756Y561139D01*
X1442847Y561273D01*
X1442883Y561336D01*
X1442911Y561385D01*
X1442939Y561427D01*
X1442953Y561463D01*
X1442967Y561484D01*
Y561491D01*
X1443087Y561322D01*
X1443206Y561181D01*
X1443312Y561061D01*
X1443410Y560963D01*
X1443495Y560893D01*
X1443565Y560836D01*
X1443607Y560801D01*
X1443614Y560794D01*
X1443621D01*
X1443790Y560696D01*
X1443966Y560625D01*
X1444128Y560569D01*
X1444283Y560534D01*
X1444346Y560520D01*
X1444409Y560513D01*
X1444466Y560506D01*
X1444508D01*
X1444550Y560499D01*
X1444578D01*
X1444592D01*
X1444599D01*
X1444761Y560506D01*
X1444923Y560534D01*
X1445071Y560569D01*
X1445211Y560618D01*
X1445338Y560674D01*
X1445465Y560738D01*
X1445577Y560801D01*
X1445676Y560871D01*
X1445767Y560942D01*
X1445852Y561005D01*
X1445922Y561068D01*
X1445978Y561125D01*
X1446021Y561174D01*
X1446056Y561209D01*
X1446077Y561237D01*
X1446084Y561244D01*
X1446189Y561392D01*
X1446281Y561554D01*
X1446358Y561730D01*
X1446429Y561913D01*
X1446485Y562103D01*
X1446534Y562293D01*
X1446569Y562476D01*
X1446604Y562659D01*
X1446626Y562834D01*
X1446647Y562996D01*
X1446654Y563144D01*
X1446668Y563271D01*
Y563376D01*
X1446675Y563418D01*
Y563524D01*
X1446668Y563735D01*
X1446654Y563939D01*
X1446633Y564129D01*
X1446597Y564312D01*
X1446562Y564474D01*
X1446527Y564629D01*
X1446478Y564776D01*
X1446436Y564903D01*
X1446393Y565015D01*
X1446351Y565114D01*
X1446309Y565199D01*
X1446274Y565276D01*
X1446239Y565332D01*
X1446218Y565367D01*
X1446203Y565396D01*
X1446196Y565402D01*
X1446077Y565564D01*
X1445950Y565705D01*
X1445824Y565825D01*
X1445690Y565930D01*
X1445556Y566015D01*
X1445430Y566085D01*
X1445296Y566148D01*
X1445176Y566198D01*
X1445057Y566233D01*
X1444951Y566261D01*
X1444860Y566282D01*
X1444775Y566296D01*
X1444705Y566303D01*
X1444656Y566310D01*
X1444628D01*
X1444613D01*
X1444508Y566303D01*
X1444402Y566296D01*
X1444198Y566261D01*
X1444022Y566212D01*
X1443875Y566155D01*
X1443804Y566127D01*
X1443748Y566099D01*
X1443692Y566071D01*
X1443649Y566050D01*
X1443614Y566029D01*
X1443593Y566015D01*
X1443579Y566001D01*
X1443572D01*
X1443452Y565902D01*
X1443333Y565789D01*
X1443234Y565663D01*
X1443143Y565543D01*
X1443073Y565431D01*
X1443037Y565388D01*
X1443016Y565346D01*
X1442995Y565311D01*
X1442981Y565283D01*
X1442967Y565269D01*
Y565262D01*
X1442918Y565381D01*
X1442861Y565494D01*
X1442805Y565600D01*
X1442749Y565691D01*
X1442686Y565782D01*
X1442629Y565860D01*
X1442566Y565937D01*
X1442510Y566001D01*
X1442453Y566057D01*
X1442404Y566106D01*
X1442362Y566148D01*
X1442320Y566176D01*
X1442285Y566205D01*
X1442263Y566226D01*
X1442249Y566233D01*
X1442242Y566240D01*
X1442151Y566296D01*
X1442059Y566338D01*
X1441862Y566416D01*
X1441672Y566472D01*
X1441490Y566507D01*
X1441405Y566521D01*
X1441328Y566535D01*
X1441264Y566542D01*
X1441201D01*
X1441152Y566549D01*
D02*
G37*
%LPD*%
G36*
X1444832Y614343D02*
Y610896D01*
X1446541D01*
Y610530D01*
X1441539D01*
X1441736Y610537D01*
X1441919Y610558D01*
X1442095Y610593D01*
X1442263Y610643D01*
X1442418Y610699D01*
X1442566Y610762D01*
X1442700Y610826D01*
X1442819Y610889D01*
X1442932Y610959D01*
X1443023Y611023D01*
X1443108Y611086D01*
X1443178Y611142D01*
X1443234Y611185D01*
X1443270Y611227D01*
X1443298Y611248D01*
X1443305Y611255D01*
X1443431Y611395D01*
X1443537Y611543D01*
X1443628Y611691D01*
X1443713Y611853D01*
X1443783Y612008D01*
X1443840Y612162D01*
X1443882Y612317D01*
X1443924Y612465D01*
X1443952Y612599D01*
X1443973Y612725D01*
X1443987Y612845D01*
X1443994Y612943D01*
X1444001Y613021D01*
X1444008Y613084D01*
Y613260D01*
X1443994Y613387D01*
X1443980Y613499D01*
X1443966Y613605D01*
X1443952Y613696D01*
X1443938Y613760D01*
X1443931Y613788D01*
Y613809D01*
X1443924Y613816D01*
Y613823D01*
X1443889Y613957D01*
X1443846Y614083D01*
X1443804Y614203D01*
X1443769Y614308D01*
X1443727Y614400D01*
X1443699Y614470D01*
X1443685Y614498D01*
X1443678Y614519D01*
X1443671Y614526D01*
Y614534D01*
X1444832Y614343D01*
D02*
G37*
G36*
X1441736Y590809D02*
X1441862Y590802D01*
X1441975Y590788D01*
X1442088Y590767D01*
X1442186Y590746D01*
X1442278Y590717D01*
X1442355Y590689D01*
X1442425Y590661D01*
X1442489Y590633D01*
X1442545Y590612D01*
X1442594Y590584D01*
X1442629Y590563D01*
X1442664Y590541D01*
X1442686Y590527D01*
X1442693Y590513D01*
X1442700D01*
X1442763Y590457D01*
X1442819Y590394D01*
X1442868Y590330D01*
X1442911Y590267D01*
X1442974Y590133D01*
X1443023Y590014D01*
X1443044Y589901D01*
X1443051Y589859D01*
X1443058Y589817D01*
X1443065Y589781D01*
Y589739D01*
X1443058Y589662D01*
X1443051Y589585D01*
X1443009Y589437D01*
X1442953Y589310D01*
X1442890Y589205D01*
X1442819Y589120D01*
X1442763Y589057D01*
X1442721Y589015D01*
X1442714Y589001D01*
X1442707D01*
X1442636Y588944D01*
X1442559Y588902D01*
X1442390Y588825D01*
X1442207Y588768D01*
X1442031Y588733D01*
X1441954Y588726D01*
X1441877Y588712D01*
X1441806Y588705D01*
X1441743D01*
X1441694Y588698D01*
X1441658D01*
X1441630D01*
X1441623D01*
X1441483D01*
X1441356Y588712D01*
X1441229Y588726D01*
X1441124Y588747D01*
X1441018Y588768D01*
X1440927Y588797D01*
X1440842Y588818D01*
X1440772Y588846D01*
X1440708Y588874D01*
X1440652Y588902D01*
X1440603Y588930D01*
X1440568Y588951D01*
X1440533Y588972D01*
X1440511Y588987D01*
X1440504Y588993D01*
X1440497Y589001D01*
X1440434Y589057D01*
X1440385Y589120D01*
X1440336Y589184D01*
X1440293Y589247D01*
X1440230Y589374D01*
X1440188Y589493D01*
X1440167Y589599D01*
X1440160Y589641D01*
X1440153Y589683D01*
X1440146Y589718D01*
Y589760D01*
X1440153Y589845D01*
X1440160Y589922D01*
X1440202Y590070D01*
X1440258Y590204D01*
X1440322Y590309D01*
X1440385Y590401D01*
X1440441Y590464D01*
X1440483Y590506D01*
X1440490Y590513D01*
X1440497Y590520D01*
X1440568Y590570D01*
X1440645Y590619D01*
X1440821Y590689D01*
X1441004Y590746D01*
X1441187Y590781D01*
X1441271Y590788D01*
X1441349Y590802D01*
X1441419Y590809D01*
X1441483D01*
X1441532Y590816D01*
X1441567D01*
X1441595D01*
X1441602D01*
X1441736Y590809D01*
D02*
G37*
G36*
X1440962Y566542D02*
X1440835Y566535D01*
X1440596Y566500D01*
X1440385Y566444D01*
X1440286Y566416D01*
X1440195Y566381D01*
X1440117Y566352D01*
X1440047Y566324D01*
X1439984Y566296D01*
X1439928Y566268D01*
X1439885Y566247D01*
X1439857Y566233D01*
X1439836Y566219D01*
X1439829D01*
X1439724Y566148D01*
X1439632Y566078D01*
X1439456Y565923D01*
X1439315Y565761D01*
X1439196Y565600D01*
X1439097Y565459D01*
X1439062Y565396D01*
X1439034Y565339D01*
X1439006Y565297D01*
X1438992Y565262D01*
X1438985Y565241D01*
X1438978Y565234D01*
X1438929Y565107D01*
X1438879Y564966D01*
X1438844Y564818D01*
X1438809Y564671D01*
X1438760Y564354D01*
X1438739Y564206D01*
X1438724Y564052D01*
X1438710Y563911D01*
X1438703Y563784D01*
X1438696Y563665D01*
Y563566D01*
X1438689Y563482D01*
Y566549D01*
X1441089D01*
X1440962Y566542D01*
D02*
G37*
G36*
X1444628Y564284D02*
X1444747Y564256D01*
X1444860Y564213D01*
X1444951Y564171D01*
X1445022Y564129D01*
X1445078Y564087D01*
X1445106Y564059D01*
X1445120Y564052D01*
X1445204Y563953D01*
X1445261Y563848D01*
X1445303Y563742D01*
X1445338Y563644D01*
X1445352Y563552D01*
X1445359Y563482D01*
X1445366Y563454D01*
Y563418D01*
X1445352Y563285D01*
X1445324Y563158D01*
X1445289Y563052D01*
X1445240Y562961D01*
X1445190Y562891D01*
X1445155Y562834D01*
X1445127Y562806D01*
X1445113Y562792D01*
X1445014Y562708D01*
X1444909Y562645D01*
X1444803Y562602D01*
X1444698Y562567D01*
X1444606Y562553D01*
X1444529Y562546D01*
X1444508Y562539D01*
X1444487D01*
X1444473D01*
X1444466D01*
X1444325Y562546D01*
X1444205Y562574D01*
X1444100Y562616D01*
X1444008Y562659D01*
X1443938Y562701D01*
X1443882Y562743D01*
X1443853Y562771D01*
X1443840Y562778D01*
X1443762Y562870D01*
X1443699Y562975D01*
X1443656Y563074D01*
X1443628Y563172D01*
X1443614Y563257D01*
X1443607Y563320D01*
X1443600Y563348D01*
Y563383D01*
X1443607Y563531D01*
X1443635Y563665D01*
X1443678Y563777D01*
X1443720Y563869D01*
X1443762Y563946D01*
X1443804Y564002D01*
X1443832Y564030D01*
X1443840Y564045D01*
X1443938Y564129D01*
X1444043Y564185D01*
X1444156Y564227D01*
X1444255Y564263D01*
X1444346Y564277D01*
X1444423Y564284D01*
X1444452Y564291D01*
X1444473D01*
X1444480D01*
X1444487D01*
X1444628Y564284D01*
D02*
G37*
G36*
X1441349Y564396D02*
X1441525Y564361D01*
X1441665Y564319D01*
X1441792Y564263D01*
X1441891Y564206D01*
X1441961Y564164D01*
X1441982Y564143D01*
X1442003Y564129D01*
X1442017Y564115D01*
X1442074Y564059D01*
X1442123Y564002D01*
X1442200Y563883D01*
X1442256Y563763D01*
X1442292Y563658D01*
X1442320Y563559D01*
X1442327Y563489D01*
X1442334Y563461D01*
Y563341D01*
X1442320Y563271D01*
X1442285Y563137D01*
X1442228Y563017D01*
X1442172Y562912D01*
X1442109Y562827D01*
X1442052Y562764D01*
X1442017Y562722D01*
X1442010Y562708D01*
X1442003D01*
X1441940Y562651D01*
X1441877Y562602D01*
X1441736Y562532D01*
X1441595Y562476D01*
X1441461Y562433D01*
X1441349Y562412D01*
X1441293Y562405D01*
X1441250D01*
X1441215Y562398D01*
X1441187D01*
X1441173D01*
X1441166D01*
X1441074D01*
X1440983Y562412D01*
X1440821Y562448D01*
X1440680Y562497D01*
X1440561Y562553D01*
X1440462Y562609D01*
X1440392Y562659D01*
X1440364Y562680D01*
X1440343Y562694D01*
X1440336Y562701D01*
X1440329Y562708D01*
X1440272Y562764D01*
X1440223Y562827D01*
X1440139Y562940D01*
X1440082Y563060D01*
X1440047Y563165D01*
X1440019Y563257D01*
X1440012Y563334D01*
X1440005Y563362D01*
Y563397D01*
X1440012Y563468D01*
X1440019Y563538D01*
X1440054Y563672D01*
X1440110Y563791D01*
X1440167Y563897D01*
X1440223Y563981D01*
X1440279Y564045D01*
X1440314Y564087D01*
X1440329Y564094D01*
Y564101D01*
X1440392Y564157D01*
X1440455Y564199D01*
X1440596Y564277D01*
X1440737Y564333D01*
X1440863Y564368D01*
X1440983Y564396D01*
X1441032Y564403D01*
X1441074D01*
X1441110Y564411D01*
X1441138D01*
X1441152D01*
X1441159D01*
X1441349Y564396D01*
D02*
G37*
D10*
X759911Y1164214D02*
X763243Y1167547D01*
X769908D01*
X773240Y1164214D01*
Y1160882D01*
X769908Y1157550D01*
X763243D01*
X759911Y1154218D01*
Y1150885D01*
X763243Y1147553D01*
X769908D01*
X773240Y1150885D01*
X753246Y1167547D02*
X739917D01*
Y1164214D01*
X753246Y1150885D01*
Y1147553D01*
X719924Y1164214D02*
X723256Y1167547D01*
X729921D01*
X733253Y1164214D01*
Y1150885D01*
X729921Y1147553D01*
X723256D01*
X719924Y1150885D01*
X713259Y1147553D02*
Y1160882D01*
X706595Y1167547D01*
X699930Y1160882D01*
Y1147553D01*
Y1157550D01*
X713259D01*
X679937Y1164214D02*
X683269Y1167547D01*
X689933D01*
X693266Y1164214D01*
Y1160882D01*
X689933Y1157550D01*
X683269D01*
X679937Y1154218D01*
Y1150885D01*
X683269Y1147553D01*
X689933D01*
X693266Y1150885D01*
X673272Y1157550D02*
X659943D01*
X653279Y1147553D02*
Y1167547D01*
X643282D01*
X639950Y1164214D01*
Y1157550D01*
X643282Y1154218D01*
X653279D01*
X633285Y1167547D02*
Y1147553D01*
X619956D01*
X599963Y1167547D02*
X613292D01*
Y1147553D01*
X599963D01*
X613292Y1157550D02*
X606627D01*
X593298Y1167547D02*
X586633D01*
X589966D01*
Y1147553D01*
X593298D01*
X586633D01*
X576637D02*
Y1160882D01*
X569972Y1167547D01*
X563308Y1160882D01*
Y1147553D01*
Y1157550D01*
X576637D01*
X556643Y1167547D02*
Y1147553D01*
X546646D01*
X543314Y1150885D01*
Y1164214D01*
X546646Y1167547D01*
X556643D01*
X523321D02*
X536650D01*
Y1147553D01*
X523321D01*
X536650Y1157550D02*
X529985D01*
X503327Y1164214D02*
X506659Y1167547D01*
X513324D01*
X516656Y1164214D01*
Y1160882D01*
X513324Y1157550D01*
X506659D01*
X503327Y1154218D01*
Y1150885D01*
X506659Y1147553D01*
X513324D01*
X516656Y1150885D01*
X496662Y1157550D02*
X483333D01*
X463340Y1164214D02*
X466672Y1167547D01*
X473337D01*
X476669Y1164214D01*
Y1150885D01*
X473337Y1147553D01*
X466672D01*
X463340Y1150885D01*
X456675Y1147553D02*
Y1160882D01*
X450011Y1167547D01*
X443346Y1160882D01*
Y1147553D01*
Y1157550D01*
X456675D01*
X436682Y1147553D02*
Y1167547D01*
X426685D01*
X423353Y1164214D01*
Y1157550D01*
X426685Y1154218D01*
X436682D01*
X430017D02*
X423353Y1147553D01*
X416688Y1167547D02*
X403359D01*
X410024D01*
Y1147553D01*
X383366Y1167547D02*
X396695D01*
Y1147553D01*
X383366D01*
X396695Y1157550D02*
X390030D01*
X376701D02*
X363372D01*
X356707Y1147553D02*
Y1167547D01*
X350043Y1160882D01*
X343378Y1167547D01*
Y1147553D01*
X323385Y1167547D02*
X336714D01*
Y1147553D01*
X323385D01*
X336714Y1157550D02*
X330050D01*
X316720Y1147553D02*
Y1167547D01*
X306724D01*
X303391Y1164214D01*
Y1157550D01*
X306724Y1154218D01*
X316720D01*
X310056D02*
X303391Y1147553D01*
X283398Y1167547D02*
X296727D01*
Y1147553D01*
X283398D01*
X296727Y1157550D02*
X290062D01*
D11*
X428643Y1032559D02*
G03*
X428643Y1032559I-1250J0D01*
G01*
D12*
X1421162Y429204D02*
G03*
X1421162Y429204I-2540J0D01*
G01*
D13*
X495973Y971599D02*
Y1010460D01*
Y1022399D01*
X419773Y1010460D02*
Y1022399D01*
Y971599D02*
Y1010460D01*
X395854Y860513D02*
X397520Y862179D01*
X400852D01*
X402518Y860513D01*
Y858847D01*
X400852Y857180D01*
X397520D01*
X395854Y855514D01*
Y853848D01*
X397520Y852182D01*
X400852D01*
X402518Y853848D01*
X387523Y852182D02*
X390855D01*
X392521Y853848D01*
Y857180D01*
X390855Y858847D01*
X387523D01*
X385857Y857180D01*
Y855514D01*
X392521D01*
X382524Y858847D02*
Y852182D01*
Y855514D01*
X380858Y857180D01*
X379192Y858847D01*
X377526D01*
X372528Y852182D02*
X369195D01*
X370862D01*
Y858847D01*
X372528D01*
X362531D02*
X359199D01*
X357533Y857180D01*
Y852182D01*
X362531D01*
X364197Y853848D01*
X362531Y855514D01*
X357533D01*
X354200Y852182D02*
X350868D01*
X352534D01*
Y862179D01*
X354200D01*
X334207Y852182D02*
Y862179D01*
X330874D02*
Y852182D01*
X335873Y858847D02*
X330874D01*
X329208D01*
X335873Y855514D02*
X329208D01*
X71881Y836054D02*
X61884D01*
Y831056D01*
X63551Y829390D01*
X66883D01*
X68549Y831056D01*
Y836054D01*
X71881Y826057D02*
Y822725D01*
Y824391D01*
X61884D01*
Y826057D01*
X71881Y812728D02*
Y816061D01*
X70215Y817727D01*
X66883D01*
X65217Y816061D01*
Y812728D01*
X66883Y811062D01*
X68549D01*
Y817727D01*
X71881Y807730D02*
Y804398D01*
Y806064D01*
X65217D01*
Y807730D01*
Y797733D02*
Y794401D01*
X66883Y792735D01*
X71881D01*
Y797733D01*
X70215Y799399D01*
X68549Y797733D01*
Y792735D01*
X61884Y782738D02*
X71881D01*
Y787736D01*
X70215Y789402D01*
X66883D01*
X65217Y787736D01*
Y782738D01*
X71881Y774407D02*
Y777740D01*
X70215Y779406D01*
X66883D01*
X65217Y777740D01*
Y774407D01*
X66883Y772741D01*
X68549D01*
Y779406D01*
X71881Y769409D02*
Y764411D01*
X70215Y762744D01*
X68549Y764411D01*
Y767743D01*
X66883Y769409D01*
X65217Y767743D01*
Y762744D01*
D14*
X41148Y648970D02*
Y925830D01*
X102108D01*
Y648970D02*
Y925830D01*
X41148Y648970D02*
X102108D01*
X1147566Y705108D02*
Y712728D01*
X1164076D01*
Y705108D02*
Y712728D01*
X1147566Y705108D02*
X1164076D01*
X866905Y942768D02*
Y950388D01*
X850395Y942768D02*
X866905D01*
X850395D02*
Y950388D01*
X866905D01*
X832352Y912063D02*
X839972D01*
Y895553D02*
Y912063D01*
X832352Y895553D02*
X839972D01*
X832352D02*
Y912063D01*
X148971Y859536D02*
Y867156D01*
X132461Y859536D02*
X148971D01*
X132461D02*
Y867156D01*
X148971D01*
X148893Y850168D02*
Y857788D01*
X132383Y850168D02*
X148893D01*
X132383D02*
Y857788D01*
X148893D01*
X221984Y528212D02*
Y578212D01*
X179984Y528212D02*
Y578212D01*
X215919Y528212D02*
X221984D01*
X215919Y578212D02*
X221984D01*
X179984Y528212D02*
X186049D01*
X179984Y578212D02*
X186049D01*
X171622Y527958D02*
Y577958D01*
X129622Y527958D02*
Y577958D01*
X165557Y527958D02*
X171622D01*
X165557Y577958D02*
X171622D01*
X129622Y527958D02*
X135687D01*
X129622Y577958D02*
X135687D01*
X122346Y527958D02*
Y577958D01*
X80346Y527958D02*
Y577958D01*
X116281Y527958D02*
X122346D01*
X116281Y577958D02*
X122346D01*
X80346Y527958D02*
X86411D01*
X80346Y577958D02*
X86411D01*
X70706Y527704D02*
Y577704D01*
X28706Y527704D02*
Y577704D01*
X64641Y527704D02*
X70706D01*
X64641Y577704D02*
X70706D01*
X28706Y527704D02*
X34771D01*
X28706Y577704D02*
X34771D01*
X508819Y891243D02*
Y907753D01*
Y891243D02*
X516439D01*
Y907753D01*
X508819D02*
X516439D01*
X428790Y963217D02*
X445300D01*
X428790Y955597D02*
Y963217D01*
Y955597D02*
X445300D01*
Y963217D01*
X530644Y943493D02*
X547154D01*
Y951113D01*
X530644D02*
X547154D01*
X530644Y943493D02*
Y951113D01*
X529374Y918993D02*
X545884D01*
Y926613D01*
X529374D02*
X545884D01*
X529374Y918993D02*
Y926613D01*
X530644Y903493D02*
X547154D01*
Y911113D01*
X530644D02*
X547154D01*
X530644Y903493D02*
Y911113D01*
Y973493D02*
X547154D01*
Y981113D01*
X530644D02*
X547154D01*
X530644Y973493D02*
Y981113D01*
X1190657Y424886D02*
Y432506D01*
X1174147Y424886D02*
X1190657D01*
X1174147D02*
Y432506D01*
X1190657D01*
X1220629Y435554D02*
Y443174D01*
X1204119Y435554D02*
X1220629D01*
X1204119D02*
Y443174D01*
X1220629D01*
X1190911Y415996D02*
Y423616D01*
X1174401Y415996D02*
X1190911D01*
X1174401D02*
Y423616D01*
X1190911D01*
X1191583Y428950D02*
X1199203D01*
X1191583D02*
Y445460D01*
X1199203D01*
Y428950D02*
Y445460D01*
X1103221Y900705D02*
Y917215D01*
X1095601D02*
X1103221D01*
X1095601Y900705D02*
Y917215D01*
Y900705D02*
X1103221D01*
X1060190Y800773D02*
Y817283D01*
Y800773D02*
X1067810D01*
Y817283D01*
X1060190D02*
X1067810D01*
X1060190Y818990D02*
Y835500D01*
Y818990D02*
X1067810D01*
Y835500D01*
X1060190D02*
X1067810D01*
X1060190Y837072D02*
Y853582D01*
Y837072D02*
X1067810D01*
Y853582D01*
X1060190D02*
X1067810D01*
X1060190Y855964D02*
Y872474D01*
Y855964D02*
X1067810D01*
Y872474D01*
X1060190D02*
X1067810D01*
X1060190Y874969D02*
Y891479D01*
Y874969D02*
X1067810D01*
Y891479D01*
X1060190D02*
X1067810D01*
X1081382Y890795D02*
Y907305D01*
X1073762D02*
X1081382D01*
X1073762Y890795D02*
Y907305D01*
Y890795D02*
X1081382D01*
X1103221Y882756D02*
Y899266D01*
X1095601D02*
X1103221D01*
X1095601Y882756D02*
Y899266D01*
Y882756D02*
X1103221D01*
X1105548Y832566D02*
X1113168D01*
X1105548D02*
Y849076D01*
X1113168D01*
Y832566D02*
Y849076D01*
X890904Y598290D02*
Y605910D01*
X874394Y598290D02*
X890904D01*
X874394D02*
Y605910D01*
X890904D01*
X861267Y574612D02*
Y582232D01*
X877777D01*
Y574612D02*
Y582232D01*
X861267Y574612D02*
X877777D01*
X850551Y940760D02*
X867061D01*
X850551Y933140D02*
Y940760D01*
Y933140D02*
X867061D01*
Y940760D01*
X1039489Y967542D02*
Y975162D01*
X1055999D01*
Y967542D02*
Y975162D01*
X1039489Y967542D02*
X1055999D01*
X1081526Y907217D02*
Y923727D01*
X1073906D02*
X1081526D01*
X1073906Y907217D02*
Y923727D01*
Y907217D02*
X1081526D01*
X1144264Y899273D02*
Y915783D01*
Y899273D02*
X1151884D01*
Y915783D01*
X1144264D02*
X1151884D01*
X1105669Y851519D02*
X1113289D01*
X1105669D02*
Y868029D01*
X1113289D01*
Y851519D02*
Y868029D01*
X1137406Y847493D02*
Y855113D01*
X1153916D01*
Y847493D02*
Y855113D01*
X1137406Y847493D02*
X1153916D01*
X1144264Y881130D02*
Y897640D01*
Y881130D02*
X1151884D01*
Y897640D01*
X1144264D02*
X1151884D01*
X1146296Y854940D02*
Y871450D01*
Y854940D02*
X1153916D01*
Y871450D01*
X1146296D02*
X1153916D01*
X1143481Y879338D02*
X1159991D01*
X1143481Y871718D02*
Y879338D01*
Y871718D02*
X1159991D01*
Y879338D01*
X1153677Y885575D02*
Y902085D01*
Y885575D02*
X1161297D01*
Y902085D01*
X1153677D02*
X1161297D01*
X946636Y425779D02*
X954256D01*
X946636D02*
Y442289D01*
X954256D01*
Y425779D02*
Y442289D01*
X923964Y574413D02*
X931584D01*
Y557903D02*
Y574413D01*
X923964Y557903D02*
X931584D01*
X923964D02*
Y574413D01*
X927844Y425868D02*
X935464D01*
X927844D02*
Y442378D01*
X935464D01*
Y425868D02*
Y442378D01*
X905336Y394907D02*
X912956D01*
X905336D02*
Y411417D01*
X912956D01*
Y394907D02*
Y411417D01*
X895938Y394907D02*
X903558D01*
X895938D02*
Y411417D01*
X903558D01*
Y394907D02*
Y411417D01*
X886286Y394907D02*
X893906D01*
X886286D02*
Y411417D01*
X893906D01*
Y394907D02*
Y411417D01*
X937136Y425779D02*
X944756D01*
X937136D02*
Y442289D01*
X944756D01*
Y425779D02*
Y442289D01*
X908964Y574413D02*
X916584D01*
Y557903D02*
Y574413D01*
X908964Y557903D02*
X916584D01*
X908964D02*
Y574413D01*
X952072Y553149D02*
X959692D01*
X952072D02*
Y569659D01*
X959692D01*
Y553149D02*
Y569659D01*
X886286Y578295D02*
X893906D01*
Y561785D02*
Y578295D01*
X886286Y561785D02*
X893906D01*
X886286D02*
Y578295D01*
X1194848Y551124D02*
X1211358D01*
X1194848Y543504D02*
Y551124D01*
Y543504D02*
X1211358D01*
Y551124D01*
X1175925Y551124D02*
X1192435D01*
X1175925Y543504D02*
Y551124D01*
Y543504D02*
X1192435D01*
Y551124D01*
X223888Y639370D02*
X229953D01*
X223888Y589370D02*
X229953D01*
X259823Y639370D02*
X265888D01*
X259823Y589370D02*
X265888D01*
X223888D02*
Y639370D01*
X265888Y589370D02*
Y639370D01*
X1073835Y481818D02*
Y498328D01*
X1066215D02*
X1073835D01*
X1066215Y481818D02*
Y498328D01*
Y481818D02*
X1073835D01*
X1135762Y927664D02*
X1152272D01*
X1135762Y920044D02*
Y927664D01*
Y920044D02*
X1152272D01*
Y927664D01*
X1151485Y789938D02*
Y806448D01*
X1143865D02*
X1151485D01*
X1143865Y789938D02*
Y806448D01*
Y789938D02*
X1151485D01*
X1148771Y818306D02*
Y834816D01*
Y818306D02*
X1156391D01*
Y834816D01*
X1148771D02*
X1156391D01*
X1184942Y524327D02*
X1192562D01*
X1184942D02*
Y540837D01*
X1192562D01*
Y524327D02*
Y540837D01*
X1194848Y524327D02*
X1202468D01*
X1194848D02*
Y540837D01*
X1202468D01*
Y524327D02*
Y540837D01*
X845030Y836379D02*
X852650D01*
X845030D02*
Y852889D01*
X852650D01*
Y836379D02*
Y852889D01*
X1050576Y564332D02*
X1058196D01*
X1050576D02*
Y580842D01*
X1058196D01*
Y564332D02*
Y580842D01*
X1066959Y553664D02*
Y561284D01*
X1050449Y553664D02*
X1066959D01*
X1050449D02*
Y561284D01*
X1066959D01*
X854840Y832634D02*
X862460D01*
Y816124D02*
Y832634D01*
X854840Y816124D02*
X862460D01*
X854840D02*
Y832634D01*
X859840Y792063D02*
X867460D01*
Y775553D02*
Y792063D01*
X859840Y775553D02*
X867460D01*
X859840D02*
Y792063D01*
X691009Y544052D02*
X707519D01*
Y551672D01*
X691009D02*
X707519D01*
X691009Y544052D02*
Y551672D01*
X1329849Y642276D02*
Y649896D01*
X1346359D01*
Y642276D02*
Y649896D01*
X1329849Y642276D02*
X1346359D01*
X209425Y725170D02*
Y758190D01*
X242445Y725170D02*
Y758190D01*
X209425Y725170D02*
X242445D01*
X209425Y758190D02*
X242445D01*
X1514094Y418084D02*
Y451104D01*
X1547114Y418084D02*
Y451104D01*
X1514094Y418084D02*
X1547114D01*
X1514094Y451104D02*
X1547114D01*
X147066Y1018540D02*
Y1051560D01*
X180086Y1018540D02*
Y1051560D01*
X147066Y1018540D02*
X180086D01*
X147066Y1051560D02*
X180086D01*
D15*
X964368Y633326D02*
Y666600D01*
X945063D02*
X964368D01*
X945063Y633326D02*
Y666600D01*
Y633326D02*
X964368D01*
X186436Y892429D02*
X205740D01*
Y859155D02*
Y892429D01*
X186436Y859155D02*
X205740D01*
X186436D02*
Y892429D01*
X213614Y838122D02*
Y857426D01*
X180340Y838122D02*
X213614D01*
X180340D02*
Y857426D01*
X213614D01*
X1225709Y432506D02*
X1258983D01*
X1225709Y413202D02*
Y432506D01*
Y413202D02*
X1258983D01*
Y432506D01*
X1220636Y412631D02*
X1253910D01*
X1220636Y393326D02*
Y412631D01*
Y393326D02*
X1253910D01*
Y412631D01*
X1170083Y433903D02*
Y467177D01*
Y433903D02*
X1189387D01*
Y467177D01*
X1170083D02*
X1189387D01*
X1151033Y393326D02*
X1184307D01*
Y412631D01*
X1151033D02*
X1184307D01*
X1151033Y393326D02*
Y412631D01*
X1322356Y390743D02*
Y436971D01*
X1299496D02*
X1322356D01*
X1299496Y390743D02*
Y436971D01*
Y390743D02*
X1322356D01*
X549547Y890188D02*
X568851D01*
Y856914D02*
Y890188D01*
X549547Y856914D02*
X568851D01*
X549547D02*
Y890188D01*
X620300Y882594D02*
Y905454D01*
X666528D01*
Y882594D02*
Y905454D01*
X620300Y882594D02*
X666528D01*
X724567Y903460D02*
X757841D01*
X724567Y884156D02*
Y903460D01*
Y884156D02*
X757841D01*
Y903460D01*
X772070Y1002721D02*
X794930D01*
Y956493D02*
Y1002721D01*
X772070Y956493D02*
X794930D01*
X772070D02*
Y1002721D01*
X746127Y653272D02*
X779401D01*
X746127Y633968D02*
Y653272D01*
Y633968D02*
X779401D01*
Y653272D01*
X923908Y534153D02*
X957182D01*
Y553457D01*
X923908D02*
X957182D01*
X923908Y534153D02*
Y553457D01*
X872697Y416624D02*
X905971D01*
Y435928D01*
X872697D02*
X905971D01*
X872697Y416624D02*
Y435928D01*
X933657Y469202D02*
X966931D01*
X933657Y449898D02*
Y469202D01*
Y449898D02*
X966931D01*
Y469202D01*
X790638Y426119D02*
X836866D01*
Y448979D01*
X790638D02*
X836866D01*
X790638Y426119D02*
Y448979D01*
X759746Y482544D02*
X782606D01*
Y436316D02*
Y482544D01*
X759746Y436316D02*
X782606D01*
X759746D02*
Y482544D01*
X732568Y482290D02*
X755428D01*
Y436062D02*
Y482290D01*
X732568Y436062D02*
X755428D01*
X732568D02*
Y482290D01*
X1223550Y558944D02*
X1256824D01*
Y578248D01*
X1223550D02*
X1256824D01*
X1223550Y558944D02*
Y578248D01*
X1394866Y663900D02*
X1441094D01*
X1394866Y641040D02*
Y663900D01*
Y641040D02*
X1441094D01*
Y663900D01*
X474970Y903527D02*
X494274D01*
Y870253D02*
Y903527D01*
X474970Y870253D02*
X494274D01*
X474970D02*
Y903527D01*
X497977Y1030146D02*
X517281D01*
Y996872D02*
Y1030146D01*
X497977Y996872D02*
X517281D01*
X497977D02*
Y1030146D01*
X523151Y1031162D02*
X542455D01*
Y997888D02*
Y1031162D01*
X523151Y997888D02*
X542455D01*
X523151D02*
Y1031162D01*
X643227Y737171D02*
Y770445D01*
X623923D02*
X643227D01*
X623923Y737171D02*
Y770445D01*
Y737171D02*
X643227D01*
X646160Y715914D02*
X669020D01*
X646160D02*
Y762142D01*
X669020D01*
Y715914D02*
Y762142D01*
X650563Y778555D02*
X673423D01*
X650563D02*
Y824783D01*
X673423D01*
Y778555D02*
Y824783D01*
X706914Y669234D02*
Y692094D01*
X660686Y669234D02*
X706914D01*
X660686D02*
Y692094D01*
X706914D01*
X695992Y767171D02*
Y800445D01*
X676688D02*
X695992D01*
X676688Y767171D02*
Y800445D01*
Y767171D02*
X695992D01*
X687013Y733864D02*
X720287D01*
Y753168D01*
X687013D02*
X720287D01*
X687013Y733864D02*
Y753168D01*
X1350296Y390743D02*
Y436971D01*
X1327436D02*
X1350296D01*
X1327436Y390743D02*
Y436971D01*
Y390743D02*
X1350296D01*
X786764Y857598D02*
Y880458D01*
X740536Y857598D02*
X786764D01*
X740536D02*
Y880458D01*
X786764D01*
X787432Y896824D02*
Y930098D01*
Y896824D02*
X806736D01*
Y930098D01*
X787432D02*
X806736D01*
X812324Y846272D02*
X835184D01*
X812324D02*
Y892500D01*
X835184D01*
Y846272D02*
Y892500D01*
X692013Y811527D02*
X725287D01*
Y830831D01*
X692013D02*
X725287D01*
X692013Y811527D02*
Y830831D01*
X1060736Y655772D02*
X1106964D01*
X1060736Y632912D02*
Y655772D01*
Y632912D02*
X1106964D01*
Y655772D01*
X841661Y723336D02*
X874935D01*
Y742640D01*
X841661D02*
X874935D01*
X841661Y723336D02*
Y742640D01*
X871506Y675584D02*
X894366D01*
X871506D02*
Y721812D01*
X894366D01*
Y675584D02*
Y721812D01*
X845646Y549903D02*
X878920D01*
Y569207D01*
X845646D02*
X878920D01*
X845646Y549903D02*
Y569207D01*
X731692Y767171D02*
Y800445D01*
X712388D02*
X731692D01*
X712388Y767171D02*
Y800445D01*
Y767171D02*
X731692D01*
X843947Y904364D02*
X877221D01*
Y923669D01*
X843947D02*
X877221D01*
X843947Y904364D02*
Y923669D01*
X893566Y1121212D02*
Y1167440D01*
Y1121212D02*
X916426D01*
Y1167440D01*
X893566D02*
X916426D01*
X1000810Y1154486D02*
Y1200714D01*
Y1154486D02*
X1023670D01*
Y1200714D01*
X1000810D02*
X1023670D01*
Y1103686D02*
Y1149914D01*
X1000810D02*
X1023670D01*
X1000810Y1103686D02*
Y1149914D01*
Y1103686D02*
X1023670D01*
X1111790Y609544D02*
Y655772D01*
Y609544D02*
X1134650D01*
Y655772D01*
X1111790D02*
X1134650D01*
X750983Y688030D02*
X784257D01*
Y707334D01*
X750983D02*
X784257D01*
X750983Y688030D02*
Y707334D01*
X854361Y632912D02*
Y655772D01*
X808133Y632912D02*
X854361D01*
X808133D02*
Y655772D01*
X854361D01*
X1095115Y949762D02*
Y969066D01*
X1128389D01*
Y949762D02*
Y969066D01*
X1095115Y949762D02*
X1128389D01*
X1095369Y972368D02*
Y991672D01*
X1128643D01*
Y972368D02*
Y991672D01*
X1095369Y972368D02*
X1128643D01*
X1165854Y948238D02*
Y967542D01*
X1132580Y948238D02*
X1165854D01*
X1132580D02*
Y967542D01*
X1165854D01*
X710567Y540750D02*
Y554974D01*
X739777D01*
Y540750D02*
Y554974D01*
X710567Y540750D02*
X739777D01*
X1230370Y690824D02*
X1276598D01*
X1230370Y667964D02*
Y690824D01*
Y667964D02*
X1276598D01*
Y690824D01*
X1197352Y641040D02*
X1243580D01*
Y663900D01*
X1197352D02*
X1243580D01*
X1197352Y641040D02*
Y663900D01*
X1436402Y439999D02*
Y639389D01*
X1268762Y439999D02*
Y639389D01*
X1436402D01*
X1268762Y439999D02*
X1436402D01*
X1265968Y663900D02*
X1312196D01*
X1265968Y641040D02*
Y663900D01*
Y641040D02*
X1312196D01*
Y663900D01*
X935158Y653010D02*
X933889Y654279D01*
Y656819D01*
X935158Y658088D01*
X940237D01*
X941506Y656819D01*
Y654279D01*
X940237Y653010D01*
X941506Y646662D02*
X933889D01*
X937698Y650471D01*
Y645392D01*
X941506Y642853D02*
Y640314D01*
Y641583D01*
X933889D01*
X935158Y642853D01*
X601759Y844872D02*
X600489Y846142D01*
Y848681D01*
X601759Y849951D01*
X606837D01*
X608107Y848681D01*
Y846142D01*
X606837Y844872D01*
X608107Y837255D02*
Y842333D01*
X603028Y837255D01*
X601759D01*
X600489Y838524D01*
Y841064D01*
X601759Y842333D01*
X608107Y834716D02*
Y832176D01*
Y833446D01*
X600489D01*
X601759Y834716D01*
X606837Y828368D02*
X608107Y827098D01*
Y824559D01*
X606837Y823289D01*
X601759D01*
X600489Y824559D01*
Y827098D01*
X601759Y828368D01*
X603028D01*
X604298Y827098D01*
Y823289D01*
X429171Y1050844D02*
Y1049575D01*
X426632Y1047035D01*
X424093Y1049575D01*
Y1050844D01*
X426632Y1047035D02*
Y1043227D01*
X416475D02*
X421554D01*
X416475Y1048305D01*
Y1049575D01*
X417745Y1050844D01*
X420284D01*
X421554Y1049575D01*
X1255428Y606190D02*
X1261776D01*
X1263046Y604920D01*
Y602381D01*
X1261776Y601112D01*
X1255428D01*
X1263046Y598572D02*
Y596033D01*
Y597303D01*
X1255428D01*
X1256698Y598572D01*
X1255428Y587146D02*
Y592224D01*
X1259237D01*
X1257967Y589685D01*
Y588416D01*
X1259237Y587146D01*
X1261776D01*
X1263046Y588416D01*
Y590955D01*
X1261776Y592224D01*
X705991Y555483D02*
Y563101D01*
X702182D01*
X700912Y561831D01*
Y559292D01*
X702182Y558022D01*
X705991D01*
X703452D02*
X700912Y555483D01*
X698373D02*
X695834D01*
X697104D01*
Y563101D01*
X698373Y561831D01*
X686947Y555483D02*
X692025D01*
X686947Y560562D01*
Y561831D01*
X688217Y563101D01*
X690756D01*
X692025Y561831D01*
X684408D02*
X683138Y563101D01*
X680599D01*
X679330Y561831D01*
Y560562D01*
X680599Y559292D01*
X679330Y558022D01*
Y556753D01*
X680599Y555483D01*
X683138D01*
X684408Y556753D01*
Y558022D01*
X683138Y559292D01*
X684408Y560562D01*
Y561831D01*
X683138Y559292D02*
X680599D01*
X737233Y558969D02*
Y566587D01*
X733424D01*
X732154Y565317D01*
Y562778D01*
X733424Y561509D01*
X737233D01*
X734694D02*
X732154Y558969D01*
X729615D02*
X727076D01*
X728346D01*
Y566587D01*
X729615Y565317D01*
X718189Y558969D02*
X723267D01*
X718189Y564048D01*
Y565317D01*
X719459Y566587D01*
X721998D01*
X723267Y565317D01*
X715650Y566587D02*
X710572D01*
Y565317D01*
X715650Y560239D01*
Y558969D01*
X1069495Y542743D02*
Y550361D01*
X1065686D01*
X1064417Y549091D01*
Y546552D01*
X1065686Y545283D01*
X1069495D01*
X1066956D02*
X1064417Y542743D01*
X1061878D02*
X1059338D01*
X1060608D01*
Y550361D01*
X1061878Y549091D01*
X1050451Y542743D02*
X1055530D01*
X1050451Y547822D01*
Y549091D01*
X1051721Y550361D01*
X1054260D01*
X1055530Y549091D01*
X1047912Y542743D02*
X1045373D01*
X1046643D01*
Y550361D01*
X1047912Y549091D01*
X1061655Y564727D02*
X1069273D01*
Y568536D01*
X1068003Y569806D01*
X1065464D01*
X1064194Y568536D01*
Y564727D01*
Y567267D02*
X1061655Y569806D01*
Y572345D02*
Y574884D01*
Y573615D01*
X1069273D01*
X1068003Y572345D01*
X1061655Y583771D02*
Y578693D01*
X1066734Y583771D01*
X1068003D01*
X1069273Y582502D01*
Y579962D01*
X1068003Y578693D01*
Y586310D02*
X1069273Y587580D01*
Y590119D01*
X1068003Y591389D01*
X1062925D01*
X1061655Y590119D01*
Y587580D01*
X1062925Y586310D01*
X1068003D01*
X1350800Y654977D02*
Y662595D01*
X1346991D01*
X1345721Y661325D01*
Y658786D01*
X1346991Y657516D01*
X1350800D01*
X1348261D02*
X1345721Y654977D01*
X1343182D02*
X1340643D01*
X1341913D01*
Y662595D01*
X1343182Y661325D01*
X1336834Y654977D02*
X1334295D01*
X1335565D01*
Y662595D01*
X1336834Y661325D01*
X1325408Y662595D02*
X1327947Y661325D01*
X1330486Y658786D01*
Y656247D01*
X1329217Y654977D01*
X1326678D01*
X1325408Y656247D01*
Y657516D01*
X1326678Y658786D01*
X1330486D01*
X157483Y856487D02*
Y848869D01*
X161292D01*
X162562Y850139D01*
Y852678D01*
X161292Y853948D01*
X157483D01*
X160023D02*
X162562Y856487D01*
X165101Y855217D02*
X166370Y856487D01*
X168910D01*
X170179Y855217D01*
Y850139D01*
X168910Y848869D01*
X166370D01*
X165101Y850139D01*
Y851408D01*
X166370Y852678D01*
X170179D01*
X172718Y855217D02*
X173988Y856487D01*
X176527D01*
X177797Y855217D01*
Y850139D01*
X176527Y848869D01*
X173988D01*
X172718Y850139D01*
Y851408D01*
X173988Y852678D01*
X177797D01*
X159134Y869695D02*
Y862077D01*
X162943D01*
X164213Y863347D01*
Y865886D01*
X162943Y867156D01*
X159134D01*
X161674D02*
X164213Y869695D01*
X166752Y868425D02*
X168021Y869695D01*
X170561D01*
X171830Y868425D01*
Y863347D01*
X170561Y862077D01*
X168021D01*
X166752Y863347D01*
Y864616D01*
X168021Y865886D01*
X171830D01*
X174369Y863347D02*
X175639Y862077D01*
X178178D01*
X179448Y863347D01*
Y864616D01*
X178178Y865886D01*
X179448Y867156D01*
Y868425D01*
X178178Y869695D01*
X175639D01*
X174369Y868425D01*
Y867156D01*
X175639Y865886D01*
X174369Y864616D01*
Y863347D01*
X175639Y865886D02*
X178178D01*
X1217236Y555288D02*
Y562905D01*
X1213427D01*
X1212158Y561636D01*
Y559096D01*
X1213427Y557827D01*
X1217236D01*
X1214697D02*
X1212158Y555288D01*
X1204540Y562905D02*
X1207079Y561636D01*
X1209618Y559096D01*
Y556557D01*
X1208349Y555288D01*
X1205810D01*
X1204540Y556557D01*
Y557827D01*
X1205810Y559096D01*
X1209618D01*
X1202001Y561636D02*
X1200731Y562905D01*
X1198192D01*
X1196923Y561636D01*
Y556557D01*
X1198192Y555288D01*
X1200731D01*
X1202001Y556557D01*
Y561636D01*
X1190463Y555287D02*
Y562905D01*
X1186654D01*
X1185385Y561635D01*
Y559096D01*
X1186654Y557826D01*
X1190463D01*
X1187924D02*
X1185385Y555287D01*
X1177767Y562905D02*
X1182846D01*
Y559096D01*
X1180306Y560366D01*
X1179037D01*
X1177767Y559096D01*
Y556557D01*
X1179037Y555287D01*
X1181576D01*
X1182846Y556557D01*
X1175228D02*
X1173959Y555287D01*
X1171419D01*
X1170150Y556557D01*
Y561635D01*
X1171419Y562905D01*
X1173959D01*
X1175228Y561635D01*
Y560366D01*
X1173959Y559096D01*
X1170150D01*
X846465Y933141D02*
Y940759D01*
X842656D01*
X841387Y939489D01*
Y936950D01*
X842656Y935680D01*
X846465D01*
X843926D02*
X841387Y933141D01*
X833769Y940759D02*
X838848D01*
Y936950D01*
X836309Y938220D01*
X835039D01*
X833769Y936950D01*
Y934411D01*
X835039Y933141D01*
X837578D01*
X838848Y934411D01*
X831230Y939489D02*
X829961Y940759D01*
X827421D01*
X826152Y939489D01*
Y938220D01*
X827421Y936950D01*
X826152Y935680D01*
Y934411D01*
X827421Y933141D01*
X829961D01*
X831230Y934411D01*
Y935680D01*
X829961Y936950D01*
X831230Y938220D01*
Y939489D01*
X829961Y936950D02*
X827421D01*
X1036565Y967289D02*
Y974907D01*
X1032756D01*
X1031486Y973637D01*
Y971098D01*
X1032756Y969828D01*
X1036565D01*
X1034025D02*
X1031486Y967289D01*
X1023869Y974907D02*
X1028947D01*
Y971098D01*
X1026408Y972368D01*
X1025138D01*
X1023869Y971098D01*
Y968559D01*
X1025138Y967289D01*
X1027678D01*
X1028947Y968559D01*
X1021330Y973637D02*
X1020060Y974907D01*
X1017521D01*
X1016251Y973637D01*
Y972368D01*
X1017521Y971098D01*
X1018790D01*
X1017521D01*
X1016251Y969828D01*
Y968559D01*
X1017521Y967289D01*
X1020060D01*
X1021330Y968559D01*
X864666Y954811D02*
Y962429D01*
X860857D01*
X859587Y961159D01*
Y958620D01*
X860857Y957350D01*
X864666D01*
X862126D02*
X859587Y954811D01*
X857048Y961159D02*
X855779Y962429D01*
X853239D01*
X851970Y961159D01*
Y959890D01*
X853239Y958620D01*
X854509D01*
X853239D01*
X851970Y957350D01*
Y956081D01*
X853239Y954811D01*
X855779D01*
X857048Y956081D01*
X849431Y962429D02*
X844352D01*
Y961159D01*
X849431Y956081D01*
Y954811D01*
X822199Y897385D02*
X829817D01*
Y901194D01*
X828547Y902464D01*
X826008D01*
X824738Y901194D01*
Y897385D01*
Y899924D02*
X822199Y902464D01*
X828547Y905003D02*
X829817Y906272D01*
Y908812D01*
X828547Y910081D01*
X827278D01*
X826008Y908812D01*
Y907542D01*
Y908812D01*
X824738Y910081D01*
X823469D01*
X822199Y908812D01*
Y906272D01*
X823469Y905003D01*
X829817Y917699D02*
X828547Y915160D01*
X826008Y912620D01*
X823469D01*
X822199Y913890D01*
Y916429D01*
X823469Y917699D01*
X824738D01*
X826008Y916429D01*
Y912620D01*
X1142886Y705219D02*
Y712837D01*
X1139078D01*
X1137808Y711567D01*
Y709028D01*
X1139078Y707758D01*
X1142886D01*
X1140347D02*
X1137808Y705219D01*
X1135269Y711567D02*
X1133999Y712837D01*
X1131460D01*
X1130191Y711567D01*
Y710298D01*
X1131460Y709028D01*
X1132730D01*
X1131460D01*
X1130191Y707758D01*
Y706489D01*
X1131460Y705219D01*
X1133999D01*
X1135269Y706489D01*
X1127651Y711567D02*
X1126382Y712837D01*
X1123843D01*
X1122573Y711567D01*
Y710298D01*
X1123843Y709028D01*
X1125112D01*
X1123843D01*
X1122573Y707758D01*
Y706489D01*
X1123843Y705219D01*
X1126382D01*
X1127651Y706489D01*
X1152926Y837012D02*
Y844630D01*
X1149117D01*
X1147848Y843360D01*
Y840821D01*
X1149117Y839551D01*
X1152926D01*
X1150387D02*
X1147848Y837012D01*
X1140230D02*
X1145309D01*
X1140230Y842091D01*
Y843360D01*
X1141500Y844630D01*
X1144039D01*
X1145309Y843360D01*
X1137691D02*
X1136421Y844630D01*
X1133882D01*
X1132613Y843360D01*
Y842091D01*
X1133882Y840821D01*
X1132613Y839551D01*
Y838282D01*
X1133882Y837012D01*
X1136421D01*
X1137691Y838282D01*
Y839551D01*
X1136421Y840821D01*
X1137691Y842091D01*
Y843360D01*
X1136421Y840821D02*
X1133882D01*
X1123841Y848938D02*
X1116223D01*
Y845129D01*
X1117493Y843860D01*
X1120032D01*
X1121302Y845129D01*
Y848938D01*
Y846399D02*
X1123841Y843860D01*
Y836242D02*
Y841320D01*
X1118762Y836242D01*
X1117493D01*
X1116223Y837512D01*
Y840051D01*
X1117493Y841320D01*
X1116223Y833703D02*
Y828625D01*
X1117493D01*
X1122571Y833703D01*
X1123841D01*
X1116223Y853651D02*
X1123841D01*
Y857460D01*
X1122571Y858730D01*
X1120032D01*
X1118762Y857460D01*
Y853651D01*
Y856190D02*
X1116223Y858730D01*
Y866347D02*
Y861269D01*
X1121302Y866347D01*
X1122571D01*
X1123841Y865078D01*
Y862539D01*
X1122571Y861269D01*
X1123841Y873965D02*
X1122571Y871426D01*
X1120032Y868886D01*
X1117493D01*
X1116223Y870156D01*
Y872695D01*
X1117493Y873965D01*
X1118762D01*
X1120032Y872695D01*
Y868886D01*
X99822Y604518D02*
Y596900D01*
X96013D01*
X94744Y598170D01*
Y603248D01*
X96013Y604518D01*
X99822D01*
X92205Y596900D02*
X89665D01*
X90935D01*
Y604518D01*
X92205Y603248D01*
X80778Y596900D02*
X85857D01*
X80778Y601978D01*
Y603248D01*
X82048Y604518D01*
X84587D01*
X85857Y603248D01*
X149098Y604518D02*
Y596900D01*
X145289D01*
X144020Y598170D01*
Y603248D01*
X145289Y604518D01*
X149098D01*
X141481Y596900D02*
X138941D01*
X140211D01*
Y604518D01*
X141481Y603248D01*
X135133D02*
X133863Y604518D01*
X131324D01*
X130054Y603248D01*
Y601978D01*
X131324Y600709D01*
X132593D01*
X131324D01*
X130054Y599439D01*
Y598170D01*
X131324Y596900D01*
X133863D01*
X135133Y598170D01*
X45720Y604263D02*
Y596646D01*
X41911D01*
X40642Y597916D01*
Y602994D01*
X41911Y604263D01*
X45720D01*
X38103Y596646D02*
X35563D01*
X36833D01*
Y604263D01*
X38103Y602994D01*
X31755Y596646D02*
X29215D01*
X30485D01*
Y604263D01*
X31755Y602994D01*
X199467Y604771D02*
Y597154D01*
X195658D01*
X194388Y598424D01*
Y603502D01*
X195658Y604771D01*
X199467D01*
X191849Y597154D02*
X189310D01*
X190579D01*
Y604771D01*
X191849Y603502D01*
X181692Y597154D02*
Y604771D01*
X185501Y600963D01*
X180423D01*
X253902Y575507D02*
Y567889D01*
X250093D01*
X248824Y569159D01*
Y574237D01*
X250093Y575507D01*
X253902D01*
X246284Y567889D02*
X243745D01*
X245015D01*
Y575507D01*
X246284Y574237D01*
X234858Y575507D02*
X239936D01*
Y571698D01*
X237397Y572968D01*
X236128D01*
X234858Y571698D01*
Y569159D01*
X236128Y567889D01*
X238667D01*
X239936Y569159D01*
X502242Y918720D02*
X500973Y917450D01*
X498433D01*
X497164Y918720D01*
Y923799D01*
X498433Y925068D01*
X500973D01*
X502242Y923799D01*
X509860Y925068D02*
X504781D01*
X509860Y919990D01*
Y918720D01*
X508590Y917450D01*
X506051D01*
X504781Y918720D01*
X517477Y925068D02*
X512399D01*
X517477Y919990D01*
Y918720D01*
X516208Y917450D01*
X513668D01*
X512399Y918720D01*
X525095Y917450D02*
X520016D01*
Y921259D01*
X522556Y919990D01*
X523825D01*
X525095Y921259D01*
Y923799D01*
X523825Y925068D01*
X521286D01*
X520016Y923799D01*
X501749Y944763D02*
X500479Y943494D01*
X497940D01*
X496670Y944763D01*
Y949842D01*
X497940Y951111D01*
X500479D01*
X501749Y949842D01*
X509366Y951111D02*
X504288D01*
X509366Y946033D01*
Y944763D01*
X508097Y943494D01*
X505558D01*
X504288Y944763D01*
X516984Y951111D02*
X511906D01*
X516984Y946033D01*
Y944763D01*
X515714Y943494D01*
X513175D01*
X511906Y944763D01*
X523332Y951111D02*
Y943494D01*
X519523Y947303D01*
X524601D01*
X555158Y975271D02*
X553888Y974002D01*
X551349D01*
X550080Y975271D01*
Y980350D01*
X551349Y981619D01*
X553888D01*
X555158Y980350D01*
X562775Y981619D02*
X557697D01*
X562775Y976541D01*
Y975271D01*
X561506Y974002D01*
X558967D01*
X557697Y975271D01*
X570393Y981619D02*
X565315D01*
X570393Y976541D01*
Y975271D01*
X569123Y974002D01*
X566584D01*
X565315Y975271D01*
X572932D02*
X574202Y974002D01*
X576741D01*
X578011Y975271D01*
Y976541D01*
X576741Y977811D01*
X575471D01*
X576741D01*
X578011Y979080D01*
Y980350D01*
X576741Y981619D01*
X574202D01*
X572932Y980350D01*
X509836Y882731D02*
X508566Y884000D01*
Y886540D01*
X509836Y887809D01*
X514914D01*
X516184Y886540D01*
Y884000D01*
X514914Y882731D01*
X516184Y875113D02*
Y880192D01*
X511106Y875113D01*
X509836D01*
X508566Y876383D01*
Y878922D01*
X509836Y880192D01*
X516184Y867496D02*
Y872574D01*
X511106Y867496D01*
X509836D01*
X508566Y868765D01*
Y871304D01*
X509836Y872574D01*
X516184Y859878D02*
Y864957D01*
X511106Y859878D01*
X509836D01*
X508566Y861148D01*
Y863687D01*
X509836Y864957D01*
X1180909Y355547D02*
X1182178Y354278D01*
Y351739D01*
X1180909Y350469D01*
X1175830D01*
X1174561Y351739D01*
Y354278D01*
X1175830Y355547D01*
X1174561Y363165D02*
Y358087D01*
X1179639Y363165D01*
X1180909D01*
X1182178Y361895D01*
Y359356D01*
X1180909Y358087D01*
X1174561Y365704D02*
Y368243D01*
Y366974D01*
X1182178D01*
X1180909Y365704D01*
Y372052D02*
X1182178Y373322D01*
Y375861D01*
X1180909Y377131D01*
X1179639D01*
X1178370Y375861D01*
X1177100Y377131D01*
X1175830D01*
X1174561Y375861D01*
Y373322D01*
X1175830Y372052D01*
X1177100D01*
X1178370Y373322D01*
X1179639Y372052D01*
X1180909D01*
X1178370Y373322D02*
Y375861D01*
X1268892Y419553D02*
X1267622Y418283D01*
X1265083D01*
X1263813Y419553D01*
Y424631D01*
X1265083Y425901D01*
X1267622D01*
X1268892Y424631D01*
X1276509Y425901D02*
X1271431D01*
X1276509Y420822D01*
Y419553D01*
X1275240Y418283D01*
X1272701D01*
X1271431Y419553D01*
X1279048Y425901D02*
X1281588D01*
X1280318D01*
Y418283D01*
X1279048Y419553D01*
X1285396Y418283D02*
X1290475D01*
Y419553D01*
X1285396Y424631D01*
Y425901D01*
X1199296Y420315D02*
X1198026Y419045D01*
X1195487D01*
X1194218Y420315D01*
Y425393D01*
X1195487Y426663D01*
X1198026D01*
X1199296Y425393D01*
X1206913Y426663D02*
X1201835D01*
X1206913Y421584D01*
Y420315D01*
X1205644Y419045D01*
X1203105D01*
X1201835Y420315D01*
X1209453Y426663D02*
X1211992D01*
X1210722D01*
Y419045D01*
X1209453Y420315D01*
X1220879Y419045D02*
X1218340Y420315D01*
X1215800Y422854D01*
Y425393D01*
X1217070Y426663D01*
X1219609D01*
X1220879Y425393D01*
Y424124D01*
X1219609Y422854D01*
X1215800D01*
X1230280Y363294D02*
X1231550Y362025D01*
Y359486D01*
X1230280Y358216D01*
X1225202D01*
X1223932Y359486D01*
Y362025D01*
X1225202Y363294D01*
X1223932Y370912D02*
Y365834D01*
X1229011Y370912D01*
X1230280D01*
X1231550Y369642D01*
Y367103D01*
X1230280Y365834D01*
X1223932Y373451D02*
Y375990D01*
Y374721D01*
X1231550D01*
X1230280Y373451D01*
X1231550Y384878D02*
Y379799D01*
X1227741D01*
X1229011Y382338D01*
Y383608D01*
X1227741Y384878D01*
X1225202D01*
X1223932Y383608D01*
Y381069D01*
X1225202Y379799D01*
X1264193Y400803D02*
X1262923Y399533D01*
X1260384D01*
X1259114Y400803D01*
Y405881D01*
X1260384Y407151D01*
X1262923D01*
X1264193Y405881D01*
X1271810Y407151D02*
X1266732D01*
X1271810Y402072D01*
Y400803D01*
X1270541Y399533D01*
X1268001D01*
X1266732Y400803D01*
X1274349Y407151D02*
X1276889D01*
X1275619D01*
Y399533D01*
X1274349Y400803D01*
X1284506Y407151D02*
Y399533D01*
X1280697Y403342D01*
X1285776D01*
X1229021Y437968D02*
X1227751Y436698D01*
X1225212D01*
X1223943Y437968D01*
Y443046D01*
X1225212Y444316D01*
X1227751D01*
X1229021Y443046D01*
X1236638Y444316D02*
X1231560D01*
X1236638Y439237D01*
Y437968D01*
X1235369Y436698D01*
X1232830D01*
X1231560Y437968D01*
X1239178Y444316D02*
X1241717D01*
X1240447D01*
Y436698D01*
X1239178Y437968D01*
X1245526D02*
X1246795Y436698D01*
X1249334D01*
X1250604Y437968D01*
Y439237D01*
X1249334Y440507D01*
X1248065D01*
X1249334D01*
X1250604Y441777D01*
Y443046D01*
X1249334Y444316D01*
X1246795D01*
X1245526Y443046D01*
X1226722Y472637D02*
X1227992Y473907D01*
X1230531D01*
X1231801Y472637D01*
Y467559D01*
X1230531Y466289D01*
X1227992D01*
X1226722Y467559D01*
X1219105Y466289D02*
X1224183D01*
X1219105Y471368D01*
Y472637D01*
X1220374Y473907D01*
X1222914D01*
X1224183Y472637D01*
X1216566Y466289D02*
X1214026D01*
X1215296D01*
Y473907D01*
X1216566Y472637D01*
X1205139Y466289D02*
X1210218D01*
X1205139Y471368D01*
Y472637D01*
X1206409Y473907D01*
X1208948D01*
X1210218Y472637D01*
X1159924Y457777D02*
X1158654Y459046D01*
Y461586D01*
X1159924Y462855D01*
X1165002D01*
X1166272Y461586D01*
Y459046D01*
X1165002Y457777D01*
X1166272Y450159D02*
Y455238D01*
X1161193Y450159D01*
X1159924D01*
X1158654Y451429D01*
Y453968D01*
X1159924Y455238D01*
X1166272Y447620D02*
Y445081D01*
Y446350D01*
X1158654D01*
X1159924Y447620D01*
X1166272Y441272D02*
Y438733D01*
Y440003D01*
X1158654D01*
X1159924Y441272D01*
X1199927Y453718D02*
X1201197Y452448D01*
Y449909D01*
X1199927Y448639D01*
X1194849D01*
X1193579Y449909D01*
Y452448D01*
X1194849Y453718D01*
X1193579Y461335D02*
Y456257D01*
X1198658Y461335D01*
X1199927D01*
X1201197Y460066D01*
Y457526D01*
X1199927Y456257D01*
X1193579Y463874D02*
Y466414D01*
Y465144D01*
X1201197D01*
X1199927Y463874D01*
Y470222D02*
X1201197Y471492D01*
Y474031D01*
X1199927Y475301D01*
X1194849D01*
X1193579Y474031D01*
Y471492D01*
X1194849Y470222D01*
X1199927D01*
X1109634Y419807D02*
X1108364Y418537D01*
X1105825D01*
X1104556Y419807D01*
Y424885D01*
X1105825Y426155D01*
X1108364D01*
X1109634Y424885D01*
X1117251Y426155D02*
X1112173D01*
X1117251Y421076D01*
Y419807D01*
X1115982Y418537D01*
X1113443D01*
X1112173Y419807D01*
X1119791D02*
X1121060Y418537D01*
X1123599D01*
X1124869Y419807D01*
Y424885D01*
X1123599Y426155D01*
X1121060D01*
X1119791Y424885D01*
Y419807D01*
X1127408Y424885D02*
X1128678Y426155D01*
X1131217D01*
X1132486Y424885D01*
Y419807D01*
X1131217Y418537D01*
X1128678D01*
X1127408Y419807D01*
Y421076D01*
X1128678Y422346D01*
X1132486D01*
X1158783Y382215D02*
X1157513Y380945D01*
X1154974D01*
X1153705Y382215D01*
Y387293D01*
X1154974Y388563D01*
X1157513D01*
X1158783Y387293D01*
X1166400Y388563D02*
X1161322D01*
X1166400Y383484D01*
Y382215D01*
X1165131Y380945D01*
X1162592D01*
X1161322Y382215D01*
X1168940D02*
X1170209Y380945D01*
X1172748D01*
X1174018Y382215D01*
Y387293D01*
X1172748Y388563D01*
X1170209D01*
X1168940Y387293D01*
Y382215D01*
X1176557D02*
X1177827Y380945D01*
X1180366D01*
X1181636Y382215D01*
Y383484D01*
X1180366Y384754D01*
X1181636Y386024D01*
Y387293D01*
X1180366Y388563D01*
X1177827D01*
X1176557Y387293D01*
Y386024D01*
X1177827Y384754D01*
X1176557Y383484D01*
Y382215D01*
X1177827Y384754D02*
X1180366D01*
X1189515Y407611D02*
X1188245Y408881D01*
Y411420D01*
X1189515Y412690D01*
X1194593D01*
X1195863Y411420D01*
Y408881D01*
X1194593Y407611D01*
X1195863Y399994D02*
Y405072D01*
X1190784Y399994D01*
X1189515D01*
X1188245Y401263D01*
Y403802D01*
X1189515Y405072D01*
Y397454D02*
X1188245Y396185D01*
Y393646D01*
X1189515Y392376D01*
X1194593D01*
X1195863Y393646D01*
Y396185D01*
X1194593Y397454D01*
X1189515D01*
X1188245Y389837D02*
Y384759D01*
X1189515D01*
X1194593Y389837D01*
X1195863D01*
X1170207Y629609D02*
X1171477Y630879D01*
X1174016D01*
X1175285Y629609D01*
Y624531D01*
X1174016Y623261D01*
X1171477D01*
X1170207Y624531D01*
X1162590Y623261D02*
X1167668D01*
X1162590Y628340D01*
Y629609D01*
X1163859Y630879D01*
X1166398D01*
X1167668Y629609D01*
X1160050D02*
X1158781Y630879D01*
X1156242D01*
X1154972Y629609D01*
Y624531D01*
X1156242Y623261D01*
X1158781D01*
X1160050Y624531D01*
Y629609D01*
X1147355Y630879D02*
X1149894Y629609D01*
X1152433Y627070D01*
Y624531D01*
X1151163Y623261D01*
X1148624D01*
X1147355Y624531D01*
Y625801D01*
X1148624Y627070D01*
X1152433D01*
X1207293Y610690D02*
X1208563Y609420D01*
Y606881D01*
X1207293Y605611D01*
X1202215D01*
X1200945Y606881D01*
Y609420D01*
X1202215Y610690D01*
X1200945Y618307D02*
Y613229D01*
X1206024Y618307D01*
X1207293D01*
X1208563Y617038D01*
Y614499D01*
X1207293Y613229D01*
Y620847D02*
X1208563Y622116D01*
Y624655D01*
X1207293Y625925D01*
X1202215D01*
X1200945Y624655D01*
Y622116D01*
X1202215Y620847D01*
X1207293D01*
X1208563Y633543D02*
Y628464D01*
X1204754D01*
X1206024Y631003D01*
Y632273D01*
X1204754Y633543D01*
X1202215D01*
X1200945Y632273D01*
Y629734D01*
X1202215Y628464D01*
X1231554Y548531D02*
X1230284Y547261D01*
X1227745D01*
X1226476Y548531D01*
Y553609D01*
X1227745Y554879D01*
X1230284D01*
X1231554Y553609D01*
X1239171Y554879D02*
X1234093D01*
X1239171Y549800D01*
Y548531D01*
X1237902Y547261D01*
X1235363D01*
X1234093Y548531D01*
X1241711D02*
X1242980Y547261D01*
X1245519D01*
X1246789Y548531D01*
Y553609D01*
X1245519Y554879D01*
X1242980D01*
X1241711Y553609D01*
Y548531D01*
X1253137Y554879D02*
Y547261D01*
X1249328Y551070D01*
X1254407D01*
X969343Y552263D02*
X970613Y550993D01*
Y548454D01*
X969343Y547184D01*
X964265D01*
X962995Y548454D01*
Y550993D01*
X964265Y552263D01*
X962995Y559880D02*
Y554802D01*
X968074Y559880D01*
X969343D01*
X970613Y558611D01*
Y556072D01*
X969343Y554802D01*
Y562420D02*
X970613Y563689D01*
Y566228D01*
X969343Y567498D01*
X964265D01*
X962995Y566228D01*
Y563689D01*
X964265Y562420D01*
X969343D01*
X962995Y575116D02*
Y570037D01*
X968074Y575116D01*
X969343D01*
X970613Y573846D01*
Y571307D01*
X969343Y570037D01*
X932039Y524502D02*
X930769Y523232D01*
X928230D01*
X926960Y524502D01*
Y529580D01*
X928230Y530850D01*
X930769D01*
X932039Y529580D01*
X934578Y530850D02*
X937117D01*
X935847D01*
Y523232D01*
X934578Y524502D01*
X940926Y529580D02*
X942195Y530850D01*
X944734D01*
X946004Y529580D01*
Y524502D01*
X944734Y523232D01*
X942195D01*
X940926Y524502D01*
Y525772D01*
X942195Y527041D01*
X946004D01*
X948543Y529580D02*
X949813Y530850D01*
X952352D01*
X953622Y529580D01*
Y524502D01*
X952352Y523232D01*
X949813D01*
X948543Y524502D01*
Y525772D01*
X949813Y527041D01*
X953622D01*
X902953Y567898D02*
X904222Y566628D01*
Y564089D01*
X902953Y562819D01*
X897875D01*
X896605Y564089D01*
Y566628D01*
X897875Y567898D01*
X896605Y570437D02*
Y572976D01*
Y571707D01*
X904222D01*
X902953Y570437D01*
X897875Y576785D02*
X896605Y578054D01*
Y580594D01*
X897875Y581863D01*
X902953D01*
X904222Y580594D01*
Y578054D01*
X902953Y576785D01*
X901683D01*
X900414Y578054D01*
Y581863D01*
X902953Y584402D02*
X904222Y585672D01*
Y588211D01*
X902953Y589481D01*
X901683D01*
X900414Y588211D01*
X899144Y589481D01*
X897875D01*
X896605Y588211D01*
Y585672D01*
X897875Y584402D01*
X899144D01*
X900414Y585672D01*
X901683Y584402D01*
X902953D01*
X900414Y585672D02*
Y588211D01*
X915821Y582417D02*
X917091Y581147D01*
Y578608D01*
X915821Y577338D01*
X910743D01*
X909473Y578608D01*
Y581147D01*
X910743Y582417D01*
X909473Y584956D02*
Y587495D01*
Y586225D01*
X917091D01*
X915821Y584956D01*
X910743Y591304D02*
X909473Y592573D01*
Y595113D01*
X910743Y596382D01*
X915821D01*
X917091Y595113D01*
Y592573D01*
X915821Y591304D01*
X914552D01*
X913282Y592573D01*
Y596382D01*
X917091Y598921D02*
Y604000D01*
X915821D01*
X910743Y598921D01*
X909473D01*
X930313Y582544D02*
X931583Y581274D01*
Y578735D01*
X930313Y577465D01*
X925235D01*
X923965Y578735D01*
Y581274D01*
X925235Y582544D01*
X923965Y585083D02*
Y587622D01*
Y586353D01*
X931583D01*
X930313Y585083D01*
X925235Y591431D02*
X923965Y592700D01*
Y595240D01*
X925235Y596509D01*
X930313D01*
X931583Y595240D01*
Y592700D01*
X930313Y591431D01*
X929044D01*
X927774Y592700D01*
Y596509D01*
X931583Y604127D02*
X930313Y601587D01*
X927774Y599048D01*
X925235D01*
X923965Y600318D01*
Y602857D01*
X925235Y604127D01*
X926504D01*
X927774Y602857D01*
Y599048D01*
X992074Y462089D02*
X993343Y463359D01*
X995882D01*
X997152Y462089D01*
Y457011D01*
X995882Y455741D01*
X993343D01*
X992074Y457011D01*
X989534Y455741D02*
X986995D01*
X988265D01*
Y463359D01*
X989534Y462089D01*
X983186Y457011D02*
X981917Y455741D01*
X979378D01*
X978108Y457011D01*
Y462089D01*
X979378Y463359D01*
X981917D01*
X983186Y462089D01*
Y460820D01*
X981917Y459550D01*
X978108D01*
X970490Y463359D02*
X975569D01*
Y459550D01*
X973030Y460820D01*
X971760D01*
X970490Y459550D01*
Y457011D01*
X971760Y455741D01*
X974299D01*
X975569Y457011D01*
X953595Y401006D02*
X954865Y399736D01*
Y397197D01*
X953595Y395927D01*
X948517D01*
X947247Y397197D01*
Y399736D01*
X948517Y401006D01*
X947247Y403545D02*
Y406084D01*
Y404814D01*
X954865D01*
X953595Y403545D01*
X948517Y409893D02*
X947247Y411162D01*
Y413702D01*
X948517Y414971D01*
X953595D01*
X954865Y413702D01*
Y411162D01*
X953595Y409893D01*
X952326D01*
X951056Y411162D01*
Y414971D01*
X947247Y421319D02*
X954865D01*
X951056Y417510D01*
Y422589D01*
X942419Y401006D02*
X943689Y399736D01*
Y397197D01*
X942419Y395927D01*
X937341D01*
X936071Y397197D01*
Y399736D01*
X937341Y401006D01*
X936071Y403545D02*
Y406084D01*
Y404814D01*
X943689D01*
X942419Y403545D01*
X937341Y409893D02*
X936071Y411162D01*
Y413702D01*
X937341Y414971D01*
X942419D01*
X943689Y413702D01*
Y411162D01*
X942419Y409893D01*
X941150D01*
X939880Y411162D01*
Y414971D01*
X942419Y417510D02*
X943689Y418780D01*
Y421319D01*
X942419Y422589D01*
X941150D01*
X939880Y421319D01*
Y420050D01*
Y421319D01*
X938610Y422589D01*
X937341D01*
X936071Y421319D01*
Y418780D01*
X937341Y417510D01*
X931243Y401006D02*
X932513Y399736D01*
Y397197D01*
X931243Y395927D01*
X926165D01*
X924895Y397197D01*
Y399736D01*
X926165Y401006D01*
X924895Y403545D02*
Y406084D01*
Y404814D01*
X932513D01*
X931243Y403545D01*
X926165Y409893D02*
X924895Y411162D01*
Y413702D01*
X926165Y414971D01*
X931243D01*
X932513Y413702D01*
Y411162D01*
X931243Y409893D01*
X929974D01*
X928704Y411162D01*
Y414971D01*
X924895Y422589D02*
Y417510D01*
X929974Y422589D01*
X931243D01*
X932513Y421319D01*
Y418780D01*
X931243Y417510D01*
X847857Y423737D02*
X846588Y422467D01*
X844048D01*
X842779Y423737D01*
Y428815D01*
X844048Y430085D01*
X846588D01*
X847857Y428815D01*
X850396Y430085D02*
X852936D01*
X851666D01*
Y422467D01*
X850396Y423737D01*
X856744Y428815D02*
X858014Y430085D01*
X860553D01*
X861823Y428815D01*
Y423737D01*
X860553Y422467D01*
X858014D01*
X856744Y423737D01*
Y425006D01*
X858014Y426276D01*
X861823D01*
X864362Y430085D02*
X866901D01*
X865631D01*
Y422467D01*
X864362Y423737D01*
X914479Y369510D02*
X915749Y368240D01*
Y365701D01*
X914479Y364431D01*
X909401D01*
X908131Y365701D01*
Y368240D01*
X909401Y369510D01*
X908131Y372049D02*
Y374588D01*
Y373318D01*
X915749D01*
X914479Y372049D01*
X909401Y378397D02*
X908131Y379666D01*
Y382206D01*
X909401Y383475D01*
X914479D01*
X915749Y382206D01*
Y379666D01*
X914479Y378397D01*
X913210D01*
X911940Y379666D01*
Y383475D01*
X914479Y386014D02*
X915749Y387284D01*
Y389823D01*
X914479Y391093D01*
X909401D01*
X908131Y389823D01*
Y387284D01*
X909401Y386014D01*
X914479D01*
X902287Y369256D02*
X903557Y367986D01*
Y365447D01*
X902287Y364177D01*
X897209D01*
X895939Y365447D01*
Y367986D01*
X897209Y369256D01*
X895939Y371795D02*
Y374334D01*
Y373064D01*
X903557D01*
X902287Y371795D01*
Y378143D02*
X903557Y379412D01*
Y381952D01*
X902287Y383221D01*
X901018D01*
X899748Y381952D01*
X898478Y383221D01*
X897209D01*
X895939Y381952D01*
Y379412D01*
X897209Y378143D01*
X898478D01*
X899748Y379412D01*
X901018Y378143D01*
X902287D01*
X899748Y379412D02*
Y381952D01*
X897209Y385760D02*
X895939Y387030D01*
Y389569D01*
X897209Y390839D01*
X902287D01*
X903557Y389569D01*
Y387030D01*
X902287Y385760D01*
X901018D01*
X899748Y387030D01*
Y390839D01*
X890349Y369002D02*
X891619Y367732D01*
Y365193D01*
X890349Y363923D01*
X885271D01*
X884001Y365193D01*
Y367732D01*
X885271Y369002D01*
X884001Y371541D02*
Y374080D01*
Y372811D01*
X891619D01*
X890349Y371541D01*
Y377889D02*
X891619Y379158D01*
Y381698D01*
X890349Y382967D01*
X889080D01*
X887810Y381698D01*
X886540Y382967D01*
X885271D01*
X884001Y381698D01*
Y379158D01*
X885271Y377889D01*
X886540D01*
X887810Y379158D01*
X889080Y377889D01*
X890349D01*
X887810Y379158D02*
Y381698D01*
X890349Y385506D02*
X891619Y386776D01*
Y389315D01*
X890349Y390585D01*
X889080D01*
X887810Y389315D01*
X886540Y390585D01*
X885271D01*
X884001Y389315D01*
Y386776D01*
X885271Y385506D01*
X886540D01*
X887810Y386776D01*
X889080Y385506D01*
X890349D01*
X887810Y386776D02*
Y389315D01*
X557346Y896363D02*
X556077Y895093D01*
X553537D01*
X552268Y896363D01*
Y901441D01*
X553537Y902711D01*
X556077D01*
X557346Y901441D01*
X559885Y902711D02*
X562424D01*
X561155D01*
Y895093D01*
X559885Y896363D01*
X566233Y895093D02*
X571311D01*
Y896363D01*
X566233Y901441D01*
Y902711D01*
X573851Y901441D02*
X575120Y902711D01*
X577659D01*
X578929Y901441D01*
Y896363D01*
X577659Y895093D01*
X575120D01*
X573851Y896363D01*
Y897632D01*
X575120Y898902D01*
X578929D01*
X395898Y987979D02*
X394628Y989249D01*
Y991788D01*
X395898Y993057D01*
X400976D01*
X402246Y991788D01*
Y989249D01*
X400976Y987979D01*
X402246Y985440D02*
Y982901D01*
Y984170D01*
X394628D01*
X395898Y985440D01*
X394628Y979092D02*
Y974014D01*
X395898D01*
X400976Y979092D01*
X402246D01*
X395898Y971474D02*
X394628Y970205D01*
Y967665D01*
X395898Y966396D01*
X397168D01*
X398437Y967665D01*
X399707Y966396D01*
X400976D01*
X402246Y967665D01*
Y970205D01*
X400976Y971474D01*
X399707D01*
X398437Y970205D01*
X397168Y971474D01*
X395898D01*
X398437Y970205D02*
Y967665D01*
X434889Y945437D02*
X433619Y944168D01*
X431080D01*
X429810Y945437D01*
Y950516D01*
X431080Y951785D01*
X433619D01*
X434889Y950516D01*
X437428Y951785D02*
X439967D01*
X438698D01*
Y944168D01*
X437428Y945437D01*
X443776Y944168D02*
X448854D01*
Y945437D01*
X443776Y950516D01*
Y951785D01*
X451394Y944168D02*
X456472D01*
Y945437D01*
X451394Y950516D01*
Y951785D01*
X1049652Y912679D02*
X1048382Y911409D01*
X1045843D01*
X1044573Y912679D01*
Y917757D01*
X1045843Y919027D01*
X1048382D01*
X1049652Y917757D01*
X1052191Y919027D02*
X1054730D01*
X1053460D01*
Y911409D01*
X1052191Y912679D01*
X1058539Y911409D02*
X1063617D01*
Y912679D01*
X1058539Y917757D01*
Y919027D01*
X1066156Y912679D02*
X1067426Y911409D01*
X1069965D01*
X1071235Y912679D01*
Y917757D01*
X1069965Y919027D01*
X1067426D01*
X1066156Y917757D01*
Y912679D01*
X1051551Y885763D02*
X1052821Y887033D01*
X1055360D01*
X1056630Y885763D01*
Y880685D01*
X1055360Y879415D01*
X1052821D01*
X1051551Y880685D01*
X1049012Y879415D02*
X1046473D01*
X1047743D01*
Y887033D01*
X1049012Y885763D01*
X1037586Y887033D02*
X1040125Y885763D01*
X1042664Y883224D01*
Y880685D01*
X1041395Y879415D01*
X1038855D01*
X1037586Y880685D01*
Y881955D01*
X1038855Y883224D01*
X1042664D01*
X1035047Y887033D02*
X1029968D01*
Y885763D01*
X1035047Y880685D01*
Y879415D01*
X1048890Y896931D02*
X1047620Y895661D01*
X1045081D01*
X1043811Y896931D01*
Y902009D01*
X1045081Y903279D01*
X1047620D01*
X1048890Y902009D01*
X1051429Y903279D02*
X1053968D01*
X1052699D01*
Y895661D01*
X1051429Y896931D01*
X1062855Y895661D02*
X1060316Y896931D01*
X1057777Y899470D01*
Y902009D01*
X1059046Y903279D01*
X1061586D01*
X1062855Y902009D01*
Y900740D01*
X1061586Y899470D01*
X1057777D01*
X1069203Y903279D02*
Y895661D01*
X1065394Y899470D01*
X1070473D01*
X1113394Y907323D02*
X1114664Y906053D01*
Y903514D01*
X1113394Y902244D01*
X1108316D01*
X1107046Y903514D01*
Y906053D01*
X1108316Y907323D01*
X1107046Y909862D02*
Y912401D01*
Y911132D01*
X1114664D01*
X1113394Y909862D01*
X1114664Y921288D02*
X1113394Y918749D01*
X1110855Y916210D01*
X1108316D01*
X1107046Y917479D01*
Y920019D01*
X1108316Y921288D01*
X1109586D01*
X1110855Y920019D01*
Y916210D01*
X1113394Y923827D02*
X1114664Y925097D01*
Y927636D01*
X1113394Y928906D01*
X1112125D01*
X1110855Y927636D01*
Y926367D01*
Y927636D01*
X1109586Y928906D01*
X1108316D01*
X1107046Y927636D01*
Y925097D01*
X1108316Y923827D01*
X1085521Y892060D02*
X1084251Y893330D01*
Y895869D01*
X1085521Y897139D01*
X1090599D01*
X1091869Y895869D01*
Y893330D01*
X1090599Y892060D01*
X1091869Y889521D02*
Y886982D01*
Y888252D01*
X1084251D01*
X1085521Y889521D01*
X1084251Y878095D02*
X1085521Y880634D01*
X1088060Y883173D01*
X1090599D01*
X1091869Y881904D01*
Y879364D01*
X1090599Y878095D01*
X1089330D01*
X1088060Y879364D01*
Y883173D01*
X1091869Y870477D02*
Y875556D01*
X1086790Y870477D01*
X1085521D01*
X1084251Y871747D01*
Y874286D01*
X1085521Y875556D01*
X1051809Y866758D02*
X1053079Y868027D01*
X1055618D01*
X1056887Y866758D01*
Y861679D01*
X1055618Y860410D01*
X1053079D01*
X1051809Y861679D01*
X1049270Y860410D02*
X1046731D01*
X1048000D01*
Y868027D01*
X1049270Y866758D01*
X1037844Y868027D02*
X1040383Y866758D01*
X1042922Y864219D01*
Y861679D01*
X1041652Y860410D01*
X1039113D01*
X1037844Y861679D01*
Y862949D01*
X1039113Y864219D01*
X1042922D01*
X1035304Y860410D02*
X1032765D01*
X1034035D01*
Y868027D01*
X1035304Y866758D01*
X1051828Y848501D02*
X1053097Y849771D01*
X1055637D01*
X1056906Y848501D01*
Y843423D01*
X1055637Y842153D01*
X1053097D01*
X1051828Y843423D01*
X1049289Y842153D02*
X1046749D01*
X1048019D01*
Y849771D01*
X1049289Y848501D01*
X1037862Y849771D02*
X1040401Y848501D01*
X1042941Y845962D01*
Y843423D01*
X1041671Y842153D01*
X1039132D01*
X1037862Y843423D01*
Y844692D01*
X1039132Y845962D01*
X1042941D01*
X1035323Y848501D02*
X1034053Y849771D01*
X1031514D01*
X1030245Y848501D01*
Y843423D01*
X1031514Y842153D01*
X1034053D01*
X1035323Y843423D01*
Y848501D01*
X1050675Y829784D02*
X1051945Y831053D01*
X1054484D01*
X1055753Y829784D01*
Y824706D01*
X1054484Y823436D01*
X1051945D01*
X1050675Y824706D01*
X1048136Y823436D02*
X1045597D01*
X1046866D01*
Y831053D01*
X1048136Y829784D01*
X1036710Y831053D02*
X1041788D01*
Y827245D01*
X1039249Y828514D01*
X1037979D01*
X1036710Y827245D01*
Y824706D01*
X1037979Y823436D01*
X1040518D01*
X1041788Y824706D01*
X1034170D02*
X1032901Y823436D01*
X1030361D01*
X1029092Y824706D01*
Y829784D01*
X1030361Y831053D01*
X1032901D01*
X1034170Y829784D01*
Y828514D01*
X1032901Y827245D01*
X1029092D01*
X1051378Y812075D02*
X1052648Y813345D01*
X1055187D01*
X1056456Y812075D01*
Y806997D01*
X1055187Y805727D01*
X1052648D01*
X1051378Y806997D01*
X1048839Y805727D02*
X1046300D01*
X1047569D01*
Y813345D01*
X1048839Y812075D01*
X1037412Y813345D02*
X1042491D01*
Y809536D01*
X1039952Y810806D01*
X1038682D01*
X1037412Y809536D01*
Y806997D01*
X1038682Y805727D01*
X1041221D01*
X1042491Y806997D01*
X1034873Y812075D02*
X1033604Y813345D01*
X1031065D01*
X1029795Y812075D01*
Y810806D01*
X1031065Y809536D01*
X1029795Y808267D01*
Y806997D01*
X1031065Y805727D01*
X1033604D01*
X1034873Y806997D01*
Y808267D01*
X1033604Y809536D01*
X1034873Y810806D01*
Y812075D01*
X1033604Y809536D02*
X1031065D01*
X1159743Y796161D02*
X1158473Y794892D01*
X1155934D01*
X1154665Y796161D01*
Y801240D01*
X1155934Y802509D01*
X1158473D01*
X1159743Y801240D01*
X1162282Y802509D02*
X1164821D01*
X1163552D01*
Y794892D01*
X1162282Y796161D01*
X1173708Y794892D02*
X1168630D01*
Y798701D01*
X1171169Y797431D01*
X1172439D01*
X1173708Y798701D01*
Y801240D01*
X1172439Y802509D01*
X1169900D01*
X1168630Y801240D01*
X1181326Y794892D02*
X1176248D01*
Y798701D01*
X1178787Y797431D01*
X1180056D01*
X1181326Y798701D01*
Y801240D01*
X1180056Y802509D01*
X1177517D01*
X1176248Y801240D01*
X1164649Y824022D02*
X1163379Y822752D01*
X1160840D01*
X1159570Y824022D01*
Y829100D01*
X1160840Y830370D01*
X1163379D01*
X1164649Y829100D01*
X1167188Y830370D02*
X1169727D01*
X1168457D01*
Y822752D01*
X1167188Y824022D01*
X1178614Y822752D02*
X1173536D01*
Y826561D01*
X1176075Y825292D01*
X1177344D01*
X1178614Y826561D01*
Y829100D01*
X1177344Y830370D01*
X1174805D01*
X1173536Y829100D01*
X1184962Y830370D02*
Y822752D01*
X1181153Y826561D01*
X1186232D01*
X1093521Y801831D02*
X1092251Y803100D01*
Y805639D01*
X1093521Y806909D01*
X1098599D01*
X1099869Y805639D01*
Y803100D01*
X1098599Y801831D01*
X1099869Y799291D02*
Y796752D01*
Y798022D01*
X1092251D01*
X1093521Y799291D01*
X1092251Y787865D02*
Y792943D01*
X1096060D01*
X1094790Y790404D01*
Y789135D01*
X1096060Y787865D01*
X1098599D01*
X1099869Y789135D01*
Y791674D01*
X1098599Y792943D01*
X1093521Y785326D02*
X1092251Y784056D01*
Y781517D01*
X1093521Y780247D01*
X1094790D01*
X1096060Y781517D01*
Y782787D01*
Y781517D01*
X1097330Y780247D01*
X1098599D01*
X1099869Y781517D01*
Y784056D01*
X1098599Y785326D01*
X1160336Y921315D02*
X1159066Y920045D01*
X1156527D01*
X1155258Y921315D01*
Y926393D01*
X1156527Y927663D01*
X1159066D01*
X1160336Y926393D01*
X1162875Y927663D02*
X1165415D01*
X1164145D01*
Y920045D01*
X1162875Y921315D01*
X1174302Y920045D02*
X1169223D01*
Y923854D01*
X1171762Y922584D01*
X1173032D01*
X1174302Y923854D01*
Y926393D01*
X1173032Y927663D01*
X1170493D01*
X1169223Y926393D01*
X1181919Y927663D02*
X1176841D01*
X1181919Y922584D01*
Y921315D01*
X1180650Y920045D01*
X1178110D01*
X1176841Y921315D01*
X806114Y774318D02*
X807384Y773049D01*
Y770509D01*
X806114Y769240D01*
X801036D01*
X799766Y770509D01*
Y773049D01*
X801036Y774318D01*
X799766Y776858D02*
Y779397D01*
Y778127D01*
X807384D01*
X806114Y776858D01*
X807384Y788284D02*
Y783205D01*
X803575D01*
X804845Y785745D01*
Y787014D01*
X803575Y788284D01*
X801036D01*
X799766Y787014D01*
Y784475D01*
X801036Y783205D01*
X799766Y790823D02*
Y793362D01*
Y792093D01*
X807384D01*
X806114Y790823D01*
X646540Y705934D02*
X645271Y707204D01*
Y709743D01*
X646540Y711013D01*
X651619D01*
X652888Y709743D01*
Y707204D01*
X651619Y705934D01*
X652888Y703395D02*
Y700856D01*
Y702126D01*
X645271D01*
X646540Y703395D01*
X645271Y691969D02*
Y697047D01*
X649079D01*
X647810Y694508D01*
Y693238D01*
X649079Y691969D01*
X651619D01*
X652888Y693238D01*
Y695778D01*
X651619Y697047D01*
X646540Y689430D02*
X645271Y688160D01*
Y685621D01*
X646540Y684351D01*
X651619D01*
X652888Y685621D01*
Y688160D01*
X651619Y689430D01*
X646540D01*
X833244Y676029D02*
X831974Y674759D01*
X829435D01*
X828165Y676029D01*
Y681107D01*
X829435Y682377D01*
X831974D01*
X833244Y681107D01*
X835783Y682377D02*
X838322D01*
X837053D01*
Y674759D01*
X835783Y676029D01*
X845940Y682377D02*
Y674759D01*
X842131Y678568D01*
X847209D01*
X849748Y681107D02*
X851018Y682377D01*
X853557D01*
X854827Y681107D01*
Y676029D01*
X853557Y674759D01*
X851018D01*
X849748Y676029D01*
Y677299D01*
X851018Y678568D01*
X854827D01*
X695398Y704213D02*
X694128Y702944D01*
X691589D01*
X690319Y704213D01*
Y709292D01*
X691589Y710561D01*
X694128D01*
X695398Y709292D01*
X697937Y710561D02*
X700476D01*
X699206D01*
Y702944D01*
X697937Y704213D01*
X708094Y710561D02*
Y702944D01*
X704285Y706752D01*
X709363D01*
X711902Y704213D02*
X713172Y702944D01*
X715711D01*
X716981Y704213D01*
Y705483D01*
X715711Y706752D01*
X716981Y708022D01*
Y709292D01*
X715711Y710561D01*
X713172D01*
X711902Y709292D01*
Y708022D01*
X713172Y706752D01*
X711902Y705483D01*
Y704213D01*
X713172Y706752D02*
X715711D01*
X744793Y726891D02*
X746062Y728161D01*
X748602D01*
X749871Y726891D01*
Y721813D01*
X748602Y720543D01*
X746062D01*
X744793Y721813D01*
X742254Y720543D02*
X739714D01*
X740984D01*
Y728161D01*
X742254Y726891D01*
X732097Y720543D02*
Y728161D01*
X735906Y724352D01*
X730827D01*
X728288Y728161D02*
X723210D01*
Y726891D01*
X728288Y721813D01*
Y720543D01*
X832006Y716347D02*
X833276Y717617D01*
X835815D01*
X837085Y716347D01*
Y711269D01*
X835815Y709999D01*
X833276D01*
X832006Y711269D01*
X829467Y709999D02*
X826928D01*
X828198D01*
Y717617D01*
X829467Y716347D01*
X819310Y709999D02*
Y717617D01*
X823119Y713808D01*
X818041D01*
X810423Y717617D02*
X812962Y716347D01*
X815502Y713808D01*
Y711269D01*
X814232Y709999D01*
X811693D01*
X810423Y711269D01*
Y712539D01*
X811693Y713808D01*
X815502D01*
X684184Y836367D02*
X682914Y835097D01*
X680375D01*
X679105Y836367D01*
Y841445D01*
X680375Y842715D01*
X682914D01*
X684184Y841445D01*
X686723Y842715D02*
X689262D01*
X687992D01*
Y835097D01*
X686723Y836367D01*
X696880Y842715D02*
Y835097D01*
X693071Y838906D01*
X698149D01*
X705767Y835097D02*
X700688D01*
Y838906D01*
X703227Y837636D01*
X704497D01*
X705767Y838906D01*
Y841445D01*
X704497Y842715D01*
X701958D01*
X700688Y841445D01*
X684053Y809124D02*
X685323Y807855D01*
Y805316D01*
X684053Y804046D01*
X678975D01*
X677705Y805316D01*
Y807855D01*
X678975Y809124D01*
X677705Y811664D02*
Y814203D01*
Y812933D01*
X685323D01*
X684053Y811664D01*
X677705Y821820D02*
X685323D01*
X681514Y818011D01*
Y823090D01*
X677705Y829438D02*
X685323D01*
X681514Y825629D01*
Y830707D01*
X711902Y727089D02*
X713172Y728359D01*
X715711D01*
X716981Y727089D01*
Y722011D01*
X715711Y720741D01*
X713172D01*
X711902Y722011D01*
X709363Y720741D02*
X706824D01*
X708094D01*
Y728359D01*
X709363Y727089D01*
X699206Y720741D02*
Y728359D01*
X703015Y724550D01*
X697937D01*
X695398Y727089D02*
X694128Y728359D01*
X691589D01*
X690319Y727089D01*
Y725820D01*
X691589Y724550D01*
X692859D01*
X691589D01*
X690319Y723280D01*
Y722011D01*
X691589Y720741D01*
X694128D01*
X695398Y722011D01*
X676111Y753551D02*
X674841Y754821D01*
Y757360D01*
X676111Y758630D01*
X681189D01*
X682459Y757360D01*
Y754821D01*
X681189Y753551D01*
X682459Y751012D02*
Y748473D01*
Y749743D01*
X674841D01*
X676111Y751012D01*
X682459Y740855D02*
X674841D01*
X678650Y744664D01*
Y739586D01*
X682459Y731968D02*
Y737047D01*
X677380Y731968D01*
X676111D01*
X674841Y733238D01*
Y735777D01*
X676111Y737047D01*
X639859Y817949D02*
X638589Y819218D01*
Y821758D01*
X639859Y823027D01*
X644937D01*
X646207Y821758D01*
Y819218D01*
X644937Y817949D01*
X646207Y815410D02*
Y812870D01*
Y814140D01*
X638589D01*
X639859Y815410D01*
X646207Y805253D02*
X638589D01*
X642398Y809062D01*
Y803983D01*
X646207Y801444D02*
Y798905D01*
Y800174D01*
X638589D01*
X639859Y801444D01*
X755248Y784404D02*
X753978Y783134D01*
X751439D01*
X750169Y784404D01*
Y789482D01*
X751439Y790752D01*
X753978D01*
X755248Y789482D01*
X757787Y790752D02*
X760326D01*
X759056D01*
Y783134D01*
X757787Y784404D01*
X767943Y790752D02*
Y783134D01*
X764135Y786943D01*
X769213D01*
X771752Y784404D02*
X773022Y783134D01*
X775561D01*
X776831Y784404D01*
Y789482D01*
X775561Y790752D01*
X773022D01*
X771752Y789482D01*
Y784404D01*
X735492Y746489D02*
X734222Y745219D01*
X731683D01*
X730413Y746489D01*
Y751567D01*
X731683Y752837D01*
X734222D01*
X735492Y751567D01*
X738031Y752837D02*
X740570D01*
X739301D01*
Y745219D01*
X738031Y746489D01*
X744379D02*
X745648Y745219D01*
X748188D01*
X749457Y746489D01*
Y747758D01*
X748188Y749028D01*
X746918D01*
X748188D01*
X749457Y750298D01*
Y751567D01*
X748188Y752837D01*
X745648D01*
X744379Y751567D01*
X751996D02*
X753266Y752837D01*
X755805D01*
X757075Y751567D01*
Y746489D01*
X755805Y745219D01*
X753266D01*
X751996Y746489D01*
Y747758D01*
X753266Y749028D01*
X757075D01*
X738385Y826285D02*
X737115Y825015D01*
X734576D01*
X733306Y826285D01*
Y831363D01*
X734576Y832633D01*
X737115D01*
X738385Y831363D01*
X740924Y832633D02*
X743463D01*
X742194D01*
Y825015D01*
X740924Y826285D01*
X747272D02*
X748541Y825015D01*
X751081D01*
X752350Y826285D01*
Y827554D01*
X751081Y828824D01*
X749811D01*
X751081D01*
X752350Y830094D01*
Y831363D01*
X751081Y832633D01*
X748541D01*
X747272Y831363D01*
X754889Y826285D02*
X756159Y825015D01*
X758698D01*
X759968Y826285D01*
Y827554D01*
X758698Y828824D01*
X759968Y830094D01*
Y831363D01*
X758698Y832633D01*
X756159D01*
X754889Y831363D01*
Y830094D01*
X756159Y828824D01*
X754889Y827554D01*
Y826285D01*
X756159Y828824D02*
X758698D01*
X813464Y811219D02*
X814734Y812489D01*
X817273D01*
X818543Y811219D01*
Y806141D01*
X817273Y804871D01*
X814734D01*
X813464Y806141D01*
X810925Y804871D02*
X808386D01*
X809656D01*
Y812489D01*
X810925Y811219D01*
X804577D02*
X803308Y812489D01*
X800768D01*
X799499Y811219D01*
Y809950D01*
X800768Y808680D01*
X802038D01*
X800768D01*
X799499Y807411D01*
Y806141D01*
X800768Y804871D01*
X803308D01*
X804577Y806141D01*
X796960Y812489D02*
X791881D01*
Y811219D01*
X796960Y806141D01*
Y804871D01*
X706189Y775556D02*
X707459Y774286D01*
Y771747D01*
X706189Y770477D01*
X701111D01*
X699841Y771747D01*
Y774286D01*
X701111Y775556D01*
X699841Y778095D02*
Y780634D01*
Y779364D01*
X707459D01*
X706189Y778095D01*
Y784443D02*
X707459Y785712D01*
Y788252D01*
X706189Y789521D01*
X704920D01*
X703650Y788252D01*
Y786982D01*
Y788252D01*
X702380Y789521D01*
X701111D01*
X699841Y788252D01*
Y785712D01*
X701111Y784443D01*
X707459Y797139D02*
X706189Y794600D01*
X703650Y792060D01*
X701111D01*
X699841Y793330D01*
Y795869D01*
X701111Y797139D01*
X702380D01*
X703650Y795869D01*
Y792060D01*
X612935Y762322D02*
X611665Y763592D01*
Y766131D01*
X612935Y767401D01*
X618013D01*
X619283Y766131D01*
Y763592D01*
X618013Y762322D01*
X619283Y759783D02*
Y757244D01*
Y758514D01*
X611665D01*
X612935Y759783D01*
Y753435D02*
X611665Y752166D01*
Y749626D01*
X612935Y748357D01*
X614204D01*
X615474Y749626D01*
Y750896D01*
Y749626D01*
X616744Y748357D01*
X618013D01*
X619283Y749626D01*
Y752166D01*
X618013Y753435D01*
X611665Y740739D02*
Y745818D01*
X615474D01*
X614204Y743279D01*
Y742009D01*
X615474Y740739D01*
X618013D01*
X619283Y742009D01*
Y744548D01*
X618013Y745818D01*
X673770Y658313D02*
X672500Y657043D01*
X669961D01*
X668691Y658313D01*
Y663391D01*
X669961Y664661D01*
X672500D01*
X673770Y663391D01*
X676309Y664661D02*
X678848D01*
X677579D01*
Y657043D01*
X676309Y658313D01*
X682657D02*
X683926Y657043D01*
X686466D01*
X687735Y658313D01*
Y659582D01*
X686466Y660852D01*
X685196D01*
X686466D01*
X687735Y662122D01*
Y663391D01*
X686466Y664661D01*
X683926D01*
X682657Y663391D01*
X694083Y664661D02*
Y657043D01*
X690274Y660852D01*
X695353D01*
X848986Y753993D02*
X850256Y755263D01*
X852795D01*
X854065Y753993D01*
Y748915D01*
X852795Y747645D01*
X850256D01*
X848986Y748915D01*
X846447Y747645D02*
X843908D01*
X845178D01*
Y755263D01*
X846447Y753993D01*
X840099D02*
X838830Y755263D01*
X836290D01*
X835021Y753993D01*
Y752723D01*
X836290Y751454D01*
X837560D01*
X836290D01*
X835021Y750184D01*
Y748915D01*
X836290Y747645D01*
X838830D01*
X840099Y748915D01*
X832482Y753993D02*
X831212Y755263D01*
X828673D01*
X827403Y753993D01*
Y752723D01*
X828673Y751454D01*
X829942D01*
X828673D01*
X827403Y750184D01*
Y748915D01*
X828673Y747645D01*
X831212D01*
X832482Y748915D01*
X899165Y760828D02*
X900434Y759559D01*
Y757019D01*
X899165Y755750D01*
X894087D01*
X892817Y757019D01*
Y759559D01*
X894087Y760828D01*
X892817Y763367D02*
Y765907D01*
Y764637D01*
X900434D01*
X899165Y763367D01*
Y769715D02*
X900434Y770985D01*
Y773524D01*
X899165Y774794D01*
X897895D01*
X896626Y773524D01*
Y772254D01*
Y773524D01*
X895356Y774794D01*
X894087D01*
X892817Y773524D01*
Y770985D01*
X894087Y769715D01*
X892817Y782411D02*
Y777333D01*
X897895Y782411D01*
X899165D01*
X900434Y781142D01*
Y778602D01*
X899165Y777333D01*
X848521Y712923D02*
X847252Y711653D01*
X844713D01*
X843443Y712923D01*
Y718001D01*
X844713Y719271D01*
X847252D01*
X848521Y718001D01*
X851060Y719271D02*
X853600D01*
X852330D01*
Y711653D01*
X851060Y712923D01*
X857408D02*
X858678Y711653D01*
X861217D01*
X862487Y712923D01*
Y714192D01*
X861217Y715462D01*
X859948D01*
X861217D01*
X862487Y716732D01*
Y718001D01*
X861217Y719271D01*
X858678D01*
X857408Y718001D01*
X865026Y719271D02*
X867565D01*
X866295D01*
Y711653D01*
X865026Y712923D01*
X866425Y683334D02*
X867695Y682064D01*
Y679525D01*
X866425Y678255D01*
X861347D01*
X860077Y679525D01*
Y682064D01*
X861347Y683334D01*
X860077Y685873D02*
Y688412D01*
Y687142D01*
X867695D01*
X866425Y685873D01*
Y692221D02*
X867695Y693490D01*
Y696030D01*
X866425Y697299D01*
X865156D01*
X863886Y696030D01*
Y694760D01*
Y696030D01*
X862616Y697299D01*
X861347D01*
X860077Y696030D01*
Y693490D01*
X861347Y692221D01*
X866425Y699838D02*
X867695Y701108D01*
Y703647D01*
X866425Y704917D01*
X861347D01*
X860077Y703647D01*
Y701108D01*
X861347Y699838D01*
X866425D01*
X828073Y807788D02*
X826803Y809058D01*
Y811597D01*
X828073Y812867D01*
X833151D01*
X834421Y811597D01*
Y809058D01*
X833151Y807788D01*
X834421Y805249D02*
Y802710D01*
Y803980D01*
X826803D01*
X828073Y805249D01*
X834421Y793823D02*
Y798901D01*
X829342Y793823D01*
X828073D01*
X826803Y795092D01*
Y797632D01*
X828073Y798901D01*
X833151Y791284D02*
X834421Y790014D01*
Y787475D01*
X833151Y786205D01*
X828073D01*
X826803Y787475D01*
Y790014D01*
X828073Y791284D01*
X829342D01*
X830612Y790014D01*
Y786205D01*
X849538Y857703D02*
X848268Y856433D01*
X845729D01*
X844459Y857703D01*
Y862781D01*
X845729Y864051D01*
X848268D01*
X849538Y862781D01*
X852077Y864051D02*
X854616D01*
X853346D01*
Y856433D01*
X852077Y857703D01*
X863503Y864051D02*
X858425D01*
X863503Y858972D01*
Y857703D01*
X862234Y856433D01*
X859694D01*
X858425Y857703D01*
X866042D02*
X867312Y856433D01*
X869851D01*
X871121Y857703D01*
Y858972D01*
X869851Y860242D01*
X871121Y861512D01*
Y862781D01*
X869851Y864051D01*
X867312D01*
X866042Y862781D01*
Y861512D01*
X867312Y860242D01*
X866042Y858972D01*
Y857703D01*
X867312Y860242D02*
X869851D01*
X850398Y893156D02*
X849128Y891886D01*
X846589D01*
X845319Y893156D01*
Y898234D01*
X846589Y899504D01*
X849128D01*
X850398Y898234D01*
X852937Y899504D02*
X855476D01*
X854206D01*
Y891886D01*
X852937Y893156D01*
X864363Y899504D02*
X859285D01*
X864363Y894426D01*
Y893156D01*
X863094Y891886D01*
X860554D01*
X859285Y893156D01*
X866902Y891886D02*
X871981D01*
Y893156D01*
X866902Y898234D01*
Y899504D01*
X806114Y861298D02*
X807384Y860028D01*
Y857489D01*
X806114Y856219D01*
X801036D01*
X799766Y857489D01*
Y860028D01*
X801036Y861298D01*
X799766Y863837D02*
Y866376D01*
Y865106D01*
X807384D01*
X806114Y863837D01*
X799766Y875263D02*
Y870185D01*
X804845Y875263D01*
X806114D01*
X807384Y873994D01*
Y871454D01*
X806114Y870185D01*
X807384Y882881D02*
X806114Y880341D01*
X803575Y877802D01*
X801036D01*
X799766Y879072D01*
Y881611D01*
X801036Y882881D01*
X802305D01*
X803575Y881611D01*
Y877802D01*
X1170688Y758950D02*
X1171957Y760219D01*
X1174496D01*
X1175766Y758950D01*
Y753872D01*
X1174496Y752602D01*
X1171957D01*
X1170688Y753872D01*
X1168148Y752602D02*
X1165609D01*
X1166879D01*
Y760219D01*
X1168148Y758950D01*
X1156722Y752602D02*
X1161801D01*
X1156722Y757680D01*
Y758950D01*
X1157992Y760219D01*
X1160531D01*
X1161801Y758950D01*
X1149105Y760219D02*
X1154183D01*
Y756411D01*
X1151644Y757680D01*
X1150374D01*
X1149105Y756411D01*
Y753872D01*
X1150374Y752602D01*
X1152913D01*
X1154183Y753872D01*
X767877Y826285D02*
X766607Y825015D01*
X764068D01*
X762798Y826285D01*
Y831363D01*
X764068Y832633D01*
X766607D01*
X767877Y831363D01*
X770416Y832633D02*
X772955D01*
X771685D01*
Y825015D01*
X770416Y826285D01*
X781842Y832633D02*
X776764D01*
X781842Y827554D01*
Y826285D01*
X780573Y825015D01*
X778033D01*
X776764Y826285D01*
X788190Y832633D02*
Y825015D01*
X784381Y828824D01*
X789460D01*
X719698Y867816D02*
X720968Y866546D01*
Y864007D01*
X719698Y862738D01*
X714620D01*
X713350Y864007D01*
Y866546D01*
X714620Y867816D01*
X713350Y870355D02*
Y872895D01*
Y871625D01*
X720968D01*
X719698Y870355D01*
X713350Y881782D02*
Y876703D01*
X718429Y881782D01*
X719698D01*
X720968Y880512D01*
Y877973D01*
X719698Y876703D01*
Y884321D02*
X720968Y885590D01*
Y888130D01*
X719698Y889399D01*
X718429D01*
X717159Y888130D01*
Y886860D01*
Y888130D01*
X715889Y889399D01*
X714620D01*
X713350Y888130D01*
Y885590D01*
X714620Y884321D01*
X813940Y919283D02*
X812670Y918013D01*
X810131D01*
X808861Y919283D01*
Y924361D01*
X810131Y925631D01*
X812670D01*
X813940Y924361D01*
X816479Y925631D02*
X819018D01*
X817748D01*
Y918013D01*
X816479Y919283D01*
X827905Y925631D02*
X822827D01*
X827905Y920552D01*
Y919283D01*
X826636Y918013D01*
X824096D01*
X822827Y919283D01*
X835523Y925631D02*
X830444D01*
X835523Y920552D01*
Y919283D01*
X834253Y918013D01*
X831714D01*
X830444Y919283D01*
X781207Y890975D02*
X782476Y892244D01*
X785015D01*
X786285Y890975D01*
Y885896D01*
X785015Y884627D01*
X782476D01*
X781207Y885896D01*
X778668Y884627D02*
X776128D01*
X777398D01*
Y892244D01*
X778668Y890975D01*
X767241Y884627D02*
X772320D01*
X767241Y889705D01*
Y890975D01*
X768511Y892244D01*
X771050D01*
X772320Y890975D01*
X764702Y884627D02*
X762163D01*
X763432D01*
Y892244D01*
X764702Y890975D01*
X820883Y552444D02*
X819614Y551175D01*
X817075D01*
X815805Y552444D01*
Y557523D01*
X817075Y558792D01*
X819614D01*
X820883Y557523D01*
X823423Y558792D02*
X825962D01*
X824692D01*
Y551175D01*
X823423Y552444D01*
X829771Y558792D02*
X832310D01*
X831040D01*
Y551175D01*
X829771Y552444D01*
X836118D02*
X837388Y551175D01*
X839927D01*
X841197Y552444D01*
Y553714D01*
X839927Y554983D01*
X841197Y556253D01*
Y557523D01*
X839927Y558792D01*
X837388D01*
X836118Y557523D01*
Y556253D01*
X837388Y554983D01*
X836118Y553714D01*
Y552444D01*
X837388Y554983D02*
X839927D01*
X464224Y896631D02*
X462954Y897901D01*
Y900440D01*
X464224Y901710D01*
X469302D01*
X470572Y900440D01*
Y897901D01*
X469302Y896631D01*
X470572Y894092D02*
Y891553D01*
Y892822D01*
X462954D01*
X464224Y894092D01*
X470572Y887744D02*
Y885205D01*
Y886475D01*
X462954D01*
X464224Y887744D01*
X462954Y876318D02*
X464224Y878857D01*
X466763Y881396D01*
X469302D01*
X470572Y880126D01*
Y877587D01*
X469302Y876318D01*
X468033D01*
X466763Y877587D01*
Y881396D01*
X535342Y1039927D02*
X536612Y1038658D01*
Y1036118D01*
X535342Y1034849D01*
X530264D01*
X528994Y1036118D01*
Y1038658D01*
X530264Y1039927D01*
X528994Y1042466D02*
Y1045005D01*
Y1043736D01*
X536612D01*
X535342Y1042466D01*
X528994Y1048814D02*
Y1051353D01*
Y1050084D01*
X536612D01*
X535342Y1048814D01*
X528994Y1058971D02*
X536612D01*
X532803Y1055162D01*
Y1060240D01*
X510168Y1039165D02*
X511438Y1037896D01*
Y1035356D01*
X510168Y1034087D01*
X505090D01*
X503820Y1035356D01*
Y1037896D01*
X505090Y1039165D01*
X503820Y1041704D02*
Y1044243D01*
Y1042974D01*
X511438D01*
X510168Y1041704D01*
X503820Y1048052D02*
Y1050591D01*
Y1049322D01*
X511438D01*
X510168Y1048052D01*
Y1054400D02*
X511438Y1055670D01*
Y1058209D01*
X510168Y1059479D01*
X508899D01*
X507629Y1058209D01*
Y1056939D01*
Y1058209D01*
X506360Y1059479D01*
X505090D01*
X503820Y1058209D01*
Y1055670D01*
X505090Y1054400D01*
X1055595Y491679D02*
X1054326Y492948D01*
Y495488D01*
X1055595Y496757D01*
X1060674D01*
X1061943Y495488D01*
Y492948D01*
X1060674Y491679D01*
X1061943Y489140D02*
Y486601D01*
Y487870D01*
X1054326D01*
X1055595Y489140D01*
X1061943Y482792D02*
Y480253D01*
Y481522D01*
X1054326D01*
X1055595Y482792D01*
X1061943Y476444D02*
Y473905D01*
Y475174D01*
X1054326D01*
X1055595Y476444D01*
X1075344Y622499D02*
X1074074Y621229D01*
X1071535D01*
X1070265Y622499D01*
Y627577D01*
X1071535Y628847D01*
X1074074D01*
X1075344Y627577D01*
X1077883Y628847D02*
X1080422D01*
X1079153D01*
Y621229D01*
X1077883Y622499D01*
X1084231D02*
X1085500Y621229D01*
X1088040D01*
X1089309Y622499D01*
Y627577D01*
X1088040Y628847D01*
X1085500D01*
X1084231Y627577D01*
Y622499D01*
X1095657Y628847D02*
Y621229D01*
X1091848Y625038D01*
X1096927D01*
X1130964Y666439D02*
X1132234Y667709D01*
X1134773D01*
X1136043Y666439D01*
Y661361D01*
X1134773Y660091D01*
X1132234D01*
X1130964Y661361D01*
X1128425Y660091D02*
X1125886D01*
X1127156D01*
Y667709D01*
X1128425Y666439D01*
X1122077D02*
X1120808Y667709D01*
X1118268D01*
X1116999Y666439D01*
Y661361D01*
X1118268Y660091D01*
X1120808D01*
X1122077Y661361D01*
Y666439D01*
X1114460D02*
X1113190Y667709D01*
X1110651D01*
X1109381Y666439D01*
Y665170D01*
X1110651Y663900D01*
X1111920D01*
X1110651D01*
X1109381Y662630D01*
Y661361D01*
X1110651Y660091D01*
X1113190D01*
X1114460Y661361D01*
X1212627Y517218D02*
X1213897Y515948D01*
Y513409D01*
X1212627Y512139D01*
X1207549D01*
X1206279Y513409D01*
Y515948D01*
X1207549Y517218D01*
X1206279Y519757D02*
Y522296D01*
Y521026D01*
X1213897D01*
X1212627Y519757D01*
Y526105D02*
X1213897Y527374D01*
Y529914D01*
X1212627Y531183D01*
X1207549D01*
X1206279Y529914D01*
Y527374D01*
X1207549Y526105D01*
X1212627D01*
Y533722D02*
X1213897Y534992D01*
Y537531D01*
X1212627Y538801D01*
X1207549D01*
X1206279Y537531D01*
Y534992D01*
X1207549Y533722D01*
X1212627D01*
X1180115Y523440D02*
X1181385Y522170D01*
Y519631D01*
X1180115Y518361D01*
X1175037D01*
X1173767Y519631D01*
Y522170D01*
X1175037Y523440D01*
Y525979D02*
X1173767Y527248D01*
Y529788D01*
X1175037Y531057D01*
X1180115D01*
X1181385Y529788D01*
Y527248D01*
X1180115Y525979D01*
X1178846D01*
X1177576Y527248D01*
Y531057D01*
X1175037Y533596D02*
X1173767Y534866D01*
Y537405D01*
X1175037Y538675D01*
X1180115D01*
X1181385Y537405D01*
Y534866D01*
X1180115Y533596D01*
X1178846D01*
X1177576Y534866D01*
Y538675D01*
X922777Y1149404D02*
X921507Y1150674D01*
Y1153213D01*
X922777Y1154483D01*
X927855D01*
X929125Y1153213D01*
Y1150674D01*
X927855Y1149404D01*
Y1146865D02*
X929125Y1145596D01*
Y1143056D01*
X927855Y1141787D01*
X922777D01*
X921507Y1143056D01*
Y1145596D01*
X922777Y1146865D01*
X924046D01*
X925316Y1145596D01*
Y1141787D01*
X922777Y1139248D02*
X921507Y1137978D01*
Y1135439D01*
X922777Y1134169D01*
X924046D01*
X925316Y1135439D01*
X926586Y1134169D01*
X927855D01*
X929125Y1135439D01*
Y1137978D01*
X927855Y1139248D01*
X926586D01*
X925316Y1137978D01*
X924046Y1139248D01*
X922777D01*
X925316Y1137978D02*
Y1135439D01*
X989380Y1190298D02*
X988111Y1191568D01*
Y1194107D01*
X989380Y1195377D01*
X994459D01*
X995729Y1194107D01*
Y1191568D01*
X994459Y1190298D01*
Y1187759D02*
X995729Y1186490D01*
Y1183950D01*
X994459Y1182681D01*
X989380D01*
X988111Y1183950D01*
Y1186490D01*
X989380Y1187759D01*
X990650D01*
X991920Y1186490D01*
Y1182681D01*
X988111Y1180142D02*
Y1175063D01*
X989380D01*
X994459Y1180142D01*
X995729D01*
X989380Y1139498D02*
X988111Y1140768D01*
Y1143307D01*
X989380Y1144577D01*
X994459D01*
X995729Y1143307D01*
Y1140768D01*
X994459Y1139498D01*
Y1136959D02*
X995729Y1135690D01*
Y1133150D01*
X994459Y1131881D01*
X989380D01*
X988111Y1133150D01*
Y1135690D01*
X989380Y1136959D01*
X990650D01*
X991920Y1135690D01*
Y1131881D01*
X988111Y1124263D02*
X989380Y1126803D01*
X991920Y1129342D01*
X994459D01*
X995729Y1128072D01*
Y1125533D01*
X994459Y1124263D01*
X993189D01*
X991920Y1125533D01*
Y1129342D01*
X1363066Y402218D02*
X1364336Y400949D01*
Y398409D01*
X1363066Y397140D01*
X1357988D01*
X1356718Y398409D01*
Y400949D01*
X1357988Y402218D01*
Y404757D02*
X1356718Y406027D01*
Y408566D01*
X1357988Y409836D01*
X1363066D01*
X1364336Y408566D01*
Y406027D01*
X1363066Y404757D01*
X1361797D01*
X1360527Y406027D01*
Y409836D01*
X1356718Y417453D02*
Y412375D01*
X1361797Y417453D01*
X1363066D01*
X1364336Y416184D01*
Y413644D01*
X1363066Y412375D01*
X1317021Y374341D02*
X1318291Y373072D01*
Y370532D01*
X1317021Y369263D01*
X1311943D01*
X1310673Y370532D01*
Y373072D01*
X1311943Y374341D01*
Y376880D02*
X1310673Y378150D01*
Y380689D01*
X1311943Y381959D01*
X1317021D01*
X1318291Y380689D01*
Y378150D01*
X1317021Y376880D01*
X1315752D01*
X1314482Y378150D01*
Y381959D01*
X1310673Y384498D02*
Y387037D01*
Y385768D01*
X1318291D01*
X1317021Y384498D01*
X1422782Y675456D02*
X1424052Y676726D01*
X1426591D01*
X1427861Y675456D01*
Y670378D01*
X1426591Y669108D01*
X1424052D01*
X1422782Y670378D01*
X1420243D02*
X1418973Y669108D01*
X1416434D01*
X1415165Y670378D01*
Y675456D01*
X1416434Y676726D01*
X1418973D01*
X1420243Y675456D01*
Y674187D01*
X1418973Y672917D01*
X1415165D01*
X1412625Y675456D02*
X1411356Y676726D01*
X1408817D01*
X1407547Y675456D01*
Y670378D01*
X1408817Y669108D01*
X1411356D01*
X1412625Y670378D01*
Y675456D01*
X538372Y879137D02*
X537102Y880407D01*
Y882946D01*
X538372Y884215D01*
X543450D01*
X544720Y882946D01*
Y880407D01*
X543450Y879137D01*
X538372Y876598D02*
X537102Y875328D01*
Y872789D01*
X538372Y871520D01*
X539642D01*
X540911Y872789D01*
X542181Y871520D01*
X543450D01*
X544720Y872789D01*
Y875328D01*
X543450Y876598D01*
X542181D01*
X540911Y875328D01*
X539642Y876598D01*
X538372D01*
X540911Y875328D02*
Y872789D01*
X537102Y863902D02*
X538372Y866441D01*
X540911Y868980D01*
X543450D01*
X544720Y867711D01*
Y865172D01*
X543450Y863902D01*
X542181D01*
X540911Y865172D01*
Y868980D01*
X746536Y493077D02*
X747806Y494347D01*
X750345D01*
X751615Y493077D01*
Y487999D01*
X750345Y486729D01*
X747806D01*
X746536Y487999D01*
X743997Y493077D02*
X742728Y494347D01*
X740188D01*
X738919Y493077D01*
Y491808D01*
X740188Y490538D01*
X738919Y489268D01*
Y487999D01*
X740188Y486729D01*
X742728D01*
X743997Y487999D01*
Y489268D01*
X742728Y490538D01*
X743997Y491808D01*
Y493077D01*
X742728Y490538D02*
X740188D01*
X736380Y493077D02*
X735110Y494347D01*
X732571D01*
X731301Y493077D01*
Y491808D01*
X732571Y490538D01*
X733840D01*
X732571D01*
X731301Y489268D01*
Y487999D01*
X732571Y486729D01*
X735110D01*
X736380Y487999D01*
X776254Y493331D02*
X777524Y494601D01*
X780063D01*
X781333Y493331D01*
Y488253D01*
X780063Y486983D01*
X777524D01*
X776254Y488253D01*
X773715Y493331D02*
X772446Y494601D01*
X769906D01*
X768637Y493331D01*
Y492062D01*
X769906Y490792D01*
X768637Y489522D01*
Y488253D01*
X769906Y486983D01*
X772446D01*
X773715Y488253D01*
Y489522D01*
X772446Y490792D01*
X773715Y492062D01*
Y493331D01*
X772446Y490792D02*
X769906D01*
X761019Y486983D02*
X766098D01*
X761019Y492062D01*
Y493331D01*
X762289Y494601D01*
X764828D01*
X766098Y493331D01*
X790703Y639811D02*
X791973Y638542D01*
Y636003D01*
X790703Y634733D01*
X785625D01*
X784355Y636003D01*
Y638542D01*
X785625Y639811D01*
X790703Y642350D02*
X791973Y643620D01*
Y646159D01*
X790703Y647429D01*
X789434D01*
X788164Y646159D01*
X786895Y647429D01*
X785625D01*
X784355Y646159D01*
Y643620D01*
X785625Y642350D01*
X786895D01*
X788164Y643620D01*
X789434Y642350D01*
X790703D01*
X788164Y643620D02*
Y646159D01*
X784355Y649968D02*
Y652507D01*
Y651238D01*
X791973D01*
X790703Y649968D01*
X128824Y822392D02*
X127554Y821123D01*
X125015D01*
X123745Y822392D01*
Y827471D01*
X125015Y828740D01*
X127554D01*
X128824Y827471D01*
X131363Y822392D02*
X132632Y821123D01*
X135172D01*
X136441Y822392D01*
Y823662D01*
X135172Y824931D01*
X136441Y826201D01*
Y827471D01*
X135172Y828740D01*
X132632D01*
X131363Y827471D01*
Y826201D01*
X132632Y824931D01*
X131363Y823662D01*
Y822392D01*
X132632Y824931D02*
X135172D01*
X138980Y822392D02*
X140250Y821123D01*
X142789D01*
X144059Y822392D01*
Y827471D01*
X142789Y828740D01*
X140250D01*
X138980Y827471D01*
Y822392D01*
X143000Y894841D02*
X144270Y896111D01*
X146809D01*
X148079Y894841D01*
Y889763D01*
X146809Y888493D01*
X144270D01*
X143000Y889763D01*
X140461Y896111D02*
X135383D01*
Y894841D01*
X140461Y889763D01*
Y888493D01*
X132844Y889763D02*
X131574Y888493D01*
X129035D01*
X127765Y889763D01*
Y894841D01*
X129035Y896111D01*
X131574D01*
X132844Y894841D01*
Y893572D01*
X131574Y892302D01*
X127765D01*
X215899Y871476D02*
X217169Y870206D01*
Y867667D01*
X215899Y866397D01*
X210821D01*
X209551Y867667D01*
Y870206D01*
X210821Y871476D01*
X217169Y874015D02*
Y879093D01*
X215899D01*
X210821Y874015D01*
X209551D01*
X217169Y881632D02*
Y886711D01*
X215899D01*
X210821Y881632D01*
X209551D01*
X1168650Y872655D02*
X1167380Y871385D01*
X1164841D01*
X1163571Y872655D01*
Y877733D01*
X1164841Y879003D01*
X1167380D01*
X1168650Y877733D01*
X1171189Y871385D02*
X1176267D01*
Y872655D01*
X1171189Y877733D01*
Y879003D01*
X1183885Y871385D02*
X1178806D01*
Y875194D01*
X1181346Y873924D01*
X1182615D01*
X1183885Y875194D01*
Y877733D01*
X1182615Y879003D01*
X1180076D01*
X1178806Y877733D01*
X1163316Y860917D02*
X1162046Y859648D01*
X1159507D01*
X1158237Y860917D01*
Y865996D01*
X1159507Y867265D01*
X1162046D01*
X1163316Y865996D01*
X1165855Y859648D02*
X1170933D01*
Y860917D01*
X1165855Y865996D01*
Y867265D01*
X1177281D02*
Y859648D01*
X1173472Y863457D01*
X1178551D01*
X589819Y867581D02*
X591088Y868851D01*
X593628D01*
X594897Y867581D01*
Y862503D01*
X593628Y861233D01*
X591088D01*
X589819Y862503D01*
X587280Y868851D02*
X582201D01*
Y867581D01*
X587280Y862503D01*
Y861233D01*
X579662D02*
X577123D01*
X578392D01*
Y868851D01*
X579662Y867581D01*
X818830Y419170D02*
X820100Y420440D01*
X822639D01*
X823909Y419170D01*
Y414092D01*
X822639Y412822D01*
X820100D01*
X818830Y414092D01*
X811213Y420440D02*
X813752Y419170D01*
X816291Y416631D01*
Y414092D01*
X815022Y412822D01*
X812483D01*
X811213Y414092D01*
Y415362D01*
X812483Y416631D01*
X816291D01*
X808674Y419170D02*
X807404Y420440D01*
X804865D01*
X803595Y419170D01*
Y417901D01*
X804865Y416631D01*
X803595Y415362D01*
Y414092D01*
X804865Y412822D01*
X807404D01*
X808674Y414092D01*
Y415362D01*
X807404Y416631D01*
X808674Y417901D01*
Y419170D01*
X807404Y416631D02*
X804865D01*
X1406051Y724465D02*
X1404781Y723195D01*
X1402242D01*
X1400972Y724465D01*
Y729543D01*
X1402242Y730813D01*
X1404781D01*
X1406051Y729543D01*
X1413668Y723195D02*
X1411129Y724465D01*
X1408590Y727004D01*
Y729543D01*
X1409859Y730813D01*
X1412399D01*
X1413668Y729543D01*
Y728274D01*
X1412399Y727004D01*
X1408590D01*
X1416207Y723195D02*
X1421286D01*
Y724465D01*
X1416207Y729543D01*
Y730813D01*
X639605Y847869D02*
X638335Y849139D01*
Y851678D01*
X639605Y852947D01*
X644683D01*
X645953Y851678D01*
Y849139D01*
X644683Y847869D01*
X638335Y840252D02*
X639605Y842791D01*
X642144Y845330D01*
X644683D01*
X645953Y844060D01*
Y841521D01*
X644683Y840252D01*
X643414D01*
X642144Y841521D01*
Y845330D01*
X638335Y832634D02*
Y837712D01*
X642144D01*
X640874Y835173D01*
Y833904D01*
X642144Y832634D01*
X644683D01*
X645953Y833904D01*
Y836443D01*
X644683Y837712D01*
X701189Y866485D02*
X702459Y865215D01*
Y862676D01*
X701189Y861406D01*
X696111D01*
X694841Y862676D01*
Y865215D01*
X696111Y866485D01*
X702459Y874102D02*
X701189Y871563D01*
X698650Y869024D01*
X696111D01*
X694841Y870293D01*
Y872833D01*
X696111Y874102D01*
X697380D01*
X698650Y872833D01*
Y869024D01*
X694841Y880450D02*
X702459D01*
X698650Y876641D01*
Y881720D01*
X746753Y914343D02*
X748022Y915613D01*
X750562D01*
X751831Y914343D01*
Y909265D01*
X750562Y907995D01*
X748022D01*
X746753Y909265D01*
X739135Y915613D02*
X741674Y914343D01*
X744213Y911804D01*
Y909265D01*
X742944Y907995D01*
X740405D01*
X739135Y909265D01*
Y910535D01*
X740405Y911804D01*
X744213D01*
X736596Y914343D02*
X735326Y915613D01*
X732787D01*
X731518Y914343D01*
Y913074D01*
X732787Y911804D01*
X734057D01*
X732787D01*
X731518Y910535D01*
Y909265D01*
X732787Y907995D01*
X735326D01*
X736596Y909265D01*
X649762Y916883D02*
X651032Y918153D01*
X653571D01*
X654841Y916883D01*
Y911805D01*
X653571Y910535D01*
X651032D01*
X649762Y911805D01*
X642145Y918153D02*
X644684Y916883D01*
X647223Y914344D01*
Y911805D01*
X645954Y910535D01*
X643414D01*
X642145Y911805D01*
Y913074D01*
X643414Y914344D01*
X647223D01*
X634527Y910535D02*
X639606D01*
X634527Y915614D01*
Y916883D01*
X635797Y918153D01*
X638336D01*
X639606Y916883D01*
X1135118Y891925D02*
X1136388Y893194D01*
X1138927D01*
X1140197Y891925D01*
Y886846D01*
X1138927Y885576D01*
X1136388D01*
X1135118Y886846D01*
X1127501Y893194D02*
X1130040Y891925D01*
X1132579Y889385D01*
Y886846D01*
X1131310Y885576D01*
X1128770D01*
X1127501Y886846D01*
Y888116D01*
X1128770Y889385D01*
X1132579D01*
X1124962Y891925D02*
X1123692Y893194D01*
X1121153D01*
X1119883Y891925D01*
Y886846D01*
X1121153Y885576D01*
X1123692D01*
X1124962Y886846D01*
Y891925D01*
X842600Y575629D02*
X841330Y574359D01*
X838791D01*
X837521Y575629D01*
Y580707D01*
X838791Y581977D01*
X841330D01*
X842600Y580707D01*
X850217Y574359D02*
X845139D01*
Y578168D01*
X847678Y576898D01*
X848948D01*
X850217Y578168D01*
Y580707D01*
X848948Y581977D01*
X846408D01*
X845139Y580707D01*
X852756D02*
X854026Y581977D01*
X856565D01*
X857835Y580707D01*
Y575629D01*
X856565Y574359D01*
X854026D01*
X852756Y575629D01*
Y576898D01*
X854026Y578168D01*
X857835D01*
X1169426Y891799D02*
X1168157Y890529D01*
X1165618D01*
X1164348Y891799D01*
Y896877D01*
X1165618Y898147D01*
X1168157D01*
X1169426Y896877D01*
X1177044Y890529D02*
X1171965D01*
Y894338D01*
X1174505Y893069D01*
X1175774D01*
X1177044Y894338D01*
Y896877D01*
X1175774Y898147D01*
X1173235D01*
X1171965Y896877D01*
X1179583Y891799D02*
X1180853Y890529D01*
X1183392D01*
X1184661Y891799D01*
Y893069D01*
X1183392Y894338D01*
X1184661Y895608D01*
Y896877D01*
X1183392Y898147D01*
X1180853D01*
X1179583Y896877D01*
Y895608D01*
X1180853Y894338D01*
X1179583Y893069D01*
Y891799D01*
X1180853Y894338D02*
X1183392D01*
X1162338Y907741D02*
X1161068Y906471D01*
X1158529D01*
X1157259Y907741D01*
Y912819D01*
X1158529Y914089D01*
X1161068D01*
X1162338Y912819D01*
X1169955Y906471D02*
X1164877D01*
Y910280D01*
X1167416Y909010D01*
X1168686D01*
X1169955Y910280D01*
Y912819D01*
X1168686Y914089D01*
X1166146D01*
X1164877Y912819D01*
X1172494Y906471D02*
X1177573D01*
Y907741D01*
X1172494Y912819D01*
Y914089D01*
X865916Y605733D02*
X867186Y607003D01*
X869725D01*
X870995Y605733D01*
Y600655D01*
X869725Y599385D01*
X867186D01*
X865916Y600655D01*
X858299Y607003D02*
X863377D01*
Y603194D01*
X860838Y604464D01*
X859568D01*
X858299Y603194D01*
Y600655D01*
X859568Y599385D01*
X862108D01*
X863377Y600655D01*
X850681Y607003D02*
X853220Y605733D01*
X855760Y603194D01*
Y600655D01*
X854490Y599385D01*
X851951D01*
X850681Y600655D01*
Y601925D01*
X851951Y603194D01*
X855760D01*
X760641Y982145D02*
X759371Y983415D01*
Y985954D01*
X760641Y987224D01*
X765719D01*
X766989Y985954D01*
Y983415D01*
X765719Y982145D01*
X766989Y975797D02*
X759371D01*
X763180Y979606D01*
Y974528D01*
X760641Y971989D02*
X759371Y970719D01*
Y968180D01*
X760641Y966910D01*
X765719D01*
X766989Y968180D01*
Y970719D01*
X765719Y971989D01*
X760641D01*
X805976Y756611D02*
X804706Y755341D01*
X802167D01*
X800897Y756611D01*
Y761689D01*
X802167Y762959D01*
X804706D01*
X805976Y761689D01*
X808515Y756611D02*
X809784Y755341D01*
X812324D01*
X813593Y756611D01*
Y757880D01*
X812324Y759150D01*
X811054D01*
X812324D01*
X813593Y760420D01*
Y761689D01*
X812324Y762959D01*
X809784D01*
X808515Y761689D01*
X821211Y755341D02*
X816132D01*
Y759150D01*
X818672Y757880D01*
X819941D01*
X821211Y759150D01*
Y761689D01*
X819941Y762959D01*
X817402D01*
X816132Y761689D01*
X786114Y740483D02*
X787384Y739213D01*
Y736674D01*
X786114Y735404D01*
X781036D01*
X779766Y736674D01*
Y739213D01*
X781036Y740483D01*
X786114Y743022D02*
X787384Y744292D01*
Y746831D01*
X786114Y748100D01*
X784845D01*
X783575Y746831D01*
Y745561D01*
Y746831D01*
X782305Y748100D01*
X781036D01*
X779766Y746831D01*
Y744292D01*
X781036Y743022D01*
X779766Y754448D02*
X787384D01*
X783575Y750639D01*
Y755718D01*
X762542Y676855D02*
X761272Y675585D01*
X758733D01*
X757463Y676855D01*
Y681933D01*
X758733Y683203D01*
X761272D01*
X762542Y681933D01*
X765081Y676855D02*
X766350Y675585D01*
X768890D01*
X770159Y676855D01*
Y678124D01*
X768890Y679394D01*
X767620D01*
X768890D01*
X770159Y680664D01*
Y681933D01*
X768890Y683203D01*
X766350D01*
X765081Y681933D01*
X772698Y676855D02*
X773968Y675585D01*
X776507D01*
X777777Y676855D01*
Y678124D01*
X776507Y679394D01*
X775238D01*
X776507D01*
X777777Y680664D01*
Y681933D01*
X776507Y683203D01*
X773968D01*
X772698Y681933D01*
X1171062Y961190D02*
X1169792Y962460D01*
Y964999D01*
X1171062Y966269D01*
X1176140D01*
X1177410Y964999D01*
Y962460D01*
X1176140Y961190D01*
X1171062Y958651D02*
X1169792Y957382D01*
Y954842D01*
X1171062Y953573D01*
X1172331D01*
X1173601Y954842D01*
Y956112D01*
Y954842D01*
X1174871Y953573D01*
X1176140D01*
X1177410Y954842D01*
Y957382D01*
X1176140Y958651D01*
X1171062Y951034D02*
X1169792Y949764D01*
Y947225D01*
X1171062Y945955D01*
X1176140D01*
X1177410Y947225D01*
Y949764D01*
X1176140Y951034D01*
X1171062D01*
X1076702Y956367D02*
X1075432Y955097D01*
X1072893D01*
X1071623Y956367D01*
Y961445D01*
X1072893Y962715D01*
X1075432D01*
X1076702Y961445D01*
X1084319Y962715D02*
X1079241D01*
X1084319Y957636D01*
Y956367D01*
X1083050Y955097D01*
X1080510D01*
X1079241Y956367D01*
X1086858D02*
X1088128Y955097D01*
X1090667D01*
X1091937Y956367D01*
Y957636D01*
X1090667Y958906D01*
X1091937Y960176D01*
Y961445D01*
X1090667Y962715D01*
X1088128D01*
X1086858Y961445D01*
Y960176D01*
X1088128Y958906D01*
X1086858Y957636D01*
Y956367D01*
X1088128Y958906D02*
X1090667D01*
X1086604Y984051D02*
X1087874Y985321D01*
X1090413D01*
X1091683Y984051D01*
Y978973D01*
X1090413Y977703D01*
X1087874D01*
X1086604Y978973D01*
X1078987Y977703D02*
X1084065D01*
X1078987Y982782D01*
Y984051D01*
X1080256Y985321D01*
X1082796D01*
X1084065Y984051D01*
X1076448Y985321D02*
X1071369D01*
Y984051D01*
X1076448Y978973D01*
Y977703D01*
X836372Y667201D02*
X837642Y668471D01*
X840181D01*
X841451Y667201D01*
Y662123D01*
X840181Y660853D01*
X837642D01*
X836372Y662123D01*
X828755Y660853D02*
X833833D01*
X828755Y665932D01*
Y667201D01*
X830024Y668471D01*
X832564D01*
X833833Y667201D01*
X821137Y668471D02*
X826216D01*
Y664662D01*
X823677Y665932D01*
X822407D01*
X821137Y664662D01*
Y662123D01*
X822407Y660853D01*
X824946D01*
X826216Y662123D01*
X849536Y791677D02*
X848266Y792946D01*
Y795485D01*
X849536Y796755D01*
X854614D01*
X855884Y795485D01*
Y792946D01*
X854614Y791677D01*
X855884Y789137D02*
Y786598D01*
Y787868D01*
X848266D01*
X849536Y789137D01*
Y782789D02*
X848266Y781520D01*
Y778981D01*
X849536Y777711D01*
X850805D01*
X852075Y778981D01*
Y780250D01*
Y778981D01*
X853345Y777711D01*
X854614D01*
X855884Y778981D01*
Y781520D01*
X854614Y782789D01*
X866681Y825570D02*
X865411Y826839D01*
Y829378D01*
X866681Y830648D01*
X871759D01*
X873029Y829378D01*
Y826839D01*
X871759Y825570D01*
X873029Y823030D02*
Y820491D01*
Y821761D01*
X865411D01*
X866681Y823030D01*
X873029Y811604D02*
Y816682D01*
X867950Y811604D01*
X866681D01*
X865411Y812874D01*
Y815413D01*
X866681Y816682D01*
X862107Y841066D02*
X863377Y839797D01*
Y837257D01*
X862107Y835988D01*
X857029D01*
X855759Y837257D01*
Y839797D01*
X857029Y841066D01*
X855759Y843605D02*
Y846144D01*
Y844875D01*
X863377D01*
X862107Y843605D01*
X855759Y849953D02*
Y852492D01*
Y851223D01*
X863377D01*
X862107Y849953D01*
X199516Y832865D02*
X200785Y834135D01*
X203324D01*
X204594Y832865D01*
Y827787D01*
X203324Y826517D01*
X200785D01*
X199516Y827787D01*
X196976Y826517D02*
X194437D01*
X195707D01*
Y834135D01*
X196976Y832865D01*
X190628D02*
X189359Y834135D01*
X186820D01*
X185550Y832865D01*
Y827787D01*
X186820Y826517D01*
X189359D01*
X190628Y827787D01*
Y832865D01*
X1220658Y681933D02*
X1221927Y683203D01*
X1224466D01*
X1225736Y681933D01*
Y676855D01*
X1224466Y675585D01*
X1221927D01*
X1220658Y676855D01*
X1218118D02*
X1216849Y675585D01*
X1214310D01*
X1213040Y676855D01*
Y681933D01*
X1214310Y683203D01*
X1216849D01*
X1218118Y681933D01*
Y680664D01*
X1216849Y679394D01*
X1213040D01*
X1183291Y649931D02*
X1182022Y648661D01*
X1179483D01*
X1178213Y649931D01*
Y655009D01*
X1179483Y656279D01*
X1182022D01*
X1183291Y655009D01*
X1185831Y649931D02*
X1187100Y648661D01*
X1189639D01*
X1190909Y649931D01*
Y651200D01*
X1189639Y652470D01*
X1190909Y653740D01*
Y655009D01*
X1189639Y656279D01*
X1187100D01*
X1185831Y655009D01*
Y653740D01*
X1187100Y652470D01*
X1185831Y651200D01*
Y649931D01*
X1187100Y652470D02*
X1189639D01*
X1256189Y655454D02*
X1257458Y656723D01*
X1259997D01*
X1261267Y655454D01*
Y650375D01*
X1259997Y649106D01*
X1257458D01*
X1256189Y650375D01*
X1253649Y656723D02*
X1248571D01*
Y655454D01*
X1253649Y650375D01*
Y649106D01*
D18*
X238534Y769282D02*
X242935D01*
Y765981D01*
X240734D01*
X242935D01*
Y762680D01*
X236333Y769282D02*
X234132D01*
X235233D01*
Y762680D01*
X236333D01*
X234132D01*
X230832Y769282D02*
Y762680D01*
X227531D01*
X226430Y763780D01*
Y768182D01*
X227531Y769282D01*
X230832D01*
X219828Y762680D02*
X224230D01*
X219828Y767081D01*
Y768182D01*
X220929Y769282D01*
X223129D01*
X224230Y768182D01*
X1543203Y462196D02*
X1547604D01*
Y458895D01*
X1545403D01*
X1547604D01*
Y455594D01*
X1541002Y462196D02*
X1538802D01*
X1539902D01*
Y455594D01*
X1541002D01*
X1538802D01*
X1535501Y462196D02*
Y455594D01*
X1532200D01*
X1531099Y456694D01*
Y461096D01*
X1532200Y462196D01*
X1535501D01*
X1528899Y461096D02*
X1527798Y462196D01*
X1525598D01*
X1524498Y461096D01*
Y459995D01*
X1525598Y458895D01*
X1526698D01*
X1525598D01*
X1524498Y457795D01*
Y456694D01*
X1525598Y455594D01*
X1527798D01*
X1528899Y456694D01*
X176175Y1062652D02*
X180576D01*
Y1059351D01*
X178375D01*
X180576D01*
Y1056050D01*
X173974Y1062652D02*
X171773D01*
X172874D01*
Y1056050D01*
X173974D01*
X171773D01*
X168473Y1062652D02*
Y1056050D01*
X165172D01*
X164071Y1057150D01*
Y1061552D01*
X165172Y1062652D01*
X168473D01*
X161871Y1056050D02*
X159670D01*
X160770D01*
Y1062652D01*
X161871Y1061552D01*
D19*
X597694Y815258D02*
X612934D01*
Y786556D02*
Y815258D01*
X597694Y786556D02*
X612934D01*
X597694D02*
Y815258D01*
X1147449Y715264D02*
Y743966D01*
Y715264D02*
X1162689D01*
Y743966D01*
X1147449D02*
X1162689D01*
X126619Y884682D02*
X155321D01*
X126619Y869442D02*
Y884682D01*
Y869442D02*
X155321D01*
Y884682D01*
X123615Y847283D02*
X152317D01*
X123615Y832043D02*
Y847283D01*
Y832043D02*
X152317D01*
Y847283D01*
X406565Y966138D02*
Y994840D01*
Y966138D02*
X421805D01*
Y994840D01*
X406565D02*
X421805D01*
X650272Y828440D02*
X665512D01*
X650272D02*
Y857142D01*
X665512D01*
Y828440D02*
Y857142D01*
X1136682Y415234D02*
Y430474D01*
X1165384D01*
Y415234D02*
Y430474D01*
X1136682Y415234D02*
X1165384D01*
X1204119Y357450D02*
X1219359D01*
X1204119D02*
Y386152D01*
X1219359D01*
Y357450D02*
Y386152D01*
X1185792Y349957D02*
X1201032D01*
X1185792D02*
Y378659D01*
X1201032D01*
Y349957D02*
Y378659D01*
X1233583Y447746D02*
Y462986D01*
X1204881Y447746D02*
X1233583D01*
X1204881D02*
Y462986D01*
X1233583D01*
X567638Y856008D02*
X596340D01*
X567638Y840768D02*
Y856008D01*
Y840768D02*
X596340D01*
Y856008D01*
X676030Y859457D02*
X691270D01*
X676030D02*
Y888159D01*
X691270D01*
Y859457D02*
Y888159D01*
X761030Y759912D02*
X776270D01*
Y731210D02*
Y759912D01*
X761030Y731210D02*
X776270D01*
X761030D02*
Y759912D01*
X823001Y736188D02*
Y751428D01*
X794299Y736188D02*
X823001D01*
X794299D02*
Y751428D01*
X823001D01*
X1182148Y605734D02*
X1197388D01*
X1182148D02*
Y634436D01*
X1197388D01*
Y605734D02*
Y634436D01*
X1176941Y604718D02*
Y619958D01*
X1148239Y604718D02*
X1176941D01*
X1148239D02*
Y619958D01*
X1176941D01*
X1427512Y735132D02*
Y750372D01*
X1398810Y735132D02*
X1427512D01*
X1398810D02*
Y750372D01*
X1427512D01*
X626030Y689457D02*
X641270D01*
X626030D02*
Y718159D01*
X641270D01*
Y689457D02*
Y718159D01*
X671030Y699894D02*
X686270D01*
X671030D02*
Y728596D01*
X686270D01*
Y699894D02*
Y728596D01*
X800005Y837014D02*
Y852254D01*
X771303Y837014D02*
X800005D01*
X771303D02*
Y852254D01*
X800005D01*
X756571Y836188D02*
Y851428D01*
X727869Y836188D02*
X756571D01*
X727869D02*
Y851428D01*
X756571D01*
X820325Y815985D02*
Y831225D01*
X791623Y815985D02*
X820325D01*
X791623D02*
Y831225D01*
X820325D01*
X822484Y816173D02*
X837724D01*
X822484D02*
Y844875D01*
X837724D01*
Y816173D02*
Y844875D01*
X711030Y830283D02*
X726270D01*
X711030D02*
Y858985D01*
X726270D01*
Y830283D02*
Y858985D01*
X1089998Y778724D02*
Y807426D01*
X1074759D02*
X1089998D01*
X1074759Y778724D02*
Y807426D01*
Y778724D02*
X1089998D01*
X844299Y867574D02*
Y882814D01*
X873001D01*
Y867574D02*
Y882814D01*
X844299Y867574D02*
X873001D01*
X874020Y754221D02*
X889260D01*
X874020D02*
Y782924D01*
X889260D01*
Y754221D02*
Y782924D01*
X777851Y796188D02*
Y811428D01*
X749149Y796188D02*
X777851D01*
X749149D02*
Y811428D01*
X777851D01*
X855085Y758614D02*
Y773854D01*
X826383Y758614D02*
X855085D01*
X826383D02*
Y773854D01*
X855085D01*
X760988Y756188D02*
Y771428D01*
X732286Y756188D02*
X760988D01*
X732286D02*
Y771428D01*
X760988D01*
X754153Y716188D02*
Y731428D01*
X782855D01*
Y716188D02*
Y731428D01*
X754153Y716188D02*
X782855D01*
X781030Y788159D02*
X796270D01*
Y759457D02*
Y788159D01*
X781030Y759457D02*
X796270D01*
X781030D02*
Y788159D01*
X809403Y721408D02*
Y736648D01*
X838105D01*
Y721408D02*
Y736648D01*
X809403Y721408D02*
X838105D01*
X855085Y686188D02*
Y701428D01*
X826383Y686188D02*
X855085D01*
X826383D02*
Y701428D01*
X855085D01*
D230*
X336908Y1035831D02*
Y1044972D01*
X333861Y1041925D01*
X330814Y1044972D01*
Y1035831D01*
X326244Y1041925D02*
X323196D01*
X321673Y1040401D01*
Y1035831D01*
X326244D01*
X327767Y1037354D01*
X326244Y1038878D01*
X321673D01*
X317103Y1043448D02*
Y1041925D01*
X318626D01*
X315579D01*
X317103D01*
Y1037354D01*
X315579Y1035831D01*
X311008Y1044972D02*
Y1035831D01*
Y1040401D01*
X309485Y1041925D01*
X306438D01*
X304914Y1040401D01*
Y1035831D01*
X301867Y1041925D02*
Y1037354D01*
X300344Y1035831D01*
X295773D01*
Y1034307D01*
X297297Y1032784D01*
X298820D01*
X295773Y1035831D02*
Y1041925D01*
X292726Y1035831D02*
X288156D01*
X286632Y1037354D01*
X288156Y1038878D01*
X291203D01*
X292726Y1040401D01*
X291203Y1041925D01*
X286632D01*
X274444Y1035831D02*
Y1044972D01*
X269874D01*
X268350Y1043448D01*
Y1040401D01*
X269874Y1038878D01*
X274444D01*
X265303Y1035831D02*
X262256D01*
X263780D01*
Y1044972D01*
X265303D01*
X256162Y1041925D02*
X253115D01*
X251592Y1040401D01*
Y1035831D01*
X256162D01*
X257686Y1037354D01*
X256162Y1038878D01*
X251592D01*
X248545Y1035831D02*
Y1041925D01*
X243974D01*
X242451Y1040401D01*
Y1035831D01*
X237880Y1043448D02*
Y1041925D01*
X239403D01*
X236357D01*
X237880D01*
Y1037354D01*
X236357Y1035831D01*
X227215D02*
X230263D01*
X231786Y1037354D01*
Y1040401D01*
X230263Y1041925D01*
X227215D01*
X225692Y1040401D01*
Y1038878D01*
X231786D01*
X318626Y1016938D02*
X321673Y1019985D01*
Y1023032D01*
X318626Y1026079D01*
X314056Y1016938D02*
Y1026079D01*
X309485D01*
X307962Y1024555D01*
Y1021508D01*
X309485Y1019985D01*
X314056D01*
X304914Y1026079D02*
Y1016938D01*
X298820D01*
X295773D02*
Y1023032D01*
X292726Y1026079D01*
X289679Y1023032D01*
Y1016938D01*
Y1021508D01*
X295773D01*
X286632Y1016938D02*
Y1026079D01*
X283585Y1023032D01*
X280538Y1026079D01*
Y1016938D01*
X277491D02*
X274444D01*
X275968D01*
Y1026079D01*
X277491Y1024555D01*
X269874D02*
X268350Y1026079D01*
X265303D01*
X263780Y1024555D01*
Y1018461D01*
X265303Y1016938D01*
X268350D01*
X269874Y1018461D01*
Y1024555D01*
X260733D02*
X259209Y1026079D01*
X256162D01*
X254639Y1024555D01*
Y1018461D01*
X256162Y1016938D01*
X259209D01*
X260733Y1018461D01*
Y1024555D01*
X251592Y1016938D02*
X248545D01*
X250068D01*
Y1026079D01*
X251592Y1024555D01*
X243974Y1016938D02*
X240927Y1019985D01*
Y1023032D01*
X243974Y1026079D01*
X348811Y994843D02*
Y1003984D01*
X344240D01*
X342717Y1002460D01*
Y999413D01*
X344240Y997890D01*
X348811D01*
X345764D02*
X342717Y994843D01*
X335099D02*
X338146D01*
X339670Y996366D01*
Y999413D01*
X338146Y1000937D01*
X335099D01*
X333576Y999413D01*
Y997890D01*
X339670D01*
X330529Y991796D02*
X329005D01*
X327482Y993319D01*
Y1000937D01*
X316817Y994843D02*
X319864D01*
X321388Y996366D01*
Y999413D01*
X319864Y1000937D01*
X316817D01*
X315294Y999413D01*
Y997890D01*
X321388D01*
X310723Y1000937D02*
X307676D01*
X306153Y999413D01*
Y994843D01*
X310723D01*
X312247Y996366D01*
X310723Y997890D01*
X306153D01*
X303106Y994843D02*
Y1000937D01*
X298535D01*
X297012Y999413D01*
Y994843D01*
X278729Y1003984D02*
X284823D01*
Y999413D01*
X281777D01*
X284823D01*
Y994843D01*
X274159D02*
X271112D01*
X269589Y996366D01*
Y999413D01*
X271112Y1000937D01*
X274159D01*
X275683Y999413D01*
Y996366D01*
X274159Y994843D01*
X266541D02*
Y1000937D01*
X261971D01*
X260447Y999413D01*
Y994843D01*
X255877Y1002460D02*
Y1000937D01*
X257400D01*
X254353D01*
X255877D01*
Y996366D01*
X254353Y994843D01*
X248259Y1000937D02*
X245212D01*
X243689Y999413D01*
Y994843D01*
X248259D01*
X249783Y996366D01*
X248259Y997890D01*
X243689D01*
X240642Y994843D02*
X237595D01*
X239118D01*
Y1000937D01*
X240642D01*
X233024Y994843D02*
Y1000937D01*
X228454D01*
X226930Y999413D01*
Y994843D01*
X219313D02*
X222360D01*
X223883Y996366D01*
Y999413D01*
X222360Y1000937D01*
X219313D01*
X217789Y999413D01*
Y997890D01*
X223883D01*
X360487Y1071646D02*
Y1080787D01*
X357440Y1077740D01*
X354393Y1080787D01*
Y1071646D01*
X349822Y1077740D02*
X346775D01*
X345252Y1076216D01*
Y1071646D01*
X349822D01*
X351346Y1073169D01*
X349822Y1074693D01*
X345252D01*
X340681Y1079263D02*
Y1077740D01*
X342205D01*
X339158D01*
X340681D01*
Y1073169D01*
X339158Y1071646D01*
X334587Y1080787D02*
Y1071646D01*
Y1076216D01*
X333064Y1077740D01*
X330017D01*
X328493Y1076216D01*
Y1071646D01*
X325446D02*
X322399D01*
X323923D01*
Y1077740D01*
X325446D01*
X313258Y1071646D02*
X316305D01*
X317829Y1073169D01*
Y1076216D01*
X316305Y1077740D01*
X313258D01*
X311735Y1076216D01*
Y1074693D01*
X317829D01*
X308687Y1077740D02*
Y1073169D01*
X307164Y1071646D01*
X302593D01*
Y1077740D01*
X290405Y1080787D02*
Y1071646D01*
X285835D01*
X284311Y1073169D01*
Y1079263D01*
X285835Y1080787D01*
X290405D01*
X276694Y1071646D02*
X279741D01*
X281264Y1073169D01*
Y1076216D01*
X279741Y1077740D01*
X276694D01*
X275170Y1076216D01*
Y1074693D01*
X281264D01*
X272123Y1071646D02*
X267553D01*
X266029Y1073169D01*
X267553Y1074693D01*
X270600D01*
X272123Y1076216D01*
X270600Y1077740D01*
X266029D01*
X261459D02*
X258412D01*
X256888Y1076216D01*
Y1071646D01*
X261459D01*
X262982Y1073169D01*
X261459Y1074693D01*
X256888D01*
X253841Y1077740D02*
Y1073169D01*
X252318Y1071646D01*
X247747D01*
Y1077740D01*
X243177Y1079263D02*
Y1077740D01*
X244700D01*
X241653D01*
X243177D01*
Y1073169D01*
X241653Y1071646D01*
X232512D02*
X235559D01*
X237083Y1073169D01*
Y1076216D01*
X235559Y1077740D01*
X232512D01*
X230989Y1076216D01*
Y1074693D01*
X237083D01*
X227941Y1071646D02*
X224895D01*
X226418D01*
Y1080787D01*
X227941D01*
X220324Y1071646D02*
X215753D01*
X214230Y1073169D01*
X215753Y1074693D01*
X218800D01*
X220324Y1076216D01*
X218800Y1077740D01*
X214230D01*
X324684Y1055800D02*
X327731Y1058847D01*
Y1061894D01*
X324684Y1064941D01*
X320114D02*
Y1055800D01*
X315543D01*
X314020Y1057323D01*
Y1063417D01*
X315543Y1064941D01*
X320114D01*
X304879D02*
X310973D01*
Y1055800D01*
X304879D01*
X310973Y1060370D02*
X307926D01*
X295738Y1063417D02*
X297261Y1064941D01*
X300308D01*
X301832Y1063417D01*
Y1061894D01*
X300308Y1060370D01*
X297261D01*
X295738Y1058847D01*
Y1057323D01*
X297261Y1055800D01*
X300308D01*
X301832Y1057323D01*
X292691Y1055800D02*
Y1064941D01*
X289644Y1061894D01*
X286597Y1064941D01*
Y1055800D01*
X283549D02*
X280502D01*
X282026D01*
Y1064941D01*
X283549Y1063417D01*
X269838Y1055800D02*
X275932D01*
X269838Y1061894D01*
Y1063417D01*
X271362Y1064941D01*
X274408D01*
X275932Y1063417D01*
X266791Y1055800D02*
X263744D01*
X265267D01*
Y1064941D01*
X266791Y1063417D01*
X259173D02*
X257650Y1064941D01*
X254603D01*
X253079Y1063417D01*
Y1057323D01*
X254603Y1055800D01*
X257650D01*
X259173Y1057323D01*
Y1063417D01*
X250032Y1055800D02*
X246985Y1058847D01*
Y1061894D01*
X250032Y1064941D01*
D278*
X240328Y940607D02*
X237789D01*
X239059D01*
Y948224D01*
X240328Y946955D01*
X233980Y940607D02*
Y941876D01*
X232711D01*
Y940607D01*
X233980D01*
X227632Y946955D02*
X226363Y948224D01*
X223824D01*
X222554Y946955D01*
Y941876D01*
X223824Y940607D01*
X226363D01*
X227632Y941876D01*
Y946955D01*
X220015D02*
X218745Y948224D01*
X216206D01*
X214936Y946955D01*
Y941876D01*
X216206Y940607D01*
X218745D01*
X220015Y941876D01*
Y946955D01*
X366014Y939494D02*
Y947111D01*
X362205D01*
X360936Y945842D01*
Y943302D01*
X362205Y942033D01*
X366014D01*
X363475D02*
X360936Y939494D01*
X354588D02*
X357127D01*
X358396Y940763D01*
Y943302D01*
X357127Y944572D01*
X354588D01*
X353318Y943302D01*
Y942033D01*
X358396D01*
X350779Y944572D02*
X348240Y939494D01*
X345701Y944572D01*
X343161Y939494D02*
X340622D01*
X341892D01*
Y944572D01*
X343161D01*
X336813Y939494D02*
X333005D01*
X331735Y940763D01*
X333005Y942033D01*
X335544D01*
X336813Y943302D01*
X335544Y944572D01*
X331735D01*
X329196Y939494D02*
X326657D01*
X327926D01*
Y944572D01*
X329196D01*
X321578Y939494D02*
X319039D01*
X317770Y940763D01*
Y943302D01*
X319039Y944572D01*
X321578D01*
X322848Y943302D01*
Y940763D01*
X321578Y939494D01*
X315230D02*
Y944572D01*
X311422D01*
X310152Y943302D01*
Y939494D01*
D283*
X359101Y1103432D02*
Y1094291D01*
X354531D01*
X353007Y1095815D01*
Y1101909D01*
X354531Y1103432D01*
X359101D01*
X345390Y1094291D02*
X348437D01*
X349960Y1095815D01*
Y1098862D01*
X348437Y1100385D01*
X345390D01*
X343866Y1098862D01*
Y1097338D01*
X349960D01*
X340819Y1094291D02*
X336249D01*
X334725Y1095815D01*
X336249Y1097338D01*
X339296D01*
X340819Y1098862D01*
X339296Y1100385D01*
X334725D01*
X331678Y1094291D02*
X328631D01*
X330155D01*
Y1100385D01*
X331678D01*
X321014Y1091244D02*
X319490D01*
X317967Y1092768D01*
Y1100385D01*
X322537D01*
X324061Y1098862D01*
Y1095815D01*
X322537Y1094291D01*
X317967D01*
X314920D02*
Y1100385D01*
X310349D01*
X308826Y1098862D01*
Y1094291D01*
X301208D02*
X304255D01*
X305779Y1095815D01*
Y1098862D01*
X304255Y1100385D01*
X301208D01*
X299685Y1098862D01*
Y1097338D01*
X305779D01*
X290544Y1103432D02*
Y1094291D01*
X295114D01*
X296638Y1095815D01*
Y1098862D01*
X295114Y1100385D01*
X290544D01*
X278356Y1103432D02*
Y1094291D01*
X273785D01*
X272262Y1095815D01*
Y1097338D01*
Y1098862D01*
X273785Y1100385D01*
X278356D01*
X269214D02*
Y1095815D01*
X267691Y1094291D01*
X263120D01*
Y1092768D01*
X264644Y1091244D01*
X266167D01*
X263120Y1094291D02*
Y1100385D01*
X260073D02*
X258550D01*
Y1098862D01*
X260073D01*
Y1100385D01*
Y1095815D02*
X258550D01*
Y1094291D01*
X260073D01*
Y1095815D01*
D284*
X339927Y804579D02*
D03*
M02*
