G04*
G04 #@! TF.GenerationSoftware,Altium Limited,Altium Designer,25.6.2 (33)*
G04*
G04 Layer_Physical_Order=11*
G04 Layer_Color=32768*
%FSLAX44Y44*%
%MOMM*%
G71*
G04*
G04 #@! TF.SameCoordinates,BA84551B-2C6B-4C85-AED2-EA6E41719757*
G04*
G04*
G04 #@! TF.FilePolarity,Negative*
G04*
G01*
G75*
%ADD192C,0.6096*%
%ADD251C,0.5080*%
%ADD254C,1.2700*%
%ADD255C,0.7620*%
%ADD256C,1.0160*%
G04:AMPARAMS|DCode=257|XSize=5.024mm|YSize=5.024mm|CornerRadius=0mm|HoleSize=0mm|Usage=FLASHONLY|Rotation=0.000|XOffset=0mm|YOffset=0mm|HoleType=Round|Shape=Relief|Width=0.254mm|Gap=0.254mm|Entries=4|*
%AMTHD257*
7,0,0,5.0240,4.5160,0.2540,45*
%
%ADD257THD257*%
%ADD258C,2.1082*%
%ADD259C,3.3020*%
G04:AMPARAMS|DCode=260|XSize=3.3274mm|YSize=3.3274mm|CornerRadius=0mm|HoleSize=0mm|Usage=FLASHONLY|Rotation=0.000|XOffset=0mm|YOffset=0mm|HoleType=Round|Shape=Relief|Width=0.254mm|Gap=0.254mm|Entries=4|*
%AMTHD260*
7,0,0,3.3274,2.8194,0.2540,45*
%
%ADD260THD260*%
G04:AMPARAMS|DCode=261|XSize=3.174mm|YSize=3.174mm|CornerRadius=0mm|HoleSize=0mm|Usage=FLASHONLY|Rotation=0.000|XOffset=0mm|YOffset=0mm|HoleType=Round|Shape=Relief|Width=0.254mm|Gap=0.254mm|Entries=4|*
%AMTHD261*
7,0,0,3.1740,2.6660,0.2540,45*
%
%ADD261THD261*%
G04:AMPARAMS|DCode=262|XSize=1.874mm|YSize=1.874mm|CornerRadius=0mm|HoleSize=0mm|Usage=FLASHONLY|Rotation=0.000|XOffset=0mm|YOffset=0mm|HoleType=Round|Shape=Relief|Width=0.254mm|Gap=0.254mm|Entries=4|*
%AMTHD262*
7,0,0,1.8740,1.3660,0.2540,45*
%
%ADD262THD262*%
%ADD263C,1.6048*%
%ADD264C,1.9548*%
%ADD265C,3.5560*%
%ADD266C,1.1938*%
%ADD267O,0.8048X1.4548*%
%ADD268O,1.1548X0.8548*%
%ADD269C,0.4826*%
%ADD270C,0.5048*%
%ADD271C,0.6048*%
D192*
X1148074Y933506D02*
D03*
D251*
X1177284Y916080D02*
D03*
X1212844Y826147D02*
D03*
Y876947D02*
D03*
Y864247D02*
D03*
Y851547D02*
D03*
Y838847D02*
D03*
X1230751Y807097D02*
D03*
X1230576Y794349D02*
D03*
X1230624Y781294D02*
D03*
X1230528Y819700D02*
D03*
Y870500D02*
D03*
X1230624Y857897D02*
D03*
X1230528Y845100D02*
D03*
Y832400D02*
D03*
X1230624Y883297D02*
D03*
X1212844Y800738D02*
D03*
Y788115D02*
D03*
Y775347D02*
D03*
Y813550D02*
D03*
Y915537D02*
D03*
X1230528Y908600D02*
D03*
X1212844Y889451D02*
D03*
X1230576Y895948D02*
D03*
X1212844Y902264D02*
D03*
X284480Y574040D02*
D03*
X288290Y612140D02*
D03*
X284480Y619760D02*
D03*
X295910Y612140D02*
D03*
X292100Y619760D02*
D03*
X303530Y612140D02*
D03*
X299720Y619760D02*
D03*
X303530Y688340D02*
D03*
X311150Y612140D02*
D03*
X307340Y619760D02*
D03*
X311150Y673100D02*
D03*
X307340Y680720D02*
D03*
X311150Y688340D02*
D03*
X314960Y574040D02*
D03*
X318770Y581660D02*
D03*
Y596900D02*
D03*
Y612140D02*
D03*
X314960Y619760D02*
D03*
X318770Y673100D02*
D03*
X314960Y680720D02*
D03*
X318770Y688340D02*
D03*
X314960Y695960D02*
D03*
X318770Y703580D02*
D03*
X322580Y574040D02*
D03*
Y589280D02*
D03*
X326390Y596900D02*
D03*
Y612140D02*
D03*
X322580Y619760D02*
D03*
Y665480D02*
D03*
X326390Y673100D02*
D03*
X334010Y612140D02*
D03*
X330200Y619760D02*
D03*
Y665480D02*
D03*
X334010Y673100D02*
D03*
X341630Y612140D02*
D03*
X337820Y619760D02*
D03*
Y665480D02*
D03*
X341630Y673100D02*
D03*
X349250Y612140D02*
D03*
X345440Y619760D02*
D03*
Y665480D02*
D03*
X349250Y673100D02*
D03*
X356870Y612140D02*
D03*
X353060Y619760D02*
D03*
Y665480D02*
D03*
X356870Y673100D02*
D03*
X360680Y574040D02*
D03*
X364490Y581660D02*
D03*
X360680Y589280D02*
D03*
X364490Y596900D02*
D03*
Y612140D02*
D03*
X360680Y619760D02*
D03*
Y665480D02*
D03*
X364490Y673100D02*
D03*
X372110Y612140D02*
D03*
X368300Y619760D02*
D03*
Y665480D02*
D03*
X372110Y673100D02*
D03*
X368300Y680720D02*
D03*
X372110Y688340D02*
D03*
X368300Y695960D02*
D03*
X379730Y612140D02*
D03*
X375920Y619760D02*
D03*
Y665480D02*
D03*
X379730Y673100D02*
D03*
X375920Y680720D02*
D03*
X379730Y688340D02*
D03*
X375920Y695960D02*
D03*
X387350Y612140D02*
D03*
X383540Y619760D02*
D03*
Y665480D02*
D03*
X387350Y673100D02*
D03*
X383540Y680720D02*
D03*
X394970Y612140D02*
D03*
X391160Y619760D02*
D03*
Y665480D02*
D03*
X394970Y673100D02*
D03*
X391160Y680720D02*
D03*
X402590Y581660D02*
D03*
Y596900D02*
D03*
Y612140D02*
D03*
X398780Y619760D02*
D03*
Y665480D02*
D03*
X284480Y574040D02*
D03*
X288290Y612140D02*
D03*
X284480Y619760D02*
D03*
X295910Y612140D02*
D03*
X292100Y619760D02*
D03*
X303530Y612140D02*
D03*
X299720Y619760D02*
D03*
X303530Y688340D02*
D03*
X311150Y612140D02*
D03*
X307340Y619760D02*
D03*
X311150Y673100D02*
D03*
X307340Y680720D02*
D03*
X311150Y688340D02*
D03*
X314960Y574040D02*
D03*
X318770Y581660D02*
D03*
Y596900D02*
D03*
Y612140D02*
D03*
X314960Y619760D02*
D03*
X318770Y673100D02*
D03*
X314960Y680720D02*
D03*
X318770Y688340D02*
D03*
X314960Y695960D02*
D03*
X318770Y703580D02*
D03*
X322580Y574040D02*
D03*
Y589280D02*
D03*
X326390Y596900D02*
D03*
Y612140D02*
D03*
X322580Y619760D02*
D03*
Y665480D02*
D03*
X326390Y673100D02*
D03*
X334010Y612140D02*
D03*
X330200Y619760D02*
D03*
Y665480D02*
D03*
X334010Y673100D02*
D03*
X341630Y612140D02*
D03*
X337820Y619760D02*
D03*
Y665480D02*
D03*
X341630Y673100D02*
D03*
X349250Y612140D02*
D03*
X345440Y619760D02*
D03*
Y665480D02*
D03*
X349250Y673100D02*
D03*
X356870Y612140D02*
D03*
X353060Y619760D02*
D03*
Y665480D02*
D03*
X356870Y673100D02*
D03*
X360680Y574040D02*
D03*
X364490Y581660D02*
D03*
X360680Y589280D02*
D03*
X364490Y596900D02*
D03*
Y612140D02*
D03*
X360680Y619760D02*
D03*
Y665480D02*
D03*
X364490Y673100D02*
D03*
X372110Y612140D02*
D03*
X368300Y619760D02*
D03*
Y665480D02*
D03*
X372110Y673100D02*
D03*
X368300Y680720D02*
D03*
X372110Y688340D02*
D03*
X368300Y695960D02*
D03*
X379730Y612140D02*
D03*
X375920Y619760D02*
D03*
Y665480D02*
D03*
X379730Y673100D02*
D03*
X375920Y680720D02*
D03*
X379730Y688340D02*
D03*
X375920Y695960D02*
D03*
X387350Y612140D02*
D03*
X383540Y619760D02*
D03*
Y665480D02*
D03*
X387350Y673100D02*
D03*
X383540Y680720D02*
D03*
X394970Y612140D02*
D03*
X391160Y619760D02*
D03*
Y665480D02*
D03*
X394970Y673100D02*
D03*
X391160Y680720D02*
D03*
X402590Y581660D02*
D03*
Y596900D02*
D03*
Y612140D02*
D03*
X398780Y619760D02*
D03*
Y665480D02*
D03*
X995680Y1148080D02*
D03*
X985520D02*
D03*
X990600Y1137920D02*
D03*
X975360Y1148080D02*
D03*
X980440Y1137920D02*
D03*
X975360Y1127760D02*
D03*
X970280Y1137920D02*
D03*
X965200Y1127760D02*
D03*
X960120Y1137920D02*
D03*
X955040Y1127760D02*
D03*
X949960Y1137920D02*
D03*
X944880Y1127760D02*
D03*
X939800Y1137920D02*
D03*
X934720Y1127760D02*
D03*
X929640Y1137920D02*
D03*
X924560Y1127760D02*
D03*
X919480Y1137920D02*
D03*
X863600Y1127760D02*
D03*
X868680Y1117600D02*
D03*
X853440Y1148080D02*
D03*
X858520Y1137920D02*
D03*
X853440Y1127760D02*
D03*
X858520Y1117600D02*
D03*
X853440Y1107440D02*
D03*
X843280Y1148080D02*
D03*
X848360Y1137920D02*
D03*
X843280Y1127760D02*
D03*
X848360Y1117600D02*
D03*
X843280Y1107440D02*
D03*
X848360Y1097280D02*
D03*
X833120Y1148080D02*
D03*
X838200Y1137920D02*
D03*
X833120Y1127760D02*
D03*
X838200Y1117600D02*
D03*
X833120Y1107440D02*
D03*
X838200Y1097280D02*
D03*
X833120Y1087120D02*
D03*
X822960Y1148080D02*
D03*
X828040Y1137920D02*
D03*
Y1117600D02*
D03*
X822960Y1107440D02*
D03*
X828040Y1097280D02*
D03*
Y1076960D02*
D03*
X802640Y1107440D02*
D03*
Y1066800D02*
D03*
X797560Y1097280D02*
D03*
X792480Y1087120D02*
D03*
X797560Y1076960D02*
D03*
X792480Y1066800D02*
D03*
X787400Y1097280D02*
D03*
X782320Y1087120D02*
D03*
X787400Y1076960D02*
D03*
X782320Y1066800D02*
D03*
X777240Y1076960D02*
D03*
X772160Y1066800D02*
D03*
X762000Y1087120D02*
D03*
X767080Y1076960D02*
D03*
X762000Y1066800D02*
D03*
X751840Y1087120D02*
D03*
X756920Y1076960D02*
D03*
X751840Y1066800D02*
D03*
X741680Y1087120D02*
D03*
X746760Y1076960D02*
D03*
X741680Y1066800D02*
D03*
X731520Y1087120D02*
D03*
X736600Y1076960D02*
D03*
X731520Y1066800D02*
D03*
X721360Y1087120D02*
D03*
X726440Y1076960D02*
D03*
X721360Y1066800D02*
D03*
X711200Y1087120D02*
D03*
X716280Y1076960D02*
D03*
X711200Y1066800D02*
D03*
X701040Y1087120D02*
D03*
X706120Y1076960D02*
D03*
X701040Y1066800D02*
D03*
X690880Y1087120D02*
D03*
X695960Y1076960D02*
D03*
X690880Y1066800D02*
D03*
X680720Y1087120D02*
D03*
X685800Y1076960D02*
D03*
X680720Y1066800D02*
D03*
X670560Y1087120D02*
D03*
X675640Y1076960D02*
D03*
X670560Y1066800D02*
D03*
X660400Y1087120D02*
D03*
X665480Y1076960D02*
D03*
X660400Y1066800D02*
D03*
X650240Y1087120D02*
D03*
X655320Y1076960D02*
D03*
X650240Y1066800D02*
D03*
X640080Y1087120D02*
D03*
X645160Y1076960D02*
D03*
X640080Y1066800D02*
D03*
X645160Y1056640D02*
D03*
X640080Y1046480D02*
D03*
X635000Y1076960D02*
D03*
X629920Y1066800D02*
D03*
X635000Y1056640D02*
D03*
X629920Y1046480D02*
D03*
X619760Y1066800D02*
D03*
X624840Y1056640D02*
D03*
X619760Y1046480D02*
D03*
X624840Y1036320D02*
D03*
X619760Y1026160D02*
D03*
X609600Y1087120D02*
D03*
X614680Y1076960D02*
D03*
X609600Y1066800D02*
D03*
X614680Y1056640D02*
D03*
X609600Y1046480D02*
D03*
X614680Y1036320D02*
D03*
X609600Y1026160D02*
D03*
X599440Y1087120D02*
D03*
X604520Y1076960D02*
D03*
X599440Y1066800D02*
D03*
X604520Y1056640D02*
D03*
X599440Y1046480D02*
D03*
X604520Y1036320D02*
D03*
X599440Y1026160D02*
D03*
X594360Y1076960D02*
D03*
X589280Y1066800D02*
D03*
X594360Y1056640D02*
D03*
X589280Y1046480D02*
D03*
X594360Y1036320D02*
D03*
X589280Y1026160D02*
D03*
X584200Y1076960D02*
D03*
X579120Y1066800D02*
D03*
X584200Y1056640D02*
D03*
X579120Y1046480D02*
D03*
X584200Y1036320D02*
D03*
X579120Y1026160D02*
D03*
X574040Y1076960D02*
D03*
X568960Y1066800D02*
D03*
X574040Y1056640D02*
D03*
X568960Y1046480D02*
D03*
X574040Y1036320D02*
D03*
X568960Y1026160D02*
D03*
X558800Y1087120D02*
D03*
X563880Y1076960D02*
D03*
X558800Y1066800D02*
D03*
X563880Y1056640D02*
D03*
X558800Y1046480D02*
D03*
X563880Y1036320D02*
D03*
X548640Y1087120D02*
D03*
X553720Y1076960D02*
D03*
X548640Y1066800D02*
D03*
X553720Y1056640D02*
D03*
X548640Y1046480D02*
D03*
X538480Y1087120D02*
D03*
X543560Y1076960D02*
D03*
X538480Y1066800D02*
D03*
X543560Y1056640D02*
D03*
X528320Y1107440D02*
D03*
X533400Y1097280D02*
D03*
X528320Y1087120D02*
D03*
X533400Y1076960D02*
D03*
X528320Y1066800D02*
D03*
X518160Y1107440D02*
D03*
X523240Y1097280D02*
D03*
X518160Y1087120D02*
D03*
X523240Y1076960D02*
D03*
X508000Y1127760D02*
D03*
X513080Y1117600D02*
D03*
X508000Y1107440D02*
D03*
X513080Y1097280D02*
D03*
X508000Y1087120D02*
D03*
X497840Y1127760D02*
D03*
X502920Y1117600D02*
D03*
X497840Y1107440D02*
D03*
X502920Y1097280D02*
D03*
X487680Y1127760D02*
D03*
X492760Y1117600D02*
D03*
X487680Y1107440D02*
D03*
X482600Y1117600D02*
D03*
X477520Y1107440D02*
D03*
X472440Y1117600D02*
D03*
X467360Y1107440D02*
D03*
X462280Y1117600D02*
D03*
X452120D02*
D03*
X447040Y1107440D02*
D03*
X441960Y1117600D02*
D03*
X436880Y1107440D02*
D03*
X431800Y1117600D02*
D03*
X426720Y1107440D02*
D03*
X965200Y660400D02*
D03*
X960120Y670560D02*
D03*
X949960D02*
D03*
X939800D02*
D03*
X934720Y660400D02*
D03*
X929640Y670560D02*
D03*
X924560Y660400D02*
D03*
X919480Y670560D02*
D03*
X914400Y660400D02*
D03*
X904996Y1141278D02*
D03*
X992118Y1158550D02*
D03*
X992372Y1154232D02*
D03*
X559981Y853283D02*
D03*
X838200Y975360D02*
D03*
X833120Y965200D02*
D03*
X838200Y955040D02*
D03*
X833120Y944880D02*
D03*
X828040Y975360D02*
D03*
Y955040D02*
D03*
X822960Y944880D02*
D03*
X817880Y955040D02*
D03*
X812800Y944880D02*
D03*
X807720Y955040D02*
D03*
X802640Y944880D02*
D03*
X797560Y975360D02*
D03*
Y955040D02*
D03*
X792480Y944880D02*
D03*
X787400Y955040D02*
D03*
X782320Y944880D02*
D03*
X777240Y975360D02*
D03*
Y955040D02*
D03*
X772160Y944880D02*
D03*
X767080Y975360D02*
D03*
X762000Y965200D02*
D03*
X767080Y955040D02*
D03*
X762000Y944880D02*
D03*
X756920Y955040D02*
D03*
X751840Y944880D02*
D03*
X746760Y955040D02*
D03*
X741680Y944880D02*
D03*
X783500Y977702D02*
D03*
X1056640Y680720D02*
D03*
X1051560Y690880D02*
D03*
X1046480Y680720D02*
D03*
X1041400Y690880D02*
D03*
X1036320Y680720D02*
D03*
X536348Y860750D02*
D03*
X541348Y857100D02*
D03*
X531348D02*
D03*
X546348Y860750D02*
D03*
X782320Y436880D02*
D03*
X756920Y447040D02*
D03*
X741680Y538480D02*
D03*
X731520D02*
D03*
Y457200D02*
D03*
Y436880D02*
D03*
X721360Y538480D02*
D03*
X726440Y528320D02*
D03*
X721360Y518160D02*
D03*
X726440Y508000D02*
D03*
X721360Y497840D02*
D03*
X726440Y487680D02*
D03*
X721360Y477520D02*
D03*
X726440Y467360D02*
D03*
X721360Y457200D02*
D03*
X726440Y447040D02*
D03*
X873760Y436880D02*
D03*
Y416560D02*
D03*
X863600Y436880D02*
D03*
X868680Y426720D02*
D03*
X858520Y447040D02*
D03*
X853440Y436880D02*
D03*
X858520Y426720D02*
D03*
X848360Y447040D02*
D03*
Y426720D02*
D03*
X1056640Y436880D02*
D03*
X1051560Y447040D02*
D03*
X1046480Y436880D02*
D03*
X1041400Y447040D02*
D03*
X1036320Y436880D02*
D03*
X1041400Y426720D02*
D03*
X1036320Y416560D02*
D03*
X1031240Y447040D02*
D03*
X1026160Y436880D02*
D03*
X1031240Y426720D02*
D03*
X1026160Y416560D02*
D03*
X1021080Y447040D02*
D03*
X1016000Y436880D02*
D03*
X1021080Y426720D02*
D03*
X1016000Y416560D02*
D03*
X1005840Y436880D02*
D03*
X1010920Y426720D02*
D03*
X1005840Y416560D02*
D03*
X995680Y436880D02*
D03*
X1000760Y426720D02*
D03*
X995680Y416560D02*
D03*
X990600Y447040D02*
D03*
X985520Y436880D02*
D03*
X990600Y426720D02*
D03*
X985520Y416560D02*
D03*
X980440Y447040D02*
D03*
X975360Y436880D02*
D03*
X980440Y426720D02*
D03*
X975360Y416560D02*
D03*
X1021080Y568960D02*
D03*
X1005840Y558800D02*
D03*
X1000760Y548640D02*
D03*
X995680Y538480D02*
D03*
X990600Y548640D02*
D03*
X985520Y538480D02*
D03*
X741680Y640080D02*
D03*
X736600Y650240D02*
D03*
X731520Y640080D02*
D03*
X726440Y650240D02*
D03*
X721360Y640080D02*
D03*
X726440Y629920D02*
D03*
X716280Y650240D02*
D03*
X711200Y640080D02*
D03*
X716280Y629920D02*
D03*
X711200Y619760D02*
D03*
X706120Y650240D02*
D03*
X701040Y640080D02*
D03*
X706120Y629920D02*
D03*
X701040Y619760D02*
D03*
X396240Y782320D02*
D03*
X381000Y772160D02*
D03*
X375920Y762000D02*
D03*
X365760Y924560D02*
D03*
Y904240D02*
D03*
Y883920D02*
D03*
Y863600D02*
D03*
X355600Y924560D02*
D03*
X360680Y914400D02*
D03*
X355600Y904240D02*
D03*
X360680Y894080D02*
D03*
X355600Y883920D02*
D03*
X360680Y873760D02*
D03*
X355600Y863600D02*
D03*
X360680Y853440D02*
D03*
X355600Y843280D02*
D03*
X345440Y924560D02*
D03*
X350520Y914400D02*
D03*
X345440Y904240D02*
D03*
X350520Y894080D02*
D03*
X345440Y883920D02*
D03*
Y863600D02*
D03*
X350520Y853440D02*
D03*
X345440Y843280D02*
D03*
X350520Y833120D02*
D03*
X330200Y812800D02*
D03*
X320040D02*
D03*
X314960Y802640D02*
D03*
X309880Y812800D02*
D03*
X304800Y802640D02*
D03*
X309880Y792480D02*
D03*
X299720Y812800D02*
D03*
X294640Y802640D02*
D03*
X299720Y792480D02*
D03*
X294640Y782320D02*
D03*
X289560Y812800D02*
D03*
X284480Y802640D02*
D03*
X289560Y792480D02*
D03*
X284480Y782320D02*
D03*
X289560Y772160D02*
D03*
X279400Y812800D02*
D03*
X274320Y802640D02*
D03*
X279400Y792480D02*
D03*
X274320Y782320D02*
D03*
X279400Y772160D02*
D03*
X269240Y812800D02*
D03*
X264160Y802640D02*
D03*
X269240Y792480D02*
D03*
X264160Y782320D02*
D03*
X254000Y924560D02*
D03*
Y904240D02*
D03*
Y883920D02*
D03*
Y863600D02*
D03*
Y843280D02*
D03*
Y822960D02*
D03*
X259080Y812800D02*
D03*
X254000Y802640D02*
D03*
X259080Y792480D02*
D03*
X243840Y924560D02*
D03*
X248920Y914400D02*
D03*
X243840Y904240D02*
D03*
X248920Y894080D02*
D03*
X243840Y883920D02*
D03*
X248920Y873760D02*
D03*
Y853440D02*
D03*
X243840Y843280D02*
D03*
X248920Y833120D02*
D03*
X243840Y822960D02*
D03*
X248920Y812800D02*
D03*
X243840Y802640D02*
D03*
X248920Y792480D02*
D03*
X233680Y924560D02*
D03*
X238760Y914400D02*
D03*
X233680Y904240D02*
D03*
X238760Y894080D02*
D03*
Y833120D02*
D03*
X233680Y822960D02*
D03*
X238760Y812800D02*
D03*
X233680Y802640D02*
D03*
X238760Y792480D02*
D03*
X223520Y924560D02*
D03*
X228600Y914400D02*
D03*
X223520Y904240D02*
D03*
X228600Y894080D02*
D03*
Y833120D02*
D03*
X223520Y822960D02*
D03*
X228600Y812800D02*
D03*
X223520Y802640D02*
D03*
X213360Y924560D02*
D03*
X218440Y914400D02*
D03*
X213360Y904240D02*
D03*
X218440Y894080D02*
D03*
Y812800D02*
D03*
X213360Y802640D02*
D03*
X203200Y924560D02*
D03*
X208280Y914400D02*
D03*
Y812800D02*
D03*
X203200Y802640D02*
D03*
X1021080Y568960D02*
D03*
X1005840Y558800D02*
D03*
X1000760Y548640D02*
D03*
X995680Y538480D02*
D03*
X990600Y548640D02*
D03*
X985520Y538480D02*
D03*
X741680Y640080D02*
D03*
X736600Y650240D02*
D03*
X731520Y640080D02*
D03*
X726440Y650240D02*
D03*
X721360Y640080D02*
D03*
X726440Y629920D02*
D03*
X716280Y650240D02*
D03*
X711200Y640080D02*
D03*
X716280Y629920D02*
D03*
X711200Y619760D02*
D03*
X706120Y650240D02*
D03*
X701040Y640080D02*
D03*
X706120Y629920D02*
D03*
X701040Y619760D02*
D03*
X396240Y782320D02*
D03*
X381000Y772160D02*
D03*
X375920Y762000D02*
D03*
X365760Y924560D02*
D03*
Y904240D02*
D03*
Y883920D02*
D03*
Y863600D02*
D03*
X355600Y924560D02*
D03*
X360680Y914400D02*
D03*
X355600Y904240D02*
D03*
X360680Y894080D02*
D03*
X355600Y883920D02*
D03*
X360680Y873760D02*
D03*
X355600Y863600D02*
D03*
X360680Y853440D02*
D03*
X355600Y843280D02*
D03*
X345440Y924560D02*
D03*
X350520Y914400D02*
D03*
X345440Y904240D02*
D03*
X350520Y894080D02*
D03*
X345440Y883920D02*
D03*
Y863600D02*
D03*
X350520Y853440D02*
D03*
X345440Y843280D02*
D03*
X350520Y833120D02*
D03*
X330200Y812800D02*
D03*
X320040D02*
D03*
X314960Y802640D02*
D03*
X309880Y812800D02*
D03*
X304800Y802640D02*
D03*
X309880Y792480D02*
D03*
X299720Y812800D02*
D03*
X294640Y802640D02*
D03*
X299720Y792480D02*
D03*
X294640Y782320D02*
D03*
X289560Y812800D02*
D03*
X284480Y802640D02*
D03*
X289560Y792480D02*
D03*
X284480Y782320D02*
D03*
X289560Y772160D02*
D03*
X279400Y812800D02*
D03*
X274320Y802640D02*
D03*
X279400Y792480D02*
D03*
X274320Y782320D02*
D03*
X279400Y772160D02*
D03*
X269240Y812800D02*
D03*
X264160Y802640D02*
D03*
X269240Y792480D02*
D03*
X264160Y782320D02*
D03*
X254000Y924560D02*
D03*
Y904240D02*
D03*
Y883920D02*
D03*
Y863600D02*
D03*
Y843280D02*
D03*
Y822960D02*
D03*
X259080Y812800D02*
D03*
X254000Y802640D02*
D03*
X259080Y792480D02*
D03*
X243840Y924560D02*
D03*
X248920Y914400D02*
D03*
X243840Y904240D02*
D03*
X248920Y894080D02*
D03*
X243840Y883920D02*
D03*
X248920Y873760D02*
D03*
Y853440D02*
D03*
X243840Y843280D02*
D03*
X248920Y833120D02*
D03*
X243840Y822960D02*
D03*
X248920Y812800D02*
D03*
X243840Y802640D02*
D03*
X248920Y792480D02*
D03*
X233680Y924560D02*
D03*
X238760Y914400D02*
D03*
X233680Y904240D02*
D03*
X238760Y894080D02*
D03*
Y833120D02*
D03*
X233680Y822960D02*
D03*
X238760Y812800D02*
D03*
X233680Y802640D02*
D03*
X238760Y792480D02*
D03*
X223520Y924560D02*
D03*
X228600Y914400D02*
D03*
X223520Y904240D02*
D03*
X228600Y894080D02*
D03*
Y833120D02*
D03*
X223520Y822960D02*
D03*
X228600Y812800D02*
D03*
X223520Y802640D02*
D03*
X213360Y924560D02*
D03*
X218440Y914400D02*
D03*
X213360Y904240D02*
D03*
X218440Y894080D02*
D03*
Y812800D02*
D03*
X213360Y802640D02*
D03*
X203200Y924560D02*
D03*
X208280Y914400D02*
D03*
Y812800D02*
D03*
X203200Y802640D02*
D03*
X212090Y833120D02*
D03*
Y558800D02*
D03*
X208280Y551180D02*
D03*
X212090Y543560D02*
D03*
Y513080D02*
D03*
X208280Y505460D02*
D03*
X204470Y558800D02*
D03*
X200660Y551180D02*
D03*
X204470Y543560D02*
D03*
Y513080D02*
D03*
X196850Y558800D02*
D03*
X193040Y551180D02*
D03*
X196850Y543560D02*
D03*
Y513080D02*
D03*
X193040Y505460D02*
D03*
X185420Y779780D02*
D03*
Y764540D02*
D03*
Y749300D02*
D03*
Y734060D02*
D03*
Y718820D02*
D03*
Y703580D02*
D03*
Y688340D02*
D03*
Y673100D02*
D03*
X181610Y787400D02*
D03*
X177800Y779780D02*
D03*
X181610Y772160D02*
D03*
X177800Y764540D02*
D03*
X181610Y756920D02*
D03*
X177800Y749300D02*
D03*
X181610Y741680D02*
D03*
X177800Y734060D02*
D03*
X181610Y726440D02*
D03*
X177800Y718820D02*
D03*
X181610Y711200D02*
D03*
X177800Y703580D02*
D03*
X181610Y695960D02*
D03*
X177800Y688340D02*
D03*
X181610Y680720D02*
D03*
X177800Y673100D02*
D03*
X181610Y665480D02*
D03*
X158750Y558800D02*
D03*
X154940Y551180D02*
D03*
X158750Y543560D02*
D03*
Y513080D02*
D03*
X151130Y558800D02*
D03*
X147320Y551180D02*
D03*
X151130Y543560D02*
D03*
Y513080D02*
D03*
X143510Y558800D02*
D03*
X139700Y551180D02*
D03*
X143510Y543560D02*
D03*
Y513080D02*
D03*
X139700Y505460D02*
D03*
X132080Y810260D02*
D03*
Y795020D02*
D03*
X135890Y787400D02*
D03*
X132080Y779780D02*
D03*
X135890Y772160D02*
D03*
X132080Y764540D02*
D03*
X135890Y756920D02*
D03*
X132080Y749300D02*
D03*
X135890Y741680D02*
D03*
X132080Y734060D02*
D03*
X135890Y726440D02*
D03*
X132080Y718820D02*
D03*
X135890Y711200D02*
D03*
X132080Y703580D02*
D03*
X135890Y695960D02*
D03*
X132080Y688340D02*
D03*
X135890Y680720D02*
D03*
X132080Y673100D02*
D03*
X135890Y665480D02*
D03*
X132080Y657860D02*
D03*
X135890Y650240D02*
D03*
X132080Y642620D02*
D03*
X124460Y825500D02*
D03*
X128270Y817880D02*
D03*
X124460Y810260D02*
D03*
X128270Y802640D02*
D03*
X124460Y795020D02*
D03*
X128270Y787400D02*
D03*
X124460Y779780D02*
D03*
X128270Y772160D02*
D03*
X124460Y764540D02*
D03*
X128270Y756920D02*
D03*
X124460Y749300D02*
D03*
X128270Y741680D02*
D03*
X124460Y734060D02*
D03*
X128270Y726440D02*
D03*
X124460Y718820D02*
D03*
X128270Y711200D02*
D03*
X124460Y703580D02*
D03*
X128270Y695960D02*
D03*
X124460Y688340D02*
D03*
X128270Y680720D02*
D03*
X124460Y673100D02*
D03*
X128270Y665480D02*
D03*
X124460Y657860D02*
D03*
X128270Y650240D02*
D03*
X124460Y642620D02*
D03*
X113030Y543560D02*
D03*
Y513080D02*
D03*
X109220Y505460D02*
D03*
X101600Y855980D02*
D03*
Y551180D02*
D03*
X105410Y543560D02*
D03*
Y513080D02*
D03*
X97790Y863600D02*
D03*
X93980Y855980D02*
D03*
X97790Y848360D02*
D03*
Y558800D02*
D03*
X93980Y551180D02*
D03*
X97790Y543560D02*
D03*
Y513080D02*
D03*
X93980Y505460D02*
D03*
X90170Y848360D02*
D03*
X86360Y840740D02*
D03*
X90170Y833120D02*
D03*
X86360Y825500D02*
D03*
X90170Y817880D02*
D03*
X86360Y810260D02*
D03*
X90170Y802640D02*
D03*
X86360Y795020D02*
D03*
X90170Y787400D02*
D03*
X86360Y779780D02*
D03*
X90170Y772160D02*
D03*
X86360Y764540D02*
D03*
X90170Y756920D02*
D03*
X86360Y749300D02*
D03*
X90170Y741680D02*
D03*
X86360Y734060D02*
D03*
X90170Y726440D02*
D03*
X86360Y718820D02*
D03*
X90170Y711200D02*
D03*
X86360Y703580D02*
D03*
X90170Y695960D02*
D03*
X86360Y688340D02*
D03*
X90170Y680720D02*
D03*
X86360Y673100D02*
D03*
X90170Y665480D02*
D03*
X86360Y657860D02*
D03*
X90170Y650240D02*
D03*
X86360Y642620D02*
D03*
X90170Y558800D02*
D03*
X86360Y551180D02*
D03*
X90170Y543560D02*
D03*
X82550Y848360D02*
D03*
X78740Y840740D02*
D03*
X82550Y833120D02*
D03*
X78740Y825500D02*
D03*
X82550Y817880D02*
D03*
X78740Y810260D02*
D03*
X82550Y802640D02*
D03*
X78740Y795020D02*
D03*
X82550Y787400D02*
D03*
X78740Y779780D02*
D03*
X82550Y772160D02*
D03*
X78740Y764540D02*
D03*
X82550Y756920D02*
D03*
X78740Y749300D02*
D03*
X82550Y741680D02*
D03*
X78740Y734060D02*
D03*
X82550Y726440D02*
D03*
X78740Y718820D02*
D03*
X82550Y711200D02*
D03*
X78740Y703580D02*
D03*
X82550Y695960D02*
D03*
X78740Y688340D02*
D03*
X82550Y680720D02*
D03*
X78740Y673100D02*
D03*
X82550Y665480D02*
D03*
X78740Y657860D02*
D03*
X82550Y650240D02*
D03*
X78740Y642620D02*
D03*
X82550Y558800D02*
D03*
X78740Y551180D02*
D03*
X116840Y886460D02*
D03*
X93980D02*
D03*
X86360D02*
D03*
X78740D02*
D03*
X71120Y871220D02*
D03*
X74930Y863600D02*
D03*
X71120Y855980D02*
D03*
X67310Y878840D02*
D03*
X63500Y871220D02*
D03*
X67310Y863600D02*
D03*
X63500Y855980D02*
D03*
X59690Y863600D02*
D03*
X55880Y855980D02*
D03*
X59690Y848360D02*
D03*
X55880Y840740D02*
D03*
X59690Y833120D02*
D03*
X55880Y825500D02*
D03*
X59690Y817880D02*
D03*
X55880Y810260D02*
D03*
X59690Y802640D02*
D03*
X55880Y795020D02*
D03*
X59690Y787400D02*
D03*
X55880Y779780D02*
D03*
X59690Y772160D02*
D03*
X55880Y764540D02*
D03*
X59690Y756920D02*
D03*
X55880Y749300D02*
D03*
X59690Y741680D02*
D03*
X55880Y734060D02*
D03*
X59690Y726440D02*
D03*
X55880Y718820D02*
D03*
X59690Y711200D02*
D03*
X55880Y703580D02*
D03*
X59690Y695960D02*
D03*
X55880Y688340D02*
D03*
X59690Y680720D02*
D03*
X55880Y673100D02*
D03*
X59690Y665480D02*
D03*
X55880Y657860D02*
D03*
X59690Y650240D02*
D03*
X55880Y642620D02*
D03*
X59690Y558800D02*
D03*
X55880Y551180D02*
D03*
X59690Y543560D02*
D03*
Y513080D02*
D03*
X52070Y863600D02*
D03*
X48260Y855980D02*
D03*
X52070Y848360D02*
D03*
X48260Y840740D02*
D03*
X52070Y833120D02*
D03*
X48260Y825500D02*
D03*
X52070Y817880D02*
D03*
X48260Y810260D02*
D03*
X52070Y802640D02*
D03*
X48260Y795020D02*
D03*
X52070Y787400D02*
D03*
X48260Y779780D02*
D03*
X52070Y772160D02*
D03*
X48260Y764540D02*
D03*
X52070Y756920D02*
D03*
X48260Y749300D02*
D03*
X52070Y741680D02*
D03*
X48260Y734060D02*
D03*
X52070Y726440D02*
D03*
X48260Y718820D02*
D03*
X52070Y711200D02*
D03*
X48260Y703580D02*
D03*
X52070Y695960D02*
D03*
X48260Y688340D02*
D03*
X52070Y680720D02*
D03*
X48260Y673100D02*
D03*
X52070Y665480D02*
D03*
X48260Y657860D02*
D03*
X52070Y650240D02*
D03*
X48260Y642620D02*
D03*
X52070Y558800D02*
D03*
X48260Y551180D02*
D03*
X52070Y543560D02*
D03*
Y513080D02*
D03*
X44450Y848360D02*
D03*
X40640Y840740D02*
D03*
X44450Y833120D02*
D03*
X40640Y825500D02*
D03*
X44450Y817880D02*
D03*
X40640Y810260D02*
D03*
X44450Y802640D02*
D03*
X40640Y795020D02*
D03*
X44450Y787400D02*
D03*
X40640Y779780D02*
D03*
X44450Y772160D02*
D03*
X40640Y764540D02*
D03*
X44450Y756920D02*
D03*
X40640Y749300D02*
D03*
X44450Y741680D02*
D03*
X40640Y734060D02*
D03*
X44450Y726440D02*
D03*
X40640Y718820D02*
D03*
X44450Y711200D02*
D03*
X40640Y703580D02*
D03*
X44450Y695960D02*
D03*
X40640Y688340D02*
D03*
X44450Y680720D02*
D03*
X40640Y673100D02*
D03*
X44450Y665480D02*
D03*
X40640Y657860D02*
D03*
X44450Y650240D02*
D03*
X40640Y642620D02*
D03*
X44450Y558800D02*
D03*
X40640Y551180D02*
D03*
X44450Y543560D02*
D03*
Y513080D02*
D03*
X1177284Y826081D02*
D03*
X1103624Y821210D02*
D03*
X1200525Y895628D02*
D03*
X1177284Y902199D02*
D03*
Y889385D02*
D03*
X1042728Y979607D02*
D03*
X1200525Y908631D02*
D03*
X1122420Y912341D02*
D03*
X1179824Y923981D02*
D03*
X1083834D02*
D03*
X1134532Y1024057D02*
D03*
X1141216Y1032312D02*
D03*
X500933Y808936D02*
D03*
X1177284Y775281D02*
D03*
X1199382Y781229D02*
D03*
X1177284Y788050D02*
D03*
X1199382Y794235D02*
D03*
Y806935D02*
D03*
X1177284Y811053D02*
D03*
X1199382Y819553D02*
D03*
X1199868Y883224D02*
D03*
X1199382Y832431D02*
D03*
X1198946Y845035D02*
D03*
Y857735D02*
D03*
X1199509Y870435D02*
D03*
X1177284Y838781D02*
D03*
Y851481D02*
D03*
Y864181D02*
D03*
Y876881D02*
D03*
Y800672D02*
D03*
X502039Y827791D02*
D03*
X501655Y819576D02*
D03*
X501087Y814170D02*
D03*
X498035Y823139D02*
D03*
X498389Y832791D02*
D03*
X566180D02*
D03*
Y822791D02*
D03*
X577675Y823397D02*
D03*
X568702Y827791D02*
D03*
Y837791D02*
D03*
X566180Y842791D02*
D03*
X502039Y837791D02*
D03*
X498389Y842791D02*
D03*
X526348Y860750D02*
D03*
X517305Y859793D02*
D03*
X521508Y856940D02*
D03*
D254*
X628174Y447746D02*
Y673068D01*
X624840Y676402D02*
X628174Y673068D01*
X432562Y671431D02*
X437533Y676402D01*
X624840D01*
X432562Y454660D02*
Y671431D01*
D255*
X1376172Y305562D02*
Y409194D01*
X1436878Y469900D01*
X1475486D01*
X1494028Y451358D01*
Y336550D02*
Y451358D01*
D256*
X446278Y443484D02*
X631700D01*
X793752Y281432D01*
X1352042D01*
X1384046Y313436D01*
X1471676D01*
X1576324Y418084D01*
Y950976D01*
X1307084Y1220216D02*
X1576324Y950976D01*
X279654Y1220216D02*
X1307084D01*
X13970Y954532D02*
X279654Y1220216D01*
X13462Y954024D02*
X13970Y954532D01*
X13462Y456946D02*
Y954024D01*
Y456946D02*
X432816D01*
X446278Y443484D01*
D257*
X586845Y928803D02*
D03*
X945345Y697403D02*
D03*
D258*
X384424Y586789D02*
D03*
X342424D02*
D03*
X300424D02*
D03*
D259*
Y513789D02*
D03*
X384424D02*
D03*
D260*
X300424Y641789D02*
D03*
X384424D02*
D03*
X342424D02*
D03*
D261*
X1293145Y371801D02*
D03*
X1343945D02*
D03*
X1293145Y321001D02*
D03*
X1343945D02*
D03*
X1115599Y371801D02*
D03*
Y321001D02*
D03*
X1064799Y371801D02*
D03*
Y321001D02*
D03*
X983821Y367603D02*
D03*
Y316803D02*
D03*
X933021D02*
D03*
Y367603D02*
D03*
X905640Y367602D02*
D03*
Y316802D02*
D03*
X854840Y367602D02*
D03*
Y316802D02*
D03*
D262*
X544548Y835991D02*
D03*
Y825291D02*
D03*
X533848D02*
D03*
Y835991D02*
D03*
Y814591D02*
D03*
X544548D02*
D03*
X523148Y835991D02*
D03*
Y825291D02*
D03*
Y814591D02*
D03*
D263*
X200984Y494284D02*
D03*
X150984D02*
D03*
X100984D02*
D03*
X50984D02*
D03*
D264*
X1090200Y346400D02*
D03*
X880241Y342201D02*
D03*
X958422Y342202D02*
D03*
X1318546Y346400D02*
D03*
D265*
X594251Y497123D02*
D03*
X467251D02*
D03*
D266*
X485031Y588563D02*
D03*
X462171D02*
D03*
X576471D02*
D03*
X525671Y522523D02*
D03*
X535831Y540303D02*
D03*
X505351Y522523D02*
D03*
X495191Y540303D02*
D03*
X566311Y522523D02*
D03*
X545991D02*
D03*
X515511Y540303D02*
D03*
X556151D02*
D03*
X599331Y588563D02*
D03*
D267*
X1393066Y329560D02*
D03*
X1463066D02*
D03*
D268*
X1403066Y356560D02*
D03*
X1453066D02*
D03*
D269*
X1246484Y806290D02*
D03*
Y796130D02*
D03*
Y785970D02*
D03*
Y775810D02*
D03*
X1238790Y767786D02*
D03*
X1246357Y816450D02*
D03*
Y867250D02*
D03*
Y857090D02*
D03*
Y877410D02*
D03*
X1198150Y767786D02*
D03*
X1208310D02*
D03*
X1240238Y912409D02*
D03*
X1246357Y907890D02*
D03*
Y887570D02*
D03*
X1218470Y767786D02*
D03*
X1246357Y897730D02*
D03*
X1246484Y765650D02*
D03*
X1228630Y767786D02*
D03*
X1246357Y826610D02*
D03*
Y836770D02*
D03*
Y846930D02*
D03*
X552367Y922627D02*
D03*
X633575Y661883D02*
D03*
X1186872Y1096843D02*
D03*
X1177284Y1096772D02*
D03*
X1364488Y949198D02*
D03*
X1171702Y1049679D02*
D03*
X1426972Y852830D02*
D03*
X1363660Y843212D02*
D03*
X848650Y773808D02*
D03*
X818650Y913808D02*
D03*
X838650Y833808D02*
D03*
Y873808D02*
D03*
X808650Y843808D02*
D03*
X798650Y893808D02*
D03*
X778650Y913808D02*
D03*
X798650Y873808D02*
D03*
X758650Y883808D02*
D03*
X738650Y913808D02*
D03*
Y873808D02*
D03*
X718650Y893808D02*
D03*
X728650Y863808D02*
D03*
X778465Y853808D02*
D03*
X798650Y793808D02*
D03*
X758650Y833808D02*
D03*
X768650Y763808D02*
D03*
X728650Y783808D02*
D03*
X1404464Y754079D02*
D03*
X1168908Y720598D02*
D03*
X838650Y723808D02*
D03*
X1070678Y708918D02*
D03*
Y696218D02*
D03*
X1173734Y678942D02*
D03*
X868650Y683808D02*
D03*
X1284388Y551974D02*
D03*
X1283686Y497011D02*
D03*
X808650Y753808D02*
D03*
X798650Y733808D02*
D03*
X778650D02*
D03*
X758650Y743808D02*
D03*
X718650Y753808D02*
D03*
X748650Y733808D02*
D03*
X718650D02*
D03*
X828650Y683808D02*
D03*
X808650Y703808D02*
D03*
X788650Y683808D02*
D03*
X768650Y713808D02*
D03*
X728650Y703808D02*
D03*
X748650Y683808D02*
D03*
X553261Y977803D02*
D03*
X698650Y913808D02*
D03*
X673650Y927028D02*
D03*
X553261Y947803D02*
D03*
Y907803D02*
D03*
X688650Y893808D02*
D03*
X668650Y883808D02*
D03*
X708650Y863808D02*
D03*
X688650Y873808D02*
D03*
X648650Y903808D02*
D03*
Y863808D02*
D03*
X483273Y992731D02*
D03*
X432721Y990141D02*
D03*
X182880Y971042D02*
D03*
X132588Y969670D02*
D03*
X533129Y886671D02*
D03*
X513129D02*
D03*
X100330Y905256D02*
D03*
X498129Y886671D02*
D03*
X462191Y878381D02*
D03*
X708650Y834796D02*
D03*
X688650Y843808D02*
D03*
X698650Y783808D02*
D03*
X668650Y853808D02*
D03*
X648650Y823808D02*
D03*
X668650Y803808D02*
D03*
Y773808D02*
D03*
X648650Y783808D02*
D03*
X688650Y753808D02*
D03*
Y723808D02*
D03*
X708650Y683808D02*
D03*
X678650Y693808D02*
D03*
X668650Y763808D02*
D03*
Y713808D02*
D03*
X648650Y743808D02*
D03*
Y703808D02*
D03*
X591972Y819576D02*
D03*
X581551Y800907D02*
D03*
X118176Y852678D02*
D03*
X585756Y619196D02*
D03*
X431183Y788229D02*
D03*
X778650Y773808D02*
D03*
X798650Y772740D02*
D03*
X788650Y753808D02*
D03*
X738650Y833808D02*
D03*
X768650Y823808D02*
D03*
X748650D02*
D03*
X788650D02*
D03*
X798650Y833808D02*
D03*
X788650Y803808D02*
D03*
X778650Y813808D02*
D03*
Y793808D02*
D03*
X748650Y803808D02*
D03*
X758650Y793808D02*
D03*
X738650D02*
D03*
X768650Y783808D02*
D03*
X758650Y773808D02*
D03*
X738650D02*
D03*
X748650Y783808D02*
D03*
X738650Y813808D02*
D03*
X758551Y813401D02*
D03*
X728858Y753808D02*
D03*
X657892Y713176D02*
D03*
X1281716Y532836D02*
D03*
X907774Y553596D02*
D03*
X948400Y555166D02*
D03*
X892765Y554418D02*
D03*
X933021Y554520D02*
D03*
X1250098Y548596D02*
D03*
X1242092Y538170D02*
D03*
X709140Y571350D02*
D03*
X1047406Y577184D02*
D03*
X1137412Y1046226D02*
D03*
X1171702Y1059490D02*
D03*
X1169888Y708408D02*
D03*
X213360Y876750D02*
D03*
X208234Y882162D02*
D03*
Y836774D02*
D03*
X121158Y834644D02*
D03*
X122682Y885444D02*
D03*
X127304Y865124D02*
D03*
X125730Y850392D02*
D03*
X213360Y867612D02*
D03*
X217932Y849122D02*
D03*
X532803Y993951D02*
D03*
X1200937Y450286D02*
D03*
X1206412Y448357D02*
D03*
X1198658Y456382D02*
D03*
X1198912Y517342D02*
D03*
X1195102Y450286D02*
D03*
X1188879Y517342D02*
D03*
X1212587Y411141D02*
D03*
X1198785Y391104D02*
D03*
X1169448Y430728D02*
D03*
X1169888Y420314D02*
D03*
Y425814D02*
D03*
X1212587Y422854D02*
D03*
X931654Y446596D02*
D03*
X890096Y414592D02*
D03*
X899748D02*
D03*
X940946Y446596D02*
D03*
X909274Y414592D02*
D03*
X840010Y447746D02*
D03*
X950294Y446596D02*
D03*
X816896Y429712D02*
D03*
X840010D02*
D03*
X828834Y423108D02*
D03*
X840010Y438348D02*
D03*
X1201412Y385668D02*
D03*
X1069135Y504366D02*
D03*
X878650Y743808D02*
D03*
X878461Y752927D02*
D03*
X890623Y749028D02*
D03*
X878650Y793808D02*
D03*
X890623Y768572D02*
D03*
X890650Y779028D02*
D03*
Y799695D02*
D03*
Y788361D02*
D03*
X878650Y783808D02*
D03*
X868620Y813838D02*
D03*
X868650Y783808D02*
D03*
Y793808D02*
D03*
Y803808D02*
D03*
Y743808D02*
D03*
X858806Y754070D02*
D03*
X868620Y763808D02*
D03*
X858650Y773808D02*
D03*
X868650D02*
D03*
X838650Y793808D02*
D03*
X848650D02*
D03*
X858650D02*
D03*
X838650Y803808D02*
D03*
X848650D02*
D03*
X858650D02*
D03*
X838650Y813808D02*
D03*
X858650D02*
D03*
X838650Y773808D02*
D03*
X1140317Y820265D02*
D03*
X1132123Y811223D02*
D03*
X1100136Y813147D02*
D03*
X1122420Y814861D02*
D03*
X1085143Y818750D02*
D03*
X1132251Y819765D02*
D03*
X1083813Y843711D02*
D03*
X1083805Y851703D02*
D03*
X1071890Y825460D02*
D03*
X1071900Y847695D02*
D03*
X890598Y817377D02*
D03*
X1091965Y803862D02*
D03*
X1071900Y806527D02*
D03*
X1122420D02*
D03*
X890650Y809028D02*
D03*
X1084450Y810815D02*
D03*
X878973Y813485D02*
D03*
X838715Y823998D02*
D03*
X868650D02*
D03*
X878650Y824379D02*
D03*
X890650Y828202D02*
D03*
X878650Y833808D02*
D03*
X890170Y839508D02*
D03*
X868650Y843808D02*
D03*
X858650D02*
D03*
X889483Y849028D02*
D03*
Y859028D02*
D03*
X878650Y853808D02*
D03*
X858650D02*
D03*
X868650D02*
D03*
X878650Y863808D02*
D03*
X868650D02*
D03*
X889483Y869028D02*
D03*
X838650Y893808D02*
D03*
X858650Y903371D02*
D03*
X868650Y903808D02*
D03*
X1092262Y900196D02*
D03*
X878650Y893808D02*
D03*
Y903808D02*
D03*
X886676Y891834D02*
D03*
X889501Y899050D02*
D03*
X1071013Y904515D02*
D03*
X1084107Y907241D02*
D03*
X1092168Y891862D02*
D03*
X1083128Y900232D02*
D03*
X1122420Y887695D02*
D03*
Y896006D02*
D03*
Y903808D02*
D03*
X1139930Y891528D02*
D03*
Y899774D02*
D03*
X878650Y913808D02*
D03*
X863650Y927028D02*
D03*
X853650D02*
D03*
X890650Y909028D02*
D03*
X1131834Y907528D02*
D03*
X1071900Y919628D02*
D03*
X1122420Y920803D02*
D03*
X1131975Y915528D02*
D03*
X1083839Y915575D02*
D03*
X1091900Y915528D02*
D03*
X1131834Y923854D02*
D03*
X828650Y703808D02*
D03*
X818650Y693808D02*
D03*
X808650D02*
D03*
X818650Y703808D02*
D03*
Y713808D02*
D03*
X808650D02*
D03*
X653575Y661883D02*
D03*
X688650Y713808D02*
D03*
X698650Y693808D02*
D03*
X668650D02*
D03*
X688650Y703808D02*
D03*
X698650D02*
D03*
Y713808D02*
D03*
X748650Y753808D02*
D03*
X758650D02*
D03*
X728650Y733808D02*
D03*
X738650D02*
D03*
X758650D02*
D03*
X738650Y743808D02*
D03*
X748650D02*
D03*
X728650Y813808D02*
D03*
X708650D02*
D03*
X793575Y661883D02*
D03*
X798650Y683808D02*
D03*
X818650D02*
D03*
X783575Y661883D02*
D03*
X803575D02*
D03*
X758650Y683808D02*
D03*
X723575Y661883D02*
D03*
X708650Y713808D02*
D03*
X718650Y693808D02*
D03*
X728650D02*
D03*
X738650D02*
D03*
X718650Y703808D02*
D03*
X708650D02*
D03*
X738650D02*
D03*
X718650Y713808D02*
D03*
X748650Y703808D02*
D03*
X753575Y661883D02*
D03*
X708650Y804241D02*
D03*
X728650Y803808D02*
D03*
X718650Y804241D02*
D03*
X698650Y723808D02*
D03*
X728650Y713808D02*
D03*
X738650D02*
D03*
X758650D02*
D03*
X718650Y723808D02*
D03*
X728650D02*
D03*
X738650D02*
D03*
X748650D02*
D03*
X788650Y703808D02*
D03*
Y693808D02*
D03*
Y723808D02*
D03*
X798650Y703808D02*
D03*
Y723808D02*
D03*
Y693808D02*
D03*
X808650Y723808D02*
D03*
X798650Y713808D02*
D03*
X878650Y733808D02*
D03*
Y703808D02*
D03*
X858650Y723808D02*
D03*
X808650Y813808D02*
D03*
Y793808D02*
D03*
X818650D02*
D03*
X828650D02*
D03*
X798650Y803808D02*
D03*
X828650D02*
D03*
X808650D02*
D03*
X818650D02*
D03*
X688650Y803193D02*
D03*
X678650Y813808D02*
D03*
X688650D02*
D03*
X628174Y586938D02*
D03*
X778650Y833808D02*
D03*
X818650Y903808D02*
D03*
X828650D02*
D03*
X808650D02*
D03*
X753650Y927028D02*
D03*
X813650Y926808D02*
D03*
X763650Y927028D02*
D03*
X838650Y843808D02*
D03*
X768650D02*
D03*
X728650Y853808D02*
D03*
X798650Y863808D02*
D03*
X758650Y853808D02*
D03*
X838650D02*
D03*
X788650D02*
D03*
X768650D02*
D03*
X738650Y863808D02*
D03*
X768650D02*
D03*
X808650Y873808D02*
D03*
X728858Y914016D02*
D03*
X758650Y903808D02*
D03*
X768650Y913808D02*
D03*
X758650Y843808D02*
D03*
X768650Y833808D02*
D03*
X728213D02*
D03*
X748650D02*
D03*
X728650Y873808D02*
D03*
X788650D02*
D03*
Y893808D02*
D03*
Y883808D02*
D03*
X798650D02*
D03*
X778465Y893371D02*
D03*
X808650Y893808D02*
D03*
X1122420Y879361D02*
D03*
Y863808D02*
D03*
X1131898Y867503D02*
D03*
X1122420Y868634D02*
D03*
X1131834Y883528D02*
D03*
X1139930D02*
D03*
X1139909Y859549D02*
D03*
X1122420Y855872D02*
D03*
Y823808D02*
D03*
X1132507Y826736D02*
D03*
X1132075Y835277D02*
D03*
X1122420Y839028D02*
D03*
X1132574Y843212D02*
D03*
X1122021Y847913D02*
D03*
X1132051Y851303D02*
D03*
X1131834Y794331D02*
D03*
X1139930Y803624D02*
D03*
X1083997Y883528D02*
D03*
X1091930Y859774D02*
D03*
X1084071Y867952D02*
D03*
X1092262Y868019D02*
D03*
X1084148Y875194D02*
D03*
X1092262Y875528D02*
D03*
X1091930Y883528D02*
D03*
X1071900Y878960D02*
D03*
Y863195D02*
D03*
X1084148Y827483D02*
D03*
X1091965Y827862D02*
D03*
X1084209Y835419D02*
D03*
X1092283Y835798D02*
D03*
X1092716Y843945D02*
D03*
X1092088Y851880D02*
D03*
X1094240Y789251D02*
D03*
X1140509Y843733D02*
D03*
X1189768Y636722D02*
D03*
X1143540Y616402D02*
D03*
X1138366Y622320D02*
D03*
X1073072Y661614D02*
D03*
X1242346Y623768D02*
D03*
X1261463Y568596D02*
D03*
X678650Y823808D02*
D03*
X718650Y863808D02*
D03*
Y873808D02*
D03*
X708650D02*
D03*
X718650Y883808D02*
D03*
X708650Y893148D02*
D03*
X713650Y927028D02*
D03*
X678650Y903808D02*
D03*
X708650D02*
D03*
X718650D02*
D03*
X708650Y913808D02*
D03*
X722040Y925418D02*
D03*
X703650Y927028D02*
D03*
X683650D02*
D03*
X698650Y893808D02*
D03*
X688650Y903808D02*
D03*
X698650D02*
D03*
X478013Y887030D02*
D03*
X813650Y661808D02*
D03*
X873967Y585520D02*
D03*
Y608140D02*
D03*
X962250Y598408D02*
D03*
X963502Y567246D02*
D03*
X966042Y615252D02*
D03*
X962250Y583408D02*
D03*
X828650Y783808D02*
D03*
X838213Y743808D02*
D03*
X808650Y783808D02*
D03*
X818650D02*
D03*
Y763808D02*
D03*
Y773808D02*
D03*
X798650Y783808D02*
D03*
X838650D02*
D03*
X890650Y739028D02*
D03*
X878650Y873808D02*
D03*
X868650Y883808D02*
D03*
X472605Y992935D02*
D03*
X507629D02*
D03*
X478129Y992923D02*
D03*
X1329468Y543504D02*
D03*
X1465358Y544520D02*
D03*
X888620Y879891D02*
D03*
X890650Y729028D02*
D03*
D270*
X1204412Y425814D02*
D03*
Y414814D02*
D03*
X1193412Y425814D02*
D03*
Y414814D02*
D03*
X1139793Y694758D02*
D03*
X1129793D02*
D03*
X1119793D02*
D03*
X1109793D02*
D03*
X1099793D02*
D03*
X1139793Y704758D02*
D03*
X1129793D02*
D03*
X1119793D02*
D03*
X1109793D02*
D03*
X1099793D02*
D03*
X1139793Y714758D02*
D03*
X1129793D02*
D03*
X1119793D02*
D03*
X1109793D02*
D03*
X1099793D02*
D03*
X1139793Y724758D02*
D03*
X1129793D02*
D03*
X1119793D02*
D03*
X1109793D02*
D03*
X1099793D02*
D03*
X1139793Y734758D02*
D03*
X1129793D02*
D03*
X1119793D02*
D03*
X1109793D02*
D03*
X1099793D02*
D03*
D271*
X1092872Y554520D02*
D03*
Y562320D02*
D03*
Y570120D02*
D03*
X1075672D02*
D03*
Y562320D02*
D03*
Y554520D02*
D03*
M02*
