G04*
G04 #@! TF.GenerationSoftware,Altium Limited,Altium Designer,25.6.2 (33)*
G04*
G04 Layer_Physical_Order=7*
G04 Layer_Color=128*
%FSLAX44Y44*%
%MOMM*%
G71*
G04*
G04 #@! TF.SameCoordinates,BA84551B-2C6B-4C85-AED2-EA6E41719757*
G04*
G04*
G04 #@! TF.FilePolarity,Negative*
G04*
G01*
G75*
%ADD15C,0.2540*%
%ADD192C,0.6096*%
%ADD251C,0.5080*%
%ADD255C,0.7620*%
%ADD256C,1.0160*%
%ADD258C,2.1082*%
%ADD259C,3.3020*%
%ADD263C,1.6048*%
%ADD264C,1.9548*%
%ADD265C,3.5560*%
%ADD266C,1.1938*%
%ADD267O,0.8048X1.4548*%
%ADD268O,1.1548X0.8548*%
%ADD269C,0.4826*%
%ADD270C,0.5048*%
%ADD271C,0.6048*%
%ADD275C,3.8048*%
%ADD276C,0.6548*%
D15*
X1057904Y948620D02*
X1115850Y1006566D01*
X1206967D01*
X1278890Y934643D01*
Y842658D02*
Y934643D01*
Y842658D02*
X1313574Y807974D01*
X1392174D01*
X1404464Y820264D01*
Y988216D01*
X1350010Y1042670D02*
X1404464Y988216D01*
X1249934Y1042670D02*
X1350010D01*
X1234948Y1057656D02*
X1249934Y1042670D01*
X1234948Y1057656D02*
Y1128268D01*
X1202182Y1161034D02*
X1234948Y1128268D01*
X1110680Y1161034D02*
X1202182D01*
X1033078Y1083432D02*
X1110680Y1161034D01*
X1033078Y1071428D02*
Y1083432D01*
X398558Y792678D02*
Y917803D01*
X376641Y944720D02*
X398558Y922803D01*
Y917803D02*
Y922803D01*
X304132Y944720D02*
X376641D01*
X286766Y927354D02*
X304132Y944720D01*
X286766Y830854D02*
Y927354D01*
X235946Y780034D02*
X286766Y830854D01*
X129286Y780034D02*
X235946D01*
X65278Y844042D02*
X129286Y780034D01*
X65278Y844042D02*
Y931164D01*
X134818Y1000704D01*
X432848D01*
X1233926Y754690D02*
X1246880Y741736D01*
X1261612D02*
X1266438Y746562D01*
X1259072Y769422D02*
X1266438Y762056D01*
X1246880Y741736D02*
X1261612D01*
X1266438Y746562D02*
Y762056D01*
X1145973Y775281D02*
X1148074Y777382D01*
X1176014Y754690D02*
X1233926D01*
X1170680Y760024D02*
X1176014Y754690D01*
X1259072Y769422D02*
Y920044D01*
X1148074Y777382D02*
Y910154D01*
X1170680Y760024D02*
Y892358D01*
X832898Y417520D02*
X861346D01*
X869220Y409646D01*
X1159542D01*
X822778Y417520D02*
X832898D01*
X823246Y454350D02*
X1222788D01*
X1234472Y379420D02*
Y442666D01*
X1222788Y454350D02*
X1234472Y442666D01*
X1159542Y409646D02*
X1190530Y378658D01*
X811054Y423266D02*
Y443174D01*
X822738Y454858D01*
X823246Y454350D01*
X813752Y420568D02*
X816800Y417520D01*
X811054Y423266D02*
X813752Y420568D01*
X816800Y417520D02*
X822778D01*
X1065778Y792282D02*
Y939856D01*
X1092088Y966166D01*
X1005580Y1071428D02*
X1033078D01*
X745230D02*
X1005580D01*
X1120032Y938196D02*
X1148074Y910154D01*
X1126992Y936046D02*
X1170680Y892358D01*
X1152900Y951540D02*
X1172458Y931982D01*
X1120032Y938196D02*
Y966166D01*
X1126992Y936046D02*
Y988370D01*
X1092088Y966166D02*
Y968050D01*
X1118148D02*
X1120032Y966166D01*
X1092088Y968050D02*
X1118148D01*
X1152900Y951540D02*
Y990240D01*
X1126992Y988370D02*
X1128862Y990240D01*
X1152900D01*
X1247134Y931982D02*
X1259072Y920044D01*
X1172458Y931982D02*
X1247134D01*
X1418742Y709740D02*
Y802076D01*
X1343072D02*
X1418742D01*
Y704152D02*
Y709740D01*
X1299182Y584592D02*
X1418742Y704152D01*
X618522Y944720D02*
X745230Y1071428D01*
X1262808Y721812D02*
X1343072Y802076D01*
X1057904Y755886D02*
X1091978Y721812D01*
X882099Y608782D02*
X1151694D01*
X1082779Y775281D02*
X1145973D01*
X1065778Y792282D02*
X1082779Y775281D01*
X573867Y615132D02*
X599800D01*
X652886Y668218D01*
X398558Y790441D02*
X573867Y615132D01*
X1091978Y721812D02*
X1262808D01*
X1299182Y461294D02*
Y584592D01*
X1151694Y608782D02*
X1299182Y461294D01*
X1190530Y378658D02*
X1233710D01*
X1234472Y379420D01*
X1057904Y755886D02*
Y948620D01*
X1058196Y588716D02*
X1059212Y587700D01*
X432848Y1000704D02*
X560430D01*
X617468Y943666D01*
X652886Y668218D02*
X843566D01*
Y647315D02*
X882099Y608782D01*
X843566Y647315D02*
Y668980D01*
X398558Y790441D02*
Y792678D01*
D192*
X813752Y465701D02*
D03*
Y455701D02*
D03*
Y475701D02*
D03*
X803752D02*
D03*
X793752D02*
D03*
X803752Y455701D02*
D03*
Y465701D02*
D03*
X793752Y455701D02*
D03*
Y465701D02*
D03*
D251*
X1177284Y916080D02*
D03*
X1000760Y1198880D02*
D03*
X985520D02*
D03*
X993140Y1183640D02*
D03*
X970280Y1198880D02*
D03*
X977900Y1183640D02*
D03*
X955040Y1198880D02*
D03*
X962660Y1183640D02*
D03*
X939800Y1198880D02*
D03*
X947420Y1183640D02*
D03*
X924560Y1198880D02*
D03*
X932180Y1183640D02*
D03*
X909320Y1198880D02*
D03*
X916940Y1183640D02*
D03*
X894080Y1198880D02*
D03*
X878840D02*
D03*
X863600D02*
D03*
X848360D02*
D03*
X855980Y1183640D02*
D03*
X833120Y1198880D02*
D03*
X840740Y1183640D02*
D03*
X817880Y1198880D02*
D03*
X825500Y1183640D02*
D03*
X802640Y1198880D02*
D03*
X810260Y1183640D02*
D03*
X787400Y1198880D02*
D03*
X795020Y1183640D02*
D03*
X787400Y1168400D02*
D03*
X772160Y1198880D02*
D03*
X779780Y1183640D02*
D03*
X772160Y1168400D02*
D03*
X779780Y1153160D02*
D03*
X772160Y1137920D02*
D03*
X756920Y1198880D02*
D03*
X764540Y1183640D02*
D03*
X756920Y1168400D02*
D03*
X764540Y1153160D02*
D03*
X756920Y1137920D02*
D03*
X764540Y1122680D02*
D03*
X741680Y1198880D02*
D03*
X749300Y1183640D02*
D03*
X741680Y1168400D02*
D03*
X749300Y1153160D02*
D03*
X741680Y1137920D02*
D03*
X749300Y1122680D02*
D03*
X726440Y1198880D02*
D03*
X734060Y1183640D02*
D03*
X726440Y1168400D02*
D03*
X734060Y1153160D02*
D03*
X726440Y1137920D02*
D03*
X734060Y1122680D02*
D03*
X711200Y1198880D02*
D03*
X718820Y1183640D02*
D03*
X711200Y1168400D02*
D03*
X718820Y1153160D02*
D03*
X711200Y1137920D02*
D03*
X718820Y1122680D02*
D03*
X695960Y1198880D02*
D03*
X703580Y1183640D02*
D03*
X695960Y1168400D02*
D03*
X703580Y1153160D02*
D03*
X695960Y1137920D02*
D03*
X703580Y1122680D02*
D03*
X680720Y1198880D02*
D03*
X688340Y1183640D02*
D03*
X680720Y1168400D02*
D03*
X688340Y1153160D02*
D03*
X680720Y1137920D02*
D03*
X688340Y1122680D02*
D03*
X665480Y1198880D02*
D03*
X673100Y1183640D02*
D03*
X665480Y1168400D02*
D03*
X673100Y1153160D02*
D03*
X665480Y1137920D02*
D03*
X673100Y1122680D02*
D03*
X650240Y1198880D02*
D03*
X657860Y1183640D02*
D03*
X650240Y1168400D02*
D03*
X657860Y1153160D02*
D03*
X650240Y1137920D02*
D03*
X635000Y1198880D02*
D03*
X642620Y1183640D02*
D03*
X635000Y1168400D02*
D03*
X642620Y1153160D02*
D03*
X635000Y1137920D02*
D03*
X619760Y1198880D02*
D03*
X627380Y1183640D02*
D03*
X619760Y1168400D02*
D03*
X627380Y1153160D02*
D03*
X619760Y1137920D02*
D03*
X604520Y1198880D02*
D03*
X612140Y1183640D02*
D03*
X604520Y1168400D02*
D03*
X612140Y1153160D02*
D03*
X604520Y1137920D02*
D03*
X589280Y1198880D02*
D03*
X596900Y1183640D02*
D03*
X589280Y1168400D02*
D03*
X596900Y1153160D02*
D03*
X589280Y1137920D02*
D03*
X596900Y1122680D02*
D03*
X574040Y1198880D02*
D03*
X581660Y1183640D02*
D03*
X574040Y1168400D02*
D03*
X581660Y1153160D02*
D03*
X574040Y1137920D02*
D03*
X581660Y1122680D02*
D03*
X558800Y1198880D02*
D03*
X566420Y1183640D02*
D03*
X558800Y1168400D02*
D03*
X566420Y1153160D02*
D03*
X558800Y1137920D02*
D03*
X566420Y1122680D02*
D03*
X543560Y1198880D02*
D03*
X551180Y1183640D02*
D03*
X543560Y1168400D02*
D03*
X551180Y1153160D02*
D03*
X543560Y1137920D02*
D03*
X551180Y1122680D02*
D03*
X528320Y1198880D02*
D03*
X535940Y1183640D02*
D03*
X528320Y1168400D02*
D03*
X535940Y1153160D02*
D03*
X528320Y1137920D02*
D03*
X535940Y1122680D02*
D03*
X513080Y1198880D02*
D03*
X520700Y1183640D02*
D03*
X513080Y1168400D02*
D03*
X520700Y1153160D02*
D03*
X497840Y1198880D02*
D03*
X505460Y1183640D02*
D03*
X497840Y1168400D02*
D03*
X505460Y1153160D02*
D03*
X482600Y1198880D02*
D03*
X490220Y1183640D02*
D03*
X482600Y1168400D02*
D03*
X467360Y1198880D02*
D03*
X474980Y1183640D02*
D03*
X467360Y1168400D02*
D03*
X452120Y1198880D02*
D03*
X459740Y1183640D02*
D03*
X452120Y1168400D02*
D03*
X436880Y1198880D02*
D03*
X444500Y1183640D02*
D03*
X436880Y1168400D02*
D03*
X421640Y1198880D02*
D03*
X429260Y1183640D02*
D03*
X421640Y1168400D02*
D03*
X406400Y1198880D02*
D03*
X414020Y1183640D02*
D03*
X406400Y1168400D02*
D03*
X391160Y1198880D02*
D03*
X398780Y1183640D02*
D03*
X391160Y1168400D02*
D03*
X375920Y1198880D02*
D03*
X383540Y1183640D02*
D03*
X375920Y1168400D02*
D03*
X360680Y1198880D02*
D03*
X368300Y1183640D02*
D03*
X360680Y1168400D02*
D03*
Y1137920D02*
D03*
Y1016000D02*
D03*
Y985520D02*
D03*
X345440Y1198880D02*
D03*
X353060Y1183640D02*
D03*
X345440Y1168400D02*
D03*
X353060Y1153160D02*
D03*
X345440Y1137920D02*
D03*
X353060Y1122680D02*
D03*
X345440Y1016000D02*
D03*
X353060Y1000760D02*
D03*
X345440Y985520D02*
D03*
Y955040D02*
D03*
X330200Y1198880D02*
D03*
X337820Y1183640D02*
D03*
X330200Y1168400D02*
D03*
X337820Y1153160D02*
D03*
X330200Y1137920D02*
D03*
X337820Y1122680D02*
D03*
X330200Y1016000D02*
D03*
X337820Y1000760D02*
D03*
X330200Y985520D02*
D03*
X337820Y970280D02*
D03*
X330200Y955040D02*
D03*
X314960Y1198880D02*
D03*
X322580Y1183640D02*
D03*
X314960Y1168400D02*
D03*
X322580Y1153160D02*
D03*
X314960Y1137920D02*
D03*
X322580Y1122680D02*
D03*
X314960Y1016000D02*
D03*
X322580Y1000760D02*
D03*
X314960Y985520D02*
D03*
X322580Y970280D02*
D03*
X314960Y955040D02*
D03*
X299720Y1198880D02*
D03*
X307340Y1183640D02*
D03*
X299720Y1168400D02*
D03*
X307340Y1153160D02*
D03*
X299720Y1137920D02*
D03*
X307340Y1122680D02*
D03*
X299720Y1016000D02*
D03*
X307340Y1000760D02*
D03*
X299720Y985520D02*
D03*
X307340Y970280D02*
D03*
X299720Y955040D02*
D03*
X284480Y1198880D02*
D03*
X292100Y1183640D02*
D03*
X284480Y1168400D02*
D03*
X292100Y1153160D02*
D03*
X284480Y1137920D02*
D03*
X292100Y1122680D02*
D03*
X284480Y1016000D02*
D03*
X292100Y1000760D02*
D03*
X284480Y985520D02*
D03*
X292100Y970280D02*
D03*
X284480Y955040D02*
D03*
X276860Y1183640D02*
D03*
X269240Y1168400D02*
D03*
X276860Y1153160D02*
D03*
X269240Y1137920D02*
D03*
X276860Y1122680D02*
D03*
X269240Y1016000D02*
D03*
X276860Y1000760D02*
D03*
X269240Y985520D02*
D03*
X276860Y970280D02*
D03*
X269240Y955040D02*
D03*
X261620Y1183640D02*
D03*
X254000Y1168400D02*
D03*
X261620Y1153160D02*
D03*
X254000Y1137920D02*
D03*
X261620Y1122680D02*
D03*
X254000Y1016000D02*
D03*
X261620Y1000760D02*
D03*
X254000Y985520D02*
D03*
X261620Y970280D02*
D03*
X254000Y955040D02*
D03*
X246380Y1153160D02*
D03*
X238760Y1137920D02*
D03*
X246380Y1122680D02*
D03*
X238760Y1016000D02*
D03*
X246380Y1000760D02*
D03*
X238760Y985520D02*
D03*
X246380Y970280D02*
D03*
X238760Y955040D02*
D03*
X231140Y1153160D02*
D03*
X223520Y1137920D02*
D03*
X231140Y1122680D02*
D03*
X223520Y1107440D02*
D03*
Y1076960D02*
D03*
Y1046480D02*
D03*
Y1016000D02*
D03*
X231140Y1000760D02*
D03*
X223520Y985520D02*
D03*
X231140Y970280D02*
D03*
X223520Y955040D02*
D03*
X1212286Y926394D02*
D03*
X1186872Y907529D02*
D03*
Y920803D02*
D03*
X1132462Y891011D02*
D03*
X1186872Y869512D02*
D03*
X1163728Y875434D02*
D03*
X1186872Y856812D02*
D03*
Y831412D02*
D03*
Y793381D02*
D03*
Y806003D02*
D03*
Y780612D02*
D03*
Y767843D02*
D03*
X900678Y1179886D02*
D03*
X1017010Y1079810D02*
D03*
X900678Y1052886D02*
D03*
X573333Y880810D02*
D03*
X759238Y600478D02*
D03*
X589820Y863036D02*
D03*
X605352Y823605D02*
D03*
X602266Y739028D02*
D03*
X284480Y574040D02*
D03*
X288290Y612140D02*
D03*
X284480Y619760D02*
D03*
X295910Y612140D02*
D03*
X292100Y619760D02*
D03*
X303530Y612140D02*
D03*
X299720Y619760D02*
D03*
X303530Y688340D02*
D03*
X311150Y612140D02*
D03*
X307340Y619760D02*
D03*
X311150Y673100D02*
D03*
X307340Y680720D02*
D03*
X311150Y688340D02*
D03*
X314960Y574040D02*
D03*
X318770Y581660D02*
D03*
Y596900D02*
D03*
Y612140D02*
D03*
X314960Y619760D02*
D03*
X318770Y673100D02*
D03*
X314960Y680720D02*
D03*
X318770Y688340D02*
D03*
X314960Y695960D02*
D03*
X318770Y703580D02*
D03*
X322580Y574040D02*
D03*
Y589280D02*
D03*
X326390Y596900D02*
D03*
Y612140D02*
D03*
X322580Y619760D02*
D03*
Y665480D02*
D03*
X326390Y673100D02*
D03*
X334010Y612140D02*
D03*
X330200Y619760D02*
D03*
Y665480D02*
D03*
X334010Y673100D02*
D03*
X341630Y612140D02*
D03*
X337820Y619760D02*
D03*
Y665480D02*
D03*
X341630Y673100D02*
D03*
X349250Y612140D02*
D03*
X345440Y619760D02*
D03*
Y665480D02*
D03*
X349250Y673100D02*
D03*
X356870Y612140D02*
D03*
X353060Y619760D02*
D03*
Y665480D02*
D03*
X356870Y673100D02*
D03*
X360680Y574040D02*
D03*
X364490Y581660D02*
D03*
X360680Y589280D02*
D03*
X364490Y596900D02*
D03*
Y612140D02*
D03*
X360680Y619760D02*
D03*
Y665480D02*
D03*
X364490Y673100D02*
D03*
X372110Y612140D02*
D03*
X368300Y619760D02*
D03*
Y665480D02*
D03*
X372110Y673100D02*
D03*
X368300Y680720D02*
D03*
X372110Y688340D02*
D03*
X368300Y695960D02*
D03*
X379730Y612140D02*
D03*
X375920Y619760D02*
D03*
Y665480D02*
D03*
X379730Y673100D02*
D03*
X375920Y680720D02*
D03*
X379730Y688340D02*
D03*
X375920Y695960D02*
D03*
X387350Y612140D02*
D03*
X383540Y619760D02*
D03*
Y665480D02*
D03*
X387350Y673100D02*
D03*
X383540Y680720D02*
D03*
X394970Y612140D02*
D03*
X391160Y619760D02*
D03*
Y665480D02*
D03*
X394970Y673100D02*
D03*
X391160Y680720D02*
D03*
X402590Y581660D02*
D03*
Y596900D02*
D03*
Y612140D02*
D03*
X398780Y619760D02*
D03*
Y665480D02*
D03*
X284480Y574040D02*
D03*
X288290Y612140D02*
D03*
X284480Y619760D02*
D03*
X295910Y612140D02*
D03*
X292100Y619760D02*
D03*
X303530Y612140D02*
D03*
X299720Y619760D02*
D03*
X303530Y688340D02*
D03*
X311150Y612140D02*
D03*
X307340Y619760D02*
D03*
X311150Y673100D02*
D03*
X307340Y680720D02*
D03*
X311150Y688340D02*
D03*
X314960Y574040D02*
D03*
X318770Y581660D02*
D03*
Y596900D02*
D03*
Y612140D02*
D03*
X314960Y619760D02*
D03*
X318770Y673100D02*
D03*
X314960Y680720D02*
D03*
X318770Y688340D02*
D03*
X314960Y695960D02*
D03*
X318770Y703580D02*
D03*
X322580Y574040D02*
D03*
Y589280D02*
D03*
X326390Y596900D02*
D03*
Y612140D02*
D03*
X322580Y619760D02*
D03*
Y665480D02*
D03*
X326390Y673100D02*
D03*
X334010Y612140D02*
D03*
X330200Y619760D02*
D03*
Y665480D02*
D03*
X334010Y673100D02*
D03*
X341630Y612140D02*
D03*
X337820Y619760D02*
D03*
Y665480D02*
D03*
X341630Y673100D02*
D03*
X349250Y612140D02*
D03*
X345440Y619760D02*
D03*
Y665480D02*
D03*
X349250Y673100D02*
D03*
X356870Y612140D02*
D03*
X353060Y619760D02*
D03*
Y665480D02*
D03*
X356870Y673100D02*
D03*
X360680Y574040D02*
D03*
X364490Y581660D02*
D03*
X360680Y589280D02*
D03*
X364490Y596900D02*
D03*
Y612140D02*
D03*
X360680Y619760D02*
D03*
Y665480D02*
D03*
X364490Y673100D02*
D03*
X372110Y612140D02*
D03*
X368300Y619760D02*
D03*
Y665480D02*
D03*
X372110Y673100D02*
D03*
X368300Y680720D02*
D03*
X372110Y688340D02*
D03*
X368300Y695960D02*
D03*
X379730Y612140D02*
D03*
X375920Y619760D02*
D03*
Y665480D02*
D03*
X379730Y673100D02*
D03*
X375920Y680720D02*
D03*
X379730Y688340D02*
D03*
X375920Y695960D02*
D03*
X387350Y612140D02*
D03*
X383540Y619760D02*
D03*
Y665480D02*
D03*
X387350Y673100D02*
D03*
X383540Y680720D02*
D03*
X394970Y612140D02*
D03*
X391160Y619760D02*
D03*
Y665480D02*
D03*
X394970Y673100D02*
D03*
X391160Y680720D02*
D03*
X402590Y581660D02*
D03*
Y596900D02*
D03*
Y612140D02*
D03*
X398780Y619760D02*
D03*
Y665480D02*
D03*
X802640Y1066800D02*
D03*
X792480D02*
D03*
X782320D02*
D03*
X772160D02*
D03*
X762000D02*
D03*
X751840D02*
D03*
X741680D02*
D03*
X965200Y660400D02*
D03*
X960120Y670560D02*
D03*
X949960D02*
D03*
X939800D02*
D03*
X934720Y660400D02*
D03*
X929640Y670560D02*
D03*
X924560Y660400D02*
D03*
X919480Y670560D02*
D03*
X914400Y660400D02*
D03*
X838200Y975360D02*
D03*
X833120Y965200D02*
D03*
X838200Y955040D02*
D03*
X833120Y944880D02*
D03*
X828040Y975360D02*
D03*
Y955040D02*
D03*
X822960Y944880D02*
D03*
X817880Y955040D02*
D03*
X812800Y944880D02*
D03*
X807720Y955040D02*
D03*
X802640Y944880D02*
D03*
X797560Y975360D02*
D03*
Y955040D02*
D03*
X792480Y944880D02*
D03*
X787400Y955040D02*
D03*
X782320Y944880D02*
D03*
X777240Y975360D02*
D03*
Y955040D02*
D03*
X772160Y944880D02*
D03*
X767080Y975360D02*
D03*
X762000Y965200D02*
D03*
X767080Y955040D02*
D03*
X762000Y944880D02*
D03*
X756920Y955040D02*
D03*
X751840Y944880D02*
D03*
X746760Y955040D02*
D03*
X741680Y944880D02*
D03*
X783500Y977702D02*
D03*
X1056640Y680720D02*
D03*
X1051560Y690880D02*
D03*
X1046480Y680720D02*
D03*
X1041400Y690880D02*
D03*
X1036320Y680720D02*
D03*
X536348Y860750D02*
D03*
X541348Y857100D02*
D03*
X531348D02*
D03*
X546348Y860750D02*
D03*
X782320Y436880D02*
D03*
X756920Y447040D02*
D03*
X741680Y538480D02*
D03*
X731520D02*
D03*
Y457200D02*
D03*
Y436880D02*
D03*
X721360Y538480D02*
D03*
X726440Y528320D02*
D03*
X721360Y518160D02*
D03*
X726440Y508000D02*
D03*
X721360Y497840D02*
D03*
X726440Y487680D02*
D03*
X721360Y477520D02*
D03*
X726440Y467360D02*
D03*
X721360Y457200D02*
D03*
X726440Y447040D02*
D03*
X1056640Y436880D02*
D03*
X1051560Y447040D02*
D03*
X1046480Y436880D02*
D03*
X1041400Y447040D02*
D03*
X1036320Y436880D02*
D03*
X1041400Y426720D02*
D03*
X1036320Y416560D02*
D03*
X1031240Y447040D02*
D03*
X1026160Y436880D02*
D03*
X1031240Y426720D02*
D03*
X1026160Y416560D02*
D03*
X1021080Y447040D02*
D03*
X1016000Y436880D02*
D03*
X1021080Y426720D02*
D03*
X1016000Y416560D02*
D03*
X1005840Y436880D02*
D03*
X1010920Y426720D02*
D03*
X1005840Y416560D02*
D03*
X995680Y436880D02*
D03*
X1000760Y426720D02*
D03*
X995680Y416560D02*
D03*
X990600Y447040D02*
D03*
X985520Y436880D02*
D03*
X990600Y426720D02*
D03*
X985520Y416560D02*
D03*
X980440Y447040D02*
D03*
X975360Y436880D02*
D03*
X980440Y426720D02*
D03*
X975360Y416560D02*
D03*
X396240Y782320D02*
D03*
X299720Y812800D02*
D03*
X294640Y802640D02*
D03*
X299720Y792480D02*
D03*
X294640Y782320D02*
D03*
X289560Y812800D02*
D03*
X284480Y802640D02*
D03*
X289560Y792480D02*
D03*
X284480Y782320D02*
D03*
X289560Y772160D02*
D03*
X279400Y812800D02*
D03*
X274320Y802640D02*
D03*
X279400Y792480D02*
D03*
X274320Y782320D02*
D03*
X279400Y772160D02*
D03*
X269240Y812800D02*
D03*
X264160Y802640D02*
D03*
X269240Y792480D02*
D03*
X264160Y782320D02*
D03*
X254000Y924560D02*
D03*
Y904240D02*
D03*
Y883920D02*
D03*
Y863600D02*
D03*
Y843280D02*
D03*
Y822960D02*
D03*
X259080Y812800D02*
D03*
X254000Y802640D02*
D03*
X259080Y792480D02*
D03*
X243840Y924560D02*
D03*
X248920Y914400D02*
D03*
X243840Y904240D02*
D03*
X248920Y894080D02*
D03*
X243840Y883920D02*
D03*
X248920Y873760D02*
D03*
Y853440D02*
D03*
X243840Y843280D02*
D03*
X248920Y833120D02*
D03*
X243840Y822960D02*
D03*
X248920Y812800D02*
D03*
X243840Y802640D02*
D03*
X248920Y792480D02*
D03*
X233680Y924560D02*
D03*
X238760Y914400D02*
D03*
X233680Y904240D02*
D03*
X238760Y894080D02*
D03*
Y833120D02*
D03*
X233680Y822960D02*
D03*
X238760Y812800D02*
D03*
X233680Y802640D02*
D03*
X238760Y792480D02*
D03*
X223520Y924560D02*
D03*
X228600Y914400D02*
D03*
X223520Y904240D02*
D03*
X228600Y894080D02*
D03*
Y833120D02*
D03*
X223520Y822960D02*
D03*
X228600Y812800D02*
D03*
X223520Y802640D02*
D03*
X213360Y924560D02*
D03*
X218440Y914400D02*
D03*
X213360Y904240D02*
D03*
X218440Y894080D02*
D03*
Y812800D02*
D03*
X213360Y802640D02*
D03*
X203200Y924560D02*
D03*
X208280Y914400D02*
D03*
Y812800D02*
D03*
X203200Y802640D02*
D03*
X396240Y782320D02*
D03*
X299720Y812800D02*
D03*
X294640Y802640D02*
D03*
X299720Y792480D02*
D03*
X294640Y782320D02*
D03*
X289560Y812800D02*
D03*
X284480Y802640D02*
D03*
X289560Y792480D02*
D03*
X284480Y782320D02*
D03*
X289560Y772160D02*
D03*
X279400Y812800D02*
D03*
X274320Y802640D02*
D03*
X279400Y792480D02*
D03*
X274320Y782320D02*
D03*
X279400Y772160D02*
D03*
X269240Y812800D02*
D03*
X264160Y802640D02*
D03*
X269240Y792480D02*
D03*
X264160Y782320D02*
D03*
X254000Y924560D02*
D03*
Y904240D02*
D03*
Y883920D02*
D03*
Y863600D02*
D03*
Y843280D02*
D03*
Y822960D02*
D03*
X259080Y812800D02*
D03*
X254000Y802640D02*
D03*
X259080Y792480D02*
D03*
X243840Y924560D02*
D03*
X248920Y914400D02*
D03*
X243840Y904240D02*
D03*
X248920Y894080D02*
D03*
X243840Y883920D02*
D03*
X248920Y873760D02*
D03*
Y853440D02*
D03*
X243840Y843280D02*
D03*
X248920Y833120D02*
D03*
X243840Y822960D02*
D03*
X248920Y812800D02*
D03*
X243840Y802640D02*
D03*
X248920Y792480D02*
D03*
X233680Y924560D02*
D03*
X238760Y914400D02*
D03*
X233680Y904240D02*
D03*
X238760Y894080D02*
D03*
Y833120D02*
D03*
X233680Y822960D02*
D03*
X238760Y812800D02*
D03*
X233680Y802640D02*
D03*
X238760Y792480D02*
D03*
X223520Y924560D02*
D03*
X228600Y914400D02*
D03*
X223520Y904240D02*
D03*
X228600Y894080D02*
D03*
Y833120D02*
D03*
X223520Y822960D02*
D03*
X228600Y812800D02*
D03*
X223520Y802640D02*
D03*
X213360Y924560D02*
D03*
X218440Y914400D02*
D03*
X213360Y904240D02*
D03*
X218440Y894080D02*
D03*
Y812800D02*
D03*
X213360Y802640D02*
D03*
X203200Y924560D02*
D03*
X208280Y914400D02*
D03*
Y812800D02*
D03*
X203200Y802640D02*
D03*
X212090Y833120D02*
D03*
Y558800D02*
D03*
X208280Y551180D02*
D03*
X212090Y543560D02*
D03*
Y513080D02*
D03*
X208280Y505460D02*
D03*
X204470Y558800D02*
D03*
X200660Y551180D02*
D03*
X204470Y543560D02*
D03*
Y513080D02*
D03*
X196850Y558800D02*
D03*
X193040Y551180D02*
D03*
X196850Y543560D02*
D03*
Y513080D02*
D03*
X193040Y505460D02*
D03*
X185420Y779780D02*
D03*
Y764540D02*
D03*
Y749300D02*
D03*
Y734060D02*
D03*
Y718820D02*
D03*
Y703580D02*
D03*
Y688340D02*
D03*
Y673100D02*
D03*
X181610Y787400D02*
D03*
X177800Y779780D02*
D03*
X181610Y772160D02*
D03*
X177800Y764540D02*
D03*
X181610Y756920D02*
D03*
X177800Y749300D02*
D03*
X181610Y741680D02*
D03*
X177800Y734060D02*
D03*
X181610Y726440D02*
D03*
X177800Y718820D02*
D03*
X181610Y711200D02*
D03*
X177800Y703580D02*
D03*
X181610Y695960D02*
D03*
X177800Y688340D02*
D03*
X181610Y680720D02*
D03*
X177800Y673100D02*
D03*
X181610Y665480D02*
D03*
X158750Y558800D02*
D03*
X154940Y551180D02*
D03*
X158750Y543560D02*
D03*
Y513080D02*
D03*
X151130Y558800D02*
D03*
X147320Y551180D02*
D03*
X151130Y543560D02*
D03*
Y513080D02*
D03*
X143510Y558800D02*
D03*
X139700Y551180D02*
D03*
X143510Y543560D02*
D03*
Y513080D02*
D03*
X139700Y505460D02*
D03*
X132080Y810260D02*
D03*
Y795020D02*
D03*
X135890Y787400D02*
D03*
X132080Y779780D02*
D03*
X135890Y772160D02*
D03*
X132080Y764540D02*
D03*
X135890Y756920D02*
D03*
X132080Y749300D02*
D03*
X135890Y741680D02*
D03*
X132080Y734060D02*
D03*
X135890Y726440D02*
D03*
X132080Y718820D02*
D03*
X135890Y711200D02*
D03*
X132080Y703580D02*
D03*
X135890Y695960D02*
D03*
X132080Y688340D02*
D03*
X135890Y680720D02*
D03*
X132080Y673100D02*
D03*
X135890Y665480D02*
D03*
X132080Y657860D02*
D03*
X135890Y650240D02*
D03*
X132080Y642620D02*
D03*
X124460Y825500D02*
D03*
X128270Y817880D02*
D03*
X124460Y810260D02*
D03*
X128270Y802640D02*
D03*
X124460Y795020D02*
D03*
X128270Y787400D02*
D03*
X124460Y779780D02*
D03*
X128270Y772160D02*
D03*
X124460Y764540D02*
D03*
X128270Y756920D02*
D03*
X124460Y749300D02*
D03*
X128270Y741680D02*
D03*
X124460Y734060D02*
D03*
X128270Y726440D02*
D03*
X124460Y718820D02*
D03*
X128270Y711200D02*
D03*
X124460Y703580D02*
D03*
X128270Y695960D02*
D03*
X124460Y688340D02*
D03*
X128270Y680720D02*
D03*
X124460Y673100D02*
D03*
X128270Y665480D02*
D03*
X124460Y657860D02*
D03*
X128270Y650240D02*
D03*
X124460Y642620D02*
D03*
X113030Y543560D02*
D03*
Y513080D02*
D03*
X109220Y505460D02*
D03*
X101600Y855980D02*
D03*
Y551180D02*
D03*
X105410Y543560D02*
D03*
Y513080D02*
D03*
X97790Y863600D02*
D03*
X93980Y855980D02*
D03*
X97790Y848360D02*
D03*
Y558800D02*
D03*
X93980Y551180D02*
D03*
X97790Y543560D02*
D03*
Y513080D02*
D03*
X93980Y505460D02*
D03*
X90170Y848360D02*
D03*
X86360Y840740D02*
D03*
X90170Y833120D02*
D03*
X86360Y825500D02*
D03*
X90170Y817880D02*
D03*
X86360Y810260D02*
D03*
X90170Y802640D02*
D03*
X86360Y795020D02*
D03*
X90170Y787400D02*
D03*
X86360Y779780D02*
D03*
X90170Y772160D02*
D03*
X86360Y764540D02*
D03*
X90170Y756920D02*
D03*
X86360Y749300D02*
D03*
X90170Y741680D02*
D03*
X86360Y734060D02*
D03*
X90170Y726440D02*
D03*
X86360Y718820D02*
D03*
X90170Y711200D02*
D03*
X86360Y703580D02*
D03*
X90170Y695960D02*
D03*
X86360Y688340D02*
D03*
X90170Y680720D02*
D03*
X86360Y673100D02*
D03*
X90170Y665480D02*
D03*
X86360Y657860D02*
D03*
X90170Y650240D02*
D03*
X86360Y642620D02*
D03*
X90170Y558800D02*
D03*
X86360Y551180D02*
D03*
X90170Y543560D02*
D03*
X82550Y848360D02*
D03*
X78740Y840740D02*
D03*
X82550Y833120D02*
D03*
X78740Y825500D02*
D03*
X82550Y817880D02*
D03*
X78740Y810260D02*
D03*
X82550Y802640D02*
D03*
X78740Y795020D02*
D03*
X82550Y787400D02*
D03*
X78740Y779780D02*
D03*
X82550Y772160D02*
D03*
X78740Y764540D02*
D03*
X82550Y756920D02*
D03*
X78740Y749300D02*
D03*
X82550Y741680D02*
D03*
X78740Y734060D02*
D03*
X82550Y726440D02*
D03*
X78740Y718820D02*
D03*
X82550Y711200D02*
D03*
X78740Y703580D02*
D03*
X82550Y695960D02*
D03*
X78740Y688340D02*
D03*
X82550Y680720D02*
D03*
X78740Y673100D02*
D03*
X82550Y665480D02*
D03*
X78740Y657860D02*
D03*
X82550Y650240D02*
D03*
X78740Y642620D02*
D03*
X82550Y558800D02*
D03*
X78740Y551180D02*
D03*
X116840Y886460D02*
D03*
X93980D02*
D03*
X86360D02*
D03*
X78740D02*
D03*
X71120Y871220D02*
D03*
X74930Y863600D02*
D03*
X71120Y855980D02*
D03*
X67310Y878840D02*
D03*
X63500Y871220D02*
D03*
X67310Y863600D02*
D03*
X63500Y855980D02*
D03*
X59690Y863600D02*
D03*
X55880Y855980D02*
D03*
X59690Y848360D02*
D03*
X55880Y840740D02*
D03*
X59690Y833120D02*
D03*
X55880Y825500D02*
D03*
X59690Y817880D02*
D03*
X55880Y810260D02*
D03*
X59690Y802640D02*
D03*
X55880Y795020D02*
D03*
X59690Y787400D02*
D03*
X55880Y779780D02*
D03*
X59690Y772160D02*
D03*
X55880Y764540D02*
D03*
X59690Y756920D02*
D03*
X55880Y749300D02*
D03*
X59690Y741680D02*
D03*
X55880Y734060D02*
D03*
X59690Y726440D02*
D03*
X55880Y718820D02*
D03*
X59690Y711200D02*
D03*
X55880Y703580D02*
D03*
X59690Y695960D02*
D03*
X55880Y688340D02*
D03*
X59690Y680720D02*
D03*
X55880Y673100D02*
D03*
X59690Y665480D02*
D03*
X55880Y657860D02*
D03*
X59690Y650240D02*
D03*
X55880Y642620D02*
D03*
X59690Y558800D02*
D03*
X55880Y551180D02*
D03*
X59690Y543560D02*
D03*
Y513080D02*
D03*
X52070Y863600D02*
D03*
X48260Y855980D02*
D03*
X52070Y848360D02*
D03*
X48260Y840740D02*
D03*
X52070Y833120D02*
D03*
X48260Y825500D02*
D03*
X52070Y817880D02*
D03*
X48260Y810260D02*
D03*
X52070Y802640D02*
D03*
X48260Y795020D02*
D03*
X52070Y787400D02*
D03*
X48260Y779780D02*
D03*
X52070Y772160D02*
D03*
X48260Y764540D02*
D03*
X52070Y756920D02*
D03*
X48260Y749300D02*
D03*
X52070Y741680D02*
D03*
X48260Y734060D02*
D03*
X52070Y726440D02*
D03*
X48260Y718820D02*
D03*
X52070Y711200D02*
D03*
X48260Y703580D02*
D03*
X52070Y695960D02*
D03*
X48260Y688340D02*
D03*
X52070Y680720D02*
D03*
X48260Y673100D02*
D03*
X52070Y665480D02*
D03*
X48260Y657860D02*
D03*
X52070Y650240D02*
D03*
X48260Y642620D02*
D03*
X52070Y558800D02*
D03*
X48260Y551180D02*
D03*
X52070Y543560D02*
D03*
Y513080D02*
D03*
X44450Y848360D02*
D03*
X40640Y840740D02*
D03*
X44450Y833120D02*
D03*
X40640Y825500D02*
D03*
X44450Y817880D02*
D03*
X40640Y810260D02*
D03*
X44450Y802640D02*
D03*
X40640Y795020D02*
D03*
X44450Y787400D02*
D03*
X40640Y779780D02*
D03*
X44450Y772160D02*
D03*
X40640Y764540D02*
D03*
X44450Y756920D02*
D03*
X40640Y749300D02*
D03*
X44450Y741680D02*
D03*
X40640Y734060D02*
D03*
X44450Y726440D02*
D03*
X40640Y718820D02*
D03*
X44450Y711200D02*
D03*
X40640Y703580D02*
D03*
X44450Y695960D02*
D03*
X40640Y688340D02*
D03*
X44450Y680720D02*
D03*
X40640Y673100D02*
D03*
X44450Y665480D02*
D03*
X40640Y657860D02*
D03*
X44450Y650240D02*
D03*
X40640Y642620D02*
D03*
X44450Y558800D02*
D03*
X40640Y551180D02*
D03*
X44450Y543560D02*
D03*
Y513080D02*
D03*
X1177284Y826081D02*
D03*
X1103624Y821210D02*
D03*
X1200525Y895628D02*
D03*
X1177284Y902199D02*
D03*
Y889385D02*
D03*
X1042728Y979607D02*
D03*
X1200525Y908631D02*
D03*
X1122420Y912341D02*
D03*
X1179824Y923981D02*
D03*
X1083834D02*
D03*
X1134532Y1024057D02*
D03*
X1141216Y1032312D02*
D03*
X500933Y808936D02*
D03*
X1177284Y775281D02*
D03*
X1199382Y781229D02*
D03*
X1177284Y788050D02*
D03*
X1199382Y794235D02*
D03*
Y806935D02*
D03*
X1177284Y811053D02*
D03*
X1199382Y819553D02*
D03*
X1199868Y883224D02*
D03*
X1199382Y832431D02*
D03*
X1198946Y845035D02*
D03*
Y857735D02*
D03*
X1199509Y870435D02*
D03*
X1177284Y838781D02*
D03*
Y851481D02*
D03*
Y864181D02*
D03*
Y876881D02*
D03*
Y800672D02*
D03*
X502039Y827791D02*
D03*
X501655Y819576D02*
D03*
X501087Y814170D02*
D03*
X498035Y823139D02*
D03*
X498389Y832791D02*
D03*
X566180D02*
D03*
Y822791D02*
D03*
X577675Y823397D02*
D03*
X568702Y827791D02*
D03*
Y837791D02*
D03*
X566180Y842791D02*
D03*
X502039Y837791D02*
D03*
X498389Y842791D02*
D03*
X526348Y860750D02*
D03*
X517305Y859793D02*
D03*
X521508Y856940D02*
D03*
D255*
X804196Y487116D02*
X1017302D01*
X297720Y750006D02*
X518700Y529026D01*
X762286D01*
X804196Y487116D01*
X553842Y603956D02*
X631222D01*
X387128Y770670D02*
X553842Y603956D01*
X1059212Y529026D02*
Y570682D01*
X1017302Y487116D02*
X1059212Y529026D01*
X1019314Y588716D02*
X1058196D01*
X985118Y554520D02*
X1019314Y588716D01*
X1059212Y570682D02*
Y587700D01*
X297720Y924758D02*
X307880Y934918D01*
X368840D01*
X387128Y916630D01*
X960246Y554520D02*
X985118D01*
X954056Y548330D02*
X960246Y554520D01*
X864902Y548330D02*
X954056D01*
X755174Y658058D02*
X864902Y548330D01*
X631222Y603956D02*
X685324Y658058D01*
X755174D01*
X387128Y770670D02*
Y916630D01*
X297720Y750006D02*
Y924758D01*
D256*
X446278Y443484D02*
X631700D01*
X793752Y281432D01*
X1352042D01*
X1384046Y313436D01*
X1471676D01*
X1576324Y418084D01*
Y950976D01*
X1307084Y1220216D02*
X1576324Y950976D01*
X279654Y1220216D02*
X1307084D01*
X13970Y954532D02*
X279654Y1220216D01*
X13462Y954024D02*
X13970Y954532D01*
X13462Y456946D02*
Y954024D01*
Y456946D02*
X432816D01*
X446278Y443484D01*
D258*
X384424Y586789D02*
D03*
X342424D02*
D03*
X300424D02*
D03*
Y641789D02*
D03*
X384424D02*
D03*
X342424D02*
D03*
D259*
X300424Y513789D02*
D03*
X384424D02*
D03*
D263*
X200984Y494284D02*
D03*
X150984D02*
D03*
X100984D02*
D03*
X50984D02*
D03*
D264*
X1293145Y371801D02*
D03*
X1343945D02*
D03*
X1293145Y321001D02*
D03*
X1343945D02*
D03*
X1115599Y371801D02*
D03*
Y321001D02*
D03*
X1064799Y371801D02*
D03*
Y321001D02*
D03*
X983821Y367603D02*
D03*
Y316803D02*
D03*
X933021D02*
D03*
Y367603D02*
D03*
X905640Y367602D02*
D03*
Y316802D02*
D03*
X854840Y367602D02*
D03*
Y316802D02*
D03*
X1090200Y346400D02*
D03*
X880241Y342201D02*
D03*
X958422Y342202D02*
D03*
X1318546Y346400D02*
D03*
D265*
X594251Y497123D02*
D03*
X467251D02*
D03*
D266*
X485031Y588563D02*
D03*
X462171D02*
D03*
X576471D02*
D03*
X525671Y522523D02*
D03*
X535831Y540303D02*
D03*
X505351Y522523D02*
D03*
X495191Y540303D02*
D03*
X566311Y522523D02*
D03*
X545991D02*
D03*
X515511Y540303D02*
D03*
X556151D02*
D03*
X599331Y588563D02*
D03*
D267*
X1393066Y329560D02*
D03*
X1463066D02*
D03*
D268*
X1403066Y356560D02*
D03*
X1453066D02*
D03*
D269*
X1429512Y1045718D02*
D03*
X1402278D02*
D03*
X1356106Y1052576D02*
D03*
X1311147Y1079508D02*
D03*
X1220126Y1059180D02*
D03*
X1442056Y913690D02*
D03*
X1250606Y939475D02*
D03*
X1273423Y897522D02*
D03*
Y907682D02*
D03*
Y887362D02*
D03*
X1240446Y939475D02*
D03*
X1230286D02*
D03*
X1220126D02*
D03*
X1139930Y915528D02*
D03*
Y907528D02*
D03*
X1131975Y899383D02*
D03*
X1426718Y862076D02*
D03*
X1273423Y846722D02*
D03*
Y867042D02*
D03*
Y877202D02*
D03*
Y856882D02*
D03*
X1439926Y813550D02*
D03*
X1273423Y826402D02*
D03*
Y836562D02*
D03*
Y816242D02*
D03*
X1273550Y775602D02*
D03*
Y795922D02*
D03*
Y806082D02*
D03*
Y785762D02*
D03*
X1444276Y752800D02*
D03*
X1273550Y765442D02*
D03*
X1228422Y740720D02*
D03*
X1139845Y875420D02*
D03*
X1132099Y875730D02*
D03*
X1140010Y867485D02*
D03*
X1131834Y859549D02*
D03*
X1140500Y828510D02*
D03*
X1140111Y811723D02*
D03*
X1139930Y795379D02*
D03*
X1092060Y907528D02*
D03*
X1083834Y891883D02*
D03*
X1071198Y913195D02*
D03*
X1071900Y895695D02*
D03*
X1011968Y1179886D02*
D03*
X890650Y919028D02*
D03*
X838650Y913808D02*
D03*
X1083997Y859774D02*
D03*
X1073012Y887759D02*
D03*
X1072762Y870626D02*
D03*
X1071900Y831628D02*
D03*
Y814960D02*
D03*
X1072025Y798193D02*
D03*
X878650Y844634D02*
D03*
Y883808D02*
D03*
X858650Y863808D02*
D03*
X848650Y823998D02*
D03*
X878650Y803808D02*
D03*
X868650Y754451D02*
D03*
X848650Y783808D02*
D03*
X858650Y743808D02*
D03*
X1420146Y652470D02*
D03*
X1253484Y725607D02*
D03*
X1342314Y585678D02*
D03*
X1238582Y740720D02*
D03*
X1218262D02*
D03*
X1208102D02*
D03*
X1505370Y585678D02*
D03*
X1272445Y546044D02*
D03*
X1197942Y740720D02*
D03*
X1168908Y733298D02*
D03*
X1138366Y631320D02*
D03*
X1123072Y661614D02*
D03*
X1109072D02*
D03*
X1100072D02*
D03*
X1451066Y518421D02*
D03*
X1366298Y537271D02*
D03*
X1466628Y505966D02*
D03*
X1237273Y455366D02*
D03*
X1261270Y422854D02*
D03*
X1254919Y402979D02*
D03*
X1227367Y439364D02*
D03*
X1249331Y388373D02*
D03*
X1211739Y353893D02*
D03*
X1191837Y459049D02*
D03*
X1188625Y433989D02*
D03*
X1203085D02*
D03*
X1141127Y493235D02*
D03*
X1110774Y461970D02*
D03*
X1186720Y407106D02*
D03*
X1193412Y346400D02*
D03*
X1167670Y378150D02*
D03*
X1180306Y363291D02*
D03*
X1148249Y403342D02*
D03*
X1132992Y422854D02*
D03*
X1082072Y661614D02*
D03*
X1091072D02*
D03*
X1036501Y718312D02*
D03*
X1023329Y638787D02*
D03*
X1001670Y649963D02*
D03*
X972987Y640080D02*
D03*
X982298Y608154D02*
D03*
X983568Y576150D02*
D03*
X878650Y723808D02*
D03*
X858650Y703808D02*
D03*
X890650Y669028D02*
D03*
X848650Y683808D02*
D03*
X865070Y585520D02*
D03*
X863154Y571350D02*
D03*
X1092740Y528010D02*
D03*
X1005364Y533090D02*
D03*
X987378Y567006D02*
D03*
X970097Y537698D02*
D03*
X1002252Y494348D02*
D03*
X1019228Y470987D02*
D03*
X972987Y459550D02*
D03*
X934872Y522744D02*
D03*
X934537Y473563D02*
D03*
X927824Y522626D02*
D03*
X917038Y522508D02*
D03*
X875913Y537190D02*
D03*
X905377D02*
D03*
X910788Y473564D02*
D03*
X885476Y441396D02*
D03*
X758650Y913808D02*
D03*
X788650D02*
D03*
X718650D02*
D03*
X678650Y913461D02*
D03*
X738650Y903808D02*
D03*
X818650Y893808D02*
D03*
X778650Y883808D02*
D03*
X738650D02*
D03*
X668650Y903808D02*
D03*
X648650Y883808D02*
D03*
X708650D02*
D03*
X698650D02*
D03*
X574967Y966265D02*
D03*
X532803Y1033829D02*
D03*
X522129Y992935D02*
D03*
X633650Y926808D02*
D03*
X548297Y887525D02*
D03*
X507629Y1032813D02*
D03*
X483273Y1003857D02*
D03*
X414185Y996745D02*
D03*
X441490Y950644D02*
D03*
X132334Y978916D02*
D03*
X828650Y863808D02*
D03*
X788650D02*
D03*
Y833808D02*
D03*
X778650Y823808D02*
D03*
X818650Y813808D02*
D03*
X788650D02*
D03*
Y793808D02*
D03*
X778650Y783808D02*
D03*
Y803808D02*
D03*
X768650Y813808D02*
D03*
Y773808D02*
D03*
Y793808D02*
D03*
X748650Y853808D02*
D03*
X758650Y823808D02*
D03*
X748650Y813808D02*
D03*
X738650Y823808D02*
D03*
X698650Y853808D02*
D03*
Y873808D02*
D03*
X748650Y793808D02*
D03*
X758650Y783808D02*
D03*
X748650Y773808D02*
D03*
X738650Y803808D02*
D03*
X698650Y804241D02*
D03*
X738650Y783808D02*
D03*
X818650Y753808D02*
D03*
X788650Y743808D02*
D03*
X828650Y713808D02*
D03*
X788650D02*
D03*
X778460Y763803D02*
D03*
X808650Y683808D02*
D03*
X768650D02*
D03*
X748650Y713808D02*
D03*
X738650Y753808D02*
D03*
X708650D02*
D03*
Y723808D02*
D03*
X759238Y404312D02*
D03*
X728650Y683808D02*
D03*
X694946Y555482D02*
D03*
X668650Y863808D02*
D03*
X688650Y853808D02*
D03*
X648650Y843808D02*
D03*
X688650Y823808D02*
D03*
X439438Y827791D02*
D03*
X484523Y818179D02*
D03*
X479697Y822751D02*
D03*
X434231Y817925D02*
D03*
X110998Y871220D02*
D03*
X82042Y865124D02*
D03*
X109855Y817650D02*
D03*
X678650Y783808D02*
D03*
X668650Y743808D02*
D03*
X648650Y763808D02*
D03*
X638434Y723808D02*
D03*
X678650Y714118D02*
D03*
X688650Y683808D02*
D03*
X653500Y586785D02*
D03*
X633575Y661883D02*
D03*
X599331Y814591D02*
D03*
X503573Y803193D02*
D03*
X421531Y801669D02*
D03*
X583329Y766109D02*
D03*
X473093Y770173D02*
D03*
X1426972Y852830D02*
D03*
X778650Y773808D02*
D03*
X798650Y772740D02*
D03*
X788650Y753808D02*
D03*
X738650Y833808D02*
D03*
X768650Y823808D02*
D03*
X748650D02*
D03*
X788650D02*
D03*
X798650Y833808D02*
D03*
X788650Y803808D02*
D03*
X778650Y813808D02*
D03*
Y793808D02*
D03*
X748650Y803808D02*
D03*
X758650Y793808D02*
D03*
X738650D02*
D03*
X768650Y783808D02*
D03*
X758650Y773808D02*
D03*
X738650D02*
D03*
X748650Y783808D02*
D03*
X738650Y813808D02*
D03*
X758551Y813401D02*
D03*
X728858Y753808D02*
D03*
X657892Y713176D02*
D03*
X1281716Y532836D02*
D03*
X907774Y553596D02*
D03*
X948400Y555166D02*
D03*
X892765Y554418D02*
D03*
X933021Y554520D02*
D03*
X1250098Y548596D02*
D03*
X1242092Y538170D02*
D03*
X1466628Y442666D02*
D03*
X709140Y571350D02*
D03*
X1137412Y1046226D02*
D03*
X1171702Y1059490D02*
D03*
X1169888Y708408D02*
D03*
X213360Y876750D02*
D03*
X208234Y882162D02*
D03*
Y836774D02*
D03*
X121158Y834644D02*
D03*
X122682Y885444D02*
D03*
X127304Y865124D02*
D03*
X125730Y850392D02*
D03*
X213360Y867612D02*
D03*
X217932Y849122D02*
D03*
X532803Y993951D02*
D03*
X1200937Y450286D02*
D03*
X1198658Y456382D02*
D03*
X1198912Y517342D02*
D03*
X1195102Y450286D02*
D03*
X1188879Y517342D02*
D03*
X1169888Y420314D02*
D03*
Y425814D02*
D03*
X931654Y446596D02*
D03*
X940946D02*
D03*
X950294D02*
D03*
X1069135Y504366D02*
D03*
X878650Y743808D02*
D03*
X878461Y752927D02*
D03*
X890623Y749028D02*
D03*
X878650Y793808D02*
D03*
X890623Y768572D02*
D03*
X890650Y779028D02*
D03*
Y799695D02*
D03*
Y788361D02*
D03*
X878650Y783808D02*
D03*
X868620Y813838D02*
D03*
X868650Y783808D02*
D03*
Y793808D02*
D03*
Y803808D02*
D03*
Y743808D02*
D03*
X858806Y754070D02*
D03*
X868620Y763808D02*
D03*
X858650Y773808D02*
D03*
X868650D02*
D03*
X838650Y793808D02*
D03*
X848650D02*
D03*
X858650D02*
D03*
X838650Y803808D02*
D03*
X848650D02*
D03*
X858650D02*
D03*
X838650Y813808D02*
D03*
X858650D02*
D03*
X838650Y773808D02*
D03*
X1132123Y811223D02*
D03*
X1100136Y813147D02*
D03*
X1122420Y814861D02*
D03*
X1085143Y818750D02*
D03*
X1132251Y819765D02*
D03*
X1083813Y843711D02*
D03*
X1071900Y847695D02*
D03*
X890598Y817377D02*
D03*
X1091965Y803862D02*
D03*
X1122420Y806527D02*
D03*
X890650Y809028D02*
D03*
X1084450Y810815D02*
D03*
X878973Y813485D02*
D03*
X838715Y823998D02*
D03*
X868650D02*
D03*
X878650Y824379D02*
D03*
X890650Y828202D02*
D03*
X878650Y833808D02*
D03*
X890170Y839508D02*
D03*
X868650Y843808D02*
D03*
X858650D02*
D03*
X889483Y849028D02*
D03*
Y859028D02*
D03*
X878650Y853808D02*
D03*
X858650D02*
D03*
X868650D02*
D03*
X878650Y863808D02*
D03*
X868650D02*
D03*
X889483Y869028D02*
D03*
X838650Y893808D02*
D03*
X858650Y903371D02*
D03*
X868650Y903808D02*
D03*
X1092262Y900196D02*
D03*
X878650Y893808D02*
D03*
Y903808D02*
D03*
X886676Y891834D02*
D03*
X889501Y899050D02*
D03*
X1084107Y907241D02*
D03*
X1092168Y891862D02*
D03*
X1122420Y887695D02*
D03*
Y896006D02*
D03*
Y903808D02*
D03*
X878650Y913808D02*
D03*
X863650Y927028D02*
D03*
X853650D02*
D03*
X890650Y909028D02*
D03*
X1131834Y907528D02*
D03*
X1122420Y920803D02*
D03*
X1131975Y915528D02*
D03*
X1091900D02*
D03*
X828650Y703808D02*
D03*
X818650Y693808D02*
D03*
X808650D02*
D03*
X818650Y703808D02*
D03*
Y713808D02*
D03*
X808650D02*
D03*
X653575Y661883D02*
D03*
X688650Y713808D02*
D03*
X698650Y693808D02*
D03*
X668650D02*
D03*
X688650Y703808D02*
D03*
X698650D02*
D03*
Y713808D02*
D03*
X748650Y753808D02*
D03*
X758650D02*
D03*
X728650Y733808D02*
D03*
X738650D02*
D03*
X758650D02*
D03*
X738650Y743808D02*
D03*
X748650D02*
D03*
X728650Y813808D02*
D03*
X708650D02*
D03*
X793575Y661883D02*
D03*
X798650Y683808D02*
D03*
X818650D02*
D03*
X783575Y661883D02*
D03*
X803575D02*
D03*
X758650Y683808D02*
D03*
X723575Y661883D02*
D03*
X708650Y713808D02*
D03*
X718650Y693808D02*
D03*
X728650D02*
D03*
X738650D02*
D03*
X718650Y703808D02*
D03*
X708650D02*
D03*
X738650D02*
D03*
X718650Y713808D02*
D03*
X748650Y703808D02*
D03*
X753575Y661883D02*
D03*
X708650Y804241D02*
D03*
X728650Y803808D02*
D03*
X718650Y804241D02*
D03*
X698650Y723808D02*
D03*
X728650Y713808D02*
D03*
X738650D02*
D03*
X758650D02*
D03*
X718650Y723808D02*
D03*
X728650D02*
D03*
X738650D02*
D03*
X748650D02*
D03*
X788650Y703808D02*
D03*
Y693808D02*
D03*
Y723808D02*
D03*
X798650Y703808D02*
D03*
Y723808D02*
D03*
Y693808D02*
D03*
X808650Y723808D02*
D03*
X798650Y713808D02*
D03*
X878650Y733808D02*
D03*
Y703808D02*
D03*
X858650Y723808D02*
D03*
X808650Y813808D02*
D03*
Y793808D02*
D03*
X818650D02*
D03*
X828650D02*
D03*
X798650Y803808D02*
D03*
X828650D02*
D03*
X808650D02*
D03*
X818650D02*
D03*
X688650Y803193D02*
D03*
X678650Y813808D02*
D03*
X688650D02*
D03*
X628174Y586938D02*
D03*
X778650Y833808D02*
D03*
X818650Y903808D02*
D03*
X828650D02*
D03*
X808650D02*
D03*
X753650Y927028D02*
D03*
X813650Y926808D02*
D03*
X763650Y927028D02*
D03*
X838650Y843808D02*
D03*
X768650D02*
D03*
X728650Y853808D02*
D03*
X798650Y863808D02*
D03*
X758650Y853808D02*
D03*
X838650D02*
D03*
X788650D02*
D03*
X768650D02*
D03*
X738650Y863808D02*
D03*
X768650D02*
D03*
X808650Y873808D02*
D03*
X728858Y914016D02*
D03*
X758650Y903808D02*
D03*
X768650Y913808D02*
D03*
X758650Y843808D02*
D03*
X768650Y833808D02*
D03*
X728213D02*
D03*
X748650D02*
D03*
X728650Y873808D02*
D03*
X788650D02*
D03*
Y893808D02*
D03*
Y883808D02*
D03*
X798650D02*
D03*
X778465Y893371D02*
D03*
X808650Y893808D02*
D03*
X1122420Y879361D02*
D03*
Y863808D02*
D03*
X1131898Y867503D02*
D03*
X1131834Y883528D02*
D03*
X1122420Y855872D02*
D03*
Y823808D02*
D03*
X1132507Y826736D02*
D03*
X1132075Y835277D02*
D03*
X1122420Y839028D02*
D03*
X1132574Y843212D02*
D03*
X1122021Y847913D02*
D03*
X1131834Y794331D02*
D03*
X1083997Y883528D02*
D03*
X1091930Y859774D02*
D03*
X1092262Y868019D02*
D03*
X1084148Y875194D02*
D03*
X1092262Y875528D02*
D03*
X1091930Y883528D02*
D03*
X1071900Y863195D02*
D03*
X1084148Y827483D02*
D03*
X1091965Y827862D02*
D03*
X1084209Y835419D02*
D03*
X1092283Y835798D02*
D03*
X1092716Y843945D02*
D03*
X1092088Y851880D02*
D03*
X1094240Y789251D02*
D03*
X1140509Y843733D02*
D03*
X1189768Y636722D02*
D03*
X1143540Y616402D02*
D03*
X1138366Y622320D02*
D03*
X1073072Y661614D02*
D03*
X1242346Y623768D02*
D03*
X1261463Y568596D02*
D03*
X678650Y823808D02*
D03*
X718650Y863808D02*
D03*
Y873808D02*
D03*
X708650D02*
D03*
X718650Y883808D02*
D03*
X708650Y893148D02*
D03*
X713650Y927028D02*
D03*
X678650Y903808D02*
D03*
X708650D02*
D03*
X718650D02*
D03*
X708650Y913808D02*
D03*
X722040Y925418D02*
D03*
X703650Y927028D02*
D03*
X683650D02*
D03*
X698650Y893808D02*
D03*
X688650Y903808D02*
D03*
X698650D02*
D03*
X478013Y887030D02*
D03*
X813650Y661808D02*
D03*
X873967Y585520D02*
D03*
Y608140D02*
D03*
X962250Y598408D02*
D03*
X963502Y567246D02*
D03*
X966042Y615252D02*
D03*
X962250Y583408D02*
D03*
X828650Y783808D02*
D03*
X838213Y743808D02*
D03*
X808650Y783808D02*
D03*
X818650D02*
D03*
Y763808D02*
D03*
Y773808D02*
D03*
X798650Y783808D02*
D03*
X838650D02*
D03*
X890650Y739028D02*
D03*
X878650Y873808D02*
D03*
X868650Y883808D02*
D03*
X472605Y992935D02*
D03*
X507629D02*
D03*
X478129Y992923D02*
D03*
X1329468Y543504D02*
D03*
X1465358Y544520D02*
D03*
X888620Y879891D02*
D03*
X890650Y729028D02*
D03*
D270*
X1139032Y1000816D02*
D03*
X1129532Y995066D02*
D03*
Y1006566D02*
D03*
X1120032Y1000816D02*
D03*
X1053078Y948620D02*
D03*
Y958620D02*
D03*
X1033078D02*
D03*
X1043078D02*
D03*
X1033078Y948620D02*
D03*
X1043078D02*
D03*
X1219388Y592096D02*
D03*
Y603096D02*
D03*
X1208388D02*
D03*
Y592096D02*
D03*
X1219388Y570096D02*
D03*
Y581096D02*
D03*
X1208388D02*
D03*
Y570096D02*
D03*
X1219388Y559096D02*
D03*
X1208388D02*
D03*
X1197388Y592096D02*
D03*
Y603096D02*
D03*
Y570096D02*
D03*
Y581096D02*
D03*
Y559096D02*
D03*
X1186388Y570096D02*
D03*
Y581096D02*
D03*
Y559096D02*
D03*
X1175388Y603096D02*
D03*
X1186388D02*
D03*
X1175388Y592096D02*
D03*
X1186388D02*
D03*
X1175388Y570096D02*
D03*
Y559096D02*
D03*
Y581096D02*
D03*
X1000680Y666659D02*
D03*
Y676659D02*
D03*
Y656659D02*
D03*
X990680D02*
D03*
Y666659D02*
D03*
Y676659D02*
D03*
X942274Y611908D02*
D03*
Y622908D02*
D03*
Y600908D02*
D03*
Y589908D02*
D03*
Y578908D02*
D03*
X931274Y611908D02*
D03*
Y622908D02*
D03*
Y600908D02*
D03*
X920274Y611908D02*
D03*
Y622908D02*
D03*
Y600908D02*
D03*
X931274Y578908D02*
D03*
Y589908D02*
D03*
X909274Y622908D02*
D03*
X898274D02*
D03*
X909274Y611908D02*
D03*
X898274D02*
D03*
X909274Y600908D02*
D03*
Y589908D02*
D03*
X898274D02*
D03*
Y600908D02*
D03*
X920274Y578908D02*
D03*
Y589908D02*
D03*
X909274Y578908D02*
D03*
X898274D02*
D03*
X522129Y961803D02*
D03*
Y950803D02*
D03*
Y928803D02*
D03*
Y939803D02*
D03*
Y917803D02*
D03*
X511129Y961803D02*
D03*
X500129D02*
D03*
X489129D02*
D03*
X478129D02*
D03*
X511129Y939803D02*
D03*
Y950803D02*
D03*
Y928803D02*
D03*
X500129D02*
D03*
Y939803D02*
D03*
Y950803D02*
D03*
X489129Y928803D02*
D03*
X500129Y917803D02*
D03*
X489129D02*
D03*
X511129D02*
D03*
X478129Y950803D02*
D03*
X489129D02*
D03*
X478129Y939803D02*
D03*
X489129D02*
D03*
X478129Y917803D02*
D03*
Y928803D02*
D03*
X178640Y891774D02*
D03*
Y880774D02*
D03*
Y902774D02*
D03*
X167640D02*
D03*
X156640D02*
D03*
X167640Y891774D02*
D03*
Y880774D02*
D03*
X156640Y891774D02*
D03*
Y880774D02*
D03*
X178640Y869774D02*
D03*
X167640D02*
D03*
X156640D02*
D03*
X178640Y858774D02*
D03*
X156640D02*
D03*
X167640Y847774D02*
D03*
Y858774D02*
D03*
X178640Y847774D02*
D03*
Y825774D02*
D03*
Y836774D02*
D03*
X167640D02*
D03*
X156640Y825774D02*
D03*
X167640D02*
D03*
X156640Y847774D02*
D03*
Y836774D02*
D03*
X167640Y814774D02*
D03*
X156640D02*
D03*
X178640D02*
D03*
X1204412Y425814D02*
D03*
Y414814D02*
D03*
X1193412Y425814D02*
D03*
Y414814D02*
D03*
X594251Y621176D02*
D03*
X531767Y633065D02*
D03*
X1139793Y694758D02*
D03*
X1129793D02*
D03*
X1119793D02*
D03*
X1109793D02*
D03*
X1099793D02*
D03*
X1139793Y704758D02*
D03*
X1129793D02*
D03*
X1119793D02*
D03*
X1109793D02*
D03*
X1099793D02*
D03*
X1139793Y714758D02*
D03*
X1129793D02*
D03*
X1119793D02*
D03*
X1109793D02*
D03*
X1099793D02*
D03*
X1139793Y724758D02*
D03*
X1129793D02*
D03*
X1119793D02*
D03*
X1109793D02*
D03*
X1099793D02*
D03*
X1139793Y734758D02*
D03*
X1129793D02*
D03*
X1119793D02*
D03*
X1109793D02*
D03*
X1099793D02*
D03*
D271*
X1065635Y478887D02*
D03*
X1085635D02*
D03*
X1075635D02*
D03*
X1085635Y468887D02*
D03*
X1075635D02*
D03*
X1065635D02*
D03*
X1085635Y458887D02*
D03*
X1075635D02*
D03*
X1065635D02*
D03*
X1092872Y554520D02*
D03*
Y562320D02*
D03*
Y570120D02*
D03*
X1075672D02*
D03*
Y562320D02*
D03*
Y554520D02*
D03*
D275*
X586845Y928803D02*
D03*
X945345Y697403D02*
D03*
D276*
X544548Y835991D02*
D03*
Y825291D02*
D03*
X533848D02*
D03*
Y835991D02*
D03*
Y814591D02*
D03*
X544548D02*
D03*
X523148Y835991D02*
D03*
Y825291D02*
D03*
Y814591D02*
D03*
M02*
