G04*
G04 #@! TF.GenerationSoftware,Altium Limited,Altium Designer,25.6.2 (33)*
G04*
G04 Layer_Color=128*
%FSLAX44Y44*%
%MOMM*%
G71*
G04*
G04 #@! TF.SameCoordinates,BA84551B-2C6B-4C85-AED2-EA6E41719757*
G04*
G04*
G04 #@! TF.FilePolarity,Positive*
G04*
G01*
G75*
G04:AMPARAMS|DCode=40|XSize=0.508mm|YSize=0.508mm|CornerRadius=0.1524mm|HoleSize=0mm|Usage=FLASHONLY|Rotation=90.000|XOffset=0mm|YOffset=0mm|HoleType=Round|Shape=RoundedRectangle|*
%AMROUNDEDRECTD40*
21,1,0.5080,0.2032,0,0,90.0*
21,1,0.2032,0.5080,0,0,90.0*
1,1,0.3048,0.1016,0.1016*
1,1,0.3048,0.1016,-0.1016*
1,1,0.3048,-0.1016,-0.1016*
1,1,0.3048,-0.1016,0.1016*
%
%ADD40ROUNDEDRECTD40*%
G04:AMPARAMS|DCode=41|XSize=1.397mm|YSize=1.0922mm|CornerRadius=0.2021mm|HoleSize=0mm|Usage=FLASHONLY|Rotation=270.000|XOffset=0mm|YOffset=0mm|HoleType=Round|Shape=RoundedRectangle|*
%AMROUNDEDRECTD41*
21,1,1.3970,0.6881,0,0,270.0*
21,1,0.9929,1.0922,0,0,270.0*
1,1,0.4041,-0.3440,-0.4964*
1,1,0.4041,-0.3440,0.4964*
1,1,0.4041,0.3440,0.4964*
1,1,0.4041,0.3440,-0.4964*
%
%ADD41ROUNDEDRECTD41*%
G04:AMPARAMS|DCode=42|XSize=0.889mm|YSize=0.8636mm|CornerRadius=0.1511mm|HoleSize=0mm|Usage=FLASHONLY|Rotation=90.000|XOffset=0mm|YOffset=0mm|HoleType=Round|Shape=RoundedRectangle|*
%AMROUNDEDRECTD42*
21,1,0.8890,0.5613,0,0,90.0*
21,1,0.5867,0.8636,0,0,90.0*
1,1,0.3023,0.2807,0.2934*
1,1,0.3023,0.2807,-0.2934*
1,1,0.3023,-0.2807,-0.2934*
1,1,0.3023,-0.2807,0.2934*
%
%ADD42ROUNDEDRECTD42*%
G04:AMPARAMS|DCode=44|XSize=0.508mm|YSize=0.508mm|CornerRadius=0.1524mm|HoleSize=0mm|Usage=FLASHONLY|Rotation=0.000|XOffset=0mm|YOffset=0mm|HoleType=Round|Shape=RoundedRectangle|*
%AMROUNDEDRECTD44*
21,1,0.5080,0.2032,0,0,0.0*
21,1,0.2032,0.5080,0,0,0.0*
1,1,0.3048,0.1016,-0.1016*
1,1,0.3048,-0.1016,-0.1016*
1,1,0.3048,-0.1016,0.1016*
1,1,0.3048,0.1016,0.1016*
%
%ADD44ROUNDEDRECTD44*%
G04:AMPARAMS|DCode=52|XSize=1.8034mm|YSize=1.1938mm|CornerRadius=0.203mm|HoleSize=0mm|Usage=FLASHONLY|Rotation=0.000|XOffset=0mm|YOffset=0mm|HoleType=Round|Shape=RoundedRectangle|*
%AMROUNDEDRECTD52*
21,1,1.8034,0.7879,0,0,0.0*
21,1,1.3975,1.1938,0,0,0.0*
1,1,0.4059,0.6988,-0.3940*
1,1,0.4059,-0.6988,-0.3940*
1,1,0.4059,-0.6988,0.3940*
1,1,0.4059,0.6988,0.3940*
%
%ADD52ROUNDEDRECTD52*%
%ADD55C,2.1590*%
G04:AMPARAMS|DCode=57|XSize=1.8034mm|YSize=1.1938mm|CornerRadius=0.203mm|HoleSize=0mm|Usage=FLASHONLY|Rotation=90.000|XOffset=0mm|YOffset=0mm|HoleType=Round|Shape=RoundedRectangle|*
%AMROUNDEDRECTD57*
21,1,1.8034,0.7879,0,0,90.0*
21,1,1.3975,1.1938,0,0,90.0*
1,1,0.4059,0.3940,0.6988*
1,1,0.4059,0.3940,-0.6988*
1,1,0.4059,-0.3940,-0.6988*
1,1,0.4059,-0.3940,0.6988*
%
%ADD57ROUNDEDRECTD57*%
G04:AMPARAMS|DCode=68|XSize=1.397mm|YSize=1.0922mm|CornerRadius=0.2021mm|HoleSize=0mm|Usage=FLASHONLY|Rotation=180.000|XOffset=0mm|YOffset=0mm|HoleType=Round|Shape=RoundedRectangle|*
%AMROUNDEDRECTD68*
21,1,1.3970,0.6881,0,0,180.0*
21,1,0.9929,1.0922,0,0,180.0*
1,1,0.4041,-0.4964,0.3440*
1,1,0.4041,0.4964,0.3440*
1,1,0.4041,0.4964,-0.3440*
1,1,0.4041,-0.4964,-0.3440*
%
%ADD68ROUNDEDRECTD68*%
G04:AMPARAMS|DCode=78|XSize=0.889mm|YSize=0.8636mm|CornerRadius=0.1511mm|HoleSize=0mm|Usage=FLASHONLY|Rotation=0.000|XOffset=0mm|YOffset=0mm|HoleType=Round|Shape=RoundedRectangle|*
%AMROUNDEDRECTD78*
21,1,0.8890,0.5613,0,0,0.0*
21,1,0.5867,0.8636,0,0,0.0*
1,1,0.3023,0.2934,-0.2807*
1,1,0.3023,-0.2934,-0.2807*
1,1,0.3023,-0.2934,0.2807*
1,1,0.3023,0.2934,0.2807*
%
%ADD78ROUNDEDRECTD78*%
G04:AMPARAMS|DCode=79|XSize=0.889mm|YSize=0.7874mm|CornerRadius=0.1535mm|HoleSize=0mm|Usage=FLASHONLY|Rotation=270.000|XOffset=0mm|YOffset=0mm|HoleType=Round|Shape=RoundedRectangle|*
%AMROUNDEDRECTD79*
21,1,0.8890,0.4803,0,0,270.0*
21,1,0.5819,0.7874,0,0,270.0*
1,1,0.3071,-0.2402,-0.2910*
1,1,0.3071,-0.2402,0.2910*
1,1,0.3071,0.2402,0.2910*
1,1,0.3071,0.2402,-0.2910*
%
%ADD79ROUNDEDRECTD79*%
G04:AMPARAMS|DCode=211|XSize=2.26mm|YSize=2.16mm|CornerRadius=0.54mm|HoleSize=0mm|Usage=FLASHONLY|Rotation=0.000|XOffset=0mm|YOffset=0mm|HoleType=Round|Shape=RoundedRectangle|*
%AMROUNDEDRECTD211*
21,1,2.2600,1.0800,0,0,0.0*
21,1,1.1800,2.1600,0,0,0.0*
1,1,1.0800,0.5900,-0.5400*
1,1,1.0800,-0.5900,-0.5400*
1,1,1.0800,-0.5900,0.5400*
1,1,1.0800,0.5900,0.5400*
%
%ADD211ROUNDEDRECTD211*%
%ADD282R,1.5000X1.9000*%
D40*
X1148462Y923854D02*
D03*
X1156181Y875528D02*
D03*
X1150106Y851303D02*
D03*
X1333659Y646086D02*
D03*
X1216819Y439364D02*
D03*
X1186847Y428696D02*
D03*
X1187101Y419806D02*
D03*
X887094Y602100D02*
D03*
X865077Y578422D02*
D03*
X534454Y977303D02*
D03*
Y947303D02*
D03*
X533184Y922803D02*
D03*
X534454Y907303D02*
D03*
X441490Y959407D02*
D03*
X694819Y547862D02*
D03*
X145161Y863346D02*
D03*
X145083Y853978D02*
D03*
X854361Y936950D02*
D03*
X854205Y946578D02*
D03*
X543344Y947303D02*
D03*
Y907303D02*
D03*
Y977303D02*
D03*
X542074Y922803D02*
D03*
X432600Y959407D02*
D03*
X703709Y547862D02*
D03*
X1160266Y708918D02*
D03*
X1151376D02*
D03*
X863095Y946578D02*
D03*
X136271Y863346D02*
D03*
X136193Y853978D02*
D03*
X1177957Y428696D02*
D03*
X1207929Y439364D02*
D03*
X1178211Y419806D02*
D03*
X878204Y602100D02*
D03*
X873967Y578422D02*
D03*
X863251Y936950D02*
D03*
X1043299Y971352D02*
D03*
X1052189D02*
D03*
X1141216Y851303D02*
D03*
X1147291Y875528D02*
D03*
X1198658Y547314D02*
D03*
X1207548D02*
D03*
X1179735Y547314D02*
D03*
X1188625D02*
D03*
X1139572Y923854D02*
D03*
X1063149Y557474D02*
D03*
X1054259D02*
D03*
X1342549Y646086D02*
D03*
D41*
X1140708Y957890D02*
D03*
X1157726D02*
D03*
X1103497Y982020D02*
D03*
X1103243Y959414D02*
D03*
X852075Y914016D02*
D03*
X1231678Y568596D02*
D03*
X1250855Y422854D02*
D03*
X1245782Y402979D02*
D03*
X1159161D02*
D03*
X849789Y732988D02*
D03*
X958803Y459550D02*
D03*
X932036Y543805D02*
D03*
X853774Y559555D02*
D03*
X880825Y426276D02*
D03*
X749713Y893808D02*
D03*
X700141Y821179D02*
D03*
X771273Y643620D02*
D03*
X759111Y697682D02*
D03*
X695141Y743516D02*
D03*
X188468Y847774D02*
D03*
X732695Y893808D02*
D03*
X717159Y821179D02*
D03*
X776129Y697682D02*
D03*
X712159Y743516D02*
D03*
X949054Y543805D02*
D03*
X754255Y643620D02*
D03*
X205486Y847774D02*
D03*
X1233837Y422854D02*
D03*
X1228764Y402979D02*
D03*
X1176179D02*
D03*
X897843Y426276D02*
D03*
X941785Y459550D02*
D03*
X1248696Y568596D02*
D03*
X866807Y732988D02*
D03*
X870792Y559555D02*
D03*
X869093Y914016D02*
D03*
X1120261Y959414D02*
D03*
X1120515Y982020D02*
D03*
D42*
X1082378Y785582D02*
D03*
X881640Y761079D02*
D03*
X1155069Y737108D02*
D03*
X1189768Y612592D02*
D03*
X1211739Y364308D02*
D03*
X1193412Y356815D02*
D03*
X414185Y987982D02*
D03*
X830104Y823031D02*
D03*
X788650Y781301D02*
D03*
X718650Y837141D02*
D03*
X768650Y753054D02*
D03*
X683650Y866315D02*
D03*
X657892Y835298D02*
D03*
X678650Y706752D02*
D03*
X633650Y696315D02*
D03*
X605314Y808400D02*
D03*
X788650Y766315D02*
D03*
X718650Y852127D02*
D03*
X1155069Y722122D02*
D03*
X768650Y738068D02*
D03*
X683650Y881301D02*
D03*
X414185Y972996D02*
D03*
X657892Y850284D02*
D03*
X678650Y721738D02*
D03*
X605314Y793414D02*
D03*
X633650Y711301D02*
D03*
X1211739Y379294D02*
D03*
X1193412Y371801D02*
D03*
X1189768Y627578D02*
D03*
X830104Y838017D02*
D03*
X1082378Y800567D02*
D03*
X881640Y776066D02*
D03*
D44*
X1157487Y898275D02*
D03*
X1148074Y911973D02*
D03*
Y893830D02*
D03*
X1099411Y904515D02*
D03*
Y886566D02*
D03*
X1150106Y867640D02*
D03*
X1152581Y831006D02*
D03*
X1147675Y793748D02*
D03*
X1077716Y911027D02*
D03*
X1077571Y894605D02*
D03*
X1064000Y887669D02*
D03*
Y868664D02*
D03*
Y849772D02*
D03*
Y831690D02*
D03*
X858650Y828824D02*
D03*
X848840Y840189D02*
D03*
X1064000Y813473D02*
D03*
X863650Y788253D02*
D03*
X1195394Y432760D02*
D03*
X927774Y570603D02*
D03*
X912774D02*
D03*
X890096Y574485D02*
D03*
X1070025Y485628D02*
D03*
X955882Y556959D02*
D03*
X950446Y429589D02*
D03*
X940946D02*
D03*
X931654Y429678D02*
D03*
X909146Y398717D02*
D03*
X890096D02*
D03*
X899748D02*
D03*
X512629Y903943D02*
D03*
X836162Y899363D02*
D03*
X512629Y895053D02*
D03*
X890096Y565595D02*
D03*
X912774Y561713D02*
D03*
X927774D02*
D03*
X1054386Y577032D02*
D03*
X836162Y908253D02*
D03*
X1195394Y441650D02*
D03*
X1099411Y913405D02*
D03*
X1064000Y804583D02*
D03*
Y822800D02*
D03*
Y840882D02*
D03*
Y859774D02*
D03*
Y878779D02*
D03*
X1077571Y903495D02*
D03*
X1099411Y895456D02*
D03*
X1109358Y836376D02*
D03*
Y845266D02*
D03*
X1077716Y919917D02*
D03*
X1148074Y903083D02*
D03*
X1109479Y855329D02*
D03*
Y864219D02*
D03*
X1148074Y884940D02*
D03*
X1150106Y858750D02*
D03*
X1157487Y889385D02*
D03*
X950446Y438479D02*
D03*
X931654Y438568D02*
D03*
X909146Y407607D02*
D03*
X899748D02*
D03*
X890096D02*
D03*
X940946Y438479D02*
D03*
X955882Y565849D02*
D03*
X1070025Y494518D02*
D03*
X1147675Y802638D02*
D03*
X1152581Y822116D02*
D03*
X1188752Y528137D02*
D03*
Y537027D02*
D03*
X1198658Y528137D02*
D03*
Y537027D02*
D03*
X848840Y849079D02*
D03*
X1054386Y568142D02*
D03*
X858650Y819934D02*
D03*
X863650Y779363D02*
D03*
D52*
X1012240Y1192078D02*
D03*
Y1112322D02*
D03*
X904996Y1158804D02*
D03*
X1123220Y647136D02*
D03*
X1310926Y399379D02*
D03*
X1338866D02*
D03*
X882936Y684220D02*
D03*
X783500Y994085D02*
D03*
X823754Y854908D02*
D03*
X771176Y473908D02*
D03*
X743998Y473654D02*
D03*
X661993Y787191D02*
D03*
X657590Y724550D02*
D03*
X1012240Y1141278D02*
D03*
Y1163122D02*
D03*
X904996Y1129848D02*
D03*
X1338866Y428335D02*
D03*
X1310926D02*
D03*
X661993Y816147D02*
D03*
X657590Y753506D02*
D03*
X783500Y965129D02*
D03*
X771176Y444952D02*
D03*
X743998Y444698D02*
D03*
X823754Y883864D02*
D03*
X882936Y713176D02*
D03*
X1123220Y618180D02*
D03*
D55*
X1314482Y619069D02*
D03*
X1416082Y460319D02*
D03*
X1289082D02*
D03*
X1390682Y619069D02*
D03*
X1365282Y460319D02*
D03*
X1416082Y619069D02*
D03*
X1365282D02*
D03*
X1339882D02*
D03*
X1289082D02*
D03*
Y587319D02*
D03*
D57*
X1432458Y652470D02*
D03*
X1303560D02*
D03*
X1267962Y679394D02*
D03*
X1205988Y652470D02*
D03*
X1098328Y644342D02*
D03*
X845725D02*
D03*
X628936Y894024D02*
D03*
X778128Y869028D02*
D03*
X799274Y437549D02*
D03*
X698278Y680664D02*
D03*
X1403502Y652470D02*
D03*
X749172Y869028D02*
D03*
X816769Y644342D02*
D03*
X657892Y894024D02*
D03*
X669322Y680664D02*
D03*
X828230Y437549D02*
D03*
X1069372Y644342D02*
D03*
X1239006Y679394D02*
D03*
X1234944Y652470D02*
D03*
X1274604D02*
D03*
D68*
X1179735Y459049D02*
D03*
X954715Y641454D02*
D03*
X797084Y921970D02*
D03*
X532803Y1023034D02*
D03*
X507629Y1022018D02*
D03*
X484622Y895399D02*
D03*
X722040Y775299D02*
D03*
X559199Y882060D02*
D03*
X686340Y775299D02*
D03*
X633575Y745299D02*
D03*
X954715Y658472D02*
D03*
X797084Y904952D02*
D03*
X559199Y865042D02*
D03*
X686340Y792317D02*
D03*
X722040D02*
D03*
X633575Y762317D02*
D03*
X196088Y867283D02*
D03*
Y884301D02*
D03*
X532803Y1006016D02*
D03*
X1179735Y442031D02*
D03*
X484622Y878381D02*
D03*
X507629Y1005000D02*
D03*
D78*
X851157Y875194D02*
D03*
X848227Y766234D02*
D03*
X1420654Y742752D02*
D03*
X1170083Y612338D02*
D03*
X1226725Y455366D02*
D03*
X1143540Y422854D02*
D03*
X848227Y693808D02*
D03*
X813467Y823605D02*
D03*
X793147Y844634D02*
D03*
X770993Y803808D02*
D03*
X749713Y843808D02*
D03*
X816143Y743808D02*
D03*
X816261Y729028D02*
D03*
X761011Y723808D02*
D03*
X754130Y763808D02*
D03*
X589482Y848388D02*
D03*
X148463Y877062D02*
D03*
X145459Y839663D02*
D03*
X778161Y844634D02*
D03*
X1405668Y742752D02*
D03*
X831247Y729028D02*
D03*
X833241Y693808D02*
D03*
X801157Y743808D02*
D03*
X775997Y723808D02*
D03*
X574496Y848388D02*
D03*
X739144Y763808D02*
D03*
X756007Y803808D02*
D03*
X798481Y823605D02*
D03*
X734727Y843808D02*
D03*
X133477Y877062D02*
D03*
X130473Y839663D02*
D03*
X1158526Y422854D02*
D03*
X1211739Y455366D02*
D03*
X1155097Y612338D02*
D03*
X866143Y875194D02*
D03*
X833241Y766234D02*
D03*
D79*
X717171Y547862D02*
D03*
X733173D02*
D03*
D211*
X244888Y638870D02*
D03*
X200984Y577712D02*
D03*
X150622Y577458D02*
D03*
X101346D02*
D03*
X49706Y577204D02*
D03*
X244888Y589870D02*
D03*
X200984Y528712D02*
D03*
X150622Y528458D02*
D03*
X101346D02*
D03*
X49706Y528204D02*
D03*
D282*
X483273Y1017999D02*
D03*
X432473Y975999D02*
D03*
Y1017999D02*
D03*
X457873Y975999D02*
D03*
X483273D02*
D03*
X457873Y1017999D02*
D03*
M02*
